<svg height="511pt" viewBox="-6 0 511 511.99953" width="511pt" xmlns="http://www.w3.org/2000/svg" xmlns:xlink="http://www.w3.org/1999/xlink"><linearGradient id="a"><stop offset="0" stop-color="#45425a"/><stop offset="1" stop-color="#2d3251"/></linearGradient><linearGradient id="b" gradientUnits="userSpaceOnUse" x1="106.9693259346" x2="352.1610108982" xlink:href="#a" y1="231.5241230322" y2="356.8443086454"/><linearGradient id="c" gradientUnits="userSpaceOnUse" x1="213.0195299344" x2="431.3732676798" y1="319.470099645" y2="410.6812321706"><stop offset="0" stop-color="#ecf7ff"/><stop offset="1" stop-color="#c2e0ff"/></linearGradient><linearGradient id="d" gradientUnits="userSpaceOnUse" x1="126.1662220264" x2="163.353299966" xlink:href="#a" y1="161.275584612" y2="198.4626625516"/><linearGradient id="e" gradientUnits="userSpaceOnUse" x1="337.1802860298" x2="374.3673639694" xlink:href="#a" y1="161.275584612" y2="198.4626625516"/><linearGradient id="f" gradientUnits="userSpaceOnUse" x1="337.2071911394" x2="213.8645310818" y1="324.3688374362" y2="201.0260769864"><stop offset=".0029" stop-color="#c2e0ff" stop-opacity="0"/><stop offset=".0763" stop-color="#bfdcfd" stop-opacity=".07451"/><stop offset="1" stop-color="#9eb2e7"/></linearGradient><linearGradient id="g" gradientUnits="userSpaceOnUse" x1="243.3766253314" x2="261.0175427154" y1="230.5280316238" y2="248.1689490078"><stop offset="0" stop-color="#ffc738"/><stop offset=".2447" stop-color="#ffc331"/><stop offset=".5988" stop-color="#ffb81e"/><stop offset="1" stop-color="#ffa700"/></linearGradient><path d="m20.855469 512h459.472656c11.964844 0 21.402344-10.285156 20.261719-22.199219-4.347656-45.335937-20.75-87.152343-45.957032-122.203125-30.160156-41.9375-40.515624-95.171875-28.578124-145.425781 3.03125-12.757813 4.707031-26.042969 4.863281-39.695313 1.15625-99.5-79.523438-181.773437-179.03125-182.47265575-100.195313-.70312525-181.636719 80.30468775-181.636719 180.33593775 0 14.554687 1.726562 28.707031 4.980469 42.261718 12.027343 50.074219 1.386719 103.1875-28.683594 145-25.207031 35.054688-41.605469 76.867188-45.953125 122.199219-1.140625 11.914063 8.296875 22.199219 20.261719 22.199219zm0 0" fill="url(#b)"/><path d="m401.886719 365.652344c-28.789063-29.410156-35.117188-73.878906-17.34375-110.996094 9.285156-19.382812 14.480469-41.09375 14.480469-64.019531 0-15.128907-2.261719-29.730469-6.46875-43.484375-15.066407-49.238282-87.648438-38.453125-87.648438 13.039062l6.433594 48.082032c2.226562 16.640624-7.75 32.496093-23.714844 37.691406l-11.757812 3.824218c-16.425782 5.34375-34.125 5.34375-50.550782 0l-11.761718-3.828124c-15.960938-5.191407-25.9375-21.042969-23.714844-37.683594l6.4375-48.132813c0-50.984375-72.15625-62.53125-87.375-13.871093-4.632813 14.804687-7.003906 30.605468-6.722656 47 .386718 22.113281 5.671874 43.082031 14.820312 61.871093 17.988281 36.964844 10.496094 81.519531-18.171875 110.984375-36.722656 37.75-59.480469 89.152344-59.941406 145.871094h423.410156c-.464844-56.960938-23.414063-108.554688-60.410156-146.347656zm0 0" fill="url(#c)"/><path d="m165.183594 180.195312c0-15.265624-8.996094-27.640624-20.101563-27.640624-11.101562 0-20.101562 12.375-20.101562 27.640624 0 15.261719 9 27.636719 20.101562 27.636719 11.105469 0 20.101563-12.375 20.101563-27.636719zm0 0" fill="url(#d)"/><path d="m376.199219 180.195312c0-15.265624-9-27.640624-20.101563-27.640624-11.101562 0-20.101562 12.375-20.101562 27.640624 0 15.261719 9 27.636719 20.101562 27.636719 11.101563 0 20.101563-12.375 20.101563-27.636719zm0 0" fill="url(#e)"/><path d="m401.886719 365.652344c-20.640625-21.085938-29.730469-49.914063-26.675781-78.226563l-57.972657-57.972656c-1.660156-2.398437-3.761719-4.535156-6.273437-6.273437-.203125-.296876-.433594-.574219-.648438-.859376-3.078125 10.894532-11.363281 19.957032-22.691406 23.644532l-11.757812 3.824218c-16.425782 5.34375-34.125 5.34375-50.554688 0l-11.757812-3.828124c-11.339844-3.6875-19.628907-12.765626-22.699219-23.675782-7.933594 10.445313-7.148438 26.464844 4.664062 35.601563l.96875.75c1.425781 2.015625 3.183594 3.882812 5.308594 5.527343l.964844.746094 246.886719 247.089844h12.648437c-.464844-56.960938-23.414063-108.554688-60.410156-146.347656zm0 0" fill="url(#f)"/><path d="m228.882812 283.695312-33.363281-25.804687c-16.355469-12.652344-11.582031-38.492187 8.210938-44.46875l8.558593-2.582031c24.976563-7.542969 51.628907-7.542969 76.605469 0l8.554688 2.582031c19.792969 5.976563 24.566406 31.816406 8.214843 44.46875l-33.363281 25.804687c-12.785156 9.890626-30.636719 9.890626-43.417969 0zm0 0" fill="url(#g)"/></svg>