<svg xmlns="http://www.w3.org/2000/svg" id="Capa_1" enable-background="new 0 0 512 512" height="512" viewBox="0 0 512 512" width="512" class="coalition-flag--icon" style="fill: rgb(255, 255, 255);"><g><g><g><g><g><g><g><path d="m346.359 202.638c-.122-.488 14.557-10.266 26.763-18.302 6.904-4.545 6.02-14.934-1.55-18.254l-19.875-8.717c-6.721-2.948-8.374-11.732-3.185-16.921l18.087-18.087c5.879-5.879 2.849-15.937-5.299-17.591l-27.873-5.656c-5.427-1.101-9.046-6.252-8.243-11.731l4.462-30.428c1.103-7.522-5.955-13.657-13.25-11.518l-25.471 7.47c-6.314 1.852-12.743-2.536-13.32-9.091l-2.357-26.775c-.714-8.109-10.03-12.309-16.579-7.474l-30.488 22.508c-3.681 2.718-8.704 2.718-12.385 0l-30.487-22.507c-6.549-4.835-15.865-.635-16.579 7.474l-2.357 26.775c-.577 6.554-7.006 10.942-13.32 9.091l-25.471-7.47c-7.295-2.139-14.353 3.996-13.25 11.518l4.462 30.428c.803 5.479-2.816 10.63-8.243 11.731l-27.873 5.656c-8.148 1.653-11.178 11.712-5.299 17.591l18.087 18.087c5.189 5.189 3.536 13.973-3.185 16.921l-19.875 8.717c-7.57 3.32-8.454 13.709-1.55 18.254 12.206 8.036 26.885 17.814 26.763 18.302l-4.973 19.891c-1.366 5.465 1.663 11.07 6.984 12.92l28.54 9.927c.355.123.703.266 1.042.427l19.06 9.038c1.396.662 2.922 1.006 4.467 1.006h69.25 69.25c1.545 0 3.071-.343 4.467-1.006l19.06-9.038c.339-.161.687-.303 1.042-.427l28.539-9.927c5.321-1.851 8.35-7.455 6.984-12.92z" fill="#f2f9ff"></path><g><g><g><g><path d="m314.591 372.854s-35.234-44.911-35.234-44.911c-6.552-.85-11.456-6.424-11.456-13.03v-60.097h-91.823v60.097c0 6.606-4.905 12.18-11.456 13.03s-35.234 44.911-35.234 44.911z" fill="#ffddce"></path><path d="m309.01 170.969c-3.068 0-5.554-2.487-5.554-5.554v-.968-15.591c0-22.014-9.037-43.345-25.719-57.709-13.078-11.262-31.463-21.091-55.748-21.362-24.285.271-42.669 10.1-55.748 21.362-16.682 14.364-25.719 35.695-25.719 57.709v15.591.968c0 3.068-2.487 5.554-5.554 5.554-8.143 0-14.744 6.601-14.744 14.744v16.339c0 8.143 6.601 14.744 14.744 14.744 3.049 0 5.602 2.321 5.871 5.358 1.723 19.446 10.518 37.809 25.403 50.625 13.079 11.261 31.463 21.091 55.748 21.362 24.285-.271 42.669-10.1 55.748-21.362 14.884-12.816 23.68-31.18 25.403-50.625.269-3.037 2.822-5.358 5.871-5.358 8.143 0 14.744-6.601 14.744-14.744v-16.339c-.002-8.143-6.603-14.744-14.746-14.744z" fill="#ffddce"></path><g><path d="m309.01 170.969c-3.068 0-5.554-2.487-5.554-5.555v-.968-15.591c0-22.014-9.037-43.345-25.719-57.709-4.513-3.886-9.673-7.588-15.473-10.799l-.017 136.449c-.459 21.399-9.452 41.995-25.697 55.983-9.088 7.825-20.744 14.95-35.154 18.666 6.328 1.632 13.183 2.613 20.593 2.696 24.285-.271 42.669-10.1 55.748-21.362 14.884-12.816 23.68-31.18 25.403-50.625.269-3.037 2.822-5.358 5.871-5.358 8.143 0 14.744-6.601 14.744-14.745v-16.339c-.001-8.142-6.602-14.743-14.745-14.743z" fill="#ffcbbe"></path></g><path d="m359.59 345.854c-20.998-9.349-60.692-15.376-80.233-17.912-3.937-.511-7.269-2.734-9.31-5.856-12.292 8.561-28.2 15.176-48.058 15.398-19.858-.222-35.765-6.837-48.058-15.398-2.041 3.121-5.373 5.345-9.31 5.856-19.541 2.536-59.235 8.563-80.233 17.912-23.065 10.269-37.926 33.153-37.926 58.401v78.288c0 12.126 9.83 21.957 21.957 21.957h307.141c12.126 0 21.957-9.83 21.957-21.957v-78.288c-.001-25.248-14.862-48.131-37.927-58.401z" fill="#ccf49f"></path></g></g></g></g><g><path d="m359.59 345.854c-20.998-9.349-60.692-15.376-80.233-17.912-2.875-.373-5.427-1.66-7.39-3.542v180.1h103.592c12.126 0 21.956-9.83 21.956-21.957v-78.288c.001-25.248-14.86-48.131-37.925-58.401z" fill="#f1f1f4"></path><path d="m359.59 345.854c-20.998-9.349-60.692-15.376-80.233-17.912-2.875-.373-5.427-1.66-7.39-3.542v56.75c15.032 2.996 30.262 6.848 40.791 11.536 23.065 10.27 37.926 33.153 37.926 58.401v53.413h24.876c12.126 0 21.956-9.83 21.956-21.957v-78.288c0-25.248-14.861-48.131-37.926-58.401z" fill="#dfeaef"></path><path d="m164.621 327.942c-19.541 2.536-59.235 8.563-80.233 17.912-23.065 10.27-37.926 33.153-37.926 58.401v78.288c0 12.126 9.83 21.957 21.956 21.957h103.335v-179.86c-1.926 1.752-4.381 2.945-7.132 3.302z" fill="#f1f1f4"></path><g fill="#d0e2e7"><path d="m314.327 349.089c5.201-7.612 3.28-17.995-4.3-23.243l-42.127-29.166v18.233c0 1.536.265 3.016.755 4.395 1.975 5.561 3.275 11.339 3.287 17.24l.169 136.221 26.115-49.153c1.028-2.67 2.53-5.133 4.433-7.27l9.874-11.087c7.281-8.175 8.038-20.265 1.835-29.285-5.565-8.093-5.582-18.775-.041-26.885z"></path><path d="m176.077 314.912v-18.432l-42.384 29.366c-7.58 5.248-9.501 15.631-4.3 23.243 5.541 8.11 5.525 18.792-.041 26.885-6.203 9.02-5.446 21.11 1.835 29.285l9.874 11.087c1.903 2.137 3.405 4.599 4.433 7.27l26.115 49.154.169-136.221c.012-5.901 1.312-11.032 3.287-16.593.587-1.653 1.012-2.54 1.012-5.044z"></path></g></g></g></g><path d="m279.264 143.922h-114.528c-13.373 0-24.214 10.841-24.214 24.214v4.521c0 13.373 10.841 24.214 24.214 24.214h29.294c5.13 0 9.906-2.617 12.667-6.941l5.317-8.328c4.658-7.295 15.312-7.295 19.97 0l5.317 8.328c2.761 4.324 7.537 6.941 12.667 6.941h29.294c13.373 0 24.214-10.841 24.214-24.214v-4.521c.002-13.373-10.839-24.214-24.212-24.214z" fill="#d1ecf9"></path></g><g><g><g><g><g><g><g><g><g><path d="m418.076 406.869v-28.276h-41.121v28.276c0 2.659-.778 5.259-2.239 7.48l-42.517 64.657c-7.194 10.941.653 25.494 13.748 25.494h103.137c13.094 0 20.942-14.553 13.748-25.494l-42.517-64.657c-1.46-2.221-2.239-4.821-2.239-7.48z" fill="#eff2f4"></path><path d="m420.886 388.052h-46.741c-3.627 0-6.568-2.94-6.568-6.568v-12.787c0-3.627 2.94-6.567 6.568-6.567h46.741c3.627 0 6.568 2.94 6.568 6.567v12.787c0 3.628-2.941 6.568-6.568 6.568z" fill="#d1ecf9"></path></g></g></g><path d="m449.084 504.5c13.094 0 20.942-14.553 13.748-25.494l-27.271-41.472-.006-.001c-6.374 0-6.174 3.138-12.548 3.138s-6.374-3.146-12.748-3.146c-6.373 0-6.373 3.146-12.746 3.146s-6.373-3.146-12.747-3.146c-6.373 0-6.373 3.146-12.746 3.146s-6.172-3.146-12.545-3.146l-27.276 41.48c-7.194 10.941.653 25.494 13.748 25.494h103.137z" fill="#df75a5"></path><path d="m373.753 504.5h75.332c13.094 0 20.942-14.553 13.748-25.494l-27.271-41.472-.006-.001c-6.374 0-6.174 3.138-12.548 3.138s-6.374-3.146-12.748-3.146c-6.373 0-6.373 3.146-12.746 3.146s-6.373-3.146-12.747-3.146c-6.373 0-6.373 3.146-12.746 3.146-6.109 0-6.178-2.891-11.786-3.13l27.266 41.465c7.194 10.941-.654 25.494-13.748 25.494z" fill="#dd5790"></path></g></g></g></g></g></g></g><path d="m279.264 143.922h-17.008l-.006 52.949h17.015c13.373 0 24.214-10.841 24.214-24.214v-4.521c-.001-13.373-10.842-24.214-24.215-24.214z" fill="#b1e4f9"></path></g></g><path d="m466.883 471.517c-2.276-3.461-6.927-4.422-10.387-2.147-3.461 2.275-4.422 6.926-2.147 10.387.775 1.769 5.98 6.3 2.616 12.539-1.588 2.945-4.535 4.704-7.881 4.704h-103.137c-7.135 0-11.4-7.913-7.481-13.873l24.388-37.089c1.866.934 4.606 2.133 9.167 2.133 4.936 0 7.799-1.413 9.693-2.348 2.235-1.104 3.866-1.107 6.107 0 6.408 3.164 12.973 3.166 19.386 0 2.235-1.104 3.866-1.107 6.108 0 1.894.935 4.756 2.348 9.693 2.348 4.565 0 7.306-1.2 9.171-2.131l2.864 4.356c1.441 2.191 3.833 3.38 6.273 3.38 1.414 0 2.844-.399 4.114-1.234 3.461-2.276 4.422-6.926 2.146-10.387l-20.994-31.926c-.658-1.001-1.006-2.163-1.006-3.36v-12.139c5.454-1.937 9.378-7.136 9.378-13.246v-12.787c0-7.757-6.311-14.067-14.068-14.067h-35.934c-6.374-6.611-13.861-11.864-22.313-15.628-9.524-4.24-23.424-8.218-41.354-11.836-1.719-2.886-4.059-5.458-6.989-7.487l-38.896-26.929v-8.602c8.592-6.173 15.453-12.844 21.394-21.701.722-.236 1.434-.501 2.125-.829 22.587-10.704 13.48-7.283 47.892-19.085 9.048-3.147 14.118-12.529 11.795-21.823l-3.776-15.106c3.276-2.281 9.726-6.651 22.415-15.005 11.854-7.804 10.34-25.683-2.661-31.386l-19.875-8.717c-1.89-.828-2.355-3.288-.894-4.749l18.088-18.087c10.097-10.099 4.879-27.405-9.112-30.244l-27.873-5.656c-1.523-.309-2.539-1.755-2.314-3.292l4.462-30.427c1.898-12.934-10.253-23.482-22.781-19.803l-25.472 7.47c-1.78.52-3.578-.714-3.739-2.552l-2.357-26.775c-1.228-13.947-17.237-21.167-28.505-12.849l-30.487 22.507c-1.04.767-2.437.768-3.476 0l-30.486-22.508c-11.259-8.314-27.275-1.105-28.504 12.849l-2.357 26.776c-.105 1.2-.838 1.869-1.265 2.16s-1.315.728-2.474.391l-25.471-7.47c-12.546-3.681-24.676 6.88-22.781 19.803l4.462 30.427c.226 1.538-.791 2.984-2.313 3.293l-27.873 5.656c-13.994 2.839-19.208 20.147-9.111 30.244l18.087 18.087c1.462 1.462.995 3.921-.894 4.75l-19.875 8.717c-12.997 5.701-14.519 23.58-2.661 31.386 12.69 8.355 19.139 12.724 22.415 15.005l-3.778 15.105c-2.323 9.293 2.747 18.675 11.796 21.823 32.981 11.48 25.5 8.222 47.889 19.084.692.328 1.405.594 2.127.83 5.941 8.856 12.802 15.528 21.395 21.701v8.404l-39.154 27.129c-2.95 2.043-5.302 4.636-7.024 7.546-17.788 3.602-31.591 7.559-41.062 11.776-25.742 11.461-42.374 37.075-42.374 65.253v78.288c0 16.242 13.214 29.456 29.456 29.456h380.666c8.819 0 16.898-4.822 21.083-12.584 7.894-14.64-2.967-27.044-3.285-27.899zm-46.93-39.143c-6.408-3.164-12.973-3.166-19.386 0-2.235 1.104-3.866 1.107-6.107 0-6.388-3.152-12.947-3.177-19.386 0-1.282.633-1.785.908-3.746.777l9.653-14.68c2.272-3.454 3.473-7.467 3.473-11.602v-11.318h26.121v11.318c0 4.134 1.201 8.146 3.473 11.601l9.654 14.681c-2.03.135-2.589-.204-3.749-.777zm.001-51.822h-44.876v-10.922h44.876zm-54.527-22.874c-3.253 2.579-5.349 6.555-5.349 11.019v12.787c0 6.11 3.923 11.309 9.377 13.246v12.139c0 1.198-.348 2.359-1.006 3.36l-15.19 23.1c-.003.004-.005.008-.008.012l-27.319 41.545c-4.353 6.62-5.113 14.876-2.19 22.114h-44.132v-22.363c.875-1.658 27.026-51.481 28.649-53.304l9.875-11.087c9.604-10.783 10.596-26.625 2.414-38.522-3.781-5.498-3.792-12.894-.028-18.404 2.146-3.14 3.446-6.617 3.958-10.157 13.84 3.021 24.602 6.221 32.062 9.543 3.137 1.397 6.097 3.068 8.887 4.972zm-59.668-25.665c4.175 2.89 5.241 8.653 2.376 12.845-7.234 10.587-7.212 24.8.054 35.365 4.258 6.192 3.742 14.435-1.256 20.047l-9.875 11.088c-3.022 3.395-2.279 2.463-17.484 31.38l-.131-106.207c-.015-6.799-1.517-13.53-3.72-19.734-.214-.602-.322-1.236-.322-1.885v-3.918zm-44.914-12.917c-24.196 14.416-53.428 14.454-77.677.023.252-1.154.409-2.47.409-4.206v-18.521c0-.004 0-.007 0-.011v-3.396c11.881 5.59 24.694 8.505 38.328 8.657h.083s.056 0 .083 0c13.634-.152 26.447-3.067 38.329-8.657v21.927c.001 1.415.161 2.812.445 4.184zm-158.751-90.73c-1.666-.58-2.6-2.307-2.172-4.018l4.973-19.891c1.28-5.119-2.535-7.853-5.32-9.85-5.546-3.976-18.877-12.771-24.595-16.535-1.946-1.281-1.696-4.186.438-5.122l19.874-8.717c11.53-5.057 14.405-20.164 5.475-29.093l-18.087-18.087c-1.652-1.653-.816-4.47 1.487-4.938l27.873-5.656c9.327-1.893 15.553-10.752 14.172-20.169l-4.462-30.427c-.311-2.118 1.665-3.834 3.719-3.233l25.472 7.47c5.175 1.518 10.696.644 15.15-2.395s7.279-7.863 7.751-13.234l2.357-26.775c.202-2.292 2.813-3.455 4.653-2.098l30.489 22.508c6.368 4.7 14.925 4.701 21.293 0l30.488-22.508c1.85-1.363 4.452-.185 4.654 2.098l2.357 26.775c.993 11.278 12.056 18.812 22.902 15.63l25.472-7.47c2.055-.601 4.029 1.115 3.719 3.233l-4.462 30.428c-1.381 9.417 4.844 18.276 14.172 20.168l27.873 5.656c2.277.462 3.156 3.269 1.487 4.938l-18.087 18.087c-8.901 8.9-6.09 24.019 5.475 29.092l19.875 8.717c2.133.935 2.384 3.84.438 5.122-5.728 3.771-19.04 12.553-24.595 16.535-2.784 1.995-6.596 4.728-5.32 9.85l4.973 19.891c.428 1.711-.506 3.439-2.172 4.018-31.835 11.113-28.399 9.605-34.929 12.841 1.707-5.443 2.903-11.113 3.515-16.958 11.587-.755 20.783-10.423 20.783-22.197v-16.339c0-11.611-8.94-21.172-20.299-22.16v-14.698c0-50.83-42.153-86.047-88.883-86.57-.057-.001-.111-.001-.168 0-46.593.521-88.883 35.617-88.883 86.57v14.698c-11.357.989-20.298 10.55-20.298 22.16v16.339c0 11.774 9.196 21.441 20.783 22.197.613 5.845 1.809 11.515 3.516 16.958-7.089-3.435-1.99-1.343-34.926-12.841zm45.928-60.23c0-9.216 7.498-16.714 16.714-16.714h114.528c9.216 0 16.714 7.498 16.714 16.714v4.521c0 9.216-7.498 16.714-16.714 16.714h-29.295c-6.302 0-7.475-6.36-11.663-11.805-7.612-11.923-25.014-11.901-32.612 0-4.193 5.451-5.361 11.805-11.663 11.805h-29.294c-9.217 0-16.714-7.498-16.714-16.714v-4.521zm.435-27.204c4.217-38.82 38.198-63.216 73.531-63.646 35.258.429 69.291 24.681 73.529 63.632-4.757-2.851-10.316-4.495-16.254-4.495h-114.527c-5.948-.001-11.517 1.648-16.279 4.509zm-.148 80.561c-.616-6.953-6.351-12.196-13.341-12.196-3.995 0-7.244-3.25-7.244-7.244v-16.339c0-3.523 2.529-6.463 5.866-7.109 2.792 14.653 15.693 25.766 31.147 25.766h29.294c16.485 0 21.034-15.035 24.306-18.732 1.707-2.673 5.616-2.681 7.328 0 3.225 3.645 7.802 18.732 24.306 18.732h29.295c15.453 0 28.352-11.112 31.146-25.763 3.327.654 5.845 3.59 5.845 7.106v16.339c0 3.995-3.25 7.244-7.244 7.244-6.99 0-12.726 5.243-13.341 12.196-3.509 39.614-37.768 64.712-73.68 65.148-35.758-.433-70.152-25.299-73.683-65.148zm-10.345 110.518 30.613-21.211v4.112c0 2.691-4.275 9.868-4.299 21.625l-.038 30.706c-.005 4.142 3.349 7.504 7.491 7.509h.009c4.138 0 7.494-3.352 7.5-7.491l.038-30.699c.002-.792.041-1.577.1-2.363 25.583 13.657 56.844 15.039 84.978.126.05.751.085 1.496.087 2.231l.168 136.221v24.223h-85.502v-24.223l.087-70.266c.005-4.142-3.349-7.504-7.491-7.509-.003 0-.006 0-.009 0-4.138 0-7.494 3.352-7.5 7.491l-.05 40.245c-15.065-28.652-14.44-27.963-17.484-31.38l-9.874-11.088c-4.998-5.611-5.515-13.855-1.256-20.047 7.266-10.565 7.288-24.778.054-35.365-2.865-4.192-1.798-9.955 2.378-12.847zm-84.002 150.533v-78.288c0-22.261 13.14-42.496 33.477-51.55 7.414-3.301 18.091-6.483 31.812-9.488.517 3.522 1.816 6.979 3.95 10.103 3.765 5.51 3.753 12.906-.028 18.404-8.182 11.898-7.189 27.74 2.414 38.522l9.875 11.088c1.623 1.822 27.647 51.404 28.648 53.303v22.362h-95.691c-7.972 0-14.457-6.485-14.457-14.456z"></path></g></svg>