<?xml version="1.0" standalone="no"?>
<!DOCTYPE svg PUBLIC "-//W3C//DTD SVG 20010904//EN"
 "http://www.w3.org/TR/2001/REC-SVG-20010904/DTD/svg10.dtd">
<svg version="1.0" xmlns="http://www.w3.org/2000/svg"
 width="413.000000pt" height="424.000000pt" viewBox="0 0 413.000000 424.000000"
 preserveAspectRatio="xMidYMid meet">

<g transform="translate(0.000000,424.000000) scale(0.100000,-0.100000)"
fill="#000000" stroke="none">
<path d="M2050 4184 c-14 -3 -61 -13 -105 -24 -44 -10 -116 -22 -160 -26 -88
-7 -191 -35 -243 -65 -18 -10 -54 -20 -80 -20 -60 -3 -109 -20 -180 -64 -31
-19 -91 -46 -132 -61 -99 -34 -162 -71 -158 -92 4 -23 36 -27 56 -9 9 9 29 18
44 22 14 4 28 15 31 25 4 14 13 18 41 17 20 -1 36 -3 36 -4 0 -1 -12 -15 -28
-31 -15 -16 -68 -74 -118 -128 -117 -127 -175 -166 -286 -196 -48 -12 -90 -19
-94 -15 -8 7 83 94 140 134 44 30 76 38 76 19 0 -28 18 -17 25 14 4 16 20 42
36 57 29 28 40 73 16 73 -6 0 -25 -14 -42 -31 -16 -18 -45 -38 -64 -47 -56
-23 -119 -70 -206 -153 -44 -42 -107 -91 -141 -109 -85 -45 -174 -133 -213
-211 -33 -65 -61 -138 -67 -174 -2 -11 -11 -60 -19 -108 -8 -49 -21 -100 -29
-115 -22 -45 -54 -154 -61 -212 -4 -30 -15 -89 -25 -130 -42 -173 -57 -424
-35 -623 20 -181 67 -335 173 -567 11 -25 31 -67 43 -95 12 -27 47 -104 79
-170 51 -107 66 -128 132 -191 41 -39 77 -77 80 -85 13 -30 129 -158 178 -195
29 -21 71 -53 94 -71 22 -17 45 -32 49 -32 5 -1 29 -17 54 -36 25 -19 50 -35
55 -35 24 0 118 -52 168 -92 82 -66 135 -85 265 -91 61 -3 164 -17 230 -32 66
-14 143 -31 170 -36 28 -6 66 -15 85 -19 77 -19 131 -19 250 -1 69 10 115 19
103 20 -31 1 -54 12 -47 22 3 5 1 9 -5 9 -5 0 -12 -4 -16 -9 -14 -23 -268 0
-324 29 -23 12 -177 48 -241 56 -30 4 -49 9 -42 11 6 3 12 12 12 20 0 11 7 14
25 11 14 -3 56 3 94 13 38 10 103 19 146 21 82 2 109 14 46 20 -38 3 -211 -7
-241 -15 -8 -2 -35 -9 -60 -16 -25 -7 -71 -20 -102 -28 -108 -30 -246 2 -330
76 -23 20 -59 78 -104 168 -63 127 -77 146 -164 235 -74 75 -109 103 -161 127
-76 35 -150 108 -181 179 -12 26 -32 95 -44 154 -24 110 -54 183 -97 234 -41
49 -54 85 -65 174 -12 93 -33 147 -88 225 -105 147 -115 290 -34 461 62 129
67 174 40 334 -29 172 -30 234 -9 342 48 240 205 421 399 457 56 10 62 12 137
29 68 16 122 54 217 154 288 300 287 299 409 339 52 18 68 19 164 9 58 -6 142
-20 187 -31 44 -11 129 -22 189 -26 l107 -6 0 -35 c0 -19 -12 -56 -26 -82 -21
-39 -24 -52 -15 -69 7 -11 9 -37 5 -60 -5 -31 -2 -45 14 -65 15 -20 21 -23 25
-12 3 8 -3 27 -15 41 -15 20 -18 29 -9 38 6 6 11 32 11 58 0 30 7 55 19 70 19
26 32 66 34 113 2 37 -16 44 -133 45 -47 1 -117 8 -155 16 -39 9 -105 23 -148
32 -66 14 -75 18 -60 28 10 7 68 15 128 18 66 4 134 14 170 25 120 39 292 37
394 -4 50 -20 53 -44 11 -74 -48 -34 -102 -111 -97 -138 2 -12 0 -43 -5 -68
l-10 -44 -30 22 -31 22 -22 -26 c-29 -34 -31 -101 -4 -146 10 -18 19 -44 19
-56 0 -35 27 -93 51 -110 35 -24 59 -73 59 -120 0 -24 7 -60 15 -80 9 -20 20
-74 26 -118 9 -70 15 -87 42 -118 18 -21 49 -43 69 -50 35 -12 39 -12 57 11
23 27 28 89 9 89 -7 0 -20 -15 -28 -33 -21 -45 -42 -45 -80 3 -26 33 -34 56
-45 124 -6 45 -15 88 -19 94 -4 6 -13 46 -21 87 -13 65 -22 85 -60 132 -30 37
-45 64 -45 84 0 16 -4 29 -10 29 -5 0 -10 12 -10 26 0 15 -7 32 -16 38 -14 11
-14 18 -3 54 12 40 31 54 44 31 4 -6 13 -8 21 -5 16 6 52 -42 65 -88 6 -20 38
-62 82 -108 81 -82 97 -114 97 -197 0 -69 24 -167 49 -201 10 -14 28 -43 39
-65 27 -53 54 -77 135 -119 62 -33 76 -36 148 -36 64 0 91 -5 132 -25 29 -13
89 -34 135 -46 73 -20 90 -21 133 -11 27 7 73 17 102 23 28 7 66 18 84 25 17
8 36 14 43 14 6 0 25 7 43 17 18 9 51 15 75 14 47 -1 118 25 141 52 34 42 84
6 135 -99 20 -42 45 -87 55 -99 15 -21 37 -81 73 -205 7 -25 13 -96 13 -162 0
-72 4 -116 10 -115 12 2 19 -206 10 -270 -7 -51 -22 -54 -52 -10 -37 54 -44
85 -38 164 3 41 1 99 -6 132 -9 50 -9 63 6 91 19 36 21 72 10 148 -11 74 -27
65 -19 -11 4 -44 2 -76 -9 -107 -11 -35 -14 -81 -10 -205 4 -173 5 -176 73
-282 39 -62 47 -118 32 -217 -13 -81 -53 -145 -156 -253 -82 -85 -94 -103 -71
-103 8 0 29 16 46 35 41 47 52 45 44 -7 -11 -64 -43 -145 -88 -221 -39 -66
-57 -82 -57 -51 0 8 -4 12 -10 9 -5 -3 -10 -18 -10 -32 0 -14 -13 -47 -29 -72
-15 -26 -32 -57 -35 -69 -4 -12 -11 -22 -17 -22 -5 0 -20 -17 -33 -38 -48 -76
-238 -242 -276 -242 -6 0 -10 -8 -11 -17 0 -17 -105 -114 -132 -122 -6 -2 -21
-11 -32 -21 -31 -27 -157 -100 -173 -100 -7 0 -26 -13 -41 -28 -36 -35 -188
-112 -233 -117 -10 -1 -27 -14 -38 -28 -12 -15 -28 -27 -37 -27 -12 0 -13 -3
-4 -14 9 -11 7 -12 -13 -9 -18 4 -25 0 -29 -17 -4 -16 -11 -20 -25 -15 -11 3
-23 1 -27 -5 -3 -5 -17 -8 -31 -6 -14 3 -22 1 -19 -5 4 -5 20 -9 36 -9 20 0
28 4 23 11 -4 7 0 9 13 5 27 -9 53 2 47 19 -4 10 1 12 16 8 22 -6 64 23 54 38
-3 5 2 6 10 3 9 -3 16 -2 16 2 0 5 17 9 38 9 39 1 174 62 221 100 14 12 45 29
69 38 99 39 302 181 349 245 12 16 43 40 68 52 25 12 60 40 78 63 18 22 53 61
79 86 54 53 126 149 164 220 15 27 49 79 76 114 26 36 55 85 64 109 19 53 44
170 44 205 0 15 16 50 35 78 31 45 57 105 98 223 8 25 8 48 -2 94 -10 52 -10
77 5 170 17 104 17 116 1 236 -10 70 -17 151 -17 180 0 85 -34 220 -80 312
-141 285 -186 325 -281 249 -18 -14 -45 -22 -90 -25 -59 -5 -123 -25 -191 -60
-14 -8 -43 -14 -65 -14 -21 0 -58 -7 -83 -16 -62 -22 -131 -12 -227 32 -68 32
-92 38 -183 44 -89 6 -115 12 -167 38 -34 17 -69 41 -77 54 -98 139 -104 158
-113 320 l-5 96 -79 84 c-99 104 -129 162 -129 250 0 59 3 69 36 111 20 25 51
55 70 66 28 17 34 26 34 55 0 44 -30 69 -116 95 -62 20 -206 34 -254 25z
m-1811 -1441 c43 -160 41 -257 -8 -358 -48 -99 -59 -135 -66 -222 -10 -109 12
-185 81 -281 59 -81 79 -135 89 -232 7 -75 30 -131 71 -181 47 -55 71 -109 89
-199 27 -140 51 -199 108 -269 42 -52 69 -74 141 -113 117 -63 198 -143 266
-262 29 -50 54 -106 57 -123 6 -32 5 -33 -24 -23 -16 6 -41 22 -56 36 -16 14
-46 36 -67 48 -22 12 -57 38 -77 57 -21 19 -55 45 -75 59 -48 34 -121 117
-113 130 13 20 55 11 67 -15 6 -14 26 -35 44 -46 18 -11 36 -29 39 -39 8 -26
25 -26 25 -1 0 27 -120 131 -151 131 -34 0 -66 19 -132 80 -68 63 -129 160
-181 285 -20 50 -54 124 -75 165 -21 41 -44 93 -51 115 -7 22 -21 55 -31 74
-10 19 -21 55 -25 80 -4 25 -11 54 -16 64 -20 38 -36 127 -48 267 -16 182 -8
285 26 335 29 43 32 65 5 41 -17 -16 -18 -14 -24 36 -4 29 -2 55 3 58 16 10
29 58 45 161 26 178 44 217 64 142z m2451 -2463 c0 -5 -5 -10 -11 -10 -5 0 -7
5 -4 10 3 6 8 10 11 10 2 0 4 -4 4 -10z m-537 -117 c-7 -2 -19 -2 -25 0 -7 3
-2 5 12 5 14 0 19 -2 13 -5z m50 0 c-7 -2 -19 -2 -25 0 -7 3 -2 5 12 5 14 0
19 -2 13 -5z"/>
<path d="M217 2561 c-4 -19 -5 -36 -2 -39 10 -11 16 7 13 40 l-3 33 -8 -34z"/>
<path d="M220 1706 c0 -9 7 -16 16 -16 17 0 14 22 -4 28 -7 2 -12 -3 -12 -12z"/>
<path d="M394 1308 c3 -13 6 -31 6 -40 0 -10 7 -18 15 -18 16 0 20 35 9 64
-10 26 -37 20 -30 -6z"/>
<path d="M1688 3894 c-40 -22 -136 -132 -143 -166 -8 -33 8 -58 37 -58 24 0
198 176 198 200 0 39 -42 50 -92 24z m66 -23 c4 -5 -9 -19 -28 -31 -33 -19
-58 -47 -115 -120 -30 -40 -50 -26 -27 19 44 83 150 166 170 132z"/>
<path d="M1650 3805 c-13 -14 -19 -25 -14 -25 8 1 50 50 41 50 -2 0 -14 -11
-27 -25z"/>
<path d="M1602 3744 c-7 -14 -8 -23 -2 -19 15 9 32 45 22 45 -5 0 -14 -12 -20
-26z"/>
<path d="M2195 3683 c4 -10 10 -27 13 -38 3 -11 11 -24 19 -28 7 -4 13 -13 13
-19 0 -6 18 -28 40 -50 22 -23 43 -52 47 -67 3 -14 21 -58 39 -98 18 -40 36
-96 40 -125 7 -58 19 -88 34 -88 14 0 12 28 -1 32 -7 2 -13 32 -14 68 -2 47
-12 83 -34 132 -17 36 -31 73 -31 81 0 7 -29 47 -65 87 -35 41 -67 86 -70 102
-4 16 -13 28 -22 28 -10 0 -13 -5 -8 -17z"/>
<path d="M2090 3565 c0 -23 7 -41 21 -53 11 -9 36 -40 55 -68 29 -44 34 -61
39 -129 3 -48 11 -88 21 -103 9 -14 17 -43 18 -64 1 -41 5 -45 24 -26 15 15
15 51 0 66 -21 21 -38 86 -38 145 0 44 -6 66 -22 90 -13 18 -26 34 -30 35 -5
2 -8 12 -8 23 0 12 -10 23 -25 29 -19 7 -26 19 -31 50 -8 49 -24 53 -24 5z"/>
<path d="M1061 3502 c-46 -48 -101 -151 -101 -189 0 -78 91 -65 115 17 4 14
22 48 40 75 41 63 49 89 35 115 -16 31 -49 24 -89 -18z m59 -13 c0 -12 -15
-42 -33 -68 -19 -25 -41 -64 -49 -86 -17 -43 -35 -55 -44 -31 -7 19 32 104 76
164 35 46 50 53 50 21z"/>
<path d="M1356 3438 c-30 -43 -13 -176 32 -245 29 -46 89 -19 79 34 -30 160
-41 210 -50 221 -15 19 -44 14 -61 -10z m61 -84 c7 -43 15 -96 19 -116 5 -30
4 -38 -9 -38 -21 0 -48 73 -54 147 -11 121 25 127 44 7z"/>
<path d="M1572 3271 c-12 -17 -22 -35 -22 -41 0 -5 -16 -41 -36 -79 -28 -51
-35 -75 -30 -95 9 -36 49 -35 84 3 58 62 76 102 77 171 0 62 -1 65 -25 68 -19
2 -32 -5 -48 -27z m58 -22 c0 -5 -4 -7 -10 -4 -6 3 -7 -1 -4 -9 3 -9 1 -16 -5
-16 -6 0 -11 -12 -11 -26 0 -26 -28 -84 -41 -84 -4 0 -9 -9 -12 -20 -7 -26
-27 -26 -27 1 0 12 8 23 20 26 17 5 25 20 21 45 -2 18 42 98 54 98 8 0 15 -5
15 -11z"/>
<path d="M1909 3198 c-40 -33 -69 -120 -69 -207 0 -41 4 -52 21 -61 34 -19 65
9 74 67 4 26 16 74 26 107 25 74 22 100 -11 104 -14 2 -32 -3 -41 -10z m41
-23 c0 -7 -41 -79 -51 -89 -13 -14 -11 -28 4 -21 6 4 4 0 -5 -8 -19 -15 -25
-32 -8 -22 16 10 11 -12 -7 -31 -24 -24 -27 -4 -9 58 17 59 50 118 66 118 5 0
10 -2 10 -5z"/>
<path d="M710 3159 c-99 -27 -160 -67 -160 -105 0 -43 54 -56 98 -24 15 11 58
26 95 34 94 19 128 53 91 90 -17 18 -69 20 -124 5z m100 -30 c0 -6 -7 -9 -15
-6 -8 4 -17 2 -19 -2 -3 -5 -16 -9 -28 -9 -28 -1 -45 -6 -81 -20 -34 -14 -37
-15 -37 -3 0 10 41 27 95 40 57 13 85 13 85 0z m-190 -54 c0 -8 -5 -15 -11
-15 -5 0 -7 -6 -3 -12 5 -10 4 -10 -6 -1 -14 13 -7 43 10 43 5 0 10 -7 10 -15z"/>
<path d="M2460 3145 c0 -8 6 -15 14 -15 22 0 28 17 10 24 -22 9 -24 8 -24 -9z"/>
<path d="M2250 3066 c0 -8 -23 -34 -51 -58 -28 -24 -55 -52 -59 -64 -7 -16
-20 -23 -62 -28 -29 -3 -80 -15 -113 -27 -33 -11 -112 -25 -175 -30 -63 -6
-131 -15 -152 -20 -44 -11 -103 -58 -149 -119 -19 -24 -58 -69 -87 -100 -109
-115 -138 -219 -108 -397 10 -60 12 -103 6 -123 -5 -16 -10 -63 -11 -103 -3
-117 32 -184 141 -265 65 -48 85 -74 117 -150 26 -62 68 -101 132 -123 34 -12
47 -22 51 -40 16 -75 102 -179 148 -179 57 0 71 59 26 101 -26 24 -74 92 -74
105 0 15 112 -8 162 -33 75 -39 196 -45 258 -13 23 12 53 33 67 46 31 31 101
70 144 79 44 10 97 34 130 60 14 11 36 27 48 35 56 39 96 131 111 258 9 71 28
120 85 222 34 59 29 127 -14 202 -82 145 -116 223 -150 343 -5 17 -12 38 -16
48 -6 13 -2 17 15 17 12 0 39 10 60 21 l39 22 76 -77 c42 -42 82 -76 89 -76 7
0 31 -13 53 -29 40 -29 77 -38 195 -47 54 -5 76 -2 114 15 60 27 62 26 66 -6
2 -21 9 -29 26 -31 35 -5 61 24 68 79 5 37 11 50 28 55 19 6 111 62 164 99 12
9 30 31 40 49 9 18 26 49 37 70 11 21 25 35 34 34 16 -3 63 -62 95 -119 16
-29 20 -31 24 -15 2 11 -2 24 -9 30 -8 6 -25 33 -37 59 -23 46 -62 82 -81 75
-13 -4 -81 -107 -81 -122 0 -16 -54 -66 -114 -104 -51 -33 -56 -35 -121 -36
-32 -1 -42 -6 -52 -27 -30 -62 -207 -112 -257 -74 -11 8 -37 15 -58 15 -24 0
-44 7 -56 20 -10 10 -34 26 -54 34 -34 15 -158 130 -158 148 0 17 -55 7 -86
-17 -22 -17 -38 -23 -51 -17 -51 20 -135 76 -153 103 -12 16 -27 29 -34 29 -7
0 -27 14 -44 30 -18 17 -38 30 -46 30 -25 0 -56 50 -56 89 0 21 -5 42 -12 49
-17 17 -68 15 -68 -2z m134 -165 c47 -20 18 -33 -56 -25 -93 9 -101 17 -58 53
l35 29 25 -22 c14 -12 38 -28 54 -35z m-187 -37 c37 -8 90 -17 116 -20 115 -9
225 -59 281 -125 13 -15 43 -86 66 -156 26 -77 60 -156 86 -200 83 -134 95
-200 49 -267 -46 -68 -62 -110 -75 -196 -15 -107 -43 -187 -81 -233 -29 -35
-126 -97 -153 -97 -37 0 -134 -46 -166 -79 -45 -46 -121 -81 -173 -81 -23 0
-87 16 -142 36 -86 30 -116 36 -215 41 -146 6 -173 21 -210 113 -30 74 -66
118 -140 169 -32 22 -67 57 -85 86 -29 47 -30 52 -27 149 5 147 5 189 -3 312
-7 110 -7 110 24 175 33 66 116 159 184 206 27 19 34 29 27 38 -7 8 -5 17 8
27 35 31 80 47 152 53 141 11 165 15 245 39 95 29 141 31 232 10z m1243 -253
c0 -61 -41 -125 -56 -87 -6 16 13 95 28 113 15 18 28 6 28 -26z m-1652 -1203
c-2 -7 7 -17 20 -23 12 -5 20 -15 18 -22 -3 -7 0 -15 6 -19 7 -5 8 -2 3 7 -5
8 1 6 12 -4 24 -21 36 -54 22 -63 -5 -3 -9 0 -9 5 0 6 -4 10 -8 9 -5 -2 -23
12 -40 30 -32 34 -52 92 -33 92 6 0 10 -5 9 -12z"/>
<path d="M1930 2776 c-4 -3 -52 -15 -109 -27 -67 -15 -105 -27 -109 -37 -7
-20 -62 -70 -84 -77 -10 -4 -21 -17 -24 -31 -3 -13 -10 -24 -15 -24 -17 0 -70
-92 -98 -172 -33 -91 -66 -286 -56 -325 3 -14 1 -31 -5 -38 -9 -11 -4 -34 21
-97 18 -46 38 -90 44 -98 6 -8 19 -31 28 -50 18 -39 55 -76 107 -108 32 -19
49 -43 78 -112 l11 -25 0 31 c1 17 3 33 6 36 7 6 57 -11 100 -34 39 -20 144
-38 226 -38 80 0 277 50 354 91 36 18 161 172 195 239 26 52 30 67 21 82 -14
23 -6 38 20 38 16 0 19 7 19 43 0 23 9 58 19 78 28 52 36 105 18 112 -8 3 -17
26 -21 54 -12 76 -35 149 -62 188 -13 20 -24 39 -24 42 0 3 -25 32 -55 63 -39
42 -57 70 -66 104 -12 47 -30 66 -22 22 7 -35 -9 -38 -48 -10 -53 37 -214 75
-349 81 -63 3 -117 3 -120 -1z m257 -71 c130 -18 175 -41 279 -142 99 -95 137
-167 154 -290 9 -68 8 -99 -4 -173 -9 -50 -20 -98 -25 -108 -4 -9 -17 -37 -28
-62 -27 -59 -133 -201 -170 -228 -54 -39 -200 -85 -317 -101 -46 -6 -75 -4
-125 9 -192 52 -343 135 -381 210 -34 67 -77 183 -84 228 -13 84 37 309 89
404 19 35 39 72 44 83 9 21 90 92 149 132 37 25 160 50 257 52 33 0 106 -6
162 -14z"/>
<path d="M855 2998 c4 -13 20 -51 36 -84 16 -34 29 -69 29 -78 0 -21 -28 -21
-52 1 -21 19 -24 5 -5 -21 9 -12 23 -17 47 -14 43 4 50 29 21 84 -11 22 -29
60 -41 87 -23 48 -46 65 -35 25z"/>
<path d="M434 2802 c-40 -27 -48 -171 -13 -253 18 -41 26 -49 49 -49 15 0 35
9 44 19 16 17 17 26 7 71 -6 28 -11 79 -11 113 0 85 -33 128 -76 99z"/>
<path d="M3899 2683 c3 -21 6 -30 9 -20 2 9 8 17 13 17 5 0 4 9 -3 20 -19 30
-25 24 -19 -17z"/>
<path d="M2900 2523 c-19 -24 -21 -38 -18 -93 2 -37 12 -82 23 -105 17 -33 25
-40 50 -40 l30 0 -3 115 c-3 87 -7 119 -19 133 -22 24 -38 21 -63 -10z m46
-53 c-4 -28 -10 -58 -13 -67 -5 -12 -3 -14 7 -8 10 6 11 2 6 -18 -3 -14 -2
-29 4 -32 5 -3 10 -14 10 -23 0 -39 -32 32 -40 89 -9 63 0 109 21 109 8 0 10
-15 5 -50z"/>
<path d="M1028 2463 c-34 -32 -72 -68 -85 -80 -57 -54 1 -108 75 -69 37 20
119 105 130 136 13 35 -5 70 -35 70 -16 0 -46 -20 -85 -57z m92 17 c0 -5 -4
-10 -8 -10 -4 0 -36 -27 -71 -61 -34 -34 -64 -59 -67 -56 -3 2 23 34 58 70 60
61 88 80 88 57z"/>
<path d="M353 2305 c-72 -52 -108 -104 -99 -140 5 -21 12 -25 46 -25 33 0 43
5 66 35 15 20 53 52 85 71 88 54 90 104 5 104 -32 -1 -54 -10 -103 -45z m127
15 c8 -5 12 -11 10 -13 -3 -2 -25 -18 -50 -35 -25 -16 -65 -49 -90 -71 -24
-23 -49 -40 -55 -38 -39 13 17 85 108 137 59 34 57 33 77 20z"/>
<path d="M3410 2138 c-25 -11 -69 -31 -97 -44 -54 -24 -66 -47 -41 -72 19 -19
61 -14 129 17 79 36 104 61 95 96 -8 30 -25 31 -86 3z m70 -11 c0 -7 -9 -18
-21 -25 -15 -10 -19 -10 -14 -1 5 8 4 10 -3 5 -7 -4 -12 -15 -13 -24 0 -14 -2
-13 -9 3 l-9 20 -1 -20 c-1 -11 -4 -15 -6 -8 -4 8 -13 9 -30 3 -48 -19 -22 6
34 32 68 31 72 32 72 15z m-156 -72 c-6 -16 -24 -21 -24 -7 0 11 11 22 21 22
5 0 6 -7 3 -15z"/>
<path d="M1042 1918 c-5 -7 -17 -28 -26 -45 -16 -32 -18 -33 -84 -33 -85 0
-110 -7 -118 -32 -9 -30 25 -58 77 -65 28 -4 52 -15 66 -30 28 -29 44 -29 72
1 28 30 74 163 66 193 -6 25 -36 31 -53 11z m33 -50 c-9 -51 -8 -50 -29 -42
-13 5 -16 14 -10 38 8 40 12 46 30 46 13 0 14 -8 9 -42z m-70 -69 c11 -18 -4
-24 -64 -26 -47 -1 -59 2 -69 18 -12 18 -9 19 57 19 39 0 73 -5 76 -11z m25
-57 c0 -12 -23 -32 -37 -32 -19 0 -16 28 5 33 28 8 32 7 32 -1z"/>
<path d="M435 1810 c-15 -16 -17 -31 -12 -81 3 -34 12 -68 21 -78 9 -10 16
-22 16 -27 0 -21 58 -66 80 -62 44 6 47 31 12 100 -17 35 -34 78 -38 95 -6 31
-37 73 -53 73 -4 0 -16 -9 -26 -20z m60 -76 c12 -32 29 -73 38 -91 21 -39 22
-63 3 -63 -42 0 -119 184 -89 214 15 14 28 -3 48 -60z"/>
<path d="M2949 1785 c-31 -17 -103 -108 -123 -156 -16 -41 -6 -79 22 -79 30 0
67 34 119 111 26 39 52 77 58 84 6 10 3 20 -9 34 -22 24 -32 25 -67 6z m51
-25 c0 -19 -91 -156 -115 -172 -5 -4 -18 -8 -27 -8 -29 0 -21 33 23 99 59 89
119 130 119 81z"/>
<path d="M1316 1558 c-43 -92 -71 -197 -60 -216 15 -23 50 -27 78 -9 24 16 86
164 86 204 0 47 -18 73 -50 73 -27 0 -33 -6 -54 -52z m-15 -161 c-10 -9 -11
-8 -5 6 3 10 9 15 12 12 3 -3 0 -11 -7 -18z"/>
<path d="M3727 1354 c-29 -69 -72 -140 -113 -190 -40 -48 -93 -143 -109 -194
-4 -14 -16 -37 -26 -52 -26 -36 -25 -52 1 -38 12 6 20 21 20 35 0 14 5 25 10
25 6 0 10 14 10 30 0 20 5 30 15 30 9 0 20 12 26 28 19 52 44 97 62 110 42 32
141 217 128 240 -6 10 -13 3 -24 -24z"/>
<path d="M736 1248 c-21 -18 -46 -49 -57 -71 -37 -71 -10 -162 38 -131 10 6
30 35 45 64 15 29 36 62 46 74 34 37 45 65 31 82 -20 24 -63 16 -103 -18z m74
-11 c0 -8 -12 -24 -26 -38 -14 -13 -37 -48 -50 -77 -21 -46 -27 -52 -40 -42
-18 16 -11 40 29 102 36 55 87 87 87 55z"/>
<path d="M2242 1262 c-26 -17 -9 -56 33 -79 51 -27 168 -32 203 -7 48 33 20
74 -55 80 -26 2 -75 6 -108 9 -33 3 -66 2 -73 -3z m163 -31 c42 -4 60 -10 60
-20 0 -33 -126 -36 -187 -5 -49 25 -32 49 27 39 22 -4 67 -10 100 -14z"/>
<path d="M2163 1050 c-89 -82 -105 -103 -101 -132 8 -53 67 -48 132 12 92 85
121 162 68 181 -19 7 -34 -2 -99 -61z m107 30 c0 -39 -124 -170 -160 -170 -35
0 -22 27 53 104 65 67 107 93 107 66z"/>
<path d="M2800 1070 c0 -17 6 -43 13 -58 15 -29 12 -49 -16 -100 -10 -18 -17
-41 -15 -50 2 -10 14 4 30 38 27 60 59 100 77 100 6 0 11 -1 11 -3 0 -16 -71
-172 -82 -178 -7 -5 -8 -9 -3 -9 17 0 32 14 49 47 14 29 20 32 49 27 32 -6 32
-6 10 10 -13 10 -23 23 -23 31 0 23 20 28 41 9 10 -9 19 -12 19 -7 0 6 -7 17
-16 24 -9 7 -20 22 -25 34 -19 43 -77 110 -97 113 -19 3 -22 -1 -22 -28z m58
-34 c-2 -11 -8 -21 -14 -23 -15 -5 -38 42 -30 63 6 16 8 15 27 -2 11 -10 19
-27 17 -38z"/>
<path d="M1731 1018 c-81 -21 -121 -38 -141 -63 -20 -25 -4 -29 27 -7 39 28
168 65 198 58 16 -4 25 -13 25 -26 0 -20 -7 -23 -82 -35 -61 -10 -113 -34 -99
-48 8 -8 18 -7 39 5 15 8 48 19 75 22 27 4 59 17 74 30 26 23 26 24 11 48 -23
35 -44 38 -127 16z"/>
<path d="M3408 847 c-36 -29 -35 -35 2 -29 24 3 30 9 30 28 0 29 2 29 -32 1z"/>
<path d="M1310 810 c-38 -38 -19 -112 48 -190 34 -39 50 -50 73 -50 21 0 32 7
40 24 10 20 7 31 -18 68 -16 23 -40 66 -52 93 -21 47 -45 75 -63 75 -4 0 -17
-9 -28 -20z m64 -69 c13 -28 33 -66 46 -85 16 -27 18 -35 6 -30 -8 3 -18 14
-21 25 -4 10 -11 19 -17 19 -6 0 -9 3 -5 6 3 3 -5 16 -19 29 -17 16 -21 24
-12 27 9 3 8 11 -5 31 -10 15 -13 27 -7 27 5 0 21 -22 34 -49z"/>
<path d="M3270 766 c-43 -23 -80 -52 -87 -66 -7 -14 -13 -21 -13 -16 0 5 -11
-8 -25 -29 -15 -20 -24 -40 -21 -42 6 -6 18 6 69 70 26 32 46 47 62 47 13 0
31 10 39 22 9 12 18 19 22 15 10 -10 44 12 44 28 0 20 -4 19 -90 -29z"/>
<path d="M2080 674 c0 -12 65 -74 78 -74 4 0 -3 8 -15 18 -12 9 -31 28 -42 42
-11 14 -20 20 -21 14z"/>
<path d="M3061 584 c-24 -13 -54 -24 -67 -24 -13 0 -26 -4 -29 -10 -9 -15 32
-12 64 5 16 8 31 12 33 10 3 -3 15 6 28 20 28 30 27 30 -29 -1z"/>
<path d="M2935 540 c-3 -5 -1 -10 4 -10 6 0 11 5 11 10 0 6 -2 10 -4 10 -3 0
-8 -4 -11 -10z"/>
<path d="M2795 470 c-3 -5 -1 -10 4 -10 6 0 11 5 11 10 0 6 -2 10 -4 10 -3 0
-8 -4 -11 -10z"/>
<path d="M1970 350 c0 -6 7 -10 15 -10 8 0 15 2 15 4 0 2 -7 6 -15 10 -8 3
-15 1 -15 -4z"/>
<path d="M2168 193 c6 -2 18 -2 25 0 6 3 1 5 -13 5 -14 0 -19 -2 -12 -5z"/>
<path d="M2328 163 c6 -2 18 -2 25 0 6 3 1 5 -13 5 -14 0 -19 -2 -12 -5z"/>
<path d="M2383 163 c9 -2 25 -2 35 0 9 3 1 5 -18 5 -19 0 -27 -2 -17 -5z"/>
</g>
</svg>
