<?xml version="1.0" standalone="no"?>
<!DOCTYPE svg PUBLIC "-//W3C//DTD SVG 20010904//EN"
 "http://www.w3.org/TR/2001/REC-SVG-20010904/DTD/svg10.dtd">
<svg version="1.0" xmlns="http://www.w3.org/2000/svg"
 width="629.000000pt" height="525.000000pt" viewBox="0 0 629.000000 525.000000"
 preserveAspectRatio="xMidYMid meet">

<g transform="translate(0.000000,525.000000) scale(0.100000,-0.100000)"
fill="#000000" stroke="none">
<path d="M1590 5112 c-23 -19 -25 -27 -25 -106 0 -90 -17 -134 -29 -76 -14 74
-94 140 -169 140 -78 0 -156 -39 -288 -146 l-67 -53 -49 52 c-104 111 -152
148 -186 145 -23 -2 -33 -9 -35 -23 -2 -17 -10 -20 -43 -20 -55 0 -72 -23 -67
-91 4 -46 2 -51 -21 -62 -23 -11 -27 -9 -55 24 -37 45 -86 67 -131 58 -38 -7
-125 -77 -125 -100 0 -18 5 -18 68 6 59 23 109 25 147 8 39 -18 30 -28 -27
-30 -49 -1 -65 -3 -78 -8 -3 -1 -13 -3 -22 -5 -50 -9 -181 -156 -159 -178 6
-6 39 11 85 44 42 29 79 49 83 45 4 -4 2 -11 -5 -15 -13 -8 -32 -63 -32 -93 0
-31 28 -19 59 25 42 58 115 137 101 109 -6 -13 -14 -54 -17 -92 -7 -87 16
-138 93 -209 30 -27 54 -51 54 -54 0 -2 -22 -14 -50 -27 l-49 -23 -66 51 c-80
62 -122 71 -183 42 -44 -21 -63 -46 -108 -136 -31 -63 -25 -114 17 -156 32
-33 78 -37 155 -13 81 24 80 25 76 -63 l-4 -78 38 -33 c34 -30 41 -33 83 -27
25 3 71 18 101 33 45 23 59 37 79 75 20 41 21 52 12 80 -6 18 -23 44 -37 59
l-26 27 45 31 c25 17 50 31 56 31 19 0 150 -172 197 -258 45 -81 46 -87 32
-111 -25 -44 -43 -76 -44 -79 -1 -1 -28 -5 -62 -8 -60 -6 -61 -6 -92 30 -28
31 -38 36 -76 36 -38 0 -51 -6 -89 -41 -38 -35 -45 -47 -45 -80 0 -51 53 -109
100 -109 66 0 113 41 135 118 6 20 12 22 79 22 66 0 74 -2 97 -27 14 -16 33
-40 42 -54 15 -26 15 -27 -20 -60 -26 -25 -34 -29 -29 -14 4 11 10 41 13 66 5
40 3 48 -18 63 -57 40 -82 15 -115 -114 -14 -58 -33 -113 -41 -122 -10 -11
-13 -26 -9 -41 4 -19 1 -26 -14 -30 -12 -3 -20 -14 -20 -25 0 -21 -167 -184
-195 -190 -13 -3 -24 22 -44 106 -33 131 -28 122 -72 122 -31 0 -47 -7 -70
-29 -36 -36 -38 -73 -8 -156 19 -53 30 -94 41 -159 2 -13 -16 -31 -62 -63 -72
-50 -83 -69 -74 -122 14 -79 48 -81 125 -5 l56 55 25 -93 c31 -116 30 -193 -2
-267 l-24 -54 21 -38 21 -39 -29 -37 c-169 -223 -249 -348 -257 -406 -4 -31
-2 -37 13 -37 16 0 331 175 396 220 l26 19 11 -37 c6 -20 20 -82 31 -137 11
-55 29 -143 41 -195 13 -60 19 -108 15 -132 -6 -31 -4 -38 9 -38 9 0 16 -6 17
-12 0 -7 8 -51 18 -98 21 -93 20 -94 -38 -105 -60 -11 -195 -80 -234 -119 -20
-20 -46 -56 -58 -79 -12 -23 -37 -57 -57 -75 l-35 -32 7 -107 c4 -66 12 -113
20 -123 7 -8 17 -44 20 -80 9 -79 50 -221 81 -275 13 -22 26 -51 30 -65 9 -31
62 -117 93 -150 13 -14 31 -38 40 -53 20 -34 164 -155 228 -193 49 -29 169
-64 218 -64 54 0 123 27 323 125 106 52 195 95 198 95 2 0 36 15 77 33 40 19
89 40 108 47 19 7 82 33 138 57 57 24 111 45 120 46 10 2 26 8 37 14 11 6 23
11 28 12 4 1 8 1 10 2 1 0 9 2 18 4 9 1 42 10 74 19 57 17 57 17 106 -8 27
-15 52 -26 56 -25 5 1 10 0 13 -1 26 -10 72 -12 245 -11 188 1 231 6 420 41
28 6 111 17 185 25 74 8 151 19 170 25 59 17 600 12 695 -6 44 -9 118 -19 165
-24 78 -7 239 -34 350 -59 263 -58 454 -69 565 -32 39 12 74 29 78 37 5 8 12
12 17 9 4 -3 10 2 14 10 3 8 12 15 20 15 17 0 119 108 178 188 44 59 127 217
128 241 0 9 6 11 18 6 61 -27 156 -15 209 25 63 48 74 62 104 125 31 64 37
125 19 199 -14 64 -35 77 -134 83 l-86 6 0 151 c0 83 -3 168 -6 188 l-6 36 39
-5 c35 -5 48 0 103 37 82 57 104 104 96 205 -10 130 -23 174 -62 222 l-38 46
-90 -7 c-50 -3 -120 -13 -156 -21 l-65 -14 -35 37 c-66 71 -87 82 -152 82
l-59 0 27 48 c15 26 33 54 41 63 7 8 13 34 13 57 0 35 -5 45 -32 65 -55 41
-194 118 -230 127 -18 5 -64 19 -103 30 -54 16 -96 21 -185 21 l-115 0 -45 38
c-46 39 -141 84 -215 102 -48 13 -293 6 -320 -8 -11 -6 -56 -16 -100 -23 -111
-18 -210 -52 -291 -101 -38 -23 -71 -46 -74 -50 -3 -4 -80 -3 -170 3 -183 11
-527 5 -605 -11 -27 -5 -82 -11 -121 -13 l-72 -4 -21 61 c-25 71 -26 129 -6
284 17 126 1 99 162 281 29 32 61 77 73 100 11 22 37 58 56 78 20 20 51 60 68
87 32 49 86 108 156 172 19 17 55 53 80 78 25 26 72 70 105 97 33 28 66 60 74
72 7 11 40 44 72 71 33 28 82 69 110 93 27 23 54 42 59 42 6 0 10 -31 10 -70
0 -38 4 -70 9 -70 5 0 11 4 13 10 2 5 32 44 68 86 67 79 189 188 266 237 41
27 46 28 67 14 46 -30 109 -179 126 -295 3 -26 11 -47 16 -47 36 0 165 339
165 436 0 40 12 69 26 69 8 0 14 6 14 13 0 7 20 18 43 25 24 7 58 22 76 33 57
35 80 130 40 170 -27 27 -53 20 -132 -32 -33 -22 -67 -39 -76 -38 -31 3 -41
-1 -41 -16 0 -19 -74 -52 -234 -104 -436 -142 -1012 -181 -1481 -101 -130 23
-338 72 -447 107 l-58 18 0 55 c0 63 -26 105 -73 116 -25 6 -36 -1 -106 -75
-43 -44 -82 -81 -88 -81 -5 0 -16 -12 -24 -27 -20 -39 -56 -76 -67 -69 -13 8
-36 -20 -28 -33 4 -5 -35 -56 -86 -113 -51 -57 -101 -114 -113 -127 -35 -40
-66 -74 -134 -146 -36 -39 -87 -94 -113 -122 -48 -53 -50 -53 -73 -8 -9 16
-21 20 -57 19 -43 0 -47 2 -72 43 -36 60 -60 137 -52 169 14 54 57 103 114
129 33 15 78 49 113 84 53 54 72 82 122 178 16 31 50 53 80 53 7 0 21 -15 31
-32 32 -57 67 -88 98 -88 45 0 124 46 153 87 46 68 24 133 -59 178 -20 11 -36
23 -36 28 0 5 12 24 26 43 15 20 28 52 31 77 4 37 1 45 -27 72 -29 28 -38 30
-113 33 -71 3 -86 1 -107 -16z m207 -35 c10 -10 17 -32 17 -53 0 -31 -7 -43
-42 -73 -43 -37 -50 -58 -32 -92 12 -22 35 -26 26 -4 -8 22 9 19 54 -10 72
-45 64 -119 -18 -182 -71 -54 -106 -43 -162 50 -20 35 -26 38 -59 35 l-36 -3
3 65 c3 42 10 72 20 84 12 13 17 38 17 90 1 77 6 93 39 107 35 15 153 6 173
-14z m-393 -24 c4 -5 11 -8 14 -8 20 -1 55 -30 77 -63 24 -35 25 -43 22 -152
-3 -113 -4 -118 -41 -185 -45 -83 -81 -124 -156 -175 -83 -56 -148 -75 -260
-75 -117 0 -140 13 -199 116 -43 75 -49 95 -28 102 6 2 9 8 5 12 -7 8 -45 1
-64 -12 -16 -11 -28 -73 -15 -73 6 0 11 6 11 14 0 7 7 19 15 26 13 10 15 9 15
-11 0 -13 3 -33 6 -44 4 -16 -4 -25 -39 -44 l-45 -24 -29 24 c-27 21 -30 30
-28 76 1 28 7 58 14 66 6 8 48 25 92 38 104 30 129 52 129 116 l0 48 57 14
c41 9 74 27 122 65 121 95 184 134 227 140 7 1 17 5 20 9 10 9 69 9 78 0z
m-592 -17 c16 -12 17 -16 3 -43 -11 -22 -13 -38 -6 -55 l9 -25 -36 18 c-47 24
-58 24 -76 -3 -20 -28 -20 -61 0 -127 12 -42 21 -55 48 -68 47 -22 77 -11 100
36 15 33 17 45 7 73 -10 30 -9 31 4 14 18 -24 20 -106 2 -129 -6 -10 -33 -24
-59 -32 l-47 -14 -29 37 c-41 52 -48 69 -62 138 -9 46 -9 70 0 103 11 42 11
42 53 39 40 -2 42 -2 39 25 -3 21 1 27 15 27 10 0 26 -7 35 -14z m89 -85 c44
-43 53 -69 18 -51 -11 7 -31 9 -43 6 -18 -4 -26 0 -34 20 -33 70 0 84 59 25z
m-115 -53 c59 -52 86 -141 31 -103 -28 20 -64 19 -75 -2 -9 -15 -10 -14 -15 3
-15 50 -18 94 -8 113 15 28 24 27 67 -11z m-127 -87 c7 -27 25 -67 41 -88 16
-21 30 -41 30 -44 0 -4 -14 -12 -30 -19 -39 -16 -60 -56 -60 -112 0 -49 4 -55
44 -86 22 -17 25 -23 13 -28 -22 -8 -94 43 -127 92 -44 63 -51 108 -29 193 20
78 37 109 71 128 33 18 33 18 47 -36z m4059 7 c10 -22 10 -33 -2 -60 l-14 -33
-1 31 c-1 38 -10 47 -30 32 -12 -10 -12 -8 2 8 19 23 22 34 7 34 -20 0 -50
-45 -50 -76 0 -37 24 -64 42 -46 7 7 17 12 23 12 14 -1 -37 -40 -53 -40 -41 0
-38 105 4 147 30 30 55 27 72 -9z m-2511 2 c39 -62 13 -182 -42 -196 -35 -9
-55 12 -62 65 -6 42 20 131 37 131 5 0 2 -12 -6 -27 -33 -65 -1 -168 41 -133
27 23 47 70 40 97 -7 31 -31 27 -53 -10 -14 -22 -14 -31 -4 -47 17 -27 15 -35
-4 -19 -19 15 -15 63 9 122 18 42 27 46 44 17z m2379 -152 c-18 -13 -21 -9
-32 39 -10 43 -9 49 10 64 21 17 21 17 27 -39 3 -35 1 -60 -5 -64z m83 80 c1
6 6 12 12 12 8 0 8 -5 -1 -15 -18 -22 -30 -18 -29 8 0 21 1 21 9 2 5 -11 9
-14 9 -7z m-2586 -45 c-1 -64 12 -93 44 -93 32 0 29 -10 -16 -54 -49 -48 -79
-46 -97 4 -24 66 -18 104 24 154 20 24 39 45 42 45 3 1 4 -24 3 -56z m2454 0
c7 -18 13 -40 13 -50 -1 -10 -9 4 -20 30 -10 27 -24 56 -32 65 -12 16 -11 16
6 2 11 -8 25 -29 33 -47z m-2350 10 c-3 -10 -5 -4 -5 12 0 17 2 24 5 18 2 -7
2 -21 0 -30z m2313 -2 c22 -41 0 -221 -42 -351 -19 -59 -89 -213 -94 -207 -1
1 -11 40 -23 86 -32 130 -112 251 -165 251 -8 0 -51 -33 -94 -72 -44 -40 -102
-93 -129 -118 -27 -25 -70 -69 -96 -99 l-47 -53 0 50 c0 62 -30 103 -94 127
-42 16 -44 16 -92 -8 -27 -14 -77 -54 -112 -88 -61 -63 -62 -64 -62 -34 0 43
-49 184 -71 206 -18 18 -47 24 -94 19 -49 -4 -228 -140 -343 -259 l-72 -76 2
137 c3 117 1 140 -14 154 -27 27 -66 9 -135 -63 l-62 -66 -3 113 c-4 145 -9
150 -104 88 -70 -46 -234 -207 -281 -277 -8 -12 -15 18 -29 130 -13 109 -40
244 -58 289 -3 9 7 29 24 47 l30 33 52 -20 c70 -26 226 -65 373 -95 494 -98
1028 -74 1523 67 99 28 237 78 272 98 23 13 28 12 40 -9z m-2513 -96 c0 -31 7
-62 14 -71 6 -8 9 -17 6 -20 -10 -11 -27 34 -33 90 -4 31 -3 56 2 56 5 0 10
-25 11 -55z m-23 -64 c-2 -2 -13 4 -24 14 -16 14 -17 21 -8 32 9 12 14 9 23
-14 7 -15 11 -30 9 -32z m-36 3 c15 -15 52 -35 82 -46 l55 -18 -48 6 c-50 6
-127 49 -127 71 0 19 8 16 38 -13z m260 -11 c17 -60 39 -188 53 -310 l12 -111
28 38 c74 102 270 273 337 294 22 7 22 6 22 -118 0 -69 4 -126 8 -126 5 0 35
30 67 66 66 74 110 103 129 84 13 -14 11 -236 -4 -288 -13 -49 -4 -53 28 -12
84 110 230 236 364 313 50 29 118 36 136 15 5 -7 22 -48 37 -90 22 -63 27 -90
23 -143 -4 -72 4 -82 26 -32 19 43 128 152 177 178 34 17 46 18 73 9 19 -6 41
-19 50 -29 16 -18 15 -20 -21 -47 -38 -28 -57 -45 -207 -185 -89 -85 -266
-254 -344 -331 -29 -29 -62 -71 -74 -92 -11 -21 -39 -60 -63 -85 -23 -25 -52
-64 -63 -87 -11 -22 -35 -56 -53 -75 -18 -19 -53 -59 -77 -89 -25 -30 -59 -68
-75 -85 l-30 -30 -189 4 c-118 2 -188 -1 -188 -7 0 -17 50 -21 175 -15 67 3
141 3 166 -1 l46 -7 -13 -92 c-17 -119 -17 -212 1 -262 8 -21 13 -40 12 -40
-4 -3 -264 -28 -297 -29 -34 -1 -35 0 -64 74 -24 59 -45 90 -102 150 -64 68
-71 77 -62 100 5 14 7 42 4 63 -4 20 -2 37 3 37 5 0 23 -17 40 -37 l30 -38 1
50 c0 28 -5 56 -12 63 -9 9 -9 12 0 12 6 0 19 -15 28 -32 17 -32 17 -32 27
-11 22 50 -23 125 -87 144 l-46 13 0 78 c0 67 -3 81 -24 105 -23 26 -30 28
-99 28 l-74 0 4 36 c6 39 5 40 -77 92 -52 33 -49 55 10 102 27 22 49 44 47 50
-2 6 -67 12 -160 15 -85 3 -158 8 -162 12 -4 3 -9 26 -12 50 -11 86 -46 91
-118 15 -27 -29 -67 -64 -88 -76 -20 -12 -43 -32 -51 -42 -7 -11 -42 -40 -76
-64 -83 -58 -221 -185 -218 -200 2 -7 -27 -45 -64 -85 -60 -65 -82 -100 -61
-100 3 0 31 14 61 31 30 17 56 29 58 27 2 -2 -8 -26 -22 -53 -42 -83 -20 -119
58 -95 23 7 49 18 57 24 12 9 13 6 8 -19 -4 -16 -11 -52 -17 -79 -6 -27 -11
-51 -13 -52 -1 -1 -80 -4 -175 -6 -199 -3 -184 -15 -137 107 14 39 36 98 47
133 13 40 29 69 45 80 25 18 149 141 336 335 63 64 116 117 119 117 2 0 40 35
84 78 68 66 197 188 470 445 33 31 63 54 66 51 7 -7 58 40 58 54 0 16 50 72
64 72 7 0 18 -17 24 -37z m-205 -58 c35 -9 34 -17 -5 -50 -46 -38 -366 -342
-407 -387 -19 -21 -40 -38 -48 -38 -7 0 -13 -6 -13 -14 0 -8 -12 -24 -27 -35
-43 -33 -201 -191 -207 -208 -4 -8 -15 -17 -26 -20 -11 -3 -20 -9 -20 -14 0
-16 -220 -229 -236 -229 -11 0 -14 5 -9 18 3 9 9 30 12 46 4 18 44 68 113 140
59 61 156 165 215 231 59 66 138 152 174 191 97 103 161 173 205 224 22 25 70
80 109 122 l69 77 36 -24 c21 -13 49 -27 65 -30z m-1097 -72 c18 -18 28 -33
24 -33 -9 0 -212 -119 -243 -142 -16 -12 -15 -16 23 -55 28 -30 40 -51 40 -72
0 -60 -86 -127 -178 -138 -41 -4 -50 -2 -71 21 -24 26 -25 32 -21 137 2 33 -3
64 -11 77 -17 27 -33 29 -25 4 9 -26 -85 -58 -157 -53 -29 2 -67 47 -67 80 0
32 49 133 82 169 33 34 100 31 158 -9 25 -16 61 -39 82 -49 l36 -19 44 23 c94
51 145 80 183 107 l40 28 15 -22 c8 -12 29 -37 46 -54z m168 -45 c33 1 78 4
99 8 l40 6 -27 -35 c-16 -21 -40 -38 -57 -42 -58 -13 -175 14 -194 45 -8 14
35 30 60 23 11 -3 46 -5 79 -5z m-119 -63 c33 -16 76 -27 126 -31 l76 -7 13
-51 c7 -28 25 -74 41 -102 l29 -52 -64 -42 c-36 -23 -70 -48 -77 -56 -18 -22
-27 -17 -50 29 -38 74 -144 231 -183 269 l-37 37 28 15 c37 20 39 20 98 -9z
m354 -392 c-8 -9 -32 -33 -53 -52 -22 -20 -52 -53 -67 -75 -22 -30 -30 -35
-35 -23 -8 22 27 68 93 122 55 45 87 60 62 28z m366 -33 c10 -75 23 -80 184
-80 l135 0 -42 -43 c-23 -23 -42 -50 -42 -59 0 -26 38 -65 80 -82 31 -12 40
-21 40 -40 0 -54 -7 -58 -84 -50 -41 4 -81 14 -96 24 -14 10 -44 21 -68 25
-26 4 -58 19 -80 38 -71 59 -143 132 -164 165 l-20 33 43 47 c84 91 104 95
114 22z m-146 -124 c29 -42 132 -142 178 -173 12 -8 45 -21 73 -28 29 -8 61
-22 72 -32 17 -15 39 -18 157 -19 172 0 176 -1 195 -20 20 -19 23 -153 4 -172
-7 -7 -39 -12 -76 -12 -60 0 -65 2 -99 38 -31 32 -35 34 -30 13 l6 -23 -77 4
c-42 3 -85 9 -94 13 -10 4 -18 3 -18 -3 0 -5 21 -15 46 -22 64 -18 104 -51
307 -255 164 -165 183 -187 217 -260 44 -94 55 -82 -115 -114 -66 -13 -168
-34 -226 -47 -58 -13 -116 -24 -128 -24 -13 0 -55 -13 -94 -28 -40 -16 -85
-32 -102 -36 -16 -4 -61 -28 -98 -52 -37 -25 -74 -47 -81 -50 -7 -3 -27 -27
-45 -53 -43 -68 -42 -128 5 -274 20 -62 40 -121 45 -132 4 -11 17 -43 28 -72
11 -28 29 -68 41 -89 11 -21 20 -42 20 -47 0 -4 34 -68 75 -142 41 -73 75
-137 75 -140 0 -3 -39 -24 -86 -46 l-86 -40 -20 26 c-11 14 -25 31 -31 38 -20
21 -128 167 -287 391 -58 81 -151 205 -207 276 -60 75 -109 146 -117 172 -20
61 -44 235 -38 286 4 43 15 54 26 26 14 -38 91 -144 104 -144 9 0 12 6 7 18
-11 27 -18 90 -12 106 5 14 11 14 47 1 23 -8 44 -14 48 -13 4 1 17 -3 28 -10
12 -6 24 -9 27 -6 3 3 17 -2 31 -11 14 -10 26 -14 26 -11 0 4 5 4 12 0 7 -4
23 -9 37 -10 13 -2 28 -7 34 -13 5 -5 11 -103 12 -223 3 -219 19 -337 59 -433
9 -20 16 -46 16 -57 0 -22 66 -118 81 -118 15 0 10 14 -19 50 -27 33 -62 131
-96 265 -8 33 -16 111 -17 174 -1 112 -1 115 21 116 28 2 35 14 61 109 38 144
16 248 -59 271 -32 9 -32 10 -32 75 l0 65 51 28 c28 16 54 26 57 22 5 -4 -23
-103 -45 -162 -9 -24 16 -13 47 20 l32 32 -7 -62 c-5 -42 -3 -63 4 -63 15 0
61 83 68 124 8 50 21 45 28 -11 3 -27 7 -55 9 -63 1 -9 9 -2 19 17 25 47 22
123 -6 164 -19 28 -21 40 -13 70 21 84 -28 169 -98 169 -43 0 -44 8 -16 79 11
28 16 53 11 55 -14 9 -27 -15 -42 -73 -15 -58 -22 -64 -101 -75 -25 -4 -52
-14 -60 -23 -12 -14 -10 -15 17 -9 76 17 172 27 202 21 38 -7 58 -33 67 -88
17 -94 -70 -118 -151 -44 -30 27 -42 13 -15 -16 12 -13 22 -26 22 -29 0 -12
-101 -70 -145 -83 -43 -13 -46 -13 -66 8 -18 20 -20 30 -15 97 12 168 40 303
87 422 11 26 19 50 19 55 -1 14 -40 -38 -40 -53 0 -8 -4 -14 -8 -14 -14 0 -41
92 -47 161 l-7 66 36 22 c20 13 41 31 46 42 6 10 36 36 68 58 31 21 70 53 86
70 17 17 33 31 37 31 5 0 22 -20 38 -44z m-508 -5 c23 -19 23 -19 5 -40 -21
-24 -50 -15 -61 19 -13 41 17 53 56 21z m-54 -90 c-15 -76 -40 -161 -47 -161
-19 0 -18 35 3 119 17 73 24 88 35 78 8 -6 12 -22 9 -36z m48 2 c-17 -44 -33
-111 -32 -140 0 -33 -8 -51 -19 -41 -3 4 0 17 6 30 11 22 11 22 -10 -2 -18
-21 -20 -22 -16 -5 3 11 12 48 20 83 14 63 30 92 48 92 6 0 7 -8 3 -17z m185
-159 c0 -10 10 -57 22 -106 l22 -88 -21 -21 c-13 -13 -39 -23 -68 -27 -46 -5
-47 -4 -40 19 4 13 19 47 33 76 15 28 24 54 21 58 -3 3 -25 -1 -48 -10 l-42
-14 20 25 c42 54 86 102 94 103 4 1 7 -6 7 -15z m-235 -42 c-8 -9 -85 21 -85
33 0 11 10 9 44 -8 24 -12 42 -23 41 -25z m-394 -109 l26 -107 -25 -38 c-13
-21 -28 -38 -31 -38 -24 0 -48 39 -76 123 -27 82 -30 99 -19 114 12 17 13 16
22 -7 5 -14 18 -54 27 -90 18 -64 30 -88 39 -79 6 5 -26 138 -43 182 -14 36
-7 47 27 47 26 0 28 -4 53 -107z m337 90 c-10 -2 -28 -2 -40 0 -13 2 -5 4 17
4 22 1 32 -1 23 -4z m8 -109 c-52 -150 -73 -200 -127 -306 -43 -85 -119 -253
-119 -264 0 -2 5 -4 10 -4 6 0 10 4 10 10 0 5 23 56 50 112 55 112 56 103 3
-42 -19 -52 -37 -105 -40 -117 -7 -28 -23 -29 -56 -3 l-25 20 40 112 c21 62
59 165 84 228 76 192 80 203 100 269 17 58 36 83 51 68 7 -7 -28 -97 -73 -189
-28 -56 -114 -288 -114 -307 0 -22 26 33 63 134 24 66 65 168 90 227 26 59 47
114 47 122 0 13 30 39 37 32 2 -1 -13 -47 -31 -102z m-96 -5 c-19 -59 -61
-119 -83 -119 -5 0 -23 -16 -40 -35 -38 -44 -53 -44 -60 1 -6 34 -3 39 51 88
31 28 77 70 102 93 25 23 46 40 48 39 1 -2 -7 -32 -18 -67z m1278 -89 c49 -47
81 -90 101 -132 17 -34 29 -64 27 -65 -4 -4 -86 84 -87 94 0 4 -30 33 -67 65
-37 31 -80 68 -97 82 l-30 25 41 1 c38 0 47 -6 112 -70z m-1488 -30 c0 -5 -5
-10 -11 -10 -5 0 -7 5 -4 10 3 6 8 10 11 10 2 0 4 -4 4 -10z m146 -54 c-13
-31 -19 -36 -48 -36 l-33 1 45 39 c24 22 46 38 48 36 2 -2 -4 -20 -12 -40z
m-140 -13 c-11 -11 -17 4 -9 23 7 18 8 18 11 1 2 -10 1 -21 -2 -24z m-88 11
c12 -8 26 -13 31 -10 5 3 11 -1 15 -9 3 -8 1 -15 -5 -15 -5 0 -14 -10 -20 -22
l-10 -23 5 22 c3 16 -5 30 -26 48 -32 27 -26 34 10 9z m-18 -94 c0 -36 -7 -48
-52 -95 -29 -30 -58 -55 -65 -55 -16 0 -40 78 -27 89 21 21 130 100 137 101 4
0 7 -18 7 -40z m116 14 c7 -8 17 -44 24 -78 11 -58 10 -70 -11 -134 -12 -39
-26 -69 -31 -66 -5 3 -6 9 -4 13 3 4 -6 45 -20 91 -35 123 -31 206 10 194 11
-3 26 -13 32 -20z m80 -39 c-11 -30 -24 -55 -27 -55 -4 0 -9 21 -13 47 -7 50
1 63 40 63 l21 0 -21 -55z m488 -7 c-6 -57 -12 -68 -55 -116 -54 -60 -103
-150 -93 -175 4 -10 1 -17 -6 -17 -7 0 -10 -7 -6 -15 3 -8 1 -15 -4 -15 -5 0
-10 -30 -12 -67 l-3 -68 -55 104 -55 104 -8 -49 c-13 -78 0 -280 23 -359 11
-39 20 -99 20 -134 0 -52 3 -62 15 -57 22 8 18 0 -12 -28 -23 -21 -28 -35 -31
-89 -4 -64 -4 -66 87 -248 54 -109 115 -216 151 -264 64 -87 84 -141 33 -93
-45 42 -71 51 -127 44 l-52 -6 -32 131 c-25 105 -29 134 -20 149 10 16 9 23
-9 42 -12 13 -27 48 -34 78 -6 30 -22 96 -34 145 -13 50 -31 128 -40 175 -10
47 -21 105 -27 130 -5 25 -13 65 -17 90 -5 25 -18 94 -30 153 -12 59 -19 112
-16 117 3 5 0 18 -6 28 -10 15 -5 38 26 123 20 57 46 134 58 171 12 39 27 69
36 71 9 3 89 5 179 6 l163 1 -7 -62z m-4 -151 c0 -60 24 -81 85 -75 25 3 48 1
51 -4 8 -13 23 -199 17 -214 -3 -8 -23 -5 -66 8 -34 11 -97 29 -140 41 l-78
20 6 51 c4 28 18 74 32 101 26 52 72 113 86 114 4 1 7 -19 7 -42z m3415 10
c17 -9 50 -23 75 -32 39 -14 89 -59 78 -70 -4 -4 -123 -15 -208 -19 -25 -2
-54 -7 -65 -13 -11 -6 -49 -14 -85 -18 -73 -8 -102 -14 -210 -43 -173 -47
-394 -74 -429 -52 -12 7 -10 15 14 46 15 20 36 39 47 42 10 2 18 10 18 16 0
20 113 73 200 94 47 11 128 25 180 32 52 7 109 18 125 26 41 19 219 13 260 -9z
m-3979 -168 c13 -12 43 -26 67 -30 l42 -6 -55 -3 c-49 -1 -52 -3 -28 -12 24
-8 26 -12 17 -30 -6 -11 -17 -42 -25 -69 -16 -52 -31 -60 -56 -31 -28 31 -30
59 -7 104 12 24 27 46 33 51 8 5 6 12 -6 21 -11 8 -17 25 -17 42 1 22 3 24 6
8 2 -12 15 -32 29 -45z m4429 41 c144 -33 208 -56 288 -103 55 -34 61 -43 13
-23 -51 21 -189 29 -286 16 -47 -6 -130 -15 -185 -20 -55 -4 -125 -13 -155
-18 -100 -20 -200 -32 -255 -32 -30 0 -103 -7 -162 -15 -184 -24 -427 -36
-548 -25 -116 10 -266 39 -379 72 -56 17 -66 22 -52 30 12 7 50 6 114 -2 406
-49 441 -48 697 15 61 15 171 37 245 50 74 13 143 27 153 30 60 24 438 42 512
25z m-1321 -38 c29 -8 29 -8 10 -23 -12 -8 -26 -24 -33 -36 -15 -29 -36 -29
-131 -2 -60 17 -94 20 -170 17 -90 -4 -97 -6 -125 -35 l-30 -30 -169 -1 c-247
-3 -338 -35 -376 -133 -14 -35 -23 -45 -44 -47 -14 -2 -26 -8 -26 -13 0 -5 12
-6 28 -2 70 18 242 0 242 -26 0 -3 -33 -12 -72 -18 -40 -7 -109 -23 -153 -36
-44 -14 -120 -37 -170 -52 -49 -15 -108 -35 -130 -45 -58 -26 -85 -33 -85 -21
0 6 12 19 27 28 15 10 38 28 52 41 13 12 53 37 88 54 59 29 86 48 66 48 -19
-1 -149 -73 -181 -101 -23 -21 -38 -27 -40 -20 -9 26 98 255 150 323 43 57
394 125 663 128 50 1 99 6 110 11 23 11 455 3 499 -9z m-979 -4 c-58 -19 -140
-37 -167 -38 -14 0 -28 -3 -30 -7 -1 -5 -25 -17 -53 -28 -46 -18 -56 -29 -119
-124 -47 -72 -70 -117 -74 -145 -2 -23 -10 -52 -17 -66 -7 -14 -16 -43 -19
-65 -5 -33 -17 -50 -66 -95 -47 -42 -60 -61 -60 -83 0 -15 -9 -65 -19 -110
-11 -45 -27 -127 -37 -182 -10 -55 -23 -114 -30 -131 -13 -32 -42 -52 -53 -36
-70 100 -99 154 -126 231 -8 24 -28 65 -44 91 -35 56 -104 259 -121 356 -12
65 -11 74 7 115 11 24 45 74 74 110 l54 66 150 35 c198 48 371 82 420 84 22 0
72 6 110 13 85 14 124 18 195 19 49 0 52 -1 25 -10z m-2000 -229 c38 -190 62
-300 106 -485 34 -144 35 -153 8 -94 -60 129 -112 285 -155 463 -43 182 -46
202 -34 235 13 39 30 65 37 59 2 -2 19 -82 38 -178z m4584 122 c20 -10 50 -24
68 -31 17 -6 34 -21 36 -32 6 -23 -44 -138 -70 -159 -18 -16 -45 -18 -613 -45
-336 -15 -417 -16 -640 -6 -140 7 -273 14 -295 16 -22 3 -83 8 -135 11 -52 4
-102 9 -110 10 -8 2 -46 6 -85 9 -38 4 -87 9 -107 12 -22 3 -38 2 -38 -4 0 -5
26 -12 58 -15 31 -3 136 -14 232 -25 96 -11 236 -26 310 -32 201 -17 369 -39
420 -55 83 -27 338 -53 366 -37 22 12 21 12 -196 37 -175 20 -200 24 -200 35
0 5 84 9 186 10 102 0 189 2 193 4 3 2 78 7 166 11 88 3 203 10 255 15 52 5
158 12 235 15 l140 7 77 -79 c96 -97 162 -216 188 -338 45 -216 46 -235 26
-565 -4 -80 -47 -229 -96 -335 -15 -33 -46 -100 -69 -149 -50 -108 -121 -206
-211 -289 -76 -70 -133 -103 -200 -113 -25 -3 -51 -11 -57 -16 -18 -14 -204 8
-348 41 -130 30 -245 51 -277 51 -20 0 -39 4 -42 9 -3 4 -31 11 -63 14 -32 3
-130 15 -218 26 -315 41 -636 26 -1165 -53 -130 -19 -321 -38 -327 -33 -2 3
20 18 49 34 93 53 154 112 194 188 20 39 50 86 65 105 16 19 29 43 29 54 0 11
18 68 39 126 22 58 42 134 46 169 3 35 14 85 22 110 48 136 -18 725 -98 883
-57 111 -141 207 -194 221 -11 2 1 5 28 6 26 0 47 5 47 10 0 12 -126 22 -188
14 l-54 -6 20 40 c36 69 145 101 362 104 80 1 168 3 195 4 28 2 55 0 60 -3 6
-4 16 -7 23 -8 7 -1 34 -7 60 -13 308 -71 509 -78 877 -29 44 5 130 14 190 18
118 8 290 28 315 37 8 3 53 7 100 10 47 3 101 8 120 13 19 4 86 8 149 9 93 1
120 -2 150 -18z m110 -17 c14 -12 -19 -1 -35 12 -18 14 -18 14 6 3 14 -6 27
-13 29 -15z m-3693 -105 c-59 -74 -84 -136 -67 -166 5 -10 12 -40 16 -68 8
-57 79 -280 99 -310 7 -11 37 -73 66 -139 30 -65 69 -137 87 -160 18 -22 33
-46 33 -52 0 -14 -162 -86 -172 -76 -3 4 -27 47 -53 97 -25 49 -57 103 -69
120 -13 16 -27 41 -31 55 -4 14 -21 50 -36 80 -45 89 -124 341 -130 415 -6 81
15 103 25 26 4 -28 22 -82 42 -122 19 -39 39 -94 44 -123 5 -28 15 -71 24 -96
24 -70 144 -290 185 -339 20 -24 44 -53 53 -65 l18 -21 0 23 c0 13 -16 38 -39
60 -21 20 -51 62 -68 92 -16 30 -41 73 -56 95 -15 22 -27 49 -27 60 0 11 -13
52 -29 90 -15 39 -31 87 -35 107 -4 21 -25 77 -48 124 -36 74 -42 96 -42 156
-1 62 1 71 24 88 49 37 181 103 238 119 2 1 -22 -31 -52 -70z m-1064 -71 c28
-124 28 -123 -32 -155 -19 -10 -66 -38 -105 -61 -38 -24 -79 -48 -90 -55 -71
-42 -151 -93 -156 -100 -4 -5 -10 -4 -14 2 -14 24 109 223 234 376 49 61 71
80 90 80 13 1 26 6 29 13 9 29 20 5 44 -100z m2280 -92 c9 -11 20 -42 23 -69
6 -42 4 -76 -11 -207 -2 -19 -8 -36 -14 -38 -7 -3 -7 -8 1 -18 9 -11 8 -14 -5
-14 -15 0 -18 -4 -20 -32 -1 -7 -9 -21 -18 -30 -10 -10 -18 -26 -18 -36 0 -11
-11 -24 -24 -30 -19 -8 -30 -6 -57 10 -55 32 -79 59 -110 120 -23 46 -29 71
-29 121 0 76 15 124 40 132 11 3 31 20 46 38 34 40 58 57 103 73 43 15 70 10
93 -20z m-210 -26 c-23 -16 -53 -48 -68 -69 -23 -35 -26 -50 -26 -123 0 -75 3
-89 31 -140 45 -81 155 -170 193 -156 7 3 36 38 62 78 l49 73 11 146 c11 135
13 144 26 121 35 -61 80 -206 80 -260 0 -19 7 -57 15 -83 16 -55 40 -457 31
-522 -4 -23 -13 -51 -21 -61 -9 -12 -14 -43 -15 -82 0 -47 -9 -87 -36 -160
-55 -147 -149 -325 -204 -385 -54 -59 -162 -127 -202 -127 -15 0 -30 -4 -33
-10 -9 -14 -136 -12 -161 3 -12 6 -44 24 -71 39 -96 52 -204 191 -223 287 -4
20 -13 56 -20 81 -8 27 -10 61 -6 83 6 32 11 37 42 43 41 8 78 -6 121 -46 17
-16 52 -42 77 -58 45 -29 48 -29 104 -17 56 12 104 32 152 65 32 22 120 67
240 123 107 50 127 69 159 146 21 48 22 64 16 140 -4 47 -11 96 -16 109 -14
36 -80 117 -116 141 -27 20 -36 21 -70 12 -21 -6 -66 -26 -99 -44 l-62 -34 -1
66 c0 61 -3 68 -31 92 -16 14 -30 29 -30 32 0 4 38 7 85 7 57 0 85 4 85 12 0
11 -75 9 -360 -9 -104 -6 -105 -6 -152 -46 l-48 -40 0 -83 c0 -52 6 -98 15
-122 30 -74 105 -91 210 -46 33 14 80 34 105 44 25 10 79 39 120 64 41 25 78
46 83 46 4 0 -3 -15 -16 -32 -31 -41 -48 -110 -54 -209 l-4 -75 74 -62 c42
-34 86 -66 99 -71 22 -9 22 -10 -12 -23 -43 -16 -196 -94 -230 -118 -30 -20
-102 -50 -150 -61 -46 -11 -99 13 -170 76 l-54 48 -100 -6 c-56 -3 -119 -12
-142 -20 -22 -8 -80 -25 -130 -37 -78 -19 -152 -41 -284 -82 -69 -22 -196 -79
-223 -101 -21 -18 -32 -43 -52 -122 -34 -134 -44 -148 -150 -220 -188 -128
-267 -136 -362 -40 -29 30 -63 95 -63 121 0 25 18 41 90 79 154 80 200 130
200 217 0 85 -58 142 -145 142 -62 0 -163 -46 -233 -106 -50 -44 -84 -49 -100
-14 -6 15 -26 29 -49 36 -21 7 -41 16 -46 19 -17 16 -41 169 -34 211 6 30 15
39 60 62 28 15 77 37 107 48 30 12 66 28 80 35 14 8 59 28 100 46 41 17 100
43 130 57 37 18 76 28 120 30 64 4 67 3 115 -35 112 -88 157 -113 206 -113 28
0 51 6 58 14 7 8 38 24 69 35 31 10 80 28 107 39 28 10 104 40 170 65 128 48
198 80 256 115 31 19 39 32 57 95 12 39 26 110 31 157 6 47 17 108 25 135 8
28 17 66 20 87 10 59 73 105 248 182 20 9 45 16 55 16 11 0 23 3 27 7 11 11
236 71 270 72 l29 1 -41 -30z m3215 -49 c32 -24 41 -43 58 -123 19 -94 18
-164 -3 -208 -32 -65 -169 -125 -200 -87 -13 15 -27 87 -17 87 4 0 18 -9 32
-20 26 -20 53 -27 53 -12 0 4 -21 20 -46 36 -48 30 -83 87 -84 135 0 24 52
109 111 180 36 43 51 45 96 12z m-135 -28 c-21 -27 -49 -65 -61 -86 -13 -20
-27 -34 -32 -31 -10 6 -71 126 -66 129 24 17 95 34 140 34 l58 1 -39 -47z
m-4853 -19 c-18 -21 -27 -17 -21 11 3 20 7 23 18 14 11 -9 11 -15 3 -25z m91
-94 c24 -33 48 -60 52 -60 5 0 8 -5 8 -11 0 -23 363 -520 419 -573 17 -17 31
-36 31 -43 0 -14 -43 -35 -135 -64 -96 -30 -112 -27 -172 37 -29 30 -58 66
-65 79 -7 13 -35 54 -61 91 -27 37 -66 102 -86 143 -21 42 -56 112 -78 156
-76 150 -80 197 -22 260 23 25 47 45 53 45 6 0 31 -27 56 -60z m-192 -295 c-2
-1 -13 -6 -25 -9 -19 -6 -23 -2 -29 31 -3 21 -15 72 -25 113 -29 117 -22 114
32 -13 28 -65 49 -120 47 -122z m1 -28 c-14 -7 -34 -19 -44 -27 -16 -13 -18
-13 -13 0 5 17 46 40 68 39 8 0 3 -6 -11 -12z m1527 -11 c9 -10 14 -36 14 -77
0 -49 -6 -75 -31 -125 -44 -88 -55 -96 -85 -59 -22 26 -24 39 -23 104 2 77 6
85 61 143 30 32 43 34 64 14z m253 -17 c27 -26 31 -38 31 -83 0 -42 -5 -57
-22 -73 -23 -20 -151 -83 -168 -83 -6 0 -10 -5 -10 -11 0 -6 -7 -9 -15 -5 -8
3 -15 1 -15 -5 0 -6 -4 -7 -10 -4 -5 3 -10 2 -10 -4 0 -5 -8 -10 -17 -10 -10
1 -28 -2 -40 -6 -29 -9 -31 10 -3 27 11 7 20 20 20 28 0 8 10 33 22 55 17 32
21 56 21 123 l0 82 93 0 c90 0 93 -1 123 -31z m-1748 -31 c6 -24 20 -70 29
-103 23 -80 34 -145 23 -145 -10 0 -102 277 -95 285 15 15 33 0 43 -37z m-4
-143 c31 -98 33 -118 12 -123 -12 -2 -18 6 -22 30 -2 18 -14 75 -26 127 -11
52 -21 99 -20 105 1 17 29 -52 56 -139z m2062 39 c63 -72 73 -98 79 -203 4
-79 1 -101 -14 -130 -32 -63 -64 -91 -103 -91 -46 1 -66 13 -135 78 -54 51
-56 55 -56 104 0 88 38 192 90 246 56 58 85 57 139 -4z m-2089 -133 c0 -11 3
-26 6 -34 3 -10 -2 -18 -15 -22 -22 -7 -141 13 -141 24 0 7 116 49 138 50 6 1
12 -8 12 -18z m-131 -63 c48 -11 70 -28 36 -28 -8 0 -15 -4 -15 -8 0 -5 -6 -9
-14 -9 -8 0 -60 -21 -115 -48 -56 -27 -104 -46 -107 -43 -19 19 73 123 122
138 39 11 36 11 93 -2z m5180 -34 c31 -6 44 -24 17 -24 -7 0 -39 -13 -70 -28
l-56 -29 0 28 c0 59 23 70 109 53z m92 -66 c47 -91 -1 -229 -103 -296 -86 -57
-188 -52 -188 9 0 15 4 30 9 33 5 3 14 30 21 58 24 106 80 173 175 212 33 14
61 25 62 26 2 0 12 -19 24 -42z m-3878 -380 c16 -68 34 -134 42 -148 8 -14 24
-43 36 -65 12 -22 39 -60 60 -86 40 -48 40 -62 -1 -74 -62 -18 -258 -92 -345
-130 -16 -7 -88 -38 -160 -68 -71 -31 -181 -81 -244 -112 -63 -32 -119 -58
-125 -59 -6 -1 -22 -8 -36 -16 -14 -8 -29 -15 -35 -16 -5 -1 -19 -6 -30 -10
-16 -6 -18 -5 -9 7 7 8 22 48 35 89 19 61 24 104 27 230 3 142 9 202 30 300 7
31 15 39 78 70 81 40 110 52 179 73 28 8 88 27 135 42 47 15 117 36 155 46 39
9 93 24 120 32 28 9 52 16 55 16 3 1 18 -54 33 -121z m-1160 23 c79 -80 56
-158 -70 -241 -43 -27 -84 -48 -92 -45 -7 3 -19 1 -26 -5 -18 -15 -77 29 -87
65 -5 17 -3 63 4 108 l12 79 80 39 c103 50 130 50 179 0z m-415 -77 c39 -38
68 -40 105 -7 24 22 27 14 16 -37 -16 -70 -3 -129 37 -166 31 -30 33 -36 28
-76 -7 -60 37 -135 108 -183 47 -31 60 -35 119 -35 65 0 67 1 180 75 63 42
126 89 141 105 15 17 31 30 34 30 10 0 -6 -272 -17 -292 -5 -9 -11 -33 -13
-52 -9 -70 -54 -112 -128 -122 -62 -8 -187 27 -251 70 -90 61 -247 222 -247
253 0 6 -9 18 -19 27 -25 22 -103 181 -130 264 -11 34 -23 89 -27 122 -6 52
-4 60 10 60 9 0 33 -16 54 -36z"/>
<path d="M1422 4908 c2 -25 8 -34 26 -36 24 -4 29 16 12 49 -18 32 -42 24 -38
-13z"/>
<path d="M1241 4854 c-26 -34 -28 -74 -3 -74 25 0 42 20 42 50 0 46 -15 55
-39 24z"/>
<path d="M575 2609 c-16 -31 -15 -46 3 -35 14 9 33 66 22 66 -5 0 -17 -14 -25
-31z"/>
<path d="M2548 2406 c-10 -7 -18 -16 -18 -18 0 -7 67 16 76 25 13 13 -41 6
-58 -7z"/>
<path d="M2965 2430 c28 -12 67 -12 60 0 -3 6 -23 10 -43 9 -30 0 -33 -2 -17
-9z"/>
<path d="M3050 2420 c20 -13 53 -13 45 0 -3 6 -18 10 -33 10 -21 0 -24 -2 -12
-10z"/>
<path d="M3118 2413 c7 -3 16 -2 19 1 4 3 -2 6 -13 5 -11 0 -14 -3 -6 -6z"/>
<path d="M3150 2410 c0 -5 16 -10 36 -10 21 0 33 4 29 10 -3 6 -19 10 -36 10
-16 0 -29 -4 -29 -10z"/>
<path d="M3260 2400 c0 -5 12 -10 26 -10 14 0 23 4 19 10 -3 6 -15 10 -26 10
-10 0 -19 -4 -19 -10z"/>
</g>
</svg>
