<svg xmlns="http://www.w3.org/2000/svg" xmlns:xlink="http://www.w3.org/1999/xlink" viewBox="0 0 500 500"><defs><radialGradient id="b" cx="250" cy="251.7" r="182.7" gradientUnits="userSpaceOnUse"><stop offset="0" stop-color="#672d02"/><stop offset=".3" stop-color="#642d02"/><stop offset=".6" stop-color="#5a2d02"/><stop offset=".8" stop-color="#492d02"/><stop offset="1" stop-color="#352d02"/></radialGradient><radialGradient id="a" cx="189" cy="375.7" r="29.5" gradientUnits="userSpaceOnUse"><stop offset="0" stop-color="#ffae21"/><stop offset=".3" stop-color="#fbaa1f"/><stop offset=".6" stop-color="#f09f17"/><stop offset=".9" stop-color="#dd8d0a"/><stop offset="1" stop-color="#d18102"/></radialGradient><radialGradient id="c" cx="160" cy="341.5" r="39.2" xlink:href="#a"/><radialGradient id="d" cx="114" cy="219.5" r="29.1" xlink:href="#a"/><radialGradient id="e" cx="155.2" cy="132.9" r="28.2" xlink:href="#a"/><radialGradient id="f" cx="194.2" cy="110.9" r="23.7" xlink:href="#a"/><radialGradient id="g" cx="140.5" cy="306.2" r="41.3" xlink:href="#a"/><radialGradient id="h" cx="130.2" cy="169.9" r="29.1" xlink:href="#a"/><radialGradient id="i" cx="123.8" cy="266.8" r="35" xlink:href="#a"/><radialGradient id="j" cx="311" cy="375.7" r="29.5" xlink:href="#a"/><radialGradient id="k" cx="250" cy="407" r="27.3" xlink:href="#a"/><radialGradient id="l" cx="340" cy="341.5" r="39.2" xlink:href="#a"/><radialGradient id="m" cx="202.1" cy="213.1" r="7.7" xlink:href="#a"/><radialGradient id="n" cx="386" cy="219.5" r="29.1" xlink:href="#a"/><radialGradient id="o" cx="369.8" cy="169.9" r="29.1" xlink:href="#a"/><radialGradient id="p" cx="344.8" cy="132.9" r="28.2" xlink:href="#a"/><radialGradient id="q" cx="305.8" cy="110.9" r="23.7" xlink:href="#a"/><radialGradient id="r" cx="250" cy="108.4" r="32.7" xlink:href="#a"/><radialGradient id="s" cx="250" cy="250.7" r="32.2" xlink:href="#a"/><radialGradient id="t" cx="359.5" cy="306.2" r="41.3" xlink:href="#a"/><radialGradient id="u" cx="376.2" cy="266.8" r="35" xlink:href="#a"/><radialGradient id="v" cx="250" cy="363.4" r="42.5" xlink:href="#a"/><radialGradient id="w" cx="297.9" cy="213.1" r="7.7" xlink:href="#a"/><radialGradient id="x" cx="250" cy="205.5" r="88.5" xlink:href="#a"/><radialGradient id="y" cx="215.6" cy="300.3" r="32.5" xlink:href="#a"/><radialGradient id="z" cx="284.4" cy="300.3" r="32.5" xlink:href="#a"/></defs><g data-name="Layer 10"><path fill="url(#b)" d="M433 261l-4-18c-2-6-8-30-18-44h14l-10-16a141 141 0 00-30-35l14-4-13-12c-15-13-32-23-38-27l5-3-14-8c-16-7-41-10-43-10l2-7-10-3a171 171 0 00-38-5 170 170 0 00-38 5l-10 3 2 7c-2 0-27 3-43 10l-14 8 5 3c-6 4-23 14-38 27l-13 12 14 4a141 141 0 00-30 35l-10 16h14c-10 14-16 38-18 44l-4 18 14-5c-1 9-5 31-3 47l2 16 14-9c1 33 12 47 13 49l7 9 11-12c3 16 18 38 19 41l10 14 11-21c8 11 23 25 30 32l13 11 5-20 37 21 37-21 5 20 13-11c7-7 22-21 30-32l11 21 10-14c1-3 16-25 19-41l11 12 7-9c1-2 12-16 13-49l14 9 2-16c2-16-2-38-3-47z"/><path fill="#acacac" d="M291 435l-5-21-36 21-36-21-5 21-15-13c-7-7-21-20-29-30l-11 21-11-16c-1-3-15-23-19-39l-10 11-8-10c-1-2-12-16-14-47l-13 8-2-18c-2-15 1-35 2-45l-14 5 5-21c1-4 7-27 16-42l-14 1 11-18a144 144 0 0129-34l-14-4 15-14c13-12 28-21 36-26l-5-4 17-8c13-7 34-9 41-10l-2-7 12-3a172 172 0 0138-5 172 172 0 0138 5l12 3-2 7c7 1 28 3 41 10l17 8-5 4c8 5 23 14 36 26l15 14-14 4a144 144 0 0129 34l11 18-14-1c9 15 15 38 16 42l5 21-14-5c1 10 4 30 2 45l-2 18-13-8c-2 31-13 45-14 47l-8 10-10-11c-4 16-18 36-19 39l-11 16-11-21c-8 10-22 23-29 30zm-80-25l39 21 39-21 4 19 11-9c6-6 22-21 30-32l1-2 11 21 8-12c2-2 16-25 20-40v-3l12 13 6-8c1-1 12-16 13-48v-3l14 9 1-13c2-16-1-38-3-47v-3l14 5-4-15c-1-5-7-30-17-43l-2-3 15 1-9-14a139 139 0 00-30-34l-2-2 14-4-11-11c-15-13-32-24-37-26l-3-1 5-4-12-6c-15-8-40-10-43-10l-1-1 2-7-9-3a168 168 0 00-37-4 168 168 0 00-37 4l-9 3 2 7-1 1c-3 0-28 2-43 10l-12 6 5 4-3 1c-5 2-22 13-37 26l-11 11 14 4-2 2a139 139 0 00-30 34l-9 14 15-1-2 3c-10 13-16 38-17 43l-4 15 14-5v3c-2 9-5 31-3 47l1 13 14-9v3c1 32 12 47 13 48l6 8 12-13v3c4 15 18 38 20 40l8 12 11-21 1 2c8 11 24 26 30 32l11 9z"/><path fill="url(#a)" d="M207 388l-5 25s-28-25-31-34l18-41-9 28z"/><path fill="url(#c)" d="M186 330l-33 61s-16-25-19-39l46-60s-15 24 6 38z"/><path fill="url(#d)" d="M134 225l-53 19s8-34 20-44l46-5s-13 25-13 30z"/><path fill="url(#e)" d="M121 139l52 14 16-21-31-20s-20 11-37 27z"/><path fill="url(#f)" d="M166 102l34 26 23 1-18-36s-25 2-39 9z"/><path fill="url(#g)" d="M177 283l-62 69s-11-13-11-44l60-47a41 41 0 0113 22z"/><path fill="url(#h)" d="M93 188l61-3 13-23-42-10s-17 12-32 36z"/><path fill="url(#i)" d="M88 301l72-46s-19-23-22-22l-46 19s-6 30-4 49z"/><path fill="url(#j)" d="M293 388l5 25s28-25 31-34l-18-41 9 28z"/><path fill="url(#k)" d="M250 408l-36-16v10l36 20 36-20v-10l-36 16z"/><path fill="url(#l)" d="M314 330l33 61s16-25 19-39l-46-60s15 24-6 38z"/><path fill="url(#m)" d="M194 206l16 9s-5 7-11 4-5-13-5-13z"/><path fill="url(#n)" d="M366 225l53 19s-8-34-20-44l-46-5s13 25 13 30z"/><path fill="url(#o)" d="M407 188l-61-3-13-23 42-10s17 12 32 36z"/><path fill="url(#p)" d="M379 139l-52 14-16-21 31-20s20 11 37 27z"/><path fill="url(#q)" d="M334 102l-34 26-23 1 18-36s25 2 39 9z"/><path fill="url(#r)" d="M250 78a161 161 0 00-35 5l19 51 16 4 16-4 19-51a161 161 0 00-35-5z"/><path fill="url(#s)" d="M267 254c-3 6-3 15-3 15h-2v-15c1-2 10-13 20-12l-2-9h-11l-8 6c0 1 1-11 17-13 0 0-10-7-28-7s-28 7-28 7c16 2 17 13 17 13s-4-5-8-6h-11l-2 9c10-1 19 10 20 12v15h-2s0-9-3-15-15-6-15-6v21l32 14 32-14v-21s-11 1-15 6z"/><path fill="url(#t)" d="M323 283l62 69s11-13 11-44l-60-47a41 41 0 00-13 22z"/><path fill="url(#u)" d="M412 301l-72-46s19-23 22-22l46 19s6 30 4 49z"/><path fill="url(#v)" d="M304 362l-6-19s-12 14-15 14-10-20-33-20-31 20-33 20-15-14-15-14l-6 19 12 10 8-10-2 13 16 8 7-18v21l13 4 13-4v-21l7 18 16-8-2-13 8 10z"/><path fill="url(#w)" d="M306 206l-16 9s5 7 11 4 5-13 5-13z"/><path fill="url(#x)" d="M302 135l-1 2-26 1-2 4-21 5 2 44-4 4-4-4 2-44-21-5-2-4-26-1-1-2c-5 0-54 84-51 91 24 12 45 50 45 50l18-18v-18a89 89 0 01-12 4c-6 1-21-26-21-26s20 19 25 19 8-8 8-8-4 4-9 4-26-34-26-34l-9-1c-2-12 11-25 11-25s-6 18-4 18c30 3 50 22 50 22l6-14-11-24 18 25s-19 25-11 19 25-6 25-6 18 0 25 6-11-19-11-19l18-25-11 24 6 14s20-19 50-22c2 0-4-18-4-18s13 13 11 25l-9 1s-20 34-26 34-9-4-9-4 3 7 8 8 25-19 25-19-15 27-21 26a89 89 0 01-12-4v18l18 18s21-38 45-50c3-7-46-91-51-91zm-106 46l2-7c2 2 12 11 13 15zm93 8c1-4 11-13 13-15l2 7z"/><path fill="url(#y)" d="M246 308v13s-39 7-44 14l-16-19 13 10s18-11 24-11-10-3-25 5l-12-18 3-10 13 11s17-4 25-4l-22-1-11-14 16-18v16l15 13 5-6 5 3-3 7z"/><path fill="url(#z)" d="M254 308v13s39 7 44 14l16-19-13 10s-18-11-24-11 10-3 25 5l12-18-3-10-13 11s-17-4-25-4l22-1 11-14-16-18v16l-15 13-5-6-5 3 3 7z"/></g></svg>