<svg xmlns="http://www.w3.org/2000/svg" fill="#fff" viewBox="0 0 500 555"><path d="M161.644 114.016l21.315-28.1942 44.692-58.4523 15.753-20.6303C244.589 5.1644 248.007 0 250 0c1.931 0 4.952 4.5593 6.075 6.0515l15.754 20.6303 46.233 60.5154c4.198 5.5908 17.445 21.7238 19.609 26.8188h-59.589v172.607l77.397-77.707 24.658-24.757 13.699-14.441-29.452-12.089-25.343-11.292 42.466-5.006 109.589-12.873c-2 4.249-10.034 11.862-13.507 15.816l-35.062 38.51-24.835 27.507-75.849 83.209-33.651 37.134c-2.569 2.709-8.63 10.178-11.617 11.278-1.328.495-3.363.413-4.794.413h-84.247c-1.294 0-3.424.096-4.602-.392-2.425-1.011-8.87-8.92-11.158-11.299l-34.986-38.51L56.7329 182.096l-29.3973-32.32-19.1164-21.318 28.7671 3.328 76.0277 8.94 33.561 3.947 13.699 2.352-54.11 24.068 31.507 30.946 50.685 50.888 20.548 20.63 13.014 12.378V114.016h-60.274zM72.6027 259.804c1.1233 2.84.685 7.193.685 10.315V360.204c.0274 18.774 11.0958 41.288 23.4041 55.014 7.2812 8.128 13.5482 13.203 21.8012 19.998 35.254 29.02 85.733 37.835 130.137 37.767l16.438-1.314 15.069-.866c24.733-2.366 49.233-7.516 71.918-17.976 11.5-5.302 22.308-12.082 32.192-20.004 9.431-7.565 25.527-23.636 31.294-34.109 5.041-9.153 11.843-28.814 11.856-39.198v-99.712l11.213 13.753 18.157 24.069 25.569 33.696L500 355.39l-30.822-17.192c-.027 8.094-2.171 22.089-3.692 30.258-4.781 25.657-13.76 51.851-29.507 72.894-3.479 4.648-7.328 8.823-11.26 13.066l-6.911 7.536c-28.911 27.899-65.363 44.624-104.109 53.426-13.103 2.978-26.343 4.882-39.726 5.804l-6.85.626c-1.753.021-5.13-.255-6.561.701-1.761 1.176-2.452 4.869-3.028 6.863l-4.794 17.192c-.802 2.806-1.028 6.388-3.425 8.252l-8.219-33.008c-14.48 0-28.911-1.947-43.151-4.525-58.883-10.659-117.5957-40.855-146.356-95.876-8.0959-15.486-13.9589-31.592-17.0547-48.825l-2.9179-19.942-1.4794-13.754L0 355.39l9.3356-13.065 18.4589-24.069 44.8082-58.452zM203.425 365.705h93.15v32.321h-93.15v-32.321zm0 52.264h93.15v31.633h-93.15v-31.633z"/></svg>