<svg xmlns="http://www.w3.org/2000/svg" fill="#fff" viewBox="0 0 500 538"><path d="M418.804 352.499c5.744-1.148 6.51 5.741 2.298 6.89-4.212 1.531-7.276-4.976-2.298-6.89zm14.934-9.186h1.915c6.127.765 4.978 10.334-1.149 9.569-4.595-.766-6.127-6.89-.766-9.569zm-338.12 51.672h3.063c14.934.383 21.826 18.756 11.487 29.09a17.237 17.237 0 01-22.483 1.027 17.222 17.222 0 01-4.321-22.079c3.063-4.593 7.275-6.889 12.253-8.038zm293.318-132.818H392c14.934.383 21.826 18.756 11.487 29.09a17.235 17.235 0 01-28.748-9.21 17.22 17.22 0 011.944-11.842c3.063-4.593 7.275-6.889 12.253-8.038zM125.868 74.232h3.064c14.934.383 21.826 18.755 11.487 29.09a17.236 17.236 0 01-28.748-9.21 17.22 17.22 0 011.944-11.842c3.063-4.593 7.275-6.89 12.253-8.038zm52.461 293.96s4.978-28.324 27.953-47.079c4.595-3.063 10.722-8.804 33.314-16.076 2.681-1.149 25.273-7.273 37.527-19.904 4.212-4.21 19.912-16.076 31.782-42.486-1.914 1.148-24.89 26.793-55.14 22.2-3.064 3.062-3.83 4.976-39.824 17.607-14.169 5.358-23.359 7.655-28.337 19.52-2.297 6.125-10.339 24.497-9.573 55.884.383 3.827 2.298 10.334 2.298 10.334zm133.64-137.028s-48.248 57.414-101.092 4.21c-4.212-4.21-15.317-14.928-24.507-16.076-3.829-.765-7.658-21.434-46.717-39.424 8.808-3.828 54.376 3.062 68.161 13.014 4.595 4.593 28.336 23.731 47.865 37.127 2.681 1.914 14.168 8.038 46.334 4.594l9.956-3.445zM170.287 360.537s-5.361-23.349 8.425-59.711c.383-3.062-4.595-15.693 4.595-45.166 1.148-5.358 11.104-53.203-55.141-73.107 2.68 3.062 24.507 28.324 26.804 62.007.383 5.742 1.532 19.138-4.595 34.449-2.297 6.507-9.573 23.731-1.148 43.635 3.063 7.272 21.06 37.893 21.06 37.893zM15.203 395.368c5.744-1.148 6.51 5.742 2.298 6.89-4.212 1.531-7.276-4.976-2.298-6.89zm1.532 14.545h1.915c6.127.766 4.978 10.335-1.149 9.569-4.595-.765-6.127-6.89-.766-9.569zm134.406-395.01s-47.865-4.21-71.606 8.804c-9.19 5.359-35.995 19.904-39.059 64.304.383 4.593-5.743 45.549 48.632 78.466 3.063 1.914 40.972 27.942 49.397 50.525.383 3.444 3.829 6.506 3.446 30.62 0 0 0 2.68-2.298-4.21-.765-3.062-18.38-32.535-53.226-43.635-4.978-1.531-50.163-17.224-73.904-61.241-2.297-4.211-33.697-60.86 12.637-109.47 3.446-3.445 41.738-45.166 117.557-22.2 4.595.765 10.339 4.21 10.339 4.21s2.297 2.297-.766 3.828h-1.149zm97.263 195.209s35.994 9.569 73.904-25.645c1.149-1.531 71.606-57.797 148.957-8.038 3.063 2.679 44.419 31.769 22.209 108.704-1.531 5.359-9.19 24.879-42.121 53.586-2.681 1.532-8.424 1.914-3.446-5.741 3.446-6.89 51.694-58.18 6.892-114.445-6.51-6.507-30.251-38.659-92.284-19.521-13.786 7.655-49.78 26.41-87.307 24.496-4.212-.382-5.744 1.532-24.89-11.1-1.531-1.148-1.914-2.296-1.914-2.296zm-21.061 113.297s-9.19 12.248-13.785 28.707c-.383 1.914-4.213 6.124 1.148 54.352-.383 4.593 1.532 47.08-10.721 69.663-3.064 6.889-46.717 101.048-144.745 41.338-20.295-18.373-34.846-26.028-42.122-85.739-.383-2.296 1.532-5.358 4.595-1.148 1.915 4.21 28.337 68.897 79.648 66.983 4.595.383 59.736 2.297 79.265-62.773 1.532-8.803 3.447-6.124 4.212-35.214.766-6.506-1.531-34.065 14.551-56.265 3.83-4.976 11.105-13.78 17.615-16.842 6.893-3.062 10.339-3.062 10.339-3.062zM166.458 15.287h1.915c6.126.765 4.978 10.334-1.149 9.569-4.595-.766-6.127-6.89-.766-9.57zm14.168 8.803c5.744-1.148 6.51 5.741 2.298 6.89-4.212 1.53-7.276-4.976-2.298-6.89z"/></svg>