<svg xmlns="http://www.w3.org/2000/svg" xmlns:xlink="http://www.w3.org/1999/xlink" width="220" height="294" version="1.1" viewBox="0 0 220 294"><title>Snek</title><desc>Created with Sketch.</desc><g id="Page-1" fill="none" fill-rule="evenodd" stroke="none" stroke-width="1"><g id="Letter" fill="#000" transform="translate(-86.000000, -253.000000)"><g id="Snek" transform="translate(86.143145, 253.500000)"><path id="Combined-Shape" d="M36.1773696,0.123245115 C15.732164,15.3188583 1.65110164,38.2488085 0.325061814,69.0043239 C86.2835253,322.49801 138.33397,304.427554 219.51233,71.4919407 C218.973797,44.6770269 208.554633,23.5611947 192.523153,8.20537327 C202.716684,22.7861109 209.071605,41.3729147 209.497894,63.9603044 C133.597206,299.509117 83.8072725,301.259905 11.5069476,63.9603044 C12.60139,36.9482651 22.0072717,15.6723439 36.1773696,0.123245115 Z"/><path id="Path-6" d="M103.129741,241.380082 L102.846892,293.224621 L109.326089,283.29643 L116.208729,292.924232 L116.208729,241.380082 C107.038414,242.343422 103.129741,241.380082 103.129741,241.380082 Z"/><ellipse id="Oval-3" cx="46.753" cy="96.752" rx="9.775" ry="9.023"/><ellipse id="Oval-3" cx="175.706" cy="96.752" rx="9.775" ry="9.023"/></g></g></g></svg>