<svg xmlns="http://www.w3.org/2000/svg" enable-background="new 0 0 612 612" version="1.1" viewBox="0 0 612 612" xml:space="preserve"><g fill="#fff"><rect width="153.9" height="22.4" x="169.6" y="172" transform="matrix(.6438 .7652 -.7652 .6438 228 -123.43)"/><rect width="141.6" height="22.4" x="46.1" y="174.8" transform="matrix(-.6476 .762 -.762 -.6476 334.42 217.43)"/><rect width="326.6" height="22.4" x="21.5" y="391.1" transform="matrix(-.6704 -.742 .742 -.6704 10.139 809.13)"/><path d="m345.2 255.4c0 18-14.6 32.7-32.7 32.7-18 0-32.7-14.6-32.7-32.7s14.6-32.7 32.7-32.7c18 0 32.7 14.6 32.7 32.7zm-32.7-14.5c-8 0-14.5 6.5-14.5 14.5s6.5 14.5 14.5 14.5 14.5-6.5 14.5-14.5-6.5-14.5-14.5-14.5z"/><path d="m211.4 113c0 18-14.6 32.7-32.7 32.7s-32.7-14.6-32.7-32.7 14.6-32.7 32.7-32.7 32.7 14.7 32.7 32.7zm-32.7-14.4c-8 0-14.5 6.5-14.5 14.5s6.5 14.5 14.5 14.5 14.5-6.5 14.5-14.5-6.5-14.5-14.5-14.5z"/><path d="m91.1 259.1c0 18-14.6 32.7-32.7 32.7s-32.7-14.6-32.7-32.7c0-18 14.6-32.7 32.7-32.7s32.7 14.7 32.7 32.7zm-32.7-14.4c-8 0-14.5 6.5-14.5 14.5s6.5 14.5 14.5 14.5 14.5-6.5 14.5-14.5c0-8.1-6.5-14.5-14.5-14.5z"/><circle cx="117.2" cy="259.1" r="17.1"/><polygon points="205.5 358.9 193.7 317.9 164.1 348.6"/><path d="m345.2 534.1c0 18-14.6 32.7-32.7 32.7-18 0-32.7-14.6-32.7-32.7 0-18 14.6-32.7 32.7-32.7 18 0.1 32.7 14.7 32.7 32.7zm-32.7-14.4c-8 0-14.5 6.5-14.5 14.5s6.5 14.5 14.5 14.5 14.5-6.5 14.5-14.5-6.5-14.5-14.5-14.5z"/><circle cx="567.2" cy="258" r="19.7"/><circle cx="439" cy="107.1" r="19.7"/><rect width="162.3" height="22.4" x="297.3" y="167.9" transform="matrix(-.6438 .7652 -.7652 -.6438 759.15 4.9513)"/><rect width="171.1" height="22.4" x="417.5" y="171.2" transform="matrix(.6476 .762 -.762 .6476 316.3 -319)"/><rect width="340.4" height="22.4" x="271.9" y="385.2" transform="matrix(.6704 -.742 .742 .6704 -148.4 458.74)"/><circle cx="188.2" cy="175.6" r="17.1"/><circle cx="253.4" cy="250" r="17.1"/><rect width="89.1" height="17.6" x="108.7" y="208" transform="matrix(-.6476 .762 -.762 -.6476 417.65 240.36)"/><rect width="91.6" height="17.6" x="178.9" y="207.1" transform="matrix(-.6476 -.762 .762 -.6476 205.65 527)"/><rect width="91.6" height="17.6" x="106" y="291" transform="matrix(-.6476 -.762 .762 -.6476 21.777 609.58)"/></g></svg>