<?xml version="1.0" encoding="UTF-8"?>
<!-- Generator: Adobe Illustrator 25.4.1, SVG Export Plug-In . SVG Version: 6.00 Build 0)  -->
<svg enable-background="new 0 0 612 612" version="1.1" viewBox="0 0 612 612" xml:space="preserve" xmlns="http://www.w3.org/2000/svg">
<style type="text/css">
	.st0{fill:none;stroke:#ffffff;stroke-width:20;}
</style><g fill="#fff">
<path class="st0" d="m468.4 183.9"/>
<path class="st0" d="m325.7 187.8"/>
<rect x="142.7" y="176.6" width="133" height="22.4"/>
<rect x="330.9" y="176.6" width="133" height="22.4"/>
<rect transform="matrix(4.1256e-11 -1 1 4.1256e-11 -67.312 672.16)" x="150.7" y="358.5" width="303.4" height="22.4"/>
<rect transform="matrix(5.6547e-11 -1 1 5.6547e-11 160.41 817.87)" x="378.5" y="317.5" width="221.4" height="22.4"/>
<rect transform="matrix(1.7324e-10 -1 1 1.7324e-10 -131.59 367.86)" x="82" y="238.5" width="72.2" height="22.4"/>
<rect transform="matrix(-1 -2.2472e-10 2.2472e-10 -1 236.27 594.14)" x="83.3" y="285.9" width="69.6" height="22.4"/>
<rect transform="matrix(-1 -2.247e-10 2.247e-10 -1 604.85 1065.3)" x="267.6" y="521.4" width="69.6" height="22.4"/>
<rect transform="matrix(-1 -2.247e-10 2.247e-10 -1 978.28 901.28)" x="454.3" y="439.4" width="69.6" height="22.4"/>
<path d="m335.1 56.6c0 18-14.6 32.7-32.7 32.7-18 0-32.7-14.6-32.7-32.7s14.6-32.7 32.7-32.7 32.7 14.6 32.7 32.7zm-32.7-14.5c-8 0-14.5 6.5-14.5 14.5s6.5 14.4 14.5 14.4 14.5-6.5 14.5-14.5-6.5-14.4-14.5-14.4z"/>
<rect transform="matrix(1.5038e-10 -1 1 1.5038e-10 186.04 418.8)" x="260.8" y="105.2" width="83.2" height="22.4"/>
<path d="m335.2 187.8c0 18-14.6 32.7-32.7 32.7-18 0-32.7-14.6-32.7-32.7s14.6-32.7 32.7-32.7 32.7 14.7 32.7 32.7zm-32.6-14.5c-8 0-14.5 6.5-14.5 14.5s6.5 14.5 14.5 14.5 14.5-6.5 14.5-14.5-6.5-14.5-14.5-14.5z"/>
<path d="m521.8 187.8c0 18-14.6 32.7-32.7 32.7-18 0-32.7-14.6-32.7-32.7s14.6-32.7 32.7-32.7 32.7 14.7 32.7 32.7zm-32.7-14.5c-8 0-14.5 6.5-14.5 14.5s6.5 14.5 14.5 14.5 14.5-6.5 14.5-14.5-6.5-14.5-14.5-14.5z"/>
<path d="m150.8 183.9c0 18-14.6 32.7-32.7 32.7s-32.7-14.6-32.7-32.7 14.6-32.7 32.7-32.7 32.7 14.7 32.7 32.7zm-32.7-14.5c-8 0-14.5 6.5-14.5 14.5s6.5 14.5 14.5 14.5 14.5-6.5 14.5-14.5-6.5-14.5-14.5-14.5z"/>
<polygon points="523.3 466.8 455 466.8 489.1 526"/>
<polygon points="336.6 548.3 268.3 548.3 302.4 607.4"/>
<polygon points="152.3 312.9 84 312.9 118.1 372"/>
</g></svg>
