<?xml version="1.0" encoding="UTF-8"?>
<!-- Generator: Adobe Illustrator 25.4.1, SVG Export Plug-In . SVG Version: 6.00 Build 0)  -->
<svg enable-background="new 0 0 612 612" version="1.1" viewBox="0 0 612 612" xml:space="preserve" xmlns="http://www.w3.org/2000/svg"><g fill="#fff">
<polygon points="223.8 430.3 223.8 363.8 166.3 397.1"/>
<circle cx="230.6" cy="211.1" r="19.1"/>
<polygon points="330.6 321.9 292.5 343.9 330.6 365.9"/>
<rect x="156.7" y="151.5" width="291.1" height="21.8"/>
<rect transform="matrix(6.7333e-11 -1 1 6.7333e-11 196.01 753.99)" x="384.6" y="268.1" width="180.9" height="21.8"/>
<rect x="249.7" y="386.1" width="202.8" height="21.8"/>
<rect transform="matrix(2.709e-11 -1 1 2.709e-11 -141.76 441.39)" x="-75" y="280.7" width="449.5" height="21.8"/>
<rect x="236.5" y="200.2" width="161" height="21.8"/>
<rect transform="matrix(1.0881e-10 -1 1 1.0881e-10 129.75 690.67)" x="354.2" y="269.5" width="111.9" height="21.8"/>
<rect x="329" y="333" width="68.5" height="21.8"/>
<circle cx="475" cy="162.4" r="31.8"/>
<circle cx="475" cy="397.1" r="31.8"/>
<circle cx="410.2" cy="211.1" r="19.1"/>
<circle cx="410.2" cy="343.9" r="19.1"/>
<path d="m181.6 39.9c0 17.6-14.2 31.8-31.8 31.8s-31.8-14.2-31.8-31.8 14.2-31.8 31.8-31.8 31.8 14.3 31.8 31.8zm-31.8-14c-7.8 0-14.1 6.3-14.1 14.1s6.4 14 14.1 14 14.1-6.3 14.1-14.1-6.3-14-14.1-14z"/>
<rect x="116" y="516.3" width="67.7" height="21.8"/>
<polygon points="149.8 598.9 183 541.4 116.6 541.4"/>
<circle cx="148.7" cy="162.4" r="19.1"/>
<rect transform="matrix(1.7983e-10 -1 1 1.7983e-10 -155.54 638.57)" x="207.7" y="386.1" width="67.7" height="21.8"/>
<rect transform="matrix(1.7982e-10 -1 1 1.7982e-10 41.864 418.98)" x="196.6" y="177.6" width="67.7" height="21.8"/>
</g></svg>
