<svg xmlns="http://www.w3.org/2000/svg" xmlns:xlink="http://www.w3.org/1999/xlink" viewBox="0 0 407.39 485.96">
  <defs>
    <radialGradient id="radial-gradient" cx="243.24" cy="208.33" r="197.8" gradientTransform="matrix(1, 0.01, -0.01, 1, 1.45, -1.44)" gradientUnits="userSpaceOnUse">
      <stop offset="0" stop-color="#9d0202"/>
      <stop offset="0.21" stop-color="#960202"/>
      <stop offset="0.51" stop-color="#830202"/>
      <stop offset="0.86" stop-color="#630202"/>
      <stop offset="1" stop-color="#550202"/>
    </radialGradient>
    <radialGradient id="radial-gradient-2" cx="243.24" cy="208.33" r="197.8" xlink:href="#radial-gradient"/>
    <filter id="AI_BevelShadow_1" x="-20%" y="-20%" width="140%" height="140%" name="AI_BevelShadow_1">
      <feGaussianBlur result="blur" stdDeviation="2" in="SourceAlpha"/>
      <feOffset result="offsetBlur" dx="2" dy="2" in="blur"/>
      <feSpecularLighting result="specOut" surfaceScale="5" specularExponent="10" in="blur">
        <fePointLight x="-5000" y="-10000" z="-20000"/>
      </feSpecularLighting>
      <feComposite result="specOut" operator="in" in="specOut" in2="SourceAlpha"/>
      <feComposite result="litPaint" operator="arithmetic" k2="1" k3="1" in="SourceGraphic" in2="specOut"/>
      <feMerge>
        <feMergeNode in="offsetBlur"/>
        <feMergeNode in="litPaint"/>
      </feMerge>
    </filter>
    <linearGradient id="linear-gradient" x1="177.29" y1="16.48" x2="355.71" y2="402.77" gradientUnits="userSpaceOnUse">
      <stop offset="0" stop-color="#212121"/>
      <stop offset="0.21" stop-color="#232323"/>
      <stop offset="0.29" stop-color="#2a2a2a"/>
      <stop offset="0.35" stop-color="#353535"/>
      <stop offset="0.39" stop-color="#464646"/>
      <stop offset="0.43" stop-color="#5c5c5c"/>
      <stop offset="0.46" stop-color="#777"/>
      <stop offset="0.49" stop-color="#969696"/>
      <stop offset="0.49" stop-color="#999"/>
      <stop offset="0.51" stop-color="#898989"/>
      <stop offset="0.54" stop-color="#6a6a6a"/>
      <stop offset="0.57" stop-color="#4e4e4e"/>
      <stop offset="0.61" stop-color="#383838"/>
      <stop offset="0.65" stop-color="#272727"/>
      <stop offset="0.71" stop-color="#1c1c1c"/>
      <stop offset="0.79" stop-color="#151515"/>
      <stop offset="1" stop-color="#131313"/>
    </linearGradient>
    <linearGradient id="linear-gradient-2" x1="180.94" y1="24.86" x2="359.37" y2="411.16" xlink:href="#linear-gradient"/>
  </defs>
  <g id="final_backup" data-name="final backup">
    <g id="Layer_3_copy" data-name="Layer 3 copy">
      <g>
        <path d="M241.62,11a34.12,34.12,0,0,0-5.81,4.11c-1.55,1.44-8.72,7.38-15.89,13s-16.18,13.4-20.15,17C185.72,58,180.71,57.58,161.9,41.86l-7.19-6-.7,4.62C153.7,43,153.07,52.7,152.63,62c-1.11,24.48-1.11,24.67-19.17,47.8-7.77,10-25,34.08-25.76,36.19-.3.77,1.43,1.75,5.09,2.93,8.47,2.65,22.31,9.77,28.26,14.52,9.88,8.06,16.08,20.15,17.44,34.71l.63,6.47-3.37.65c-4.73.84-13.4-.46-19.85-2.91-2.88-1.08-10.57-5.65-17.1-10.12L106.9,184l.65,3.18c1.88,8.59,7.76,25.5,12,34.1,5.62,11.7,15,24.58,22.95,31.56L148.3,258l2-2.88a85.65,85.65,0,0,1,7.47-8.15c12.31-12.08,22.89-8.55,32.32,11,6.48,13.25,14.62,38.74,14.58,45.49,0,3.95-4.12,12.8-6.34,13.56-4.54,1.8-17.16-.78-24.46-4.87-2.31-1.27-4.42-2.24-4.61-2.05-.59.57,4.24,15.64,8.9,27.72a233.23,233.23,0,0,0,21.06,41.57c6.78,10.45,18,25.17,19.23,25.18,1,0,9.39-23.08,12.54-34.15,5-17.8,4.16-35.84-3.71-75.7-6.36-32.42-11.59-45.37-30.12-74.79-14.23-22.54-19.16-37.61-19-57.56.08-13.69,1.67-21.3,6.94-32.55,8.68-18.65,25-33.88,46.13-43,11.89-5.14,15.84-4.92,28.92,1.52,28.45,14,43,30.23,49.8,55.72,1.79,6.76,2.06,10.52,2,23.44,0,13.4-.38,16.48-2.35,23.6A120.06,120.06,0,0,1,289.79,231c-14.38,19.29-18.8,31.9-20.39,57.72-1.49,23-4,78-6.16,131-1.36,34.79-1.54,47.61-.72,55.91,1.27,14.08,1.55,15.24,3.48,14.86s2.82-3.26,8.76-30.12c7.63-34.76,12.54-50.44,20.23-64a111.28,111.28,0,0,1,13.7-18.91c1.65-1.73,2.82-3.26,2.53-3.46a64,64,0,0,0-7.31-2.55c-9.14-2.75-15.57-7.89-19.09-15.34-2.67-5.51-2.77-6-2.68-21,.2-16.87,1.4-24.57,6.6-40.93,6.19-19.25,22.84-47.39,30.38-51.21,7.73-3.9,14.65.76,25.25,17,3.44,5.23,6.6,9.29,7.08,9,2.91-1.72,23.36-37.17,30.19-52.17,5.08-11.25,12.92-32.7,12.54-34-.19-.49-5.32,3-11.42,7.83-20.63,16.18-28.75,19.69-43.68,19.13-2.61-.12-2.7-.31-2.67-5.71.07-12.91,6.62-27.63,16.61-37.59,6.88-6.9,13.27-11.4,25.07-17.6l7.64-4-8.8-12.2c-4.78-6.58-12.34-16.75-16.84-22.56C344,89.39,341.92,84.84,342,71.35c0-6.85-2.22-31.25-2.9-31.93-.19-.19-5.41,2.77-11.7,6.49C318,51.44,315,52.68,310.88,53c-6.08.45-8.87-.82-16.06-7.32C279.38,31.65,249,9.49,245.19,9.47A15.51,15.51,0,0,0,241.62,11Z" transform="translate(-46.85 -7)" style="fill: url(#radial-gradient)"/>
        <path d="M238,136.87c-18.82,20.81-22.71,25.7-23.4,29.07-.5,2.89.07,4.73,4.26,12.27,9.35,17.12,28.26,48.46,29.12,48.37.49,0,7.4-12.49,15.4-27.77,15.89-30.66,16.28-31.81,11.89-38.58-4.3-6.39-26.51-33-27.57-33C247.2,127.19,242.84,131.5,238,136.87Z" transform="translate(-46.85 -7)" style="fill: url(#radial-gradient-2)"/>
      </g>
    </g>
    <g id="Layer_4_copy" data-name="Layer 4 copy">
      <g style="filter: url(#AI_BevelShadow_1)">
        <path d="M266.09,493a3.57,3.57,0,0,1-2.1-.69c-1.85-1.39-2.17-3.57-3.33-16.48-.83-8.4-.68-21,.7-56.23,2.29-56.61,4.76-109.27,6.17-131,1.62-26.25,6.3-39.49,20.87-59a117,117,0,0,0,19.41-39.11c1.87-6.77,2.27-9.5,2.26-22.91.07-13-.21-16.42-1.91-22.81-6.6-24.8-20.66-40.48-48.5-54.14-12.42-6.11-15.68-6.29-26.84-1.46-20.51,8.84-36.45,23.68-44.88,41.79-5.07,10.8-6.63,18.16-6.71,31.51-.12,19.52,4.77,34.23,18.66,56.24,18.65,29.6,24.06,43,30.46,75.63,7.89,40,8.78,58.67,3.65,76.84-1.46,5.16-4.27,13.56-7.14,21.41C221.53,407,221,407,219.07,407c-1.24,0-2.14,0-9.49-9.64-4.14-5.44-8.55-11.66-11.79-16.66a235.37,235.37,0,0,1-21.3-42c-2.19-5.7-4.61-12.55-6.46-18.31-3.38-10.56-3-11-1.87-12.06,1.41-1.39,3-.87,7.54,1.65,7.18,4,18.81,6.1,22.33,4.74,1.42-1.07,4.8-8.12,4.82-11.28,0-5.89-7.65-30.73-14.33-44.39-4.84-10-9.91-15.56-15.07-16.46-4-.69-8.45,1.38-13.31,6.15a83.74,83.74,0,0,0-7.18,7.8l-3.63,5.13-7.91-7c-8.29-7.27-17.75-20.27-23.55-32.35-4.17-8.57-10.19-25.73-12.14-34.64l-1.89-9.21,17,11.63c6.37,4.36,14,8.87,16.57,9.85,6,2.29,14.34,3.54,18.55,2.79l1.13-.22-.42-4.22c-1.29-13.85-7-25.27-16.54-33-5.69-4.55-19.29-11.54-27.44-14.09-4.08-1.32-5.85-2.34-6.55-3.79a3,3,0,0,1-.11-2.37c1-2.77,19.58-28.42,26.12-36.83,17.57-22.49,17.57-22.49,18.65-46.36.44-9.11,1.07-19,1.4-21.71l1.37-9L164.08,40c18.64,15.59,22,14.89,34.62,3.38,3.8-3.48,12.85-11.2,20.27-17.14,7.34-5.79,14.34-11.6,15.75-12.91a37.55,37.55,0,0,1,6.37-4.5C244.54,7,245.42,7,245.8,7c5.61,0,38.65,25.39,51.27,36.89,7,6.31,9.18,7.06,14.22,6.69,3.51-.31,6.11-1.28,15.45-6.8,3.31-2,6.14-3.6,8.19-4.74,3.68-2.06,5.06-2.83,6.52-1.35.68.69,1.14,1.14,2.42,15.16.56,6.15,1.22,14.69,1.19,18.51-.07,12.86,1.9,17,17.57,37.14,4.59,5.93,12.19,16.15,16.89,22.62L390,145.63,379.83,151c-11.57,6.07-17.74,10.4-24.47,17.15-9.59,9.56-15.82,23.64-15.89,35.87,0,1,0,2.38,0,3.21h.25c14.38.54,21.85-2.76,42.06-18.6,11.36-8.91,12.41-8.62,13.54-8.32l1.2.33.58,1.43c.24.84.5,1.8-4.28,14.83-2.83,7.71-6,15.72-8.38,20.9-5.83,12.77-27.09,50.86-31.19,53.28-2.22,1.32-4-1-5.63-3-1.35-1.72-3-4.11-4.77-6.73-11.16-17.12-16.72-18.88-22.08-16.17-6.34,3.2-22.77,30-29.13,49.75-5.08,16-6.29,23.48-6.49,40.21-.08,14.74,0,14.83,2.43,19.93,3.21,6.78,9.12,11.5,17.58,14.05,5.62,1.72,7.34,2.48,8,2.88h0l1,.64.16,1.22c.1,1-.07,2-3.24,5.34a109.43,109.43,0,0,0-13.33,18.41c-7.51,13.22-12.36,28.6-20,63.32-6.43,29.08-7,31.3-10.7,32A4.44,4.44,0,0,1,266.09,493ZM245,80.71c4.73,0,9.47,1.78,16.8,5.39,29.27,14.36,44.08,31,51.1,57.3,1.9,7.19,2.14,11.35,2.06,24.09,0,13.18-.32,16.58-2.44,24.25a121.49,121.49,0,0,1-20.2,40.7c-14.06,18.86-18.34,31-19.91,56.41-1.4,21.73-3.87,74.34-6.16,130.92-1.36,34.94-1.52,47.4-.72,55.56.35,3.85.72,8,1.11,10.69,1.33-4.13,3.45-13.51,6.26-26.23,7.74-35.27,12.72-51,20.5-64.68a113.23,113.23,0,0,1,14.05-19.39q.3-.3.54-.57c-1.15-.39-2.61-.87-4.25-1.38-9.84-3-16.78-8.56-20.6-16.64-2.89-6-3-6.8-2.91-22.1.2-17.35,1.45-25.14,6.71-41.67,7.12-22.15,24.12-48.87,31.62-52.66,10.47-5.29,18.94,3.32,28.43,17.87,2.07,3.14,3.76,5.45,4.87,6.83,5.26-7.18,21.84-36,28.09-49.67,3.68-8.15,8.37-20.57,10.77-27.69-1.61,1.16-3.6,2.65-5.89,4.45-21.13,16.57-29.58,20.24-45.3,19.64-5.08-.22-5.07-3-5-8.18.08-13.47,6.88-28.9,17.34-39.33,7.12-7.14,13.6-11.69,25.66-18l5.12-2.68L375.52,134c-4.67-6.43-12.23-16.61-16.79-22.5-16.42-21.08-18.69-26-18.6-40.19,0-5.68-1.42-21.71-2.26-28.27-1.74,1-4.49,2.53-8.62,5-9.6,5.67-12.88,7.06-17.57,7.47-7.28.54-10.69-1.41-17.92-8-15.67-14.28-43.16-34-47.89-35.55a27.53,27.53,0,0,0-2.52,1.18l0,0A32.09,32.09,0,0,0,238,17c-1.65,1.54-9,7.63-16,13.1-7.32,5.87-16.26,13.49-20,16.92-15.14,13.84-21.29,13.35-41.12-3.23l-3.83-3.2,0,.28c-.26,2.18-.89,11.48-1.35,21.24-1.14,25.22-1.33,25.68-19.7,49.2-7.36,9.46-21.06,28.66-24.61,34.23a29.05,29.05,0,0,0,2.76,1c8.73,2.73,22.86,10,29,14.95,10.6,8.64,16.94,21.22,18.36,36.4l.85,8.69-5.58,1.08c-5.15.92-14.25-.38-21.19-3-3.35-1.25-11.59-6.27-17.62-10.4l-6.74-4.62a204.27,204.27,0,0,0,11,30.62c5.46,11.37,14.66,24,22.36,30.79l3.8,3.33.45-.64a89.4,89.4,0,0,1,7.75-8.48c6.07-5.95,12-8.47,17.63-7.49,6.91,1.21,13,7.47,18.66,19.16,6.69,13.68,14.87,39.37,14.82,46.58,0,4-4.09,14.41-7.94,15.85-5.72,2.24-19.17-.9-26.52-5,1.5,5.13,4.51,14.13,7.78,22.62A229.82,229.82,0,0,0,201.93,378a256.13,256.13,0,0,0,16.5,22.52c2.56-6,8.15-21.44,10.82-30.83,4.88-17.3,4-35.42-3.75-74.54-6.32-32.22-11.33-44.66-29.79-73.95-14.46-22.9-19.54-38.32-19.42-58.9.08-14.18,1.76-22,7.17-33.57,8.95-19.2,25.78-34.91,47.4-44.24C236.74,82,240.89,80.69,245,80.71ZM220.19,402.39Z" transform="translate(-46.85 -7)" style="fill: url(#linear-gradient)"/>
        <path d="M248.3,229.07c-1.56,0-2.81-1.66-13.23-18.95-6.66-11.06-13.48-22.83-17.79-30.72-4.16-7.48-5.19-10.05-4.53-13.88.84-4.12,4.66-8.92,24-30.3h0c9.49-10.51,10.58-10.5,11.54-10.5,1.33,0,1.94,0,14.45,15,5.9,7.07,12.87,15.72,15.16,19.12,5.31,8.19,4,10.67-11.75,41.1-3.89,7.44-7.64,14.43-10.55,19.68-5.08,9.17-5.38,9.42-6.91,9.42Zm-.12-98.64c-1.59,1.5-4.42,4.39-7.77,8.1h0c-17.55,19.4-22.24,25.14-22.81,27.91-.33,1.93-.1,3.2,4,10.57,8.25,15.11,21.85,37.72,26.83,45.28,2.46-4.22,7.34-13.15,13.34-24.62,15.74-30.36,15.6-30.57,12-36.1S253.14,135.7,248.18,130.43Z" transform="translate(-46.85 -7)" style="fill: url(#linear-gradient-2)"/>
      </g>
    </g>
  </g>
  <g id="Layer_1" data-name="Layer 1">
    <g id="Layer_3" data-name="Layer 3">
      <g>
        <path d="M241.62,11a34.12,34.12,0,0,0-5.81,4.11c-1.55,1.44-8.72,7.38-15.89,13s-16.18,13.4-20.15,17C185.72,58,180.71,57.58,161.9,41.86l-7.19-6-.7,4.62C153.7,43,153.07,52.7,152.63,62c-1.11,24.48-1.11,24.67-19.17,47.8-7.77,10-25,34.08-25.76,36.19-.3.77,1.43,1.75,5.09,2.93,8.47,2.65,22.31,9.77,28.26,14.52,9.88,8.06,16.08,20.15,17.44,34.71l.63,6.47-3.37.65c-4.73.84-13.4-.46-19.85-2.91-2.88-1.08-10.57-5.65-17.1-10.12L106.9,184l.65,3.18c1.88,8.59,7.76,25.5,12,34.1,5.62,11.7,15,24.58,22.95,31.56L148.3,258l2-2.88a85.65,85.65,0,0,1,7.47-8.15c12.31-12.08,22.89-8.55,32.32,11,6.48,13.25,14.62,38.74,14.58,45.49,0,3.95-4.12,12.8-6.34,13.56-4.54,1.8-17.16-.78-24.46-4.87-2.31-1.27-4.42-2.24-4.61-2.05-.59.57,4.24,15.64,8.9,27.72a233.23,233.23,0,0,0,21.06,41.57c6.78,10.45,18,25.17,19.23,25.18,1,0,9.39-23.08,12.54-34.15,5-17.8,4.16-35.84-3.71-75.7-6.36-32.42-11.59-45.37-30.12-74.79-14.23-22.54-19.16-37.61-19-57.56.08-13.69,1.67-21.3,6.94-32.55,8.68-18.65,25-33.88,46.13-43,11.89-5.14,15.84-4.92,28.92,1.52,28.45,14,43,30.23,49.8,55.72,1.79,6.76,2.06,10.52,2,23.44,0,13.4-.38,16.48-2.35,23.6A120.06,120.06,0,0,1,289.79,231c-14.38,19.29-18.8,31.9-20.39,57.72-1.49,23-4,78-6.16,131-1.36,34.79-1.54,47.61-.72,55.91,1.27,14.08,1.55,15.24,3.48,14.86s2.82-3.26,8.76-30.12c7.63-34.76,12.54-50.44,20.23-64a111.28,111.28,0,0,1,13.7-18.91c1.65-1.73,2.82-3.26,2.53-3.46a64,64,0,0,0-7.31-2.55c-9.14-2.75-15.57-7.89-19.09-15.34-2.67-5.51-2.77-6-2.68-21,.2-16.87,1.4-24.57,6.6-40.93,6.19-19.25,22.84-47.39,30.38-51.21,7.73-3.9,14.65.76,25.25,17,3.44,5.23,6.6,9.29,7.08,9,2.91-1.72,23.36-37.17,30.19-52.17,5.08-11.25,12.92-32.7,12.54-34-.19-.49-5.32,3-11.42,7.83-20.63,16.18-28.75,19.69-43.68,19.13-2.61-.12-2.7-.31-2.67-5.71.07-12.91,6.62-27.63,16.61-37.59,6.88-6.9,13.27-11.4,25.07-17.6l7.64-4-8.8-12.2c-4.78-6.58-12.34-16.75-16.84-22.56C344,89.39,341.92,84.84,342,71.35c0-6.85-2.22-31.25-2.9-31.93-.19-.19-5.41,2.77-11.7,6.49C318,51.44,315,52.68,310.88,53c-6.08.45-8.87-.82-16.06-7.32C279.38,31.65,249,9.49,245.19,9.47A15.51,15.51,0,0,0,241.62,11Z" transform="translate(-46.85 -7)" style="fill: url(#radial-gradient)"/>
        <path d="M238,136.87c-18.82,20.81-22.71,25.7-23.4,29.07-.5,2.89.07,4.73,4.26,12.27,9.35,17.12,28.26,48.46,29.12,48.37.49,0,7.4-12.49,15.4-27.77,15.89-30.66,16.28-31.81,11.89-38.58-4.3-6.39-26.51-33-27.57-33C247.2,127.19,242.84,131.5,238,136.87Z" transform="translate(-46.85 -7)" style="fill: url(#radial-gradient-2)"/>
      </g>
    </g>
    <g id="Layer_4" data-name="Layer 4">
      <g style="filter: url(#AI_BevelShadow_1)">
        <path d="M266.09,493a3.57,3.57,0,0,1-2.1-.69c-1.85-1.39-2.17-3.57-3.33-16.48-.83-8.4-.68-21,.7-56.23,2.29-56.61,4.76-109.27,6.17-131,1.62-26.25,6.3-39.49,20.87-59a117,117,0,0,0,19.41-39.11c1.87-6.77,2.27-9.5,2.26-22.91.07-13-.21-16.42-1.91-22.81-6.6-24.8-20.66-40.48-48.5-54.14-12.42-6.11-15.68-6.29-26.84-1.46-20.51,8.84-36.45,23.68-44.88,41.79-5.07,10.8-6.63,18.16-6.71,31.51-.12,19.52,4.77,34.23,18.66,56.24,18.65,29.6,24.06,43,30.46,75.63,7.89,40,8.78,58.67,3.65,76.84-1.46,5.16-4.27,13.56-7.14,21.41C221.53,407,221,407,219.07,407c-1.24,0-2.14,0-9.49-9.64-4.14-5.44-8.55-11.66-11.79-16.66a235.37,235.37,0,0,1-21.3-42c-2.19-5.7-4.61-12.55-6.46-18.31-3.38-10.56-3-11-1.87-12.06,1.41-1.39,3-.87,7.54,1.65,7.18,4,18.81,6.1,22.33,4.74,1.42-1.07,4.8-8.12,4.82-11.28,0-5.89-7.65-30.73-14.33-44.39-4.84-10-9.91-15.56-15.07-16.46-4-.69-8.45,1.38-13.31,6.15a83.74,83.74,0,0,0-7.18,7.8l-3.63,5.13-7.91-7c-8.29-7.27-17.75-20.27-23.55-32.35-4.17-8.57-10.19-25.73-12.14-34.64l-1.89-9.21,17,11.63c6.37,4.36,14,8.87,16.57,9.85,6,2.29,14.34,3.54,18.55,2.79l1.13-.22-.42-4.22c-1.29-13.85-7-25.27-16.54-33-5.69-4.55-19.29-11.54-27.44-14.09-4.08-1.32-5.85-2.34-6.55-3.79a3,3,0,0,1-.11-2.37c1-2.77,19.58-28.42,26.12-36.83,17.57-22.49,17.57-22.49,18.65-46.36.44-9.11,1.07-19,1.4-21.71l1.37-9L164.08,40c18.64,15.59,22,14.89,34.62,3.38,3.8-3.48,12.85-11.2,20.27-17.14,7.34-5.79,14.34-11.6,15.75-12.91a37.55,37.55,0,0,1,6.37-4.5C244.54,7,245.42,7,245.8,7c5.61,0,38.65,25.39,51.27,36.89,7,6.31,9.18,7.06,14.22,6.69,3.51-.31,6.11-1.28,15.45-6.8,3.31-2,6.14-3.6,8.19-4.74,3.68-2.06,5.06-2.83,6.52-1.35.68.69,1.14,1.14,2.42,15.16.56,6.15,1.22,14.69,1.19,18.51-.07,12.86,1.9,17,17.57,37.14,4.59,5.93,12.19,16.15,16.89,22.62L390,145.63,379.83,151c-11.57,6.07-17.74,10.4-24.47,17.15-9.59,9.56-15.82,23.64-15.89,35.87,0,1,0,2.38,0,3.21h.25c14.38.54,21.85-2.76,42.06-18.6,11.36-8.91,12.41-8.62,13.54-8.32l1.2.33.58,1.43c.24.84.5,1.8-4.28,14.83-2.83,7.71-6,15.72-8.38,20.9-5.83,12.77-27.09,50.86-31.19,53.28-2.22,1.32-4-1-5.63-3-1.35-1.72-3-4.11-4.77-6.73-11.16-17.12-16.72-18.88-22.08-16.17-6.34,3.2-22.77,30-29.13,49.75-5.08,16-6.29,23.48-6.49,40.21-.08,14.74,0,14.83,2.43,19.93,3.21,6.78,9.12,11.5,17.58,14.05,5.62,1.72,7.34,2.48,8,2.88h0l1,.64.16,1.22c.1,1-.07,2-3.24,5.34a109.43,109.43,0,0,0-13.33,18.41c-7.51,13.22-12.36,28.6-20,63.32-6.43,29.08-7,31.3-10.7,32A4.44,4.44,0,0,1,266.09,493ZM245,80.71c4.73,0,9.47,1.78,16.8,5.39,29.27,14.36,44.08,31,51.1,57.3,1.9,7.19,2.14,11.35,2.06,24.09,0,13.18-.32,16.58-2.44,24.25a121.49,121.49,0,0,1-20.2,40.7c-14.06,18.86-18.34,31-19.91,56.41-1.4,21.73-3.87,74.34-6.16,130.92-1.36,34.94-1.52,47.4-.72,55.56.35,3.85.72,8,1.11,10.69,1.33-4.13,3.45-13.51,6.26-26.23,7.74-35.27,12.72-51,20.5-64.68a113.23,113.23,0,0,1,14.05-19.39q.3-.3.54-.57c-1.15-.39-2.61-.87-4.25-1.38-9.84-3-16.78-8.56-20.6-16.64-2.89-6-3-6.8-2.91-22.1.2-17.35,1.45-25.14,6.71-41.67,7.12-22.15,24.12-48.87,31.62-52.66,10.47-5.29,18.94,3.32,28.43,17.87,2.07,3.14,3.76,5.45,4.87,6.83,5.26-7.18,21.84-36,28.09-49.67,3.68-8.15,8.37-20.57,10.77-27.69-1.61,1.16-3.6,2.65-5.89,4.45-21.13,16.57-29.58,20.24-45.3,19.64-5.08-.22-5.07-3-5-8.18.08-13.47,6.88-28.9,17.34-39.33,7.12-7.14,13.6-11.69,25.66-18l5.12-2.68L375.52,134c-4.67-6.43-12.23-16.61-16.79-22.5-16.42-21.08-18.69-26-18.6-40.19,0-5.68-1.42-21.71-2.26-28.27-1.74,1-4.49,2.53-8.62,5-9.6,5.67-12.88,7.06-17.57,7.47-7.28.54-10.69-1.41-17.92-8-15.67-14.28-43.16-34-47.89-35.55a27.53,27.53,0,0,0-2.52,1.18l0,0A32.09,32.09,0,0,0,238,17c-1.65,1.54-9,7.63-16,13.1-7.32,5.87-16.26,13.49-20,16.92-15.14,13.84-21.29,13.35-41.12-3.23l-3.83-3.2,0,.28c-.26,2.18-.89,11.48-1.35,21.24-1.14,25.22-1.33,25.68-19.7,49.2-7.36,9.46-21.06,28.66-24.61,34.23a29.05,29.05,0,0,0,2.76,1c8.73,2.73,22.86,10,29,14.95,10.6,8.64,16.94,21.22,18.36,36.4l.85,8.69-5.58,1.08c-5.15.92-14.25-.38-21.19-3-3.35-1.25-11.59-6.27-17.62-10.4l-6.74-4.62a204.27,204.27,0,0,0,11,30.62c5.46,11.37,14.66,24,22.36,30.79l3.8,3.33.45-.64a89.4,89.4,0,0,1,7.75-8.48c6.07-5.95,12-8.47,17.63-7.49,6.91,1.21,13,7.47,18.66,19.16,6.69,13.68,14.87,39.37,14.82,46.58,0,4-4.09,14.41-7.94,15.85-5.72,2.24-19.17-.9-26.52-5,1.5,5.13,4.51,14.13,7.78,22.62A229.82,229.82,0,0,0,201.93,378a256.13,256.13,0,0,0,16.5,22.52c2.56-6,8.15-21.44,10.82-30.83,4.88-17.3,4-35.42-3.75-74.54-6.32-32.22-11.33-44.66-29.79-73.95-14.46-22.9-19.54-38.32-19.42-58.9.08-14.18,1.76-22,7.17-33.57,8.95-19.2,25.78-34.91,47.4-44.24C236.74,82,240.89,80.69,245,80.71ZM220.19,402.39Z" transform="translate(-46.85 -7)" style="fill: url(#linear-gradient)"/>
        <path d="M248.3,229.07c-1.56,0-2.81-1.66-13.23-18.95-6.66-11.06-13.48-22.83-17.79-30.72-4.16-7.48-5.19-10.05-4.53-13.88.84-4.12,4.66-8.92,24-30.3h0c9.49-10.51,10.58-10.5,11.54-10.5,1.33,0,1.94,0,14.45,15,5.9,7.07,12.87,15.72,15.16,19.12,5.31,8.19,4,10.67-11.75,41.1-3.89,7.44-7.64,14.43-10.55,19.68-5.08,9.17-5.38,9.42-6.91,9.42Zm-.12-98.64c-1.59,1.5-4.42,4.39-7.77,8.1h0c-17.55,19.4-22.24,25.14-22.81,27.91-.33,1.93-.1,3.2,4,10.57,8.25,15.11,21.85,37.72,26.83,45.28,2.46-4.22,7.34-13.15,13.34-24.62,15.74-30.36,15.6-30.57,12-36.1S253.14,135.7,248.18,130.43Z" transform="translate(-46.85 -7)" style="fill: url(#linear-gradient-2)"/>
      </g>
      <circle cx="379.72" cy="187.63" r="27.66" style="fill: #2b1202;opacity: 0"/>
      <circle cx="27.66" cy="187.63" r="27.66" style="fill: #2b1202;opacity: 0"/>
    </g>
  </g>
</svg>
