<svg id="Capa_1" data-name="Capa 1" xmlns="http://www.w3.org/2000/svg" viewBox="0 0 363.92 418.03"><defs><style>.cls-1{fill:#fff;}</style></defs><path class="cls-1" d="M275.4,228.09l38.06,7.55A38.81,38.81,0,1,0,317.4,216L278,208.22A62.26,62.26,0,0,0,261.75,168l53.09-75a48.51,48.51,0,1,0-16.32-11.57l-52.45,74.1a62.33,62.33,0,0,0-76.16,11.93L101.17,114.1a38.87,38.87,0,1,0-12.84,15.35l70.41,54.69a62.36,62.36,0,0,0,14.81,72.15l-42.18,59.65a51.62,51.62,0,1,0,15.3,13l43.65-61.73a62.32,62.32,0,0,0,48,1.05l52.18,77.08a43.78,43.78,0,1,0,16.28-11.62l-51.22-75.66A62.58,62.58,0,0,0,275.4,228.09Zm76.76-13.66a18.79,18.79,0,1,1-18.79,18.78A18.78,18.78,0,0,1,352.16,214.43ZM334,20.24a28.38,28.38,0,1,1-28.38,28.38A28.38,28.38,0,0,1,334,20.24ZM66,116.54A18.79,18.79,0,1,1,84.79,97.76,18.8,18.8,0,0,1,66,116.54ZM106.36,392.4a31.49,31.49,0,1,1,31.49-31.48A31.48,31.48,0,0,1,106.36,392.4Zm217-41.95a23.87,23.87,0,1,1-23.86,23.86A23.89,23.89,0,0,1,323.37,350.45Zm-107.8-97.89a42.54,42.54,0,0,1-42.49-42.49h0a42.49,42.49,0,1,1,42.49,42.49Z" transform="translate(-27.05 0)"/></svg>