<svg id="Capa_1" data-name="Capa 1" xmlns="http://www.w3.org/2000/svg" viewBox="0 0 85.31 86.02"><defs><style>.cls-1{fill:#fff;}</style></defs><path class="cls-1" d="M.35,48.87.47,74.22A.87.87,0,0,0,.94,75L21.19,85.61a.87.87,0,0,0,.42.1h0a.72.72,0,0,0,.21.18.84.84,0,0,0,.46.13.91.91,0,0,0,.42-.11l20-10.84a.83.83,0,0,0,.39-.44,1,1,0,0,0,.37.38L63.7,85.61a.87.87,0,0,0,.42.1h0a1,1,0,0,0,.21.19.93.93,0,0,0,.46.12.9.9,0,0,0,.42-.1l20-10.85a.89.89,0,0,0,.47-.78V47.87a.19.19,0,0,1,0-.07.8.8,0,0,0,0-.15l0-.09a.75.75,0,0,0-.07-.12.47.47,0,0,0-.06-.09l-.09-.09a.27.27,0,0,0-.08-.07l-.06,0-.06,0,0,0-20.6-10a.8.8,0,0,0-.26,0V10.82a.19.19,0,0,0,0-.07.77.77,0,0,0,0-.15l0-.09-.06-.12-.06-.08-.1-.1-.08-.06s0,0-.05-.05l-.07,0,0,0L43.12.07a.93.93,0,0,0-.75,0L22,10.71a.89.89,0,0,0-.49.79v0a1,1,0,0,0-.06.31l.12,25.23a.79.79,0,0,0-.31.08L.9,47.76a.92.92,0,0,0-.49.79h0A.82.82,0,0,0,.35,48.87ZM61.32,11l-18,10-19-9.48L42.81,1.87ZM62.49,37,44.27,46.59V22.53L62.49,12.35Zm3.18,22.57L83.89,49.4V73.76L65.67,83.64Zm-19.9-11,18.44-9.65L82.72,48,64.78,58Zm-22.6,11L41.38,49.4V73.76L23.17,83.64Zm-19.91-11L21.7,38.91,40.22,48,22.27,58Z" transform="translate(-0.35 0)"/></svg>