<svg id="atr" xmlns="http://www.w3.org/2000/svg" xmlns:xlink="http://www.w3.org/1999/xlink" viewBox="0 0 500 500"><defs><linearGradient id="linear-gradient" x1="135.2764" y1="250.0045" x2="309.1386" y2="250.0045" gradientUnits="userSpaceOnUse"><stop offset="0" stop-color="#274a23"/><stop offset="0.5914" stop-color="#11200f"/><stop offset="1"/></linearGradient><linearGradient id="New_Gradient_Swatch_copy_2" x1="31.2861" y1="198.6037" x2="446.7015" y2="198.6037" gradientUnits="userSpaceOnUse"><stop offset="0" stop-color="#e80006"/><stop offset="0.0655" stop-color="#e50006"/><stop offset="1" stop-color="#c40004"/></linearGradient><linearGradient id="New_Gradient_Swatch_copy_2-2" x1="118.1966" y1="302.7143" x2="188.0704" y2="302.7143" xlink:href="#New_Gradient_Swatch_copy_2"/><linearGradient id="New_Gradient_Swatch_copy_2-3" x1="120.5771" y1="336.1109" x2="197.5923" y2="336.1109" xlink:href="#New_Gradient_Swatch_copy_2"/><linearGradient id="New_Gradient_Swatch_copy_2-4" x1="430.9871" y1="126.2002" x2="468.7139" y2="126.2002" xlink:href="#New_Gradient_Swatch_copy_2"/><linearGradient id="New_Gradient_Swatch_copy_2-5" x1="188.3525" y1="146.5135" x2="381.8268" y2="146.5135" xlink:href="#New_Gradient_Swatch_copy_2"/><linearGradient id="New_Gradient_Swatch_copy_2-6" x1="197.8257" y1="186.8381" x2="332.7501" y2="186.8381" xlink:href="#New_Gradient_Swatch_copy_2"/><linearGradient id="New_Gradient_Swatch_copy_2-7" x1="288.1902" y1="195.7902" x2="394.9846" y2="195.7902" xlink:href="#New_Gradient_Swatch_copy_2"/><linearGradient id="New_Gradient_Swatch_copy_2-8" x1="304.4334" y1="212.8865" x2="430.9888" y2="212.8865" xlink:href="#New_Gradient_Swatch_copy_2"/><linearGradient id="New_Gradient_Swatch_copy_2-9" x1="359.3242" y1="182.5472" x2="416.8289" y2="182.5472" xlink:href="#New_Gradient_Swatch_copy_2"/><linearGradient id="New_Gradient_Swatch_copy_2-10" x1="311.5281" y1="158.0891" x2="430.0225" y2="158.0891" xlink:href="#New_Gradient_Swatch_copy_2"/><linearGradient id="New_Gradient_Swatch_copy_2-11" x1="297.432" y1="245.373" x2="418.696" y2="245.373" xlink:href="#New_Gradient_Swatch_copy_2"/><linearGradient id="New_Gradient_Swatch_copy_2-12" x1="322.4644" y1="277.8594" x2="402.6691" y2="277.8594" xlink:href="#New_Gradient_Swatch_copy_2"/><linearGradient id="New_Gradient_Swatch_copy_2-13" x1="347.5619" y1="308.2454" x2="386.2095" y2="308.2454" xlink:href="#New_Gradient_Swatch_copy_2"/><linearGradient id="New_Gradient_Swatch_copy_2-14" x1="373.607" y1="230.39" x2="466.8656" y2="230.39" xlink:href="#New_Gradient_Swatch_copy_2"/><linearGradient id="New_Gradient_Swatch_copy_2-15" x1="188.0704" y1="333.4037" x2="251.5963" y2="333.4037" xlink:href="#New_Gradient_Swatch_copy_2"/><linearGradient id="New_Gradient_Swatch_copy_2-16" x1="218.0052" y1="337.511" x2="308.9143" y2="337.511" xlink:href="#New_Gradient_Swatch_copy_2"/><linearGradient id="New_Gradient_Swatch_copy_2-17" x1="247.7247" y1="333.9533" x2="364.9253" y2="333.9533" xlink:href="#New_Gradient_Swatch_copy_2"/><linearGradient id="New_Gradient_Swatch_copy_2-18" x1="283.2814" y1="323.8396" x2="413.935" y2="323.8396" xlink:href="#New_Gradient_Swatch_copy_2"/><linearGradient id="New_Gradient_Swatch_copy_2-19" x1="91.9845" y1="183.3563" x2="148.4123" y2="183.3563" xlink:href="#New_Gradient_Swatch_copy_2"/><linearGradient id="New_Gradient_Swatch_copy_2-20" x1="73.3149" y1="152.5347" x2="162.5683" y2="152.5347" xlink:href="#New_Gradient_Swatch_copy_2"/><linearGradient id="New_Gradient_Swatch_copy_2-21" x1="56.1177" y1="124.109" x2="175.608" y2="124.109" xlink:href="#New_Gradient_Swatch_copy_2"/><linearGradient id="New_Gradient_Swatch_copy_2-22" x1="112.2049" y1="210.6584" x2="133.0803" y2="210.6584" xlink:href="#New_Gradient_Swatch_copy_2"/></defs><g id="Layer_5" data-name="Layer 5"><g style="opacity:0.6000000000000001"><path d="M297.2705,413.6377c-24.2744,0-36.666-4.2725-41.5478-6.5537l-4.9761-.4248c-25.9092-2.208-48.7295-14.6533-49.6885-15.1826l-3.395-1.8721-1.2461-3.6719c-.647-1.9062-1.3-4.0156-1.9512-6.2959-35.9233-11.61-78.7646-49.8662-80.5718-51.49l-3.3169-2.98V302.2324l-2.7084-1.7168,1.2861-21.8681-5.7661-3.3448,4.7495-29.0713-10.8775-7.3886,5.1534-15.46L12.74,87.0371H453.3965c8.6269-2.1728,15.8681.9219,21.5361,9.207,5.4131,7.9126,3.9112,14.169,1.9278,17.8345l.0048,1.0254c.01,2.3237-.0166,57.6777-22.5351,125.8442-18.6416,56.4258-42.5694,94.417-50.6485,106.3575,5.6387,5.2675,11.3,10.414,16.8731,15.3369l6.8623,6.0615-5.4356,7.3691c-15.8769,21.5284-45.5468,24.042-51.413,24.33l-.5625.3321c-14.1377,8.3378-30.1045,10.7578-42.1446,11.163l.33.44-18.76.9726C305.2539,413.5273,301.1621,413.6377,297.2705,413.6377Z" style="fill:#4a5d5e"/></g><path d="M471.8549,112.6921c1.9736-2.8618,3.279-7.2982-1.0492-13.6247-5.3774-7.8588-11.2488-8.5865-16.7536-7.03H22.0132l85.9116,130.6255-4.7236,14.1709,10.3862,7.0552-4.7085,28.8183,2.9815,1.73c.2241.13,1.0847.6275,2.4675,1.4082l-1.2952,22.0244,2.4868,1.5762.0576.0365v23.4557l1.6587,1.49c1.7759,1.5957,43.9029,39.209,78.8218,50.4688l2.5067.8082c.8364,3.1054,1.6991,6.0031,2.5876,8.6215l.623,1.8359,1.6978.9365c.9209.5078,22.8413,12.46,47.6992,14.5791l5.9044.5037c3.5465,1.8173,15.0584,6.4563,40.1942,6.4563,3.67,0,7.6338-.0986,11.9024-.32l9.38-.4863-.79-1.0514c1.6011.0994,3.6956.1851,6.1716.1851,10.6728,0,28.3652-1.5918,43.5312-10.5361l1.664-.9814.37-.0069c1.3242-.0244,32.6143-.8525,48.458-22.3349l2.7178-3.6846-3.4317-3.0313q-10.1182-8.9362-20.1307-18.393c3.9035-5.4132,31.384-44.7932,52.4686-108.6167,22.2657-67.3989,22.293-121.9639,22.2832-124.2539Zm-9.3031-7.9773a6.7132,6.7132,0,0,1,1.1494,2.2452,12.3216,12.3216,0,0,1-1.3242,1.3921,21.1685,21.1685,0,0,0-2.2627,2.4243c-.3379.4121-1.8291,1.8608-3.1436,3.1386-5.4619,5.3077-14.5625,14.1519-20.9814,23.732-.0088-1.1519.0166-2.3355.083-3.54.7783-14.0547,6.6631-24.5434,17.4931-31.1792C458.6328,100.4932,459.8447,100.7568,462.5518,104.7148ZM176.876,293.6777c-19.9981-5.9316-47.916-21.1064-57.01-26.1982l4.3257-26.4756,52.85,39.2031C176.8369,285.9062,176.8228,290.3838,176.876,293.6777Zm-53.5132-1.1338.457-7.7685a262.4166,262.4166,0,0,0,56.9912,24.792c.1338,3.3388.3931,8.1308.8794,12.5176C159.9,314.499,131.79,297.7148,123.3628,292.5439Zm2.2143,25.8985V310.79c30.1861,17.2325,51.628,24.91,59.334,27.3829.8125,4.6562,2.5537,13.9052,5.1158,23.7207C162.8638,350.0029,132.8687,324.7627,125.5771,318.4424ZM210,379.2188c-9.4546-29.751-16.125-93.6592-16.8818-101.1338.3491-1.2627,1.5449-2.9737,5.4541-2.9737,5.0258,0,6.542,2.9971,6.8984,3.9571,7.646,43.4218,28.7666,92.1533,37.6572,111.4267A132.6734,132.6734,0,0,1,210,379.2188Zm52.2217,14.3359c-23.0269-40.1729-37.0664-103.8486-39.0679-113.3047.5713-1.4766,2.13-3.8633,6.2246-3.8633,5.3819,0,7.25,2.6055,7.6641,3.33,15.4819,49.5742,48.9819,99.9971,62.3071,118.9062C276.0811,398.8428,265.2334,394.8994,262.2217,393.5547Zm55.3662,3.1807c-36.0723-48.086-62.38-111.9-64.7793-117.8106a8.1817,8.1817,0,0,1,.9268-5.2666c.8808-1.2715,2.4648-2.0469,4.8417-2.3682,10.82-1.4687,13.7217,2.168,15.4454,4.3291.6572.8584,3.1943,5.3653,5.6484,9.7237,6.8721,12.2051,18.374,32.6328,29.2539,46.9775,18.1592,23.9434,39.1494,48.2276,47.9981,58.3018C341.207,397.624,323.4922,397.1436,317.5879,396.7354ZM371.28,385.32c-43.3789-41.7529-81.0186-111.04-82.8584-115.6035-.5176-1.4609.2529-4.5732,4.5254-6.71a8.57,8.57,0,0,1,3.8027-.7695c4.0469,0,8.8984,1.9258,11.0107,4.3467.4219.4834,1.2276,1.459,2.3975,2.873a937.4874,937.4874,0,0,0,96.8106,101.18C395.5859,382.3682,377.2842,384.8223,371.28,385.32Zm68.8056-149.0771a464.7756,464.7756,0,0,1-33.956,78.13c-5.8613,10.5977-10.834,18.45-13.9639,23.1582l-12.2627-13.8876a578.5421,578.5421,0,0,0,33.7725-59.2051c23.3584-47.3423,35.0713-88.1153,34.832-121.2295l12.7754-14.3047A447.0871,447.0871,0,0,1,440.0859,236.2432Z" style="fill:url(#linear-gradient)"/><path d="M31.2861,97.037l82.15,124.9047-4.2942,12.8825,9.8953,6.7213-4.6676,28.5657S157.4977,295.13,182.1426,300.17c0,0-.6577-7.3169,0-22.4044l-63.93-47.4227,1.9173-8.5883L46.2224,106.3722H439.1412l7.56-9.3352Z" style="fill:url(#New_Gradient_Swatch_copy_2)"/><path d="M119.3168,276.179l-1.12,19.0438S161.0451,322.3882,188.07,329.25c-1.96-5.321-2.38-23.5246-2.38-23.5246A253.29,253.29,0,0,1,119.3168,276.179Z" style="fill:url(#New_Gradient_Swatch_copy_2-2)"/><path d="M120.5771,302.0842v18.6236s42.7084,38.3676,77.0152,49.43a282.3044,282.3044,0,0,1-8.2616-35.8471S162.1653,326.8691,120.5771,302.0842Z" style="fill:url(#New_Gradient_Swatch_copy_2-3)"/><path d="M451.173,98.5306c6.1613-2.9872,10.6515-3.734,15.5058,3.3607s-.1867,8.7751-2.6139,11.949-29.3124,25.7651-30.4327,42.195C433.6322,156.0353,420.9364,116.8276,451.173,98.5306Z" style="fill:url(#New_Gradient_Swatch_copy_2-4)"/><path d="M194.2783,180.68l76.1751-31.74s5.2277-15.31,18.67-15.31,41.1993,16.8033,58.0026,16.43c0,0,36.8428,1.4936,34.6024-37.7141H193.0025C183.6362,148.3805,190.7309,164.717,194.2783,180.68Z" style="fill:url(#New_Gradient_Swatch_copy_2-5)"/><path d="M269.8932,153.6082l-72.0675,30.6194s19.7906,32.4864,52.277,35.4736,56.011-13.2559,56.011-13.2559,10.58-38.2431,26.6364-47.3916C332.75,159.0537,275.1209,193.9361,269.8932,153.6082Z" style="fill:url(#New_Gradient_Swatch_copy_2-6)"/><path d="M288.19,227.1694h8.5883l98.2061-59.5585s-6.1612-8.2149-25.7651,1.68S290.4306,227.1694,288.19,227.1694Z" style="fill:url(#New_Gradient_Swatch_copy_2-7)"/><path d="M304.4334,227.1694h116.13s10.5795-25.7651,10.4241-27.8189l-81.9316-.7468Z" style="fill:url(#New_Gradient_Swatch_copy_2-8)"/><path d="M359.3242,194.683h57.5047s-8.0282-21.4709-17.1767-24.2715Z" style="fill:url(#New_Gradient_Swatch_copy_2-9)"/><path d="M339.9071,157.529c-3.4743,2.7453-18.4837,11.7623-28.379,45.5556,8.6437-7.2944,53.5839-43.5019,76.5485-42.7551,0,0,19.9772-.1867,31.9263,32.86,4.8543-7.4681,12.3224-21.4709,9.3352-39.5811,0,0-8.0283-36.0338-43.6887-40.5147,2.4272,23.5247-3.4908,28.8891-14.0678,35.3553S339.9071,157.529,339.9071,157.529Z" style="fill:url(#New_Gradient_Swatch_copy_2-10)"/><polygon points="405.596 258.536 418.696 232.21 297.432 232.21 317.893 258.536 405.596 258.536" style="fill:url(#New_Gradient_Swatch_copy_2-11)"/><polygon points="322.464 264.417 343.361 291.302 389.29 291.302 402.669 264.417 322.464 264.417" style="fill:url(#New_Gradient_Swatch_copy_2-12)"/><polygon points="347.562 295.783 370.775 320.708 386.21 295.783 347.562 295.783" style="fill:url(#New_Gradient_Swatch_copy_2-13)"/><path d="M466.8655,115.1473l-23.3847,26.1851c1.7271,78.7356-69.8738,182.7361-69.8738,182.7361l19.0438,21.5643s29.9177-40.4214,52.1836-107.8213S466.8655,115.1473,466.8655,115.1473Z" style="fill:url(#New_Gradient_Swatch_copy_2-14)"/><path d="M188.07,277.8594s7.174,73.494,17.8161,104.86c0,0,21.625,11.9228,45.71,13.9766,0,0-31.7629-64.4127-41.2615-118.8368,0,0-2.0537-7.7482-11.7623-7.7482S188.07,277.8594,188.07,277.8594Z" style="fill:url(#New_Gradient_Swatch_copy_2-15)"/><path d="M218.0052,280.0531s14.655,72.8918,40.625,117.276c0,0,12.4766,7.9554,50.2841,5.995,0,0-48.17-64.1326-67.2133-125.4647,0,0-2.6138-6.4724-12.3224-6.4724A11.1674,11.1674,0,0,0,218.0052,280.0531Z" style="fill:url(#New_Gradient_Swatch_copy_2-16)"/><path d="M247.9864,280.3361s27.71,69.6442,66.9511,121.1852c0,0,28.1435,3.4832,49.9878-9.3994,0,0-28.2633-31.503-52.0172-62.8232-15.4438-20.3631-32.2663-53.3993-34.9684-56.7874s-7.3143-7.8979-20.0339-6.1759S247.9864,280.3361,247.9864,280.3361Z" style="fill:url(#New_Gradient_Swatch_copy_2-17)"/><path d="M369.4062,390.4416s29.9659-.56,44.5288-20.304c-58.0437-51.2632-98.2527-102.08-102.4069-106.8411s-14.3761-7.9816-20.8174-4.7609-8.4017,8.8995-7.0014,12.8514S324.3173,347.8732,369.4062,390.4416Z" style="fill:url(#New_Gradient_Swatch_copy_2-18)"/><polygon points="148.412 169.198 91.985 169.198 109.849 197.515 134.867 197.515 148.412 169.198" style="fill:url(#New_Gradient_Swatch_copy_2-19)"/><polygon points="89.629 165.464 150.199 165.464 162.568 139.605 73.315 139.605 89.629 165.464" style="fill:url(#New_Gradient_Swatch_copy_2-20)"/><polygon points="164.355 135.871 175.608 112.347 56.118 112.347 70.959 135.871 164.355 135.871" style="fill:url(#New_Gradient_Swatch_copy_2-21)"/><polygon points="112.205 201.249 124.078 220.068 133.08 201.249 112.205 201.249" style="fill:url(#New_Gradient_Swatch_copy_2-22)"/></g></svg>