<svg xmlns="http://www.w3.org/2000/svg" xmlns:xlink="http://www.w3.org/1999/xlink" viewBox="0 0 500 500"><defs><radialGradient id="New_Gradient_Swatch_copy_10" cx="250.9824" cy="112.4472" r="542.4831" gradientTransform="translate(-5.0647 -10.7273) scale(1.021 1.0509)" gradientUnits="userSpaceOnUse"><stop offset="0" stop-color="#f75a21"/><stop offset="0.5" stop-color="#d14c1c"/><stop offset="1" stop-color="#b04017"/></radialGradient><radialGradient id="New_Gradient_Swatch_copy_11" cx="250" cy="368.7252" r="119.0129" gradientUnits="userSpaceOnUse"><stop offset="0" stop-color="#e80006"/><stop offset="0.2232" stop-color="#c40005"/><stop offset="0.4578" stop-color="#a30004"/></radialGradient><radialGradient id="New_Gradient_Swatch_copy_9" cx="117.5193" cy="49.2278" r="517.4022" gradientUnits="userSpaceOnUse"><stop offset="0" stop-color="#999"/><stop offset="1" stop-color="#131313"/></radialGradient><radialGradient id="New_Gradient_Swatch_copy_11-2" cx="297.3169" cy="189.2494" r="11.9005" xlink:href="#New_Gradient_Swatch_copy_11"/><radialGradient id="New_Gradient_Swatch_copy_11-3" cx="202.6821" cy="189.2492" r="11.8985" xlink:href="#New_Gradient_Swatch_copy_11"/><radialGradient id="New_Gradient_Swatch_copy_8" cx="65.5116" cy="249.1905" r="32.6462" gradientUnits="userSpaceOnUse"><stop offset="0" stop-color="#d4ba6c"/><stop offset="1" stop-color="#aa8b4e"/></radialGradient><radialGradient id="New_Gradient_Swatch_copy_8-2" cx="83.0829" cy="180.8138" r="43.1736" xlink:href="#New_Gradient_Swatch_copy_8"/><radialGradient id="New_Gradient_Swatch_copy_8-3" cx="92.4338" cy="297.1341" r="29.9367" xlink:href="#New_Gradient_Swatch_copy_8"/><radialGradient id="New_Gradient_Swatch_copy_8-4" cx="130.2864" cy="154.9048" r="39.0978" xlink:href="#New_Gradient_Swatch_copy_8"/><radialGradient id="New_Gradient_Swatch_copy_8-5" cx="434.4884" cy="249.1905" r="32.6462" xlink:href="#New_Gradient_Swatch_copy_8"/><radialGradient id="New_Gradient_Swatch_copy_8-6" cx="416.9171" cy="180.8138" r="43.1736" xlink:href="#New_Gradient_Swatch_copy_8"/><radialGradient id="New_Gradient_Swatch_copy_8-7" cx="407.5662" cy="297.1341" r="29.9367" xlink:href="#New_Gradient_Swatch_copy_8"/><radialGradient id="New_Gradient_Swatch_copy_8-8" cx="369.7136" cy="154.9048" r="39.0978" xlink:href="#New_Gradient_Swatch_copy_8"/></defs><g id="har"><g id="Layer_9" data-name="Layer 9"><path d="M407.7512,232.1516l-.8038-2.28-1.2951-3.0829c-.1755-.4259-.35-.8529-.5434-1.2839-6.191-13.7541-16.4453-25.25-30.4766-34.17l-1.6483-1.0475-2.1875-1.257a114.2945,114.2945,0,0,0-21.302-9.4074l-1.0712-2.78H306.0542a22.3875,22.3875,0,0,0-1.4317-2.082l-.216-.2657-1.4675,2.3477H197.45l-1.4658-2.3448-.2307.2792a22.3121,22.3121,0,0,0-1.4192,2.0656H160.8628l-.522,1.5488a116.7644,116.7644,0,0,0-30.7483,12.0565l-2.1875,1.257-1.6484,1.0475c-14.0313,8.92-24.2855,20.4156-30.4755,34.1692-.1945.4316-.369.8585-.5445,1.2844l-.3071.7425-1.0055,2.39-.7863,2.23c-5.0613,14.3637-5.6546,28.7084-1.7609,42.6369l.7736,2.767.0291.0122.7837,2.17a62.7891,62.7891,0,0,0,9.4247,17.4959l.2323.2945c.1157.1591,11.7838,15.9154,26.3216,20.46l14.7814,4.62h64.369l12.3022,12.6165,7.6747-7.92v-4.6967H272.82v4.6967l7.6747,7.92,12.3023-12.6165h55.6265l2.9184-3.6859c1.5232.6756,3.4695,1.4667,5.822,2.2684l14.7834-4.6206c14.5378-4.5443,26.206-20.3006,26.3216-20.46l.2324-.2946a62.7858,62.7858,0,0,0,9.4246-17.4958l.7837-2.17.0292-.0121.7735-2.767C413.4058,260.86,412.8125,246.5152,407.7512,232.1516ZM137.3041,305.31l.119-.1227.11.3579Z" style="fill:url(#New_Gradient_Swatch_copy_10)"/><path d="M464.9893,216.4814l-.479-5.4907-.03-.5283-.0169-.0066-.1482-1.699c-.17-1.94-.3652-3.7256-.5508-5.0288-1.1721-8.2046-8.36-49.6258-35.5137-68.3165L417.77,129.4258a102.3143,102.3143,0,0,0-21.64-7.2809l-3.7324-5.2592c-.3243-.457-8.1309-11.2695-24.38-17.6962l-2.5719-1.0173-.0023-.0081-47.5469-18.751h0l-10.8692-4.2867H277.999v.0005H255.2432L250,79.95l-5.2432-4.8234H222.001v-.0005H192.9727l-10.8692,4.2867h0l-47.5469,18.751-.0023.0081L131.9824,99.19c-16.249,6.4267-24.0556,17.2392-24.38,17.6962l-3.7321,5.2586a102.314,102.314,0,0,0-21.64,7.2815l-10.4814,5.9857c-27.1536,18.6907-34.3416,60.1119-35.5137,68.317-.1856,1.3027-.3809,3.0884-.5508,5.0283l-.1482,1.699-.0169.0066-.03.5283-.479,5.4907.1947-.0685c-.6328,15.4124-.0553,48.1387,13.5153,73.6291l1.06,1.9915-.0211.0378.2826.4536,2.5855,4.8569.29-.4291c5.342,7.4712,13.0538,13.4584,22.8189,17.7994l10.3945,10.3036c22.4882,22.2949,60.9824,13.4629,72.0869,10.2871L250,426.9365l91.7822-91.5927c11.1055,3.1728,49.5987,12.0058,72.0869-10.2881l10.3945-10.3036c9.7651-4.341,17.4769-10.3282,22.8189-17.7994l.29.4291,2.5855-4.8569.2826-.4536-.0211-.0378,1.06-1.9915c13.5706-25.49,14.1481-58.2167,13.5153-73.6291Zm-161.8942-40.23.2115.2528a24.3876,24.3876,0,0,1,3.9834,7.42c1.5264,4.8652.625,8.8735-2.7548,12.2539a19.2567,19.2567,0,0,1-17.91,5.6711Zm-16.9135,60.337v69.1419l8.1289,10.2314-14.6347,14.582-7.5166-7.5361V238.3964l5.84-5.84v10Zm-72.3632,0,8.1826,5.9671v-10l5.84,5.84v84.6114l-7.5166,7.5361L205.69,315.9619l8.1289-10.2314Zm-.446-34.742a19.2519,19.2519,0,0,1-17.9076-5.6679c-3.38-3.38-4.2812-7.3887-2.7548-12.2539a24.3825,24.3825,0,0,1,3.9707-7.4048l.226-.2656ZM104.9766,293.3242l-.2276-.28a59.3223,59.3223,0,0,1-9.23-16.6484l-.7676-2.0644-.0286-.0116-.7576-2.633c-3.8134-13.2539-3.2324-26.9038,1.7247-40.5718l.77-2.122.9848-2.2744.3008-.7066c.1719-.4053.3428-.8115.5332-1.2221,6.0625-13.0875,16.1055-24.0264,29.8477-32.5142l1.6144-.9968,2.1424-1.1961a116.5388,116.5388,0,0,1,30.6261-11.59l-6.8937,15.6516,6.4864,4.73v77.7826L139.4355,299.38l14.3584,14.3208a62.7835,62.7835,0,0,1-8.5612,3.4884l-14.4768-4.3961C116.5176,308.4688,105.09,293.4756,104.9766,293.3242ZM369.2441,312.793,354.7653,317.19a62.646,62.646,0,0,1-8.56-3.488l14.36-14.3219-22.6661-22.7227V198.8746l6.4864-4.73-6.8968-15.6589a116.1,116.1,0,0,1,30.6292,11.5969l2.1424,1.1961,1.6144.9968c13.7422,8.4878,23.7852,19.4267,29.8487,32.5146.1894.41.36.8164.5322,1.2217l1.2684,2.9336.7872,2.1694c4.9571,13.668,5.5381,27.3179,1.7247,40.5718l-.7576,2.633-.0286.0116-.7676,2.0644a59.3223,59.3223,0,0,1-9.23,16.6484l-.2276.28C394.91,293.4756,383.4824,308.4688,369.2441,312.793Z" style="fill:#352d02"/><path d="M342.8514,317.5771,250,410.235l-92.8514-92.6579s-28.6817,16.8746-67.4982,3.928c24.0225,23.8126,69.9737,8.1779,69.9737,8.1779L250,419.8733l90.3759-90.19s45.9512,15.6347,69.9737-8.1779C371.5331,334.4517,342.8514,317.5771,342.8514,317.5771Z" style="fill:url(#New_Gradient_Swatch_copy_11)"/><polygon points="329.195 323.605 353.493 299.371 332.898 278.724 332.898 201.603 291.181 232.024 291.181 303.987 301.005 316.349 279.665 337.613 267.159 325.075 267.159 236.85 250 219.646 232.841 236.85 232.841 325.075 220.335 337.613 198.995 316.349 208.819 303.987 208.819 232.024 167.102 201.603 167.102 278.724 146.507 299.371 170.805 323.605 192.487 299.161 192.487 248.491 198.254 242.724 198.254 303.292 175.809 328.596 250 402.594 324.191 328.596 301.746 303.292 301.746 242.724 307.513 248.491 307.513 299.161 329.195 323.605" style="fill:url(#New_Gradient_Swatch_copy_9)"/><polygon points="248.052 84.952 248.052 215.24 229.904 233.388 221.302 224.786 221.302 80.127 242.807 80.127 248.052 84.952" style="fill:url(#New_Gradient_Swatch_copy_9)"/><path d="M176.1983,87.1165,138.6915,101.908a39.5805,39.5805,0,0,0,.0663,20.0177l36.6046,16.9713C172.9948,120.0822,175.0872,96.92,176.1983,87.1165Z" style="fill:url(#New_Gradient_Swatch_copy_9)"/><path d="M193.9225,80.1267l-12.8484,5.067-.3283.1294c-.9642,8.0334-3.8369,35.564-.7392,55.7271l.2787.1292,36.7155,57.0664V80.1267Z" style="fill:url(#New_Gradient_Swatch_copy_9)"/><path d="M133.8209,103.8391c-15.0551,5.9548-22.1412,15.94-22.1412,15.94,14.3271-1.0437,20.9214-.2309,22.2-.04A44.09,44.09,0,0,1,133.8209,103.8391Z" style="fill:url(#New_Gradient_Swatch_copy_9)"/><polygon points="251.948 84.952 251.948 215.24 270.096 233.388 278.698 224.786 278.698 80.127 257.193 80.127 251.948 84.952" style="fill:url(#New_Gradient_Swatch_copy_9)"/><path d="M323.8017,87.1165l37.5068,14.7915a39.5805,39.5805,0,0,1-.0663,20.0177L324.6376,138.897C327.0052,120.0822,324.9128,96.92,323.8017,87.1165Z" style="fill:url(#New_Gradient_Swatch_copy_9)"/><path d="M306.0775,80.1267l12.8484,5.067.3283.1294c.9642,8.0334,3.8369,35.564.7392,55.7271l-.2787.1292-36.7155,57.0664V80.1267Z" style="fill:url(#New_Gradient_Swatch_copy_9)"/><path d="M366.1791,103.8391c15.0551,5.9548,22.1412,15.94,22.1412,15.94-14.3271-1.0437-20.9214-.2309-22.2-.04A44.09,44.09,0,0,0,366.1791,103.8391Z" style="fill:url(#New_Gradient_Swatch_copy_9)"/><path d="M217.0008,232.721l-55.1876-40.2448L179.9706,151.25l12.9029,22.0294s-12.5882,14.7911-.9442,26.4351,25.0715,6.2941,25.0715,6.2941Z" style="fill:url(#New_Gradient_Swatch_copy_9)"/><path d="M282.9992,232.721l55.1876-40.2448L320.0294,151.25l-12.9029,22.0294s12.5882,14.7911.9442,26.4351-25.0715,6.2941-25.0715,6.2941Z" style="fill:url(#New_Gradient_Swatch_copy_9)"/><path d="M303.0951,176.2516l.2115.2528a24.3876,24.3876,0,0,1,3.9834,7.42c1.5264,4.8652.625,8.8735-2.7548,12.2539a19.2567,19.2567,0,0,1-17.91,5.6711Z" style="fill:url(#New_Gradient_Swatch_copy_11-2)"/><path d="M213.3724,201.8466a19.2519,19.2519,0,0,1-17.9076-5.6679c-3.38-3.38-4.2812-7.3887-2.7548-12.2539a24.3825,24.3825,0,0,1,3.9707-7.4048l.226-.2656Z" style="fill:url(#New_Gradient_Swatch_copy_11-3)"/><path d="M67.9368,275.2A29.9032,29.9032,0,0,1,89.16,273.07c-3.2809-11.4046-4.4258-26.4154,1.83-43.66C86.6983,223.6617,79.7,216.4844,69.7345,212.89c-11.9-4.2929-23.1325-1.4077-29.4037,1.0544-.9415,16.6514-.3733,48.9961,12.8031,73.7479A37.1567,37.1567,0,0,1,67.9368,275.2Z" style="fill:url(#New_Gradient_Swatch_copy_8)"/><path d="M71.1933,208.8443a50.2914,50.2914,0,0,1,21.6625,15.8873c.2945-.6811.5674-1.3564.8858-2.0437,7.4436-16.0689,19.5452-27.1242,31.7578-34.6666-2.1041-10.5424-6.9823-28.5452-16.8-37.0329-8.9848-7.7679-21.6245-11.9975-29.9438-14.0923-1.1006.6388-2.1937,1.2975-3.2669,2.0009-25.8058,16.9146-33.044,56.7263-34.3028,65.538-.1516,1.0608-.3394,2.6854-.5194,4.7566C47.7915,206.684,59.0528,204.465,71.1933,208.8443Z" style="fill:url(#New_Gradient_Swatch_copy_8-2)"/><path d="M100.98,296.3287a63.2657,63.2657,0,0,1-10.1482-18.1914,25.6334,25.6334,0,0,0-21.0075.9268c-8.3169,4.0614-12.42,9.5755-14.26,12.8684,19.38,31.0961,73.7387,25.6446,73.7387,25.6446C113.2591,312.705,100.98,296.3287,100.98,296.3287Z" style="fill:url(#New_Gradient_Swatch_copy_8-3)"/><path d="M173.3618,140.8647l-37.45-16.6793s-27.3387-1.7278-51.5376,9.7577c8.3691,2.4835,18.9969,6.7527,27.1391,13.7916,10.4047,8.9967,15.5882,26.7664,17.9313,37.982A117.5175,117.5175,0,0,1,166.4383,172.65l9.76-23.2882Z" style="fill:url(#New_Gradient_Swatch_copy_8-4)"/><path d="M432.0632,275.2a29.9032,29.9032,0,0,0-21.2232-2.13c3.2809-11.4046,4.4258-26.4154-1.83-43.66,4.2913-5.748,11.2895-12.9253,21.2551-16.5193,11.9-4.2929,23.1325-1.4077,29.4037,1.0544.9415,16.6514.3733,48.9961-12.8031,73.7479A37.1567,37.1567,0,0,0,432.0632,275.2Z" style="fill:url(#New_Gradient_Swatch_copy_8-5)"/><path d="M428.8067,208.8443a50.2914,50.2914,0,0,0-21.6625,15.8873c-.2945-.6811-.5674-1.3564-.8858-2.0437-7.4436-16.0689-19.5452-27.1242-31.7578-34.6666,2.1041-10.5424,6.9823-28.5452,16.8-37.0329,8.9848-7.7679,21.6245-11.9975,29.9438-14.0923,1.1006.6388,2.1937,1.2975,3.2669,2.0009,25.8058,16.9146,33.044,56.7263,34.3028,65.538.1516,1.0608.3394,2.6854.5194,4.7566C452.2085,206.684,440.9472,204.465,428.8067,208.8443Z" style="fill:url(#New_Gradient_Swatch_copy_8-6)"/><path d="M399.02,296.3287a63.2657,63.2657,0,0,0,10.1482-18.1914,25.6334,25.6334,0,0,1,21.0075.9268c8.3169,4.0614,12.42,9.5755,14.26,12.8684-19.38,31.0961-73.7387,25.6446-73.7387,25.6446C386.7409,312.705,399.02,296.3287,399.02,296.3287Z" style="fill:url(#New_Gradient_Swatch_copy_8-7)"/><path d="M326.6382,140.8647l37.45-16.6793s27.3387-1.7278,51.5376,9.7577c-8.3691,2.4835-18.9969,6.7527-27.1391,13.7916-10.4047,8.9967-15.5882,26.7664-17.9313,37.982A117.5175,117.5175,0,0,0,333.5617,172.65l-9.76-23.2882Z" style="fill:url(#New_Gradient_Swatch_copy_8-8)"/></g></g></svg>