<?xml version="1.0" standalone="no"?>
<!DOCTYPE svg PUBLIC "-//W3C//DTD SVG 20010904//EN"
 "http://www.w3.org/TR/2001/REC-SVG-20010904/DTD/svg10.dtd">
<svg version="1.0" xmlns="http://www.w3.org/2000/svg"
 width="500.000000pt" height="500.000000pt" viewBox="0 0 500.000000 500.000000"
 preserveAspectRatio="xMidYMid meet">

<g transform="translate(0.000000,500.000000) scale(0.100000,-0.100000)"
fill="#000000" stroke="none">
<path d="M3711 3939 c-24 -4 -57 -17 -75 -27 -30 -18 -32 -18 -76 2 -66 30
-235 30 -302 -1 l-47 -21 -73 19 c-95 25 -162 24 -252 -3 l-74 -21 -74 21
c-102 31 -200 30 -278 -3 l-59 -25 -63 20 c-76 24 -116 25 -215 4 -74 -15 -78
-15 -145 7 -56 18 -83 21 -146 16 -42 -3 -98 -13 -124 -22 -45 -16 -52 -16
-115 0 -72 18 -202 16 -255 -4 -21 -8 -36 -6 -65 5 -50 21 -225 15 -303 -10
l-55 -18 3 -260 c2 -143 1 -284 -3 -314 -6 -48 -9 -53 -33 -56 l-27 -3 -3
-131 -3 -130 38 -10 38 -9 0 -440 c0 -506 -6 -473 95 -523 76 -38 149 -48 212
-29 l46 15 7 -36 c9 -47 60 -97 116 -112 42 -12 179 -9 224 5 17 5 25 -2 43
-40 41 -85 159 -134 290 -121 l63 7 49 -44 c29 -26 69 -50 100 -60 57 -19 157
-22 207 -8 28 8 33 7 39 -12 30 -97 178 -158 299 -124 28 8 57 17 67 21 12 5
18 1 23 -16 27 -88 168 -131 344 -105 l53 8 -4 -32 c-7 -47 34 -103 92 -126
54 -22 157 -22 246 -1 l62 15 5 -43 c5 -51 30 -75 97 -99 106 -37 220 -28 302
24 74 47 74 47 70 1037 l-4 842 37 8 36 9 3 115 c4 134 -2 157 -41 162 l-28 3
-5 287 -5 286 -25 27 c-63 68 -201 99 -329 74z m-213 -50 c28 -5 58 -16 68
-24 18 -13 17 -15 -16 -28 -55 -23 -122 -29 -195 -17 -93 15 -105 23 -71 45
51 33 130 42 214 24z m452 -19 c39 -20 43 -24 25 -31 -11 -4 -35 -8 -53 -8
-26 -1 -35 4 -39 19 -5 17 -14 20 -72 20 -46 0 -62 -3 -51 -10 8 -5 27 -10 43
-10 15 0 27 -4 27 -10 0 -5 -13 -10 -30 -10 -42 0 -130 20 -130 30 0 4 17 15
38 24 55 24 183 17 242 -14z m-802 -1 c17 -6 32 -14 32 -19 0 -13 -90 -40
-157 -47 -60 -6 -147 10 -159 28 -7 13 39 39 87 49 49 10 147 4 197 -11z
m-1859 -9 c11 -6 9 -11 -10 -21 -51 -30 -292 -8 -261 23 7 7 34 5 82 -6 82
-18 154 -21 145 -6 -3 6 -28 10 -56 10 -29 0 -49 4 -49 11 0 12 124 3 149 -11z
m706 -2 l30 -16 -30 -12 c-34 -14 -201 -18 -258 -7 -32 7 -36 11 -26 23 20 24
70 33 164 31 59 -2 100 -9 120 -19z m358 0 c26 -5 47 -14 47 -18 0 -16 -87
-42 -155 -47 -73 -5 -155 12 -162 34 -9 27 92 52 177 45 25 -2 66 -8 93 -14z
m360 11 c45 -11 84 -35 75 -45 -4 -3 -40 -10 -80 -16 -76 -11 -248 5 -248 22
0 10 40 36 65 43 37 9 146 7 188 -4z m-1129 -12 c62 -15 70 -33 19 -44 -78
-16 -252 4 -238 27 17 28 135 36 219 17z m2261 -42 l170 0 3 -292 2 -291 -66
-8 c-102 -10 -304 0 -315 17 -10 16 -12 572 -2 583 4 3 14 3 22 -1 9 -4 93 -8
186 -8z m-2716 -15 c35 -5 78 -6 96 -3 32 5 32 5 38 -42 4 -26 7 -160 7 -296
l0 -249 -140 0 -139 0 -5 33 c-14 90 -17 200 -10 380 l7 199 41 -7 c23 -4 70
-11 105 -15z m383 -17 l118 -6 0 -283 c0 -156 -4 -285 -9 -288 -4 -3 -76 -3
-158 1 l-150 6 -7 233 c-4 127 -4 263 -1 302 l7 69 41 -14 c22 -8 94 -17 159
-20z m2078 -141 c0 -99 -3 -234 -7 -300 l-6 -122 -158 0 c-113 0 -160 3 -165
12 -10 16 -18 452 -10 520 l7 53 122 -3 c67 -2 140 1 162 6 22 6 43 10 48 11
4 1 7 -79 7 -177z m-390 -127 l0 -295 -162 0 c-90 0 -173 3 -185 6 l-23 6 0
232 c0 127 3 255 6 283 7 51 8 52 33 45 36 -10 218 -6 266 6 22 6 46 10 53 11
9 1 12 -64 12 -294z m-1186 223 c7 -59 -1 -463 -10 -505 -4 -23 -7 -23 -163
-23 l-158 0 -6 152 c-8 170 -9 423 -3 429 3 2 79 4 169 5 l165 0 6 -58z m226
36 c58 4 119 9 136 12 l31 6 6 -78 c9 -98 9 -315 0 -421 l-6 -83 -172 0 c-148
0 -174 2 -179 16 -8 20 -8 478 0 525 l6 37 37 -10 c21 -6 79 -8 141 -4z m544
-21 c3 -21 6 -151 6 -289 l0 -252 583 -7 c321 -4 611 -4 645 0 l62 7 0 -81 0
-81 -387 -1 c-214 0 -923 -6 -1578 -13 -655 -7 -1193 -10 -1196 -7 -4 3 -9 41
-12 84 l-6 78 587 -1 c570 -1 1003 7 983 19 -13 9 -25 336 -16 464 l7 106 121
4 c67 1 138 4 158 5 35 2 37 0 43 -35z m1211 -759 c14 -6 26 -1042 17 -1552
l-5 -312 -65 -20 c-90 -28 -183 -26 -248 4 l-51 24 -6 347 c-9 445 -9 1168 0
1363 l6 151 46 4 c52 5 287 -2 306 -9z m-1209 -2 c14 -9 27 -1038 17 -1308
l-6 -181 -31 -12 c-17 -7 -65 -15 -107 -18 -62 -5 -83 -2 -121 15 -84 37 -80
8 -85 570 -2 273 -1 595 3 714 l6 217 57 4 c111 7 256 7 267 -1z m419 -342 c4
-192 4 -554 0 -804 l-7 -455 -44 -17 c-64 -25 -167 -15 -241 22 l-58 29 -7
205 c-11 296 -14 1343 -5 1358 6 9 54 12 181 12 l174 0 7 -350z m388 -407 c3
-417 3 -813 0 -881 l-6 -123 -31 -17 c-22 -12 -55 -17 -111 -17 -99 0 -173 31
-188 80 -11 37 -15 1685 -4 1703 6 9 52 12 171 12 l163 0 6 -757z m-1579 701
c3 -26 6 -305 6 -620 l0 -572 -37 -13 c-21 -8 -68 -13 -104 -13 -88 0 -153 32
-183 89 -20 39 -21 54 -20 420 1 209 4 461 7 560 l5 180 38 6 c22 3 94 7 160
8 l121 1 7 -46z m408 -614 c1 -363 2 -668 2 -677 1 -24 -47 -46 -111 -51 -70
-6 -153 21 -206 68 l-42 38 -3 627 c-2 344 -1 633 2 641 4 11 38 14 181 14
l175 0 2 -660z m-1138 416 c4 -129 4 -342 0 -475 l-7 -241 -41 -12 c-89 -26
-214 -10 -232 30 -4 10 -10 223 -12 475 l-4 457 145 0 144 0 7 -234z m350 188
c3 -26 6 -271 6 -544 l0 -498 -41 -16 c-84 -34 -221 -17 -261 31 -10 13 -13
123 -13 527 0 281 3 519 7 529 7 15 24 17 151 17 l144 0 7 -46z"/>
<path d="M3366 3861 c-15 -24 109 -30 140 -6 17 13 12 14 -58 15 -42 0 -79 -4
-82 -9z"/>
<path d="M2930 3850 c-10 -7 6 -10 55 -10 39 0 77 5 85 10 10 7 -6 10 -55 10
-38 0 -77 -5 -85 -10z"/>
<path d="M1828 3843 c17 -2 47 -2 65 0 17 2 3 4 -33 4 -36 0 -50 -2 -32 -4z"/>
<path d="M2203 3829 c33 -5 74 -5 95 0 29 7 17 9 -58 9 -91 0 -93 -1 -37 -9z"/>
<path d="M2565 3840 c-4 -6 20 -10 64 -10 38 0 73 5 76 10 4 6 -20 10 -64 10
-38 0 -73 -4 -76 -10z"/>
<path d="M1498 3833 c12 -2 32 -2 45 0 12 2 2 4 -23 4 -25 0 -35 -2 -22 -4z"/>
<path d="M3744 3493 c-43 -3 -53 -8 -58 -26 -27 -101 34 -197 126 -197 106 0
190 200 93 221 -32 7 -79 7 -161 2z m166 -119 c0 -42 -53 -84 -105 -84 -40 0
-84 27 -91 56 -9 37 7 44 109 44 72 0 87 -3 87 -16z"/>
<path d="M1031 3471 c-10 -6 -12 -21 -8 -50 11 -89 91 -142 162 -108 42 20 67
66 63 115 -2 29 -8 38 -28 43 -37 10 -173 10 -189 0z m169 -91 c0 -37 -74 -55
-104 -24 -32 32 -20 44 44 44 53 0 60 -2 60 -20z"/>
<path d="M1377 3473 c-19 -19 9 -139 39 -170 47 -47 151 -18 180 52 18 45 18
90 -2 109 -12 12 -38 16 -113 16 -54 0 -101 -3 -104 -7z m200 -110 c3 -7 -7
-24 -21 -38 -47 -47 -136 -26 -136 32 0 23 2 24 77 21 49 -2 78 -7 80 -15z"/>
<path d="M3318 3494 c-35 -7 -40 -24 -27 -87 16 -71 55 -107 116 -107 57 0
105 28 127 74 18 37 21 101 7 111 -13 7 -189 15 -223 9z m182 -116 c0 -12 -10
-32 -22 -45 -37 -39 -122 -26 -148 22 -20 37 -5 45 86 45 80 0 84 -1 84 -22z"/>
<path d="M2915 3459 c-8 -37 11 -103 38 -135 18 -21 31 -26 71 -26 57 0 93 22
118 73 10 19 18 48 18 66 0 37 -8 40 -152 46 l-87 3 -6 -27z m189 -65 c43 -17
-12 -84 -69 -84 -25 0 -44 8 -60 25 -39 38 -33 53 23 58 26 2 57 4 69 5 12 1
28 -1 37 -4z"/>
<path d="M1758 3475 c-9 -10 4 -139 16 -154 6 -8 26 -20 44 -28 75 -31 172 36
172 120 0 23 -4 47 -8 52 -7 11 -214 20 -224 10z m197 -105 c4 -6 -7 -24 -24
-40 -22 -23 -38 -30 -68 -30 -49 0 -61 9 -69 48 l-6 32 80 0 c45 0 84 -5 87
-10z"/>
<path d="M2161 3470 c-22 -10 -23 -14 -17 -62 8 -59 28 -103 51 -112 30 -11
95 -6 125 9 37 19 61 65 62 116 0 22 -2 42 -4 44 -10 10 -195 14 -217 5z m140
-80 c59 0 64 -16 20 -61 -52 -52 -141 -30 -141 35 0 25 27 38 58 30 8 -2 36
-4 63 -4z"/>
<path d="M2554 3473 c-37 -5 -46 -25 -34 -79 13 -55 49 -86 107 -91 78 -6 129
36 140 114 4 34 2 42 -13 46 -29 9 -165 15 -200 10z m176 -93 c0 -12 -11 -32
-25 -45 -40 -40 -116 -30 -134 18 -14 37 5 47 85 47 68 0 74 -2 74 -20z"/>
<path d="M3792 2924 c-47 -33 -14 -107 48 -107 57 0 98 67 64 104 -21 23 -81
25 -112 3z"/>
<path d="M3772 2448 c-31 -31 14 -88 69 -88 53 0 60 63 9 90 -25 14 -63 13
-78 -2z"/>
<path d="M3806 2014 c-25 -25 -19 -50 15 -64 37 -16 62 -5 67 30 7 43 -51 66
-82 34z"/>
<path d="M3786 1537 c-16 -12 -17 -17 -6 -38 17 -31 29 -39 63 -39 36 0 53 37
29 62 -24 24 -64 31 -86 15z"/>
<path d="M2608 2939 c-37 -14 -45 -45 -21 -78 36 -47 89 -35 107 26 5 15 1 28
-13 42 -23 23 -33 24 -73 10z"/>
<path d="M2595 2516 c-34 -51 31 -98 83 -59 35 26 37 38 13 62 -29 29 -76 27
-96 -3z"/>
<path d="M2622 2068 c-17 -17 -15 -42 6 -61 35 -32 102 -14 102 26 0 33 -19
47 -60 47 -20 0 -41 -5 -48 -12z"/>
<path d="M2632 1650 c-46 -19 -35 -70 15 -70 60 0 87 51 37 70 -14 6 -26 10
-27 9 -1 0 -12 -4 -25 -9z"/>
<path d="M2990 2910 c-35 -35 -20 -79 31 -95 23 -8 64 24 75 57 15 48 -67 77
-106 38z"/>
<path d="M2978 2485 c-23 -51 52 -107 93 -69 25 23 24 49 -3 74 -31 29 -75 26
-90 -5z"/>
<path d="M2981 2016 c-16 -19 0 -51 28 -59 43 -11 93 43 59 64 -21 14 -74 10
-87 -5z"/>
<path d="M3005 1645 c-40 -39 -28 -85 21 -85 25 0 64 43 64 69 0 44 -49 53
-85 16z"/>
<path d="M3418 2934 c-53 -28 -66 -93 -23 -112 46 -21 74 -15 95 20 22 37 19
64 -12 91 -24 20 -25 20 -60 1z"/>
<path d="M3397 2462 c-10 -10 -17 -33 -17 -51 0 -25 5 -34 26 -41 57 -22 117
48 78 91 -22 24 -66 25 -87 1z"/>
<path d="M3397 2023 c-15 -14 -6 -43 18 -59 24 -16 27 -15 44 0 29 27 32 53 7
60 -29 8 -61 7 -69 -1z"/>
<path d="M3428 1561 c-19 -16 -21 -21 -9 -35 9 -11 26 -16 45 -14 25 2 31 8
31 27 0 34 -37 46 -67 22z"/>
<path d="M1822 2913 c-22 -9 -34 -41 -22 -62 23 -45 120 -29 120 19 0 34 -57
60 -98 43z"/>
<path d="M1846 2571 c-9 -10 -16 -30 -16 -44 0 -25 3 -27 39 -27 67 0 84 52
25 76 -28 12 -34 11 -48 -5z"/>
<path d="M1830 2116 c-10 -13 -9 -20 4 -41 31 -47 102 -26 94 27 -2 19 -10 24
-44 26 -27 2 -45 -2 -54 -12z"/>
<path d="M2216 2908 c-18 -25 -8 -51 25 -69 45 -24 101 38 69 76 -19 23 -76
19 -94 -7z"/>
<path d="M2236 2557 c-22 -16 -18 -65 7 -81 21 -14 46 0 67 38 14 25 13 28 -4
42 -24 17 -47 18 -70 1z"/>
<path d="M2221 2086 c-21 -25 -9 -69 22 -86 27 -14 29 -14 48 9 22 26 25 61 7
79 -17 17 -63 15 -77 -2z"/>
<path d="M1098 2909 c-39 -22 -9 -79 41 -79 31 0 45 12 56 49 5 16 3 26 -6 32
-19 12 -70 11 -91 -2z"/>
<path d="M1102 2630 c-34 -14 -39 -40 -13 -62 29 -22 77 -24 85 -2 11 29 6 53
-13 64 -23 12 -28 12 -59 0z"/>
<path d="M1472 2908 c-7 -7 -12 -24 -12 -38 0 -36 17 -50 60 -50 20 0 41 5 48
12 19 19 15 66 -7 78 -26 14 -74 13 -89 -2z"/>
<path d="M1441 2572 c-16 -29 12 -62 53 -62 39 0 59 19 54 52 -3 20 -10 23
-50 26 -38 2 -49 -1 -57 -16z"/>
<path d="M1446 2147 c-19 -14 -19 -16 -3 -41 19 -29 62 -44 85 -29 23 14 25
28 5 51 -24 28 -63 36 -87 19z"/>
</g>
</svg>
