<?xml version="1.0" standalone="no"?>
<!DOCTYPE svg PUBLIC "-//W3C//DTD SVG 20010904//EN"
 "http://www.w3.org/TR/2001/REC-SVG-20010904/DTD/svg10.dtd">
<svg version="1.0" xmlns="http://www.w3.org/2000/svg"
 width="500.000000pt" height="500.000000pt" viewBox="0 0 500.000000 500.000000"
 preserveAspectRatio="xMidYMid meet">

<g transform="translate(0.000000,500.000000) scale(0.100000,-0.100000)"
fill="#000000" stroke="none">
<path d="M2511 4209 c-82 -16 -91 -40 -56 -144 28 -84 31 -166 18 -488 l-6
-167 -27 0 c-43 0 -132 -35 -204 -80 -36 -23 -66 -45 -66 -49 0 -9 70 -101 77
-101 2 0 25 17 51 39 51 42 91 64 134 75 24 5 28 3 34 -19 3 -14 3 -42 -1 -63
-12 -59 -17 -2207 -6 -2358 10 -131 39 -246 79 -322 22 -41 28 -35 67 63 56
142 56 127 51 1405 -2 646 -7 1198 -10 1225 -9 71 0 81 60 65 33 -9 64 -29 98
-62 l50 -48 43 42 c24 23 43 48 43 54 0 28 -179 122 -249 131 l-48 5 -8 283
-7 283 26 71 c45 124 35 143 -84 166 -8 1 -35 -1 -59 -6z m39 -109 c0 -49 -4
-90 -9 -90 -5 0 -16 -3 -25 -6 -16 -6 -40 39 -56 111 -8 35 -7 42 11 58 12 9
34 17 50 17 l29 0 0 -90z m81 64 c10 -12 11 -29 2 -81 -13 -72 -21 -87 -46
-77 -14 5 -17 21 -17 90 0 82 1 84 24 84 13 0 29 -7 37 -16z m-75 -190 c-40
-14 -53 -13 -42 4 3 6 23 10 43 10 l38 0 -39 -14z m54 -24 c0 -11 -38 -28 -84
-37 -41 -8 -30 16 14 32 45 16 70 18 70 5z m-2 -52 c-6 -17 -108 -50 -108 -35
0 7 19 20 43 29 53 20 70 21 65 6z m2 -48 c0 -10 -29 -24 -82 -40 -47 -14 -34
16 15 33 51 19 67 20 67 7z m0 -53 c0 -8 -18 -19 -41 -26 -23 -7 -47 -15 -55
-18 -8 -3 -14 1 -14 9 0 8 20 21 48 30 60 20 62 21 62 5z m0 -52 c0 -16 -32
-32 -82 -42 -52 -10 -31 21 25 38 28 9 53 17 55 18 1 0 2 -6 2 -14z m0 -55 c0
-11 -38 -28 -82 -37 -44 -9 -33 14 15 30 51 19 67 20 67 7z m0 -53 c0 -8 -18
-19 -41 -26 -23 -7 -47 -15 -55 -18 -8 -3 -14 1 -14 10 0 9 18 22 43 30 54 20
67 20 67 4z m8 -49 c-4 -12 -87 -45 -116 -47 -31 -2 -2 24 44 40 60 21 77 23
72 7z m0 -50 c-4 -11 -44 -28 -100 -42 -20 -4 -28 -3 -28 7 0 7 25 20 58 29
72 20 74 20 70 6z m2 -51 c0 -7 -24 -21 -53 -30 -65 -20 -77 -21 -77 -4 0 7
25 20 58 29 73 20 72 20 72 5z m-3 -82 c-7 -17 -59 -28 -98 -20 -44 10 -31 26
37 45 50 14 60 15 62 3 2 -8 1 -20 -1 -28z m159 -58 c22 -8 64 -27 92 -41 l53
-27 -27 -34 c-14 -19 -30 -35 -33 -35 -4 0 -18 12 -32 26 -35 38 -98 72 -146
80 -33 5 -51 2 -82 -14 l-39 -21 -42 21 c-38 19 -47 20 -96 9 -35 -8 -75 -28
-115 -57 l-61 -46 -28 34 c-15 18 -26 36 -24 39 5 9 149 66 194 77 58 15 339
7 386 -11z m-236 -76 c24 -19 25 -19 50 1 l25 20 7 -54 c3 -29 9 -74 13 -99
l7 -45 -40 -12 c-32 -10 -52 -10 -87 -1 -47 12 -47 12 -41 48 3 20 9 64 12 99
7 67 15 73 54 43z m-21 -212 l31 -11 -1 -1246 0 -1247 -20 50 c-54 131 -52 92
-56 1323 -3 677 0 1142 5 1142 5 0 23 -5 41 -11z m121 -1103 c0 -741 -4 -1140
-11 -1192 -6 -43 -21 -105 -34 -138 l-24 -61 0 1242 -1 1241 28 10 c15 6 30
11 35 11 4 1 7 -500 7 -1113z"/>
</g>
</svg>
