<?xml version="1.0" standalone="no"?>
<!DOCTYPE svg PUBLIC "-//W3C//DTD SVG 20010904//EN"
 "http://www.w3.org/TR/2001/REC-SVG-20010904/DTD/svg10.dtd">
<svg version="1.0" xmlns="http://www.w3.org/2000/svg"
 width="500.000000pt" height="500.000000pt" viewBox="0 0 500.000000 500.000000"
 preserveAspectRatio="xMidYMid meet">

<g transform="translate(0.000000,500.000000) scale(0.100000,-0.100000)"
fill="#000000" stroke="none">
<path d="M3580 3466 c-177 -66 -552 -325 -1065 -737 -471 -378 -825 -701 -912
-832 -34 -51 -62 -80 -107 -109 -73 -47 -100 -55 -132 -37 -32 17 -46 3 -69
-71 -19 -62 -59 -137 -116 -222 -62 -91 -62 -91 96 -43 73 21 112 27 205 28
l115 2 5 53 c5 46 11 58 52 98 45 46 46 46 82 34 21 -7 45 -10 55 -7 43 11
815 506 1156 740 538 370 793 591 880 760 35 71 37 79 34 155 -4 72 -7 84 -35
119 -58 73 -156 101 -244 69z m125 -27 c76 -21 125 -88 125 -173 0 -96 -57
-191 -197 -328 -110 -108 -164 -153 -339 -285 -124 -94 -536 -381 -558 -389
-9 -3 -16 15 -24 61 -6 36 -22 90 -36 120 -28 62 -109 153 -161 181 -19 10
-35 22 -35 26 0 19 589 470 695 533 l30 17 -30 -27 c-170 -156 -362 -356 -376
-392 -19 -49 24 -68 84 -36 34 17 404 278 471 332 45 36 50 38 36 12 -15 -30
-12 -61 6 -61 47 0 228 140 259 201 8 15 15 47 15 69 0 33 -6 48 -30 72 -27
27 -36 30 -72 25 -23 -3 -72 -21 -109 -39 -37 -18 -65 -30 -63 -26 10 16 138
81 192 99 69 22 67 22 117 8z m-91 -90 c20 -15 26 -29 26 -57 0 -32 -9 -45
-73 -107 -40 -38 -88 -79 -106 -89 l-34 -19 8 29 c20 77 -2 81 -81 16 -82 -68
-468 -340 -499 -352 -14 -5 -25 -6 -25 -1 0 4 31 44 68 87 100 115 324 319
418 380 81 53 238 134 260 134 6 0 23 -9 38 -21z m-1043 -811 c26 -26 59 -71
73 -100 31 -65 51 -180 36 -208 -17 -32 -27 -23 -34 32 -17 123 -77 228 -169
294 -29 21 -54 39 -56 41 -2 1 2 9 9 18 11 13 17 12 53 -8 22 -12 62 -43 88
-69z m-130 4 c93 -60 153 -159 168 -278 4 -38 6 -73 4 -79 -4 -10 -283 -191
-601 -391 l-177 -110 -6 46 c-4 26 -11 55 -17 67 -17 30 -90 93 -123 105 -16
5 -29 13 -29 17 0 10 275 279 370 362 163 143 342 289 354 289 6 0 32 -13 57
-28z m-743 -683 c67 -38 92 -78 92 -146 0 -50 -2 -53 -25 -53 -25 0 -33 14
-15 25 6 3 10 20 10 37 0 24 -14 43 -65 95 -86 86 -86 93 3 42z m-28 -61 c17
-17 39 -42 48 -56 16 -24 15 -25 -52 -84 -69 -62 -106 -119 -106 -162 l0 -25
-82 5 c-64 4 -100 1 -158 -14 -41 -11 -76 -19 -78 -17 -1 1 31 28 73 60 69 53
78 57 101 47 38 -18 62 -14 89 13 33 33 33 78 -1 112 -21 21 -32 24 -62 19
-44 -6 -72 -37 -72 -77 0 -22 -12 -37 -59 -74 l-60 -45 39 82 c21 46 41 95 45
109 6 24 9 26 35 16 35 -13 63 -2 166 68 43 30 84 54 91 54 6 1 26 -13 43 -31z
m-192 -144 c12 -8 22 -24 22 -34 0 -17 -34 -50 -52 -50 -11 0 -48 38 -48 50 0
12 37 50 48 50 4 0 18 -7 30 -16z"/>
</g>
</svg>
