<svg xmlns="http://www.w3.org/2000/svg" xmlns:xlink="http://www.w3.org/1999/xlink" viewBox="0 0 500 500"><defs><radialGradient id="radial-gradient" cx="250.0002" cy="251.7309" r="182.7335" gradientUnits="userSpaceOnUse"><stop offset="0" stop-color="#672d02"/><stop offset="0.3189" stop-color="#642d02"/><stop offset="0.5754" stop-color="#5a2d02"/><stop offset="0.8094" stop-color="#492d02"/><stop offset="1" stop-color="#352d02"/></radialGradient><radialGradient id="radial-gradient-2" cx="189.0201" cy="375.7116" r="29.4679" gradientUnits="userSpaceOnUse"><stop offset="0" stop-color="#ffae21"/><stop offset="0.3062" stop-color="#fbaa1f"/><stop offset="0.5893" stop-color="#f09f17"/><stop offset="0.8624" stop-color="#dd8d0a"/><stop offset="1" stop-color="#d18102"/></radialGradient><radialGradient id="radial-gradient-3" cx="159.9967" cy="341.4716" r="39.1564" xlink:href="#radial-gradient-2"/><radialGradient id="radial-gradient-4" cx="113.9964" cy="219.4754" r="29.0601" xlink:href="#radial-gradient-2"/><radialGradient id="radial-gradient-5" cx="155.1707" cy="132.854" r="28.2158" xlink:href="#radial-gradient-2"/><radialGradient id="radial-gradient-6" cx="194.2086" cy="110.9073" r="23.6994" xlink:href="#radial-gradient-2"/><radialGradient id="radial-gradient-7" cx="140.486" cy="306.1972" r="41.3002" xlink:href="#radial-gradient-2"/><radialGradient id="radial-gradient-8" cx="130.2136" cy="169.9497" r="29.1176" xlink:href="#radial-gradient-2"/><radialGradient id="radial-gradient-9" cx="123.8392" cy="266.8495" r="35.003" xlink:href="#radial-gradient-2"/><radialGradient id="radial-gradient-10" cx="310.9799" cy="375.7116" r="29.4679" xlink:href="#radial-gradient-2"/><radialGradient id="radial-gradient-11" cx="250" cy="406.9716" r="27.3355" xlink:href="#radial-gradient-2"/><radialGradient id="radial-gradient-12" cx="340.0033" cy="341.4716" r="39.1564" xlink:href="#radial-gradient-2"/><radialGradient id="radial-gradient-13" cx="202.0758" cy="213.1017" r="7.6647" xlink:href="#radial-gradient-2"/><radialGradient id="radial-gradient-14" cx="386.0036" cy="219.4754" r="29.0601" xlink:href="#radial-gradient-2"/><radialGradient id="radial-gradient-15" cx="369.7864" cy="169.9497" r="29.1176" xlink:href="#radial-gradient-2"/><radialGradient id="radial-gradient-16" cx="344.8293" cy="132.854" r="28.2158" xlink:href="#radial-gradient-2"/><radialGradient id="radial-gradient-17" cx="305.7914" cy="110.9073" r="23.6994" xlink:href="#radial-gradient-2"/><radialGradient id="radial-gradient-18" cx="250" cy="108.4472" r="32.689" xlink:href="#radial-gradient-2"/><radialGradient id="radial-gradient-19" cx="250" cy="250.7445" r="32.1686" xlink:href="#radial-gradient-2"/><radialGradient id="radial-gradient-20" cx="359.514" cy="306.1972" r="41.3002" xlink:href="#radial-gradient-2"/><radialGradient id="radial-gradient-21" cx="376.1608" cy="266.8495" r="35.003" xlink:href="#radial-gradient-2"/><radialGradient id="radial-gradient-22" cx="250" cy="363.3911" r="42.5346" xlink:href="#radial-gradient-2"/><radialGradient id="radial-gradient-23" cx="297.9242" cy="213.1017" r="7.6647" xlink:href="#radial-gradient-2"/><radialGradient id="radial-gradient-24" cx="250" cy="205.5024" r="88.5062" xlink:href="#radial-gradient-2"/><radialGradient id="radial-gradient-25" cx="215.6295" cy="300.3345" r="32.5262" xlink:href="#radial-gradient-2"/><radialGradient id="radial-gradient-26" cx="284.3705" cy="300.3345" r="32.5262" xlink:href="#radial-gradient-2"/></defs><g id="cor"><g id="Layer_10" data-name="Layer 10"><path d="M433.1436,260.7207l-4.4053-18.1338c-1.3144-5.4088-7.6561-29.8989-17.742-43.8007l14.39.5536L415.48,183.3554a140.9672,140.9672,0,0,0-30.6018-34.9507l13.7971-3.9419-12.8066-12.0615c-14.7036-13.8485-31.9512-23.8564-37.6395-26.9873l5.0926-3.748L338.57,94.3925C323.4344,86.9289,298.3134,84.3558,295.6392,84.1l2.7114-7.3783-10.7471-2.7324A170.51,170.51,0,0,0,250,69.4082a170.4988,170.4988,0,0,0-37.6035,4.581l-10.7476,2.7324L204.3605,84.1c-2.6718.2557-27.7936,2.8287-42.93,10.2927l-14.7515,7.2735,5.0924,3.748c-5.6878,3.1307-22.9356,13.1387-37.6393,26.9873l-12.8061,12.0615,13.7967,3.9419a140.9583,140.9583,0,0,0-30.6009,34.9507L74.6143,199.34l14.3889-.5536c-10.0858,13.9019-16.427,38.3919-17.741,43.8007l-4.4053,18.1338,14.1991-5.1613c-1.5312,9.4051-4.6151,31.46-2.827,47.2257l1.8062,15.9229,13.7921-8.8006c.7481,32.93,11.83,47.4867,13.1058,49.0525l7.3579,9.0313,10.5651-11.6858c3.2527,15.5168,17.9084,38.1487,19.6278,40.7668l9.1626,13.9483,11.428-20.9939c7.5911,10.828,23.0814,25.1137,30.3762,31.5974L208.3154,433.06l4.2277-19.9856L250,434.0537l37.4568-20.98,4.2278,19.9865L304.55,421.624c7.2952-6.4837,22.785-20.7694,30.3755-31.5974l11.4282,20.9939,9.1621-13.9483c1.7194-2.6182,16.3756-25.25,19.6287-40.767L385.709,367.99l7.3574-9.03c1.2763-1.5658,12.3586-16.1233,13.1058-49.0524l13.7936,8.8014,1.8057-15.9238c1.7875-15.7662-1.2968-37.8211-2.8278-47.226Z" style="fill:url(#radial-gradient)"/><path d="M290.751,434.8974l-4.34-20.5185L250,434.7734l-36.4116-20.3945-4.34,20.5175-14.7944-13.1513c-7.7124-6.8545-21.3374-19.499-29.1958-29.919l-11.4912,21.11L143.23,396.8955c-1.585-2.4141-14.8623-22.9092-19.1592-38.4844l-9.8389,10.8818L105.77,358.9072c-1.2607-1.5469-12.08-15.7119-13.3589-47.3174l-13.5957,8.6758-2.0766-18.3115c-1.6709-14.7286.8774-34.9385,2.4384-45.1153l-14.4384,5.2481,5.0659-20.8545c1.1245-4.6289,6.9482-27.33,16.2827-41.833l-14.2344.5478,11.3936-18.3818a143.794,143.794,0,0,1,28.7226-33.502L98.376,144.1806,113.1035,130.31c13.251-12.48,28.3428-21.77,35.9033-26.0674l-5.2041-3.83,16.9644-8.3653c13.52-6.666,34.7065-9.4756,41.521-10.2382l-2.6211-7.1309,12.36-3.1426A171.67,171.67,0,0,1,250,66.9082a171.608,171.608,0,0,1,37.9746,4.6279l12.3574,3.1416-2.6211,7.1309c6.8155.7617,27.9991,3.5693,41.5225,10.2382l16.9639,8.3653-5.2041,3.83c7.56,4.2979,22.6533,13.587,35.9033,26.0674l14.7275,13.8711-13.5928,3.8828a143.8315,143.8315,0,0,1,28.7237,33.502l11.3926,18.3818-14.2354-.5478c9.3311,14.5009,15.1582,37.2031,16.2842,41.833l5.0654,20.8545-14.4394-5.2481c1.5615,10.1758,4.1093,30.3838,2.4394,45.1153l-2.0762,18.3125L407.5879,311.59c-1.2783,31.61-12.0977,45.7715-13.3594,47.3184l-8.46,10.3838L375.93,358.4111c-4.2979,15.581-17.5752,36.0713-19.16,38.4844l-10.5371,16.041-11.49-21.11c-7.8584,10.42-21.4834,23.0645-29.1963,29.919ZM211.4976,409.77,250,431.3339,288.5029,409.77l4.1153,19.4541,10.9345-9.7207c6.5215-5.7959,22.5127-20.4512,30.1446-31.3379l1.39-1.9814,11.3877,20.9209,7.7871-11.8555c1.65-2.5127,16.2149-24.9854,19.4151-40.251l.6044-2.8838,11.3682,12.5742,6.2539-7.6757c1.2295-1.5088,12.0322-15.669,12.7686-48.14l.06-2.6631,14.0137,8.9414,1.5351-13.5351c1.7793-15.7022-1.3779-37.9707-2.8183-46.8155l-.4111-2.5244,13.9736,5.0782L427.28,241.9414c-1.168-4.81-7.5049-29.4991-17.4981-43.2744l-1.8125-2.4981,14.6563.5635-8.4219-13.5869a139.4931,139.4931,0,0,0-30.2666-34.5723l-2.2568-1.8154,14.0449-4.0127L384.84,132.4931c-14.7343-13.8779-32.3017-23.9951-37.3349-26.7646l-2.0557-1.1319,4.9961-3.6767-12.5381-6.1817c-14.8877-7.3418-39.6386-9.88-42.4111-10.1455l-1.9365-.1855,2.81-7.6416-9.1347-2.3223A168.2657,168.2657,0,0,0,250,69.9082a168.3222,168.3222,0,0,0-37.2329,4.5341l-9.1362,2.3233,2.8081,7.6416-1.9356.1855c-2.7734.2657-27.5278,2.8067-42.41,10.1455L149.5547,100.92l4.9951,3.6767-2.0557,1.1319c-5.0332,2.77-22.6,12.8877-37.3339,26.7646l-10.8848,10.252,14.0439,4.0127-2.2563,1.8154a139.4977,139.4977,0,0,0-30.2666,34.5723L77.375,196.7324l14.6548-.5635-1.8125,2.4981c-9.9956,13.7783-16.3291,38.4648-17.4976,43.2744l-3.7441,15.4131,13.9722-5.0782-.4112,2.5244c-1.44,8.8457-4.5976,31.1163-2.8174,46.8155L81.2549,315.15l14.0112-8.94.0606,2.6631c.7378,32.4658,11.54,46.6309,12.769,48.14l6.2544,7.6767,11.3691-12.5752.605,2.8838c3.1987,15.2578,17.7632,37.7383,19.4136,40.251l7.7881,11.8555,11.3882-20.92,1.3886,1.9805c7.6319,10.8867,23.6231,25.542,30.1446,31.3379l10.935,9.72Z" style="fill:#acacac"/><path d="M207.3237,388.4291l-5.23,24.7217s-27.812-24.7217-31.3776-34.23L189.02,338.2725l-8.9009,27.7525Z" style="fill:url(#radial-gradient-2)"/><path d="M185.5825,330.437l-32.74,60.1448s-16.2488-24.737-18.4315-38.5606l46.0787-59.66S165.4534,315.805,185.5825,330.437Z" style="fill:url(#radial-gradient-3)"/><path d="M134.4109,224.525,80.9793,243.9469s8.3514-34.3767,19.616-44.2818l46.4182-4.6612S134.2383,219.8638,134.4109,224.525Z" style="fill:url(#radial-gradient-4)"/><path d="M120.9883,138.6806l51.662,14.7605s13.9837-18.8391,16.7028-21.17l-31.0749-20.0045S137.691,122.9489,120.9883,138.6806Z" style="fill:url(#radial-gradient-5)"/><path d="M165.8527,102.3617l34.5708,25.4426s18.645.5827,22.1409.9711L205.4732,93.0393S180.0306,95.37,165.8527,102.3617Z" style="fill:url(#radial-gradient-6)"/><path d="M177.1745,282.5272l-62.4888,69.1163s-10.4148-12.7817-10.8882-44.0261l60.1218-46.8666A40.8566,40.8566,0,0,1,177.1745,282.5272Z" style="fill:url(#radial-gradient-7)"/><path d="M93.0208,187.6236l60.5961-2.3307s12.6242-22.7235,13.79-22.9177l-42.1453-10.0994S107.5872,164.1232,93.0208,187.6236Z" style="fill:url(#radial-gradient-8)"/><path d="M88.1654,300.6586l71.8313-45.8355S140.7985,232.1,137.8853,233.0706,91.6613,251.91,91.6613,251.91,86.029,281.8194,88.1654,300.6586Z" style="fill:url(#radial-gradient-9)"/><path d="M292.6763,388.4291l5.23,24.7217s27.812-24.7217,31.3776-34.23L310.98,338.2725l8.9009,27.7525Z" style="fill:url(#radial-gradient-10)"/><polygon points="250 407.561 214.213 392.351 214.213 401.548 250 421.592 285.787 401.548 285.787 392.351 250 407.561" style="fill:url(#radial-gradient-11)"/><path d="M314.4175,330.437l32.74,60.1448s16.2488-24.737,18.4315-38.5606l-46.0787-59.66S334.5466,315.805,314.4175,330.437Z" style="fill:url(#radial-gradient-12)"/><path d="M194.2086,206.0743l16.12,8.5456s-4.8555,7.7687-11.6531,4.8555S194.2086,206.0743,194.2086,206.0743Z" style="fill:url(#radial-gradient-13)"/><path d="M365.5891,224.525l53.4316,19.4219s-8.3514-34.3767-19.616-44.2818l-46.4182-4.6612S365.7617,219.8638,365.5891,224.525Z" style="fill:url(#radial-gradient-14)"/><path d="M406.9792,187.6236l-60.5961-2.3307s-12.6242-22.7235-13.79-22.9177l42.1453-10.0994S392.4128,164.1232,406.9792,187.6236Z" style="fill:url(#radial-gradient-15)"/><path d="M379.0117,138.6806,327.35,153.4411s-13.9837-18.8391-16.7028-21.17l31.0749-20.0045S362.309,122.9489,379.0117,138.6806Z" style="fill:url(#radial-gradient-16)"/><path d="M334.1473,102.3617l-34.5708,25.4426s-18.645.5827-22.1409.9711l17.0912-35.7361S319.9694,95.37,334.1473,102.3617Z" style="fill:url(#radial-gradient-17)"/><path d="M250,78.4081a161.2183,161.2183,0,0,0-35.14,4.2728l19.0334,51.7916L250,138.4864l16.1062-4.0139L285.14,82.6809A161.218,161.218,0,0,0,250,78.4081Z" style="fill:url(#radial-gradient-18)"/><path d="M267.4334,254.1433c-3.859,5.4381-3.1075,14.7606-3.1075,14.7606l-2.4278.0971c-.12-5.3412-.0026-13.1419.4855-14.9548.68-2.5249,9.1283-12.6242,19.13-11.6531l-1.2623-9.808s-7.963-.3519-11.3618.4552-7.6716,4.5944-7.8658,5.4684,1.1652-10.8762,16.6056-12.1387c0,0-9.9051-7.8657-27.63-7.8657s-27.63,7.8657-27.63,7.8657c15.44,1.2625,16.8,13.0127,16.6057,12.1387s-4.4671-4.6612-7.8659-5.4684-11.3618-.4552-11.3618-.4552l-1.2623,9.808c10.0022-.9711,18.4506,9.1282,19.13,11.6531.4881,1.8129.6052,9.6136.4856,14.9548l-2.4277-.0971s.7515-9.3225-3.1075-14.7606-14.6635-5.7294-14.6635-5.7294V269.001L250,282.9847l32.0968-13.9837V248.4139S271.2923,248.7052,267.4334,254.1433Z" style="fill:url(#radial-gradient-19)"/><path d="M322.8255,282.5272l62.4888,69.1163s10.4148-12.7817,10.8882-44.0261l-60.1218-46.8666A40.8566,40.8566,0,0,0,322.8255,282.5272Z" style="fill:url(#radial-gradient-20)"/><path d="M411.8346,300.6586l-71.8313-45.8355s19.1982-22.7236,22.1114-21.7525,46.224,18.8392,46.224,18.8392S413.971,281.8194,411.8346,300.6586Z" style="fill:url(#radial-gradient-21)"/><path d="M304.0435,361.74l-6.1179-18.3536s-12.2358,13.79-14.7606,13.79S272.9641,336.9774,250,336.9774s-30.64,20.1987-33.1651,20.1987-14.7605-13.79-14.7605-13.79L195.9566,361.74l12.527,10.0022,7.089-9.3224-1.36,12.2358,15.3433,7.8658,7.7687-17.48v20.9756L250,389.8048l12.675-3.7873V365.0419l7.7687,17.48,15.3432-7.8658L284.4275,362.42l7.089,9.3224Z" style="fill:url(#radial-gradient-22)"/><path d="M305.7914,206.0743l-16.12,8.5456s4.8555,7.7687,11.6531,4.8555S305.7914,206.0743,305.7914,206.0743Z" style="fill:url(#radial-gradient-23)"/><path d="M302.2739,134.6236l-1.3378,2.309-26.0254,1.5538-2.3306,3.1074-20.5871,5.4381,2.3307,43.5049L250,195.0039l-4.3236-4.4671,2.3306-43.5049L227.42,141.5938l-2.3306-3.1074-26.0253-1.5538-1.3379-2.309c-5.05.1942-54.2085,84.8518-50.7126,91.261,24.4715,11.653,44.67,50.4967,44.67,50.4967l18.6449-18.645v-17.48a88.9555,88.9555,0,0,1-11.9107,3.69c-6.0844,1.36-21.2435-26.2194-21.2435-26.2194s19.9474,19.4218,24.9014,19.0333,8.2528-7.7686,8.2528-7.7686-4.2727,3.8843-9.7109,4.0482-25.6367-33.57-25.6367-33.57l-9.1284-1.9421c-2.1363-11.6532,11.3218-24.0831,11.3218-24.0831s-6.4579,17.6407-4.1357,17.8681c29.5213,2.3306,49.5258,21.788,49.5258,21.788l6.7976-13.6309-10.8762-24.4714,17.48,24.86s-19.0334,25.6368-11.2647,19.6161S250,213.1017,250,213.1017s17.5305.3528,25.2992,6.3737-11.2646-19.6161-11.2646-19.6161l17.4795-24.86L270.638,199.4708l6.7976,13.6309s20.0045-19.4574,49.5257-21.788c2.3222-.2274-4.1357-17.8681-4.1357-17.8681s13.4581,12.43,11.3218,24.0831l-9.1283,1.9421s-20.1987,33.7335-25.6368,33.57-9.7109-4.0482-9.7109-4.0482,3.2989,7.38,8.2529,7.7686,24.9013-19.0333,24.9013-19.0333-15.1591,27.579-21.2434,26.2194a88.9541,88.9541,0,0,1-11.9108-3.69v17.48l18.645,18.645s20.1987-38.8437,44.67-50.4967C356.4824,219.4754,307.3237,134.8178,302.2739,134.6236ZM195.9566,181.0709l2.4427-6.7969c-.4422-.4122-.5042-.479.0186-.0515l-.0186.0515c1.9684,1.8353,11.6309,10.6641,12.4635,14.7523Zm93.1806,7.9554c.8326-4.0882,10.4952-12.917,12.4635-14.7523l-.0185-.0515c.5227-.4275.4607-.3607.0185.0515l2.4428,6.7969Z" style="fill:url(#radial-gradient-24)"/><path d="M245.6764,308.2331V321.44s-38.5442,6.3437-43.5939,13.724l-16.5-18.7736,13.0931,9.3225s18.6449-10.4878,23.8888-10.8763-9.3838-2.9711-24.2773,5.4381l-12.7046-17.9975,3.7706-9.9157,12.7227,10.6926s16.7985-4.5318,25.3441-4.5318-22.6588-.259-22.6588-.259-10.4153-13.6559-10.5525-14.1132l16.12-18.6449v16.7028l14.7606,12.43,5.0982-5.341,4.54,2.8647-2.6208,6.3607Z" style="fill:url(#radial-gradient-25)"/><path d="M254.3236,308.2331V321.44s38.5442,6.3437,43.5939,13.724l16.5-18.7736-13.0931,9.3225S282.68,315.225,277.4356,314.8365s9.3838-2.9711,24.2773,5.4381l12.7046-17.9975-3.7706-9.9157L297.9242,303.054s-16.7985-4.5318-25.3441-4.5318,22.6588-.259,22.6588-.259,10.4153-13.6559,10.5525-14.1132l-16.12-18.6449v16.7028l-14.7606,12.43-5.0982-5.341-4.54,2.8647,2.6208,6.3607Z" style="fill:url(#radial-gradient-26)"/></g></g></svg>