<svg xmlns="http://www.w3.org/2000/svg" fill="none" viewBox="0 0 500 500">
  <path fill="#ffffff" d="M380.027 11.9291l-.896 5.4533-.866 5.7942-1.489 6.8166-1.984 10.9066-3.971 19.7682-2.464 11.5883c-.126.7055-.746 3.5651-.3 4.0354.576.6067 1.524.0307 2.086-.2794l5.794-3.3981 23.518-13.7867 42.944-25.1602 12.952-7.8561 11.588-6.5917 23.177-13.715L500 0l-6.472 11.2474-12.88 21.8133-6.8 11.9291-7.856 12.9516-24.956 42.6036-13.776 23.518-3.194 5.453c-.361.637-1.111 1.776-.269 2.365.688.481 3.354-.303 4.288-.46l11.929-2.505 31.015-6.033c4.516-.848 12.526-2.873 16.701-2.91l-7.618 10.225-13.03 17.041-17.355 22.836-9.424 11.96-7.958 10.535-15.361 20.095c-1.156 1.544-5.91 7.332-6.319 8.535-.382 1.135.218 2.205.344 3.408l.998 8.521.74 9.543v14.656l-1.363 14.996-.791 6.476c.31 1.183 4.206 5.88 5.177 7.158l12.512 16.373 17.4 22.495 23.865 31.343 12.27 16.019c1.533 1.984 5.136 6.101 5.913 8.18l-13.292-2.6-2.727-.283-8.521-1.732-4.09-.62-20.109-4.032c-4.141-.678-12.283-3.098-16.019-3.003.661 2.645 4.243 7.812 5.791 10.423l12.658 21.615 7.717 12.952 16.925 29.311 6.688 11.003 8.987 15.582 12.424 21.132c1.397 2.45 4.222 6.755 5.156 9.202-2.73-.194-8.074-3.909-10.565-5.47l-4.772-2.713-14.997-8.923-13.974-8.023-55.555-32.764-23.518-13.824-5.453-3.191c-.593-.313-1.81-1.015-2.42-.388-.47.48.17 3.023.29 3.722l2.423 11.588 4.063 20.109 2.004 10.907 1.397 6.475.89 6.135.896 5.113-7.846-5.747-16.012-12.239-18.746-14.274-6.475-5.15-3.266-2.246-23.319-18.071-18.392-14.042-7.512-5.378-6.475.801-14.656 1.363h-14.997l-9.202-.736-8.862-1.002-3.394-.348-8.549 6.322-20.095 15.372-18.405 14.254-33.405 25.456-14.652 11.193-6.135 4.813 2.328-12.952.845-5.794 3.943-19.427 1.872-10.225 3.282-16.701c-2.652.538-8.988 4.809-11.588 6.411l-20.253 11.803-14.5123 8.449-9.8841 5.978-18.0641 10.379-12.9516 7.856-13.6332 7.825-16.3599 9.803-4.09 2.252c-2.5665 1.521-7.4642 4.956-10.225 5.249.4533-1.854 4.816-8.814 6.0668-10.906l2.2666-4.09L18.882 467.28l6.3872-11.247 8.0538-13.293 10.3817-18.064 14.9694-25.221 13.7866-23.518 3.2141-5.453c.2999-.518.985-1.513.4226-2.072-.5556-.552-3.0573.092-3.8412.228l-11.5883 2.461-20.109 4.032-3.7492.617-9.2024 1.742-2.3859.276-13.6332 2.6 8.4049-11.002L33.18 352.079l18.1152-23.858 7.5698-9.53 9.758-12.822 15.1841-19.911 4.9046-6.49.2454-2.031-.6101-3.068-.6953-6.135-.7396-9.884-.3409-5.794v-5.112l.3409-5.113 1.0225-12.61.5146-4.431.3817-4.09-6.2065-8.521-12.7914-16.701-18.013-23.517-2.6891-3.719-5.7976-7.218-12.6721-16.674-11.7178-15.334-7.0143-9.543c4.7887.013 11.7757 2.021 16.7008 2.91l31.0156 6.057 11.9291 2.481c.9169.157 3.6129.941 4.2809.46.7839-.569.0443-1.745-.2897-2.365l-3.2141-5.453-5.8111-9.544-8.0266-13.974-8.2277-14.3146-8.2856-13.6333-10.0102-17.3824-8.4254-13.9741-4.2161-7.4983-12.921-22.154C4.7786 8.7593.8794 3.1288 0 .3408c2.362.7465 6.7314 3.6333 9.2025 4.9864l23.5173 13.8923 18.7458 10.8521 5.7941 3.5923 42.9443 25.1636 23.518 13.7867 5.453 3.1902c.61.3442 1.773 1.1349 2.366.351.466-.6203-.236-3.0334-.365-3.8991l-2.56-12.2699-1.949-10.5658-2.182-9.8841-2.328-13.6333-2.525-13.9741 9.639 7.3858 17.382 13.2891 24.387 18.5139 12.327 9.666 7.836 5.7737 20.798 16.0873 5.79 4.4274c.839.6305 2.114 1.762 3.068 2.0824 1.346.4533 2.771-.0988 4.09-.3647l6.135-.76c6.966-.835 14.117-1.1282 21.131-1.1179l5.795.3408 12.269 1.0225 4.09.4669c1.432.2693 2.962.9271 4.431.4056 1.128-.4056 5.818-4.2638 7.158-5.2522l17.041-13.0368 16.019-12.1677 9.203-7.3415 7.127-5.2897 20.48-15.6851 16.019-12.2699 8.18-6.1759zM246.08 109.843c-2.566.372-5.248.573-7.839.586l-7.839.781c-6.339.787-16.356 3.166-22.495 5.078l-8.52 3.126-4.431 1.585-9.884 4.57c-4.503 2.308-8.753 5.116-12.952 7.918l-4.772 3.098c-13.466 9.731-25.047 22.058-34.202 35.876-3.091 4.662-6.074 9.298-8.565 14.315-4.915 9.894-8.671 20.634-11.251 31.356l-2.461 12.27-.194 2.727-.586 5.112-.682 13.634.682 9.884.586 5.112.194 2.727c.675 5.177 1.895 10.293 3.214 15.337 2.161 8.269 4.032 13.613 7.4 21.473l2.328 5.453c7.511 15.423 19.509 31.104 32.29 42.549 9.199 8.235 22.846 17.55 34.083 22.679l10.907 4.353c11.554 4.41 23.8 7.314 36.128 8.159l5.794.651h12.611l6.816-.651c10.174-.695 20.263-2.791 29.994-5.889l5.794-2.175c5.323-1.956 10.61-4.056 15.678-6.629 4.165-2.117 8.033-4.564 11.929-7.123l9.884-6.803c12.287-9.411 22.815-21.156 31.285-34.067 3.422-5.218 6.398-10.453 9.151-16.046l2.461-5.143 2.58-7.158 1.94-5.112c3.251-9.922 5.409-20.276 6.124-30.675l.651-6.135v-13.633l-.681-5.453v-3.068l-.583-3.067c-.825-6.268-1.752-10.921-3.368-17.042-2.641-10.031-6.649-20.818-11.496-29.993-2.328-4.407-5.03-8.494-7.818-12.611l-2.444-3.749c-8.456-11.8-20.682-24.097-32.577-32.417l-3.405-2.13c-14.298-9.485-26.711-14.891-43.285-19.161-6.388-1.646-10.832-2.512-17.383-3.306l-5.112-.587-15.679-.586zm0 41.97c6.456-.784 18.034.736 24.54 2.038 43.419 8.698 76.142 47.059 78.064 91.207l.328 3.749v2.386l-.328 4.431c-1.118 25.668-12.992 50.531-32.051 67.767-10.007 9.049-21.701 15.835-34.424 20.273-6.698 2.331-18.521 4.922-25.563 5.02h-3.408c-1.319.106-1.946.379-3.408.297l-5.795-.31c-8.03-.096-19.345-2.853-26.925-5.559-9.308-3.323-18.77-8.289-26.585-14.353-19.056-14.788-32.226-35.439-36.878-59.161-.644-3.286-1.619-9.714-1.636-12.952l-.341-7.157.341-5.794.313-3.409c.897-11.23 4.312-22.181 8.995-32.379 11.367-24.754 34.005-43.756 59.881-51.799 5.167-1.606 11.67-2.989 17.041-3.661l7.839-.634z"/>
</svg>
