<svg id="Laag_1" data-name="Laag 1" xmlns="http://www.w3.org/2000/svg" viewBox="0 0 900 900"><path d="M666.14,646c29.68-5.7,46.42-29.58,59.37-56,4.49-9.18,13-16.38,22.32-27.7,7.86,76.17-93.44,189.16-194.18,222.62C417.91,830,256.25,778.92,187.71,673c38.86-27.29,81.4-33.82,125-23.47,34.87,8.28,68.93,21.25,102.13,35.07,79.07,32.91,156.9,30.44,234.56-3.7,3.87-1.7,7.48-4,15.52-8.29-6.94,0-9.16-.63-10.79.09-82.13,36.48-162.55,25-243-7-34.41-13.67-69.53-26.48-105.41-35.22-39.91-9.73-79.6-2.95-116.87,14.88-8.33,4-16.84,10.54-21.28-3.34-3.71-11.62-20.24-22.92-.17-35.87,50.43-32.55,104-35.52,158.86-16.09,44.08,15.62,86.91,34.75,130.35,52.16,32.05,12.84,64.39,24.54,99.87,21.6"/><path d="M591.71,637.85c-20.93-4.87-45,2.81-65.86-2.41-25.46-6.38-50.38-15.9-74.49-26.47-49-21.48-97.46-43.79-150.75-53.55-50.69-9.28-98.46-4.15-143.5,23.25,14.1-22.46,55.21-44.95,89.51-50.72,48.57-8.15,96.08-2.75,140.75,16,69,29,136.35,62.17,204.61,93Z"/><path d="M336.75,511.79c34.64-6.54,67.48,1.66,99.57,12.26,38.46,12.7,76.2,27.59,114.43,41,45.67,16.07,92.3,25.38,141,17.58,1.53-.24,3.22.54,4.85.85-7.85,29.27-38.51,47.83-72.19,38.56-33.95-9.34-67.65-21.58-99.24-37.07C464.37,555.18,404.71,523.24,336.75,511.79Z"/><path d="M547.43,528.8c37.5,2.18,60.36-3.75,96.46-4.63,58.93-1.44,84.7-33.88,102.78-85.19h0a9.3,9.3,0,0,1,10.18-9.79c12.21,1.28,17,9.14,12.39,20.46-15.38,37.79-10.13,56.86-23.63,71.28a34.52,34.52,0,0,1-6.18,5.05c-32.49,21.55-55.14,35.06-92.31,29C613.54,549.53,581,537.87,547.43,528.8Z"/><path d="M102.78,477.47c9-53.34,52-97.19,99.59-109.62,61.24-16,121.91-7.55,183-1.57,52.11,5.11,104.38,11,156.62,11.44a180.76,180.76,0,0,0,78.05-17.6c48.61-23.61,73.4-63.19,63.42-121.22l15,27.68c5.27-.85,13.56.08,8.72-13.15-2.32-6.35-1.05-14-1.53-23.61,37.9,51.11,20.79,132.41-32.55,167.58-43.89,28.93-93.46,34.7-143,28.53-60.24-7.5-119.73-21.24-179.43-32.83-45.58-8.85-91.16-16.38-137.65-8.19-50.38,8.88-87.13,35.2-106,84C106.29,470.79,105.23,472.56,102.78,477.47Z"/><path d="M147.49,440c26.22-29,60.74-38.69,97.31-34.76,46.94,5.06,93.67,13.51,139.89,23.32,62.84,13.34,124.81,31.18,189.71,32,57.66.76,109.64-13.31,148.23-59.56,28.28-33.89,37.6-73.61,34.75-117.4,1.54,7.18,3.92,14.29,4.48,21.54,5,64.83-11,121.52-68.27,158.85C658.86,486.69,618.67,490.31,578,488.3,510.74,485,448,462.14,384,444a1172.33,1172.33,0,0,0-136.57-30.45C211.7,408,176.75,415.78,147.49,440Z"/><path d="M592.11,515.38c-29.48-2.45-59.51-2.11-88.32-7.9-66.86-13.46-133-30.37-199.7-44.83a443.73,443.73,0,0,0-68.55-9.42c-49.7-2.85-85.19,20.8-104,67.18-2,5-3.08,10.32-5.83,15,3.94-63.07,50.15-106.6,112.68-100.9,41.13,3.75,81.87,15,122,25.87,64.15,17.38,126.92,40.26,193.76,46.25,12.81,1.15,25.67,1.78,38.5,2.65C592.46,511.29,592.28,513.34,592.11,515.38Z"/><path d="M598.7,158c-16.5,3.13-33.55,2.46-46.38,9.49-49,26.86-47.77,88.46,1.31,123,5.52,3.88,12.27,6.22,17.17,10.68,3.62,3.29,8,9.71,6.89,13.22-1.2,4-8,8.78-12.41,8.8-8.16.05-17.1-1.57-24.38-5.19-29.53-14.69-46.91-38.74-47.88-72-1-34.29,16.65-59.59,45.45-75.72,14.34-8,31.57-11.11,47.75-15.42C590,153.77,594.84,156.9,598.7,158Z"/><path d="M584.56,125.41c-39.08-.9-74.16,6.18-102.6,32.83-28.22,26.44-39.25,59.38-36,97.87l-4.5,3.32c-5.82-5.1-14-9.08-17-15.5-10.52-22-3.73-43.27,8.24-62.4,27.89-44.6,96.11-72,147.82-60.35C581.38,121.38,582,122.68,584.56,125.41Z"/><path d="M544.89,189.83c-11.22,28.71-6.7,48.08,15.68,64.3,23.42,17,45.89,13.72,73.8-10.68,13.63,14.75,12.9,25.05-2.5,35.35C606.15,296,575.42,291,551.1,265.58,527.86,241.3,525.49,215.5,544.89,189.83Z"/><path d="M436.16,139.62c-41.24,39.17-48.34,87.49-39.41,140.35.66,3.86,1.86,8,1.06,11.65-.95,4.33-3.8,8.23-5.83,12.32-4-2.59-9.54-4.26-11.61-7.91-12.51-22-10-45.87-5.53-69.18C382.09,189,403.68,160.45,436.16,139.62Z"/><path d="M600,225.52a5,5,0,0,1-2,7.35c-7.39,3.53-15.66,2.84-21.16-4.46-4.45-5.89-6-17.3-3.55-24.34,5.18-14.61,17.42-17.65,33.83-13.22-4.87,3.21-17.61,14.45-17.39,18.25C590.09,216.37,595.32,218.65,600,225.52Z"/><path d="M696.61,238.85s-28.7-69.6-52.57-86.94-44.19-17.34-34-3.79S647.7,170.36,696.61,238.85Z"/></svg>