<svg id="Laag_1" data-name="Laag 1" xmlns="http://www.w3.org/2000/svg" viewBox="0 0 900 900"><path d="M372,725.4s-22.36-186.19,79.8-177.46S534.08,732,534.08,732s45.8-236.95-81.31-222.69S355.44,675.78,372,725.4Z"/><path d="M200,460.74S170.18,361.49,147,427.66,88.56,735.33,205.46,732s153.29,33.08,146.67-13.24-28.28-129.95.75-170.84c0,0-40.45,51.75-23.91,164.23,0,0-102.55,33.08-135.64-3.31S100.7,414.42,200,460.74Z"/><path d="M703,460.74s29.77-99.25,52.93-33.08S814.43,735.33,697.53,732,544.24,765.1,550.86,718.78s28.28-129.95-.75-170.84c0,0,40.45,51.75,23.91,164.23,0,0,102.55,33.08,135.63-3.31S802.29,414.42,703,460.74Z"/><path d="M216.49,467.36s38.69,23.15,34.23,0S302.51,368.11,338.9,421s56.24,76.09,66.16,46.32,19.19-52.29,44.33-44.34c0,0-24.28,24.28-37.61,57.47s-96-76-106-62.76S263.6,450,254.93,486.8,216.49,467.36,216.49,467.36Z"/><path d="M694.2,467.36s-38.68,23.15-34.23,0S608.19,368.11,571.8,421s-56.24,76.09-66.17,46.32S486.45,415.07,461.3,423c0,0,24.29,24.28,37.62,57.47s96-76,106-62.76S647.1,450,655.76,486.8,694.2,467.36,694.2,467.36Z"/><path d="M203.26,434.27s-26.47-36.39-46.32-52.93-26.46-102.55,13.24-109.17S262.81,252.32,272.73,292,272.32,434.27,256,434.27s26.68-129-9.71-135.63S200,249,173.48,292,203.26,434.27,203.26,434.27Z"/><path d="M704.14,434.27s26.47-36.39,46.32-52.93,26.47-102.55-13.23-109.17S644.59,252.32,634.67,292s.41,142.25,16.75,142.25-26.67-129,9.72-135.63S707.45,249,733.92,292,704.14,434.27,704.14,434.27Z"/><path d="M223.11,199.39s-6.39-22.53,15-19.54,31.2,74.34,14.72,75.06-104.13,22-100,9.72,103.37-9,93.45-25.54S252.88,189.46,223.11,199.39Z"/><path d="M208.89,197.75S190,215.93,170.18,206s-27.49-17.23-23.67,3-.95,40.36-.95,40.36-27.83-76.17-8.47-76.41c3.37,0-6.61,0,16.54-3.31,17.64-2.52,16.55,26.47,29.78,19.85s8-31.55,25.48-19.08S208.89,197.75,208.89,197.75Z"/><path d="M687.63,199.39s6.39-22.53-15-19.54-31.2,74.34-14.71,75.06,104.12,22,100,9.72-103.37-9-93.44-25.54S657.86,189.46,687.63,199.39Z"/><path d="M701.85,197.75s18.87,18.18,38.72,8.25,27.48-17.23,23.66,3,1,40.36,1,40.36,27.82-76.17,8.46-76.41c-3.37,0,6.62,0-16.54-3.31-17.64-2.52-16.54,26.47-29.78,19.85s-8-31.55-25.48-19.08S701.85,197.75,701.85,197.75Z"/><path d="M441.45,563.3s-19.85,46.31,0,168.72C442.2,736.64,454.69,593.07,441.45,563.3Z"/><path d="M454.69,669.16s16.74-16.75,25.12-12.56S454.69,669.16,454.69,669.16Z"/></svg>