<svg id="Laag_1" data-name="Laag 1" xmlns="http://www.w3.org/2000/svg" viewBox="0 0 900 900"><g id="xM9BmW"><path d="M422.25,433.76c-29.32-31.68-57-66.13-105.4-70.09C367,358,406.31,381.07,443.6,411.81c37-29.12,75.93-53.79,126.3-48-47,5.94-75.79,38.16-101.92,67.07-5.55,6.24-8.42,43.62-5.55,75.25,2.46,27,48.32,42.88,54.63,48.88,5.94,5.64,2.32,10.1,1.88,19.63-.6,12.72-4.31,25.39-7.54,37.87-6,23.17-13.39,46.14-2.55,72.08-11.81-13.06-13.6-29.84-10.18-61,2.19-20,9.46-39.91,4.39-60.27l-4.06-1.6-54.51,83.25-52.21-76.28-3.48.87c0,6.6-.36,13.23.06,19.81,1.59,24.76,4.1,49.48,4.79,74.26.21,7.44-4.41,15-8.56,22.22,9.68-25.84,1.67-50.2-4-75-3.6-15.68-11-34.88-5.39-47.38,6.74-14.94,34-25.59,43.62-54.45C427.43,484.66,427.93,442.85,422.25,433.76Z"/><path d="M390.87,198a77.93,77.93,0,0,0-8,7.27c-17,18.4-35.11,35.88-53.74,52.63-29.37,26.41-32.55,42.35-11.74,75.65-11.91,3.1-22.85,7.4-22.85,21,12-1.15,23.49-2.58,35-3.3,20.41-1.26,40.92-1.44,61.25-3.45,8.07-.8,15.78-5.29,23.65-8.1l-1.29-4.7c-22.08,15.2-43.49,3-65.78,2,1.84-7.28,2.6-12.56,4.48-17.4,14.19-36.58,34.42-68.24,70.56-87.22,14.35-7.54,28-7.74,42.36-.1,41.88,22.32,63.1,59.32,76.6,107H472.49c8.74,3.37,15.59,7.42,22.89,8.51,12.25,1.83,24.9,1,37.19,2.69,19.79,2.75,41.16-7,59.71,9.12,5.11-21.7-12.18-22-23.65-27,24.17-36.49,22.82-48.64-9.21-78.08-15.16-13.92-31.6-26.46-46.61-40.53-24-22.48-43.53-47.5-39.95-83.57-9,17.5-5.53,35.11,2.65,50.62,11.34,21.48,25.36,41.58,38.74,61.94,7.1,10.81,15.28,20.92,25,34.12l-94.89-74.09-90.11,69.17c5.89-11.1,13.52-21.13,20.91-31.33,16.84-23.26,35.65-45.7,41.72-74.64,2.38-11.38.39-23.69.39-35.58C417.28,130.71,410.62,181.89,390.87,198Z"/><path d="M363.87,583.21c-46.18-35.47-80-78.9-89.32-137.52-3.3-20.68.4-40.65,15.79-55.88,7.62-7.53,18.07-12.19,27.23-18.16l3.16,3.87c-2.33,3-4.73,5.91-7,8.93-19.85,26.49-23.32,56-15.08,87.18C308.25,508,328.06,539,351.24,568,355.36,573.13,359.66,578.13,363.87,583.21Z"/><path d="M230.24,396.89c-57.47-9.43-107.77-31.73-143.72-79-12.68-16.66-18.86-36-12.49-56.71,3.16-10.23,10.16-19.28,15.42-28.87l4.61,1.91c-.65,3.73-1.38,7.44-2,11.18-5,32.73,5.93,60.4,27.91,84,25.64,27.47,57.74,45.42,91.89,60.05C218,392,224.12,394.41,230.24,396.89Z"/><path d="M245.87,474.81c-47.66-6.33-93.76-24.35-136.45-65.05C94.36,395.4,83.52,378.42,82,359.81c-.74-9.21,1.89-17.51,3-26.21l4.18,1.53c.66,3.34,1.25,6.66,2,10,6.32,29.26,23.43,53.46,47.88,73.62,28.51,23.5,59.08,38.31,90.22,50.09C234.82,470.94,240.35,472.83,245.87,474.81Z"/><path d="M261.56,492.12c-47.57,19.29-91.36,25.8-127.43,7.36-12.72-6.5-20.63-18-18.68-36.15,1-9,5.2-18.87,8-28.35l4-.69c0,3,0,6.12.15,9.14,1,26.43,14,41.87,35.23,49.21,24.77,8.57,53.28,7.16,82.93,2.35C251,494.14,256.27,493.08,261.56,492.12Z"/><path d="M284.17,506.11c-31.57,25.2-56,68.2-89.59,62.6-11.85-2-21.37-8.75-25.13-22.78-1.87-6.94-1.43-15.28-2-23l2.92-1.42c.92,2.26,1.81,4.56,2.77,6.79,8.48,19.53,23.12,28.12,41.87,28.79,21.86.79,21.54-29.18,43.32-39.49C262.16,515.78,280.32,508,284.17,506.11Z"/><path d="M533.09,579.33c10.46-14.53,22.8-28.08,30.94-43.79,12.22-23.57,24.27-47.88,31.32-73.29,8.64-31.16-.52-60.45-22.94-85.12,14.14-2.18,31.11,7.4,37.94,24,4.78,11.58,8.62,25.06,7.6,37.25C612.9,498.86,578.63,542.66,533.09,579.33Z"/><path d="M443.48,310.84c-5.36,21.3-12.4,40.73-33.58,51.18,23.16-25.87,28.45-58.1,33.65-94.78,5,36.34,11.95,67.71,31.73,94.7C456.27,350.46,448.16,332.24,443.48,310.84Z"/><path d="M428.43,246.15,372.78,313C374.13,290.83,404.81,253,428.43,246.15Z"/><path d="M513.17,308l-49.9-59.34C488.93,261.15,504.84,281.79,513.17,308Z"/><path d="M271.52,486c-10.47-19.35-19.07-39.64-26.72-59.82-15.53-41-30.34-82-54.07-121C168.16,268,139.92,238.7,102,220.36c18.86,0,52.25,17.81,73.57,38,30.19,28.56,53,62,67.56,99.06C263.8,410.13,277.82,497.6,271.52,486Z"/><path d="M289.63,344.81c-17.25-34.9-26.92-69.93-19.33-108.21,7.52-38,27.13-63.49,56.91-78.71.18-1.87.37-3.75.55-5.63-6.24-2.85-12.64-8.35-18.67-8.08-20.72.9-33.5,17.06-42.53,36.9-21.06,46.25-12.31,120.83,18.22,162.06C285.3,343.83,286.53,343.78,289.63,344.81Z"/><path d="M345.91,583.81c-26,28.93-44.82,60.05-47.86,99-3,38.6,9,68.46,33.53,91.15q-.51,2.79-1,5.57c-6.77,1.07-14.42,4.63-20.16,2.74-19.7-6.46-27.64-25.48-31-47-7.77-50.23,20.8-119.66,61.35-151.1C341.48,583.58,342.65,584,345.91,583.81Z"/><path d="M396.31,609.61S416.15,647,430.81,647C445.18,647,396.31,661.37,396.31,609.61Z"/><path d="M660,396.89c57.47-9.43,107.77-31.73,143.72-79,12.68-16.66,18.85-36,12.48-56.71C813,251,806,241.93,800.78,232.34l-4.61,1.91c.65,3.73,1.38,7.44,1.94,11.18,5,32.73-5.92,60.4-27.9,84-25.64,27.47-57.74,45.42-91.89,60.05C672.26,392,666.11,394.41,660,396.89Z"/><path d="M644.35,474.81c47.67-6.33,93.76-24.35,136.46-65.05,15.06-14.36,25.9-31.34,27.39-49.95.74-9.21-1.89-17.51-3-26.21L801,335.13c-.65,3.34-1.24,6.66-2,10-6.32,29.26-23.43,53.46-47.88,73.62-28.51,23.5-59.09,38.31-90.22,50.09C655.41,470.94,649.88,472.83,644.35,474.81Z"/><path d="M628.67,492.12c47.57,19.29,91.35,25.8,127.42,7.36,12.73-6.5,20.64-18,18.69-36.15-1-9-5.2-18.87-8-28.35l-4-.69c0,3,0,6.12-.14,9.14-1,26.43-14,41.87-35.23,49.21-24.77,8.57-53.28,7.16-82.93,2.35C639.26,494.14,634,493.08,628.67,492.12Z"/><path d="M606.06,506.11c31.57,25.2,56,68.2,89.59,62.6,11.84-2,21.37-8.75,25.13-22.78,1.87-6.94,1.43-15.28,2-23l-2.92-1.42c-.92,2.26-1.81,4.56-2.78,6.79-8.47,19.53-23.11,28.12-41.86,28.79-21.86.79-21.54-29.18-43.32-39.49C628.07,515.78,609.91,508,606.06,506.11Z"/><path d="M618.71,486c10.47-19.35,19.07-39.64,26.71-59.82,15.54-41,30.35-82,54.08-121,22.57-37.12,50.8-66.4,88.77-84.74-18.86,0-52.25,17.81-73.57,38-30.19,28.56-53,62-67.56,99.06C626.43,410.13,612.41,497.6,618.71,486Z"/><path d="M600.6,344.81c17.25-34.9,26.92-69.93,19.33-108.21-7.52-38-27.13-63.49-56.91-78.71-.18-1.87-.37-3.75-.55-5.63,6.24-2.85,12.64-8.35,18.67-8.08,20.72.9,33.5,17.06,42.53,36.9,21.06,46.25,12.31,120.83-18.23,162.06C604.93,343.83,603.7,343.78,600.6,344.81Z"/><path d="M544.32,583.81c26,28.93,44.82,60.05,47.86,99,3,38.6-9,68.46-33.53,91.15.33,1.86.67,3.72,1,5.57,6.77,1.07,14.42,4.63,20.16,2.74,19.7-6.46,27.64-25.48,31-47C618.55,685,590,615.55,549.43,584.11,548.75,583.58,547.58,584,544.32,583.81Z"/><path d="M493.92,609.61S474.08,647,459.42,647C445.05,647,493.92,661.37,493.92,609.61Z"/></g></svg>