<svg xmlns="http://www.w3.org/2000/svg" viewBox="0 0 621.96 621.96"><defs><style>.a{fill:#fff;}.b{fill:none;}</style></defs><path class="a" d="M112.68,471.26c0,.79,1.46,1.54,1.33,1.49,3.56.95,193.15,144.91,197.52,144,4.3.74,193.7-143.73,197.37-144.73,9.66-4.77-184.2-433-193.77-462.67a4.86,4.86,0,0,0-.38-1.62,4.48,4.48,0,0,0-2.56-2.56,4.89,4.89,0,0,0-2-.44,5,5,0,0,0-2.93,1,4.41,4.41,0,0,0-1.68,2.08v0a4.82,4.82,0,0,0-.35,1.53Zm199.81-77.4a59.91,59.91,0,0,1,0-40A60,60,0,0,1,312.49,393.86Zm0-57.31c-8.93-12.85-23.12-22.39-42.59-24.67,7.3-24,22.34-49.37,45.05-78.82,43.68,3.37,58.52,47.43,44.49,78.44C337.71,312.79,322.06,322.75,312.49,336.55ZM261.91,310.7c-13.2-30.48,1.07-73,42.84-77.46C283.27,261.73,269,286.79,261.91,310.7Zm5.87,9c17.71,1.77,30.52,10.31,38.46,21.9-17.65-1.5-30.55-9.66-38.68-20.92C267.63,320.35,267.71,320,267.78,319.7Zm86.83.32c-7.56,10.82-19.43,18.91-35.61,21.18C326.56,330.38,338.43,322.29,354.61,320Zm-100.77-8c-37.43,4.74-55.11,36.41-53.05,66.62-15.28-58.5,11.37-128.65,80-146.46C251.76,247.42,242.79,283.7,253.84,312Zm3.6,7.65c.5.91,1,1.81,1.59,2.69-6.7,33.49,1.14,65.41,23.67,102.28a60.63,60.63,0,0,1-20.49,3.76C192.23,427.12,190.64,325.46,257.44,319.63ZM265.68,331c9.34,10.06,22.65,17.09,39.94,18.55A68.32,68.32,0,0,0,308,403.46a49.61,49.61,0,0,1-18,17.72C269.84,388.51,261.78,360.23,265.68,331Zm97.08,97.34c-22-.39-37.26-10.73-45.73-24.89a68.34,68.34,0,0,0,2.19-54.23c21.67-2.74,36.72-14.51,45.15-29.81C434.35,322.28,433.84,427.09,362.76,428.36ZM316.49,218l-.25-38.9L330.62,156l21.45,31.66H377.7L332.13,120.4,316,143.26,315.33,34.5,415.47,268.93C395.36,240.29,362.38,219.82,316.49,218ZM306,143.32l-17.62-23.7-44.23,67.59,25.6.07,19.91-31.41,16.57,23.79.24,38.48c-108.4,6.12-143.2,117.56-104.37,191.29l-74.89,47.84L305.32,34.1Zm-43.81,293a68.57,68.57,0,0,0,24.85-4.85c6.68,10.29,14.47,21,23.36,32.23-39.19-1.32-68.26-17.34-87.21-40.48C233,431.08,246,436.07,262.21,436.36ZM436,317.06l59.92,140.27L422.79,411C438.19,382.69,442.6,348.64,436,317.06ZM311.52,605.51l-185-136,80.59-51.48c20.21,31.86,55.46,54.86,105.76,55.76,49.6-.88,84.57-23.26,104.9-54.45,17.11,10.85,60.65,39.34,78.23,49.74Z"/><rect class="b" width="621.96" height="621.96"/></svg>