<?xml version="1.0" encoding="UTF-8"?>
<svg xmlns="http://www.w3.org/2000/svg" xmlns:xlink="http://www.w3.org/1999/xlink" width="375pt" height="374.999991pt" viewBox="0 0 375 374.999991" version="1.2">
<defs>
<clipPath id="clip1">
  <path d="M 58.058594 12.578125 L 316.808594 12.578125 L 316.808594 362.078125 L 58.058594 362.078125 Z M 58.058594 12.578125 "/>
</clipPath>
</defs>
<g id="surface1">
<g clip-path="url(#clip1)" clip-rule="nonzero">
<path style=" stroke:none;fill-rule:nonzero;fill:rgb(13.328552%,31.759644%,28.62854%);fill-opacity:1;" d="M 188.742188 12.578125 C 159.984375 12.578125 119.847656 22.402344 94.042969 54.484375 C 69.257812 85.308594 58.230469 137.441406 58.230469 184.035156 C 58.230469 225.667969 82.324219 263.175781 103.425781 294.21875 C 130.519531 334.078125 158.847656 362.113281 190.546875 362.113281 C 221.710938 362.113281 253.085938 326.9375 277.894531 288.402344 C 297.96875 257.21875 316.589844 221.125 316.589844 178.589844 C 316.589844 134.828125 313.976562 95.953125 292.53125 65.574219 C 280.875 49.0625 267.195312 35.742188 249.703125 26.984375 C 229.449219 16.84375 205.078125 12.578125 188.742188 12.578125 Z M 77.21875 194.71875 C 169.792969 211.214844 171.933594 282.78125 174.761719 283.621094 C 173.285156 283.664062 88.78125 285.730469 77.21875 194.71875 Z M 299.183594 195.167969 C 273.765625 285.378906 202.636719 280.808594 201.125 283.488281 C 201.125 283.503906 201.101562 283.644531 201.101562 283.644531 C 201.082031 283.589844 201.09375 283.539062 201.125 283.488281 C 201.246094 281.769531 207.574219 197.753906 299.183594 195.167969 Z M 299.183594 195.167969 "/>
</g>
</g>
</svg>
