<?xml version="1.0" standalone="no"?>
<!DOCTYPE svg PUBLIC "-//W3C//DTD SVG 20010904//EN"
 "http://www.w3.org/TR/2001/REC-SVG-20010904/DTD/svg10.dtd">
<svg version="1.0" xmlns="http://www.w3.org/2000/svg"
 width="880.000000pt" height="1060.000000pt" viewBox="0 0 880.000000 1060.000000"
 preserveAspectRatio="xMidYMid meet">

<g transform="translate(0.000000,1060.000000) scale(0.100000,-0.100000)"
fill="#000000" stroke="none">
<path d="M4323 10180 c-51 -31 -335 -313 -447 -444 -723 -847 -1227 -2028
-1450 -3401 -64 -397 -86 -659 -86 -1057 l-1 -283 -31 -20 c-26 -16 -125 -186
-501 -854 -302 -536 -471 -846 -474 -870 -4 -26 53 -258 207 -846 116 -445
219 -826 228 -845 25 -50 74 -80 134 -80 27 0 58 5 69 11 38 20 864 581 887
603 58 52 60 83 36 441 l-7 90 101 -150 c55 -82 130 -187 166 -232 85 -104
265 -293 280 -293 6 0 26 26 45 58 18 31 54 92 78 134 l45 77 -84 93 c-87 98
-188 222 -188 232 0 3 482 6 1070 6 589 0 1070 -3 1070 -6 0 -11 -127 -168
-199 -246 l-71 -76 81 -136 c45 -75 85 -136 89 -136 12 0 198 197 266 280 81
101 182 242 229 323 21 37 41 65 43 62 2 -2 -2 -94 -8 -204 -13 -216 -10 -255
21 -294 11 -14 221 -162 467 -328 419 -284 450 -303 497 -306 57 -5 107 16
137 58 29 39 451 1664 445 1712 -7 55 -916 1671 -965 1715 l-36 33 -2 292 c-2
403 -26 667 -95 1080 -229 1367 -733 2538 -1451 3372 -109 126 -289 309 -390
396 -65 56 -71 59 -121 59 -34 0 -63 -7 -84 -20z m205 -485 c396 -413 762
-985 1021 -1598 61 -145 132 -330 128 -333 -6 -4 -347 -65 -442 -79 -562 -79
-1183 -84 -1735 -14 -103 13 -383 59 -388 63 -5 6 85 237 156 401 220 509 514
994 831 1370 87 102 290 315 301 315 5 0 62 -56 128 -125z m1311 -2415 c140
-490 242 -1020 286 -1485 95 -1002 -101 -2276 -453 -2938 l-47 -87 -1225 2
-1225 3 -42 80 c-218 413 -378 1029 -448 1720 -87 866 0 1722 272 2683 26 90
52 166 59 169 7 2 79 -7 161 -21 351 -60 620 -85 1008 -93 337 -6 591 4 890
38 191 21 487 68 620 98 44 10 83 15 87 12 4 -3 29 -85 57 -181z m-3424 -3090
c25 -179 78 -455 113 -592 16 -63 18 -84 9 -118 -9 -32 -4 -167 21 -612 18
-314 29 -574 25 -578 -27 -24 -576 -390 -580 -387 -2 3 -81 298 -174 656
l-170 651 358 635 358 636 8 -58 c4 -32 18 -137 32 -233z m4379 -363 l348
-618 -167 -642 c-92 -353 -171 -648 -174 -655 -5 -8 -97 48 -296 183 -159 108
-291 198 -292 199 -2 2 12 261 31 577 29 483 32 580 21 611 -11 33 -9 50 16
155 50 204 115 577 135 776 6 57 9 65 19 50 6 -10 168 -296 359 -636z"/>
<path d="M4240 6557 c-182 -62 -331 -205 -444 -428 -108 -212 -164 -445 -173
-724 -23 -680 284 -1245 708 -1305 313 -44 606 206 755 643 121 352 124 811 8
1168 -92 286 -260 516 -443 609 -131 66 -287 80 -411 37z m304 -226 c114 -56
230 -201 307 -381 40 -95 83 -266 99 -393 18 -142 8 -433 -20 -562 -69 -322
-203 -549 -382 -646 -58 -31 -70 -34 -148 -34 -78 0 -90 3 -149 35 -247 134
-411 526 -411 983 0 384 102 705 284 896 136 141 273 175 420 102z"/>
<path d="M3844 2086 l-34 -34 0 -575 0 -575 26 -31 c46 -55 131 -51 171 8 17
24 18 65 21 551 2 289 0 549 -3 579 -9 73 -45 111 -105 111 -34 0 -48 -6 -76
-34z"/>
<path d="M4401 2106 c-49 -27 -50 -36 -51 -418 l0 -358 29 -32 c25 -28 36 -33
76 -33 40 0 51 5 76 33 l29 32 0 366 0 366 -29 29 c-33 32 -87 39 -130 15z"/>
<path d="M4919 2091 l-29 -29 0 -791 c0 -561 3 -797 11 -815 29 -63 126 -72
173 -15 l26 31 0 783 c0 587 -3 791 -12 810 -27 60 -120 74 -169 26z"/>
</g>
</svg>
