<?xml version="1.0" encoding="utf-8"?>
<!-- Generator: Adobe Illustrator 23.0.6, SVG Export Plug-In . SVG Version: 6.00 Build 0)  -->
<svg version="1.1" id="Livello_1" xmlns="http://www.w3.org/2000/svg" xmlns:xlink="http://www.w3.org/1999/xlink" x="0px" y="0px"
	 viewBox="0 0 1000 1000" style="enable-background:new 0 0 1000 1000;" xml:space="preserve">
<path d="M409.6,627.6c-28.7,6.7-55.6,13.1-82.7,19.3c-14.2,3.3-27.4,1.7-39.1-8.4c-18.7-16.1-37.8-31.6-57.5-47.9
	c-4,2.7-9.5,6.4-15,10.2c-18.6,12.9-18.6,12.9-36-2.3c-4.4-3.9-8.6-7.9-12.8-12c-3.8-3.8-7.4-7.8-12.5-13.2
	c-21.7,32.5-16.9,68.7-20,105c-22.1-6.7-40.8-17.6-57.5-31.8c-45.2-38.6-59.8-89.7-55.4-146.6c2-26.6,8.6-53.1,15.4-79
	c2.6-9.9,10.1-20.4,18.4-26.6c17.5-13.1,36.9-23.7,56.2-35.7c0-10.9-0.6-23.8,0.1-36.6c1.3-24.2,12.8-43.8,33-55.8
	c29.5-17.6,47-44.7,55.2-75.3c7.9-29.6,26.3-42.6,51.8-51.6c39.8-14.1,80.6-14.4,125.2-11.6c-11.9,9.6-21.4,17.2-30.8,24.8
	c0.4,0.9,0.9,1.8,1.3,2.7c17.3-4.4,34.6-8.7,51.8-13.4c47.2-12.9,94.2-26.1,141.4-38.9c4.5-1.2,10.4-2.5,14.1-0.6
	c44,22.6,92.6,31.2,138.9,46.6c35.8,11.9,69.7,12.4,106.1,4c43.6-10,88.4-9.1,133-4.6c8.9,0.9,12.1,4.7,12.2,13.7
	c0.5,34.5-23.8,69.6-60.1,85.7c-4.9,2.2-9.8,4.1-16.9,7c32.4,27.2,71.1,25.9,112.3,31.7c-11,16.5-20.7,30.9-31,46.2
	c18.1,22,28.6,49.6,29.8,79.9c1.7,40.1-12.6,74.6-39.8,104.2c-6.1,6.6-11,15.1-13.8,23.7c-17.3,53.5-48.3,94.8-100.6,118.5
	c-4.7,2.1-9,7.2-11.3,12c-15.6,32.9-35,62.8-64.1,85.6c-3.8,3-7.9,5.5-12.7,8.8c-18-28.2-31-59.2-62.6-77.3
	c-14.7,80.4-48.4,150-104.2,210.8C476.8,830.3,419.8,742.6,409.6,627.6z M467.4,161.8c-37.8,11.5-82,26.1-126.9,38.2
	c-30.4,8.2-51,27.4-66.9,52.6c-27.5,43.6-33.9,91.7-29.8,142.3c1,12.3,6,14.6,16.2,11.8c20.4-5.6,35.1-16.2,32.7-40
	c26.8-0.9,39.9-14.2,44.6-43.8c3.3-21-2-29.3-23.8-36.8c7-29.8,25.4-51.7,50.7-66.8C399.7,198.1,436.7,178.8,467.4,161.8z
	 M558.5,817.7c-39.7-106.6-53.6-211.3-15.2-319.6c-3.2,1.3-4.6,1.5-5.5,2.3c-36.5,31.7-62.4,70.4-77,116.5
	c-1.3,4.1-1.4,8.8-0.9,13.1c5.3,39.6,17.6,77,36.5,112.1C511.5,770.2,530.6,795.4,558.5,817.7z M500.8,449.6
	c-0.2-1.3-0.4-2.5-0.7-3.8c3.7-1.4,7.4-2.5,11-4.2c18.5-8.5,36.1-18.6,47-36.6c5.6-9.1,9.2-21.3,0.3-28.4c-6.3-5-18.8-6.6-26.9-4.2
	c-26.7,7.9-43.7,26-45.9,54.9c-0.6,8.3-4,12.6-10.5,16.8c-16.7,10.9-27.2,26.2-30.7,43.4c27.5-11.4,55.1-22.9,82.7-34.4
	c-0.3-1.2-0.6-2.3-1-3.5C517.7,449.6,509.3,449.6,500.8,449.6z M884.1,183.6c-6.3-2.3-7.6-3.1-8.8-3.1c-47,0.8-92.9,8.8-138.3,20.3
	c-4.2,1.1-7.4,5.8-11,8.8c3.8,3.3,7.4,9,11.6,9.4c21.4,2,43.3,5.5,64.2,2.9c21.3-2.7,42.2-11.1,62.5-19
	C871.4,200.1,876.3,191.5,884.1,183.6z M719.9,553.4c-1.5-0.1-2.9-0.3-4.4-0.4c-5.5,16.3-11.1,32.6-16.3,49
	c-0.7,2.1,0.1,5.7,1.6,7.4c10.4,12.5,21.1,24.7,32.7,38.2C739.4,613.4,737.7,582.1,719.9,553.4z M429.6,368.8
	c0.6,0.1,1.2,0.1,1.8,0.2c1.2-12.4,4.6-25.1,3.3-37.2c-2.3-20.7,5.6-36.8,17.4-52c5.8-7.5,11.1-15.7,18.4-21.5
	c7.3-5.8,16.3-11,25.2-12.8c27.6-5.4,55.6-9.1,83.5-13.5c-24-0.8-47.7,2.8-71.4,2.4c-29.4-0.5-50,11.6-64,36.5
	c-5.5,9.8-10.9,19.7-15.7,29.8c-1.8,3.9-2.6,8.7-2.4,13C426.7,332.2,428.3,350.5,429.6,368.8z M60.4,540.3
	c7.5-50.3,22.7-97.2,57.7-137.3c-33.1,9.6-50.6,29.4-56,62C57.9,490.3,57,515.1,60.4,540.3z M295.5,529.8
	c-3.2-14.3-2.5-27.7-8.8-35.7c-13.8-17.6-31-32.5-46.4-48C233.3,478.1,254.7,513.5,295.5,529.8z M242.4,523.1
	c-2.6,25.1,29.4,70.7,57.7,79.8c-3-13-2.3-27.4-9.1-35.4C277,551,259,537.9,242.4,523.1z M180.1,407.2c1.4-1,2.7-1.9,4.1-2.9
	c-11-28.6-16.1-25.4-14.3-76.4c0.3-9-1.7-18.1-2.7-28.3c-17.3,11.5-22.4,23.4-18.2,39.7c2.3,9.1,3.3,18.9,7.4,27.1
	C163.2,380.5,172.1,393.7,180.1,407.2z M569.5,447.7c38.8,23.9,79.8,30.9,122.7,30.1c-39.6-6.7-77-18.5-107.8-45.7
	C579.1,437.7,574.8,442.2,569.5,447.7z M832.8,480.3c-4.7,11.2-13.3,21.7-11.3,29.5c3.6,14.4,13.4,27.2,21,41.3
	C855.3,529.4,852,501.9,832.8,480.3z M243.1,196.6c-0.9-0.1-1.7-0.1-2.6-0.2c-11.2,19.8-21.1,40.5-34.1,59.1
	c-16.5,23.5-13.4,48-10,73.3c2.2-28,8.1-54,24.7-78.2C231.8,234.9,236,214.7,243.1,196.6z M382.7,353.5c-4.9-6-8.1-12.5-10.3-12.2
	c-10.9,1.4-13.3,11-13.8,19.9c-0.2,3.4,4.5,7,7,10.5C370.8,366.1,376.1,360.5,382.7,353.5z"/>
</svg>
