<?xml version="1.0" encoding="utf-8"?>
<!-- Generator: Adobe Illustrator 23.0.6, SVG Export Plug-In . SVG Version: 6.00 Build 0)  -->
<svg version="1.1" id="Livello_1" xmlns="http://www.w3.org/2000/svg" xmlns:xlink="http://www.w3.org/1999/xlink" x="0px" y="0px"
	 viewBox="0 0 1000 1000" style="enable-background:new 0 0 1000 1000;" xml:space="preserve">
<path d="M749.2,106.4c-58.7-38.5-124-59.7-193.5-66.8c-17-1.7-34.8,4.3-49.9,6.5c-19.5-3.5-39.4-13.1-55.7-8.8
	c-60.5,15.9-123.2,29.4-178.8,56.6c-85,41.7-131.5,116-143.7,211c-10.7,83.5,8.4,162.4,34.5,240.5c3.3,9.8,5.4,20.1,8,30.1
	c3.3,12.6,4.4,26.4,10.5,37.4c17,31.1,39.8,59.5,53.5,91.9c20,47.2,33.1,97.2,51.2,145.3c4.8,12.7,14.7,27,26.2,33.2
	c42.2,22.8,87.8,39.7,129,64.2c40.3,23.9,75.9,19.9,115.1-0.5c39.9-20.7,82.2-36.7,122.3-57.1c13.5-6.9,28.8-18.7,33.9-31.9
	c21.2-54.3,41.9-109.2,56.7-165.5c14.5-55.2,73.1-86,72.8-150.6c-0.2-39.4,22.3-78.4,28.2-118.5
	C888.2,296.1,865.7,182.7,749.2,106.4z M283,672.1c56.9,23.8,113.8,47.7,170.7,71.5C395.1,774.7,330.4,746.7,283,672.1z M546,754.2
	c58-48.4,122.8-61.6,186.6-83.6C701.2,741.5,626.5,777.1,546,754.2z"/>
</svg>
