<?xml version="1.0" encoding="utf-8"?>
<!-- Generator: Adobe Illustrator 23.0.6, SVG Export Plug-In . SVG Version: 6.00 Build 0)  -->
<svg version="1.1" id="Livello_1" xmlns="http://www.w3.org/2000/svg" xmlns:xlink="http://www.w3.org/1999/xlink" x="0px" y="0px"
	 viewBox="0 0 1000 1000" style="enable-background:new 0 0 1000 1000;" xml:space="preserve">
<path d="M829.3,353.1c0-57.7,0-115.3,0-173c0-6.2-2-13.6,0.7-18.2c4.6-7.5,13.2-19.1,18.5-18.3c7.9,1.2,19.2,10.8,20.6,18.3
	c3.2,17.1,1.2,35.2,1.2,52.9c0,68.5,0,136.9,0,205.4c0,40.3,17,63.8,56.8,68.4c62,7.2,62.9,41.2,63.8,85.2
	c0.3,13.1-16.8,33.3-30.4,38.5c-42,16.1-85.7,28.3-129.6,38.6c-29,6.9-59.3,8.7-89.1,11.4c-14,1.3-21.5,7.5-27.5,19.8
	c-25.1,51.9-51.1,103.4-76.9,154.9c-12.3,24.6-18.1,25.6-43.4,14.3c-27-12.1-54-25.1-82.4-33.1c-32.3-9.1-59,11.2-86.3,24.7
	c-45.7,22.5-45.6,22.6-64.1-23.7c-18-44.9-36.4-89.7-53.7-134.9c-5-13.1-11.8-17.9-26.2-20c-63-9-125.8-20-188.6-30.8
	c-9.7-1.7-19.1-5.7-28.4-9.4c-54.2-21.6-67.6-47.6-45.1-100.3c6.3-14.6,27.1-29.3,43.4-32.3c51.5-9.4,81.2-38,96.7-86.7
	c42.9-135.2,130.7-225.4,271-255.6c157.7-33.9,310.2,42.1,385.7,187.1c3.1,5.9,6.3,11.8,9.4,17.7
	C826.8,353.9,828.1,353.5,829.3,353.1z M706.2,511.9c0.3-114.3-90.7-206.1-204.3-206.2C389,305.6,297.8,396.2,297.2,509
	c-0.6,113.9,90.6,206.2,204.2,206.6C613.3,716,705.9,623.9,706.2,511.9z M745.1,554.8c-8,24.1-15.2,45.5-23.1,69.5
	c68-8.5,134-13.9,196.3-40.6C861,574.1,803.6,564.5,745.1,554.8z M84.8,583.7c63.1,26,129,33.2,196.5,39.9
	c-8.2-24.2-15.5-45.8-23.3-68.8C200,564.5,142.4,574.1,84.8,583.7z"/>
<path d="M338.1,507.5c2.1-92.3,76.8-163.2,169.4-160.7c87.9,2.3,159.4,77.1,158,165.5c-1.4,91.7-76.9,164.4-168.6,162.2
	C407.8,672.2,336.1,596.9,338.1,507.5z M419.4,512.9c3.6,3.5,10.7,16,18.3,16.2c7.4,0.2,19.9-11,21.8-19.1
	c5.3-23,16.2-37.4,40.2-40.3c14.2-1.7,23.5-8.9,21.2-24c-2.4-15.7-14.6-17.4-28-16.4C454.9,432.1,420.7,467.4,419.4,512.9z"/>
</svg>
