<svg width="100%" height="100%" viewBox="0 0 420 420" fill="none" xmlns="http://www.w3.org/2000/svg">
<path fill-rule="evenodd" clip-rule="evenodd" d="M420 224.869C406.659 204.799 368.635 163.213 316.501 148.308L273.263 194.207L240.155 139.424C227.06 140.165 194.941 144.014 171.222 153.49C200.294 178.002 240.995 243.61 171.222 309.941C144.057 332.564 76.1527 360.308 17.8676 294.846C50.5049 368.562 124.368 420 210.259 420C321.377 420 412.363 333.91 420 224.869ZM417.996 177.374C321.939 79.322 191.061 108.583 137.62 135.476C47.351 114.874 9.2183 177.228 0.063324 215.205C0.0211892 213.475 0 211.74 0 210C0 206.203 0.100913 202.429 0.300206 198.681C6.18784 87.9643 97.9383 0 210.259 0C315.271 0 402.303 76.8884 417.996 177.374ZM125.291 301.979C164.742 289.619 186.988 248.607 174.981 210.376C162.973 172.144 121.259 151.171 81.8082 163.531C42.3578 175.891 20.1109 216.903 32.1184 255.134C44.1259 293.366 85.8408 314.339 125.291 301.979ZM58.3096 179.154L128.231 169.036L96.6059 234.677L58.3096 179.154Z" fill="white"/>
</svg>
