<svg width="100%" height="100%" viewBox="0 0 420 420" fill="none" xmlns="http://www.w3.org/2000/svg">
<path fill-rule="evenodd" clip-rule="evenodd" d="M400.872 297.794C413.152 271.104 420 241.4 420 210.097C420 94.0638 325.908 0 209.839 0C97.705 0 6.08255 87.7949 0 198.376C3.33922 194.78 7.88692 190.523 13.4822 186.054C12.8552 182.349 12.4521 178.94 12.2643 175.812C11.7348 166.992 12.7031 157.457 18.2632 150.101C24.7534 141.515 34.3132 139.749 42.0441 140.666C49.2243 141.518 56.2885 144.688 62.3465 148.171C66.0017 150.273 69.6902 152.724 73.324 155.391C85.7084 152.036 99.1046 150.138 113.194 150.586L83.0677 128.66H179.231L209.116 37.1043L238.76 128.66H335.164L255.631 186.245L260.451 216.844C274.879 214.63 297.436 215.251 321.093 223.414C336.665 213.146 352.634 203.915 366.199 198.329C374.439 194.936 383.683 192.067 392.066 192.427C396.49 192.617 401.882 193.757 406.64 197.411C411.67 201.275 414.312 206.655 415.248 212.082C416.889 221.587 413.572 232.532 408.761 243.385C404.58 252.816 398.347 264.137 389.867 277.572C393.842 283.725 397.533 290.45 400.872 297.794ZM47.5202 199.379C116.003 154.562 182.084 194.333 210.803 225.999C277.145 319.541 214.238 392.082 173.877 417.131C165.223 415.639 156.751 413.618 148.494 411.103C109.162 340.289 82.8778 287.591 66.2278 248.992C57.2753 228.238 51.2874 211.954 47.5202 199.379ZM22.5194 219.623C26.6081 231.604 31.962 245.298 38.6813 260.875C52.9973 294.063 73.9711 336.808 103.433 391.314C50.1989 360.008 11.9744 305.928 2.15756 242.467C8.90365 233.844 15.7024 226.259 22.5194 219.623ZM369.739 253.032C364.206 247.709 358.427 243.084 352.519 239.08C361.709 233.601 370.311 229.08 377.623 226.069C380.236 224.993 382.451 224.21 384.293 223.651C383.614 225.74 382.654 228.251 381.335 231.227C378.731 237.102 374.944 244.311 369.739 253.032ZM256.354 246.72C302.71 240.477 333.854 256.745 353.583 278.163C331.353 310.825 296.605 356.021 245.253 417.224C236.657 418.683 227.884 419.619 218.967 420C283.625 357.425 270.861 278.45 256.354 246.72ZM371.736 304.655C353.818 330.185 329.541 361.938 297.598 401.056C331.174 385.609 359.979 361.573 381.196 331.763C379.678 323.952 376.625 314.456 371.736 304.655ZM185.738 168.898L186.22 167.934L172.482 157.574H200.199L209.116 130.83L218.033 157.574H245.99L224.541 172.994L227.915 194.678L214.9 188.896C211.622 184.655 194.093 173.797 185.738 168.898ZM390.909 222.409C390.908 222.409 390.898 222.408 390.878 222.405C390.899 222.407 390.909 222.409 390.909 222.409Z" fill="white"/>
</svg>
