<svg width="100%" height="100%" viewBox="0 0 420 420" fill="none" xmlns="http://www.w3.org/2000/svg">
<path fill-rule="evenodd" clip-rule="evenodd" d="M378.574 335.253C404.599 300.284 420 256.941 420 210C420 94.0202 325.98 0 210 0C94.0202 0 0 94.0202 0 210C0 325.98 94.0202 420 210 420C262.187 420 309.929 400.963 346.658 369.456C346.297 369.576 345.96 369.683 345.651 369.777C341.271 368.001 335.503 365.97 330.057 364.051L330.051 364.049L330.05 364.049L330.049 364.048C320.397 360.648 311.758 357.605 313.646 356.975C313.318 349.59 324.774 327.088 373.224 296.166C376.697 303.253 382.507 319.03 378.574 335.253ZM126.296 39.1442L123.341 41.1137C147.96 67.2919 193.112 137.522 176.765 209.015C172.333 238.804 176.075 298.678 226.495 299.859C243.892 291.817 291.588 255.053 343.189 172.333C347.128 132.614 309.264 50.3705 126.296 39.1442ZM113.74 56.6237C100.446 56.7057 67.1115 71.8875 40.1291 131.958C37.7493 140.739 35.55 162.338 45.7915 178.488C59.2499 198.757 100.2 241.66 156.331 251.114C162.075 238.148 169.477 208.523 153.13 193.751C144.76 193.998 124.819 194.884 112.017 196.46C69.4258 189.402 10.143 157.611 113.74 86.905C121.946 82.7198 133.435 70.8042 113.74 56.6237ZM351.067 215.909C308.329 234.816 263.67 291.243 246.683 317.093C246.683 322.804 280.164 336.706 296.905 342.943C318.767 333.883 350.821 293.048 364.115 273.763C365.1 234.176 355.827 218.699 351.067 215.909Z" fill="white"/>
</svg>
