<?xml version="1.0" encoding="utf-8"?>
<!-- Generator: Adobe Illustrator 25.4.1, SVG Export Plug-In . SVG Version: 6.00 Build 0)  -->
<svg version="1.1" id="Layer_1" xmlns="http://www.w3.org/2000/svg" xmlns:xlink="http://www.w3.org/1999/xlink" x="0px" y="0px"
	 viewBox="0 0 606.07 611.63" style="enable-background:new 0 0 606.07 611.63;" xml:space="preserve">
<style type="text/css">
	.st0{fill:#FFFFFF;stroke:#810915;stroke-width:11.1035;stroke-miterlimit:10;}
	.st1{fill:url(#SVGID_1_);}
	.st2{fill:#FFFFFF;}
	.st3{fill:#810915;}
	.st4{fill:#FFFFFF;stroke:#006838;stroke-width:11.1035;stroke-miterlimit:10;}
	.st5{fill:url(#SVGID_00000009584171727151333060000009525436161949760390_);}
	.st6{fill:none;stroke:#E6E7E8;stroke-width:1.1701;stroke-linejoin:round;stroke-miterlimit:10;}
	.st7{fill:#FFF200;}
	.st8{fill:#006838;}
	.st9{fill:#FFFFFF;stroke:#000000;stroke-width:11.1035;stroke-miterlimit:10;}
	.st10{fill:url(#SVGID_00000134241550692952371600000003341553663765674134_);}
	.st11{fill:url(#SVGID_00000010311997898292333740000003394183419609156236_);}
	.st12{fill:url(#SVGID_00000101814966375836421350000005760524300506947490_);}
	.st13{fill:url(#SVGID_00000126289136764027370460000013111733495011689375_);}
	.st14{fill:#FFFFFF;stroke:#262262;stroke-width:11.1035;stroke-miterlimit:10;}
	.st15{fill:#262262;}
	.st16{fill-rule:evenodd;clip-rule:evenodd;fill:url(#SVGID_00000086668360105973697340000014860012519130752671_);}
	.st17{fill-rule:evenodd;clip-rule:evenodd;fill:url(#SVGID_00000173867807918365877890000011870890442484632968_);}
	.st18{fill-rule:evenodd;clip-rule:evenodd;fill:url(#SVGID_00000121975816876415570900000003317577611529453997_);}
	.st19{fill-rule:evenodd;clip-rule:evenodd;fill:url(#SVGID_00000180325787956143962080000008257878043851060641_);}
	.st20{fill-rule:evenodd;clip-rule:evenodd;fill:url(#SVGID_00000083797436966986266030000017198557548658540197_);}
	.st21{fill-rule:evenodd;clip-rule:evenodd;fill:url(#SVGID_00000119804753000918495130000012939349541599254953_);}
	.st22{fill-rule:evenodd;clip-rule:evenodd;fill:url(#SVGID_00000056393983974931115390000015388508997169816740_);}
</style>
<g>
	<circle class="st4" cx="303.03" cy="305.82" r="284.46"/>
	<g>
		<linearGradient id="SVGID_1_" gradientUnits="userSpaceOnUse" x1="294.5304" y1="513.6033" x2="336.2869" y2="92.616">
			<stop  offset="0" style="stop-color:#262262"/>
			<stop  offset="1" style="stop-color:#006838"/>
		</linearGradient>
		<path class="st1" d="M439.29,296.95c-1.08-5.05-7.57-15.51-10.46-18.39c-2.89-2.89,0-4.33,0.36-8.66
			c0.36-4.33-12.62-17.67-12.62-17.67s-6.49-7.21-9.38-6.85c-2.89,0.36-1.8,2.89-7.57,2.52c-5.77-0.36-9.38-1.44-12.26,2.52
			c-2.89,3.97-2.89,5.41-5.41,5.05c-2.52-0.36-11.9-1.08-11.9-1.08l3.61,6.49c0,0-14.79,15.15-15.87,20.56
			c-1.08,5.41-1.08,5.41-1.08,5.41h6.49c0,0,1.51,1.53,3.12,4.59c-3.63,0.71-9.26,1.68-13.94,1.9c-7.57,0.36-20.92,4.69-20.92,4.69
			s-3.25-3.61-7.21-3.61c-3.97,0-24.89,0-24.89,0v-9.02l8.66,0.36c0,0,0.72-17.31-1.44-23.44c-2.16-6.13-5.41-7.21-5.05-11.18
			s0.36-3.97,0.36-3.97s-12.62-0.72-16.23,0c-3.61,0.72-14.43,6.13-15.15,11.9c-0.72,5.77-0.72,12.62,1.44,15.51
			c2.16,2.89,9.74,7.57,9.74,10.1s1.44,6.85-0.72,9.38c-2.16,2.52-1.8,6.13-6.85,3.25c-5.05-2.89-21.64-3.61-24.53-5.77
			c-2.89-2.16-21.64-16.95-25.61-24.17c-3.97-7.21-10.46-18.76-10.46-18.76s3.25-3.97,2.52-9.38c-0.14-1.03-0.46-1.96-0.9-2.8l0,0
			c12.56-21.1,33.92-57.82,32.64-61.4c-1.8-5.05-6.85-12.26-12.26-11.54c-5.41,0.72-10.88,3.61-13.55,14.07
			c-2.68,10.46-15.66,53.38-15.66,53.38c-3.25,0-7.57,3.61-7.93,7.57c-0.36,3.97-1.44,9.74,1.8,11.54c0,0-3.74,8.06-2.27,8.66
			c2.56,1.04,5.66-4,7.44-7.45c0.59-0.04,0.96-0.12,0.96-0.12s3.25,11.9,6.85,19.12c3.61,7.21,9.74,16.95,14.79,21.64
			c5.05,4.69,11.9,11.18,17.31,14.79c5.41,3.61,9.38,5.05,10.46,7.57c1.08,2.52,18.76,39.67,18.76,39.67v69.61
			c0,0-1.44,83.32-1.44,88.01c0,4.69-4.69,10.46-6.49,14.79c-1.8,4.33-0.36,12.62,3.25,19.48c3.61,6.85,10.46,4.33,10.46,4.33
			s0-32.46,0-37.51c0-5.05,8.3-37.87,8.3-37.87l13.93-56.71l-0.02,0c3.48-1.81,6.53-3.93,9.17-7.13
			c5.05-6.13,12.62-14.83,14.07-21.12c1.11-4.84,3.93-12.55,7.79-17.83h22.87c0,0-4.33,8.3-5.41,15.87
			c-1.08,7.57-1.44,20.92-1.44,23.8s0.36,9.74,0.36,9.74s-3.25,1.44-2.89,5.41c0.36,3.97,7.21,5.77,7.21,5.77s2.16,9.38,5.05,10.82
			c2.89,1.44,14.43,4.33,14.43,1.8c0-2.52-7.21-12.62-9.02-15.51c-1.8-2.89-6.85-10.1-6.85-10.1l12.26-58.07l-15.43-4.6
			c3.08-0.54,4.97-0.81,4.97-0.81l-45.45-12.26l13.35-31.02c0,0,17.67,0.72,23.8-0.72c6.13-1.44,18.76-5.41,18.76-5.41
			c0.36,13.35,0,24.89,0,24.89h13.34v10.46c0,0,15.87-3.25,20.2-20.56l5.41,1.8v-26.69c0,0,2.52,5.05,5.41,7.21
			c2.89,2.16,6.85,5.05,8.66,2.16s2.16-4.69,5.77-4.51C432.43,301.64,440.37,302,439.29,296.95z"/>
		<g>
			<polyline class="st6" points="241.39,176.98 204.6,239.72 223.6,181.41 			"/>
			<polyline class="st6" points="204.6,239.72 253.14,295.66 292.48,261.95 325.82,300.77 311.21,355.21 301.56,367.79 
				293.2,380.37 253.26,296.83 			"/>
			<line class="st6" x1="325.82" y1="300.77" x2="401.17" y2="293.7"/>
			<polyline class="st6" points="386.02,257.28 394.9,266.14 403.64,281.92 401.17,293.7 394.59,328.87 387.22,335.54 			"/>
			<polyline class="st6" points="293.2,380.37 280.46,457.52 354.98,429.89 311.21,355.21 			"/>
		</g>
		<g>
			<polygon class="st7" points="354.98,427.12 357.1,424.78 356.93,427.93 360.09,427.77 357.74,429.89 360.09,432 356.93,431.84 
				357.1,435 354.98,432.65 352.86,435 353.02,431.84 349.87,432 352.21,429.89 349.87,427.77 353.02,427.93 352.86,424.78 			"/>
			<polygon class="st7" points="325.82,298 327.94,295.66 327.78,298.81 330.93,298.65 328.59,300.77 330.93,302.88 327.78,302.72 
				327.94,305.88 325.82,303.53 323.71,305.88 323.87,302.72 320.71,302.88 323.06,300.77 320.71,298.65 323.87,298.81 
				323.71,295.66 			"/>
			<polygon class="st7" points="252.93,292.89 255.05,290.55 254.89,293.7 258.04,293.54 255.7,295.66 258.04,297.77 254.89,297.61 
				255.05,300.77 252.93,298.42 250.81,300.77 250.98,297.61 247.82,297.77 250.17,295.66 247.82,293.54 250.98,293.7 
				250.81,290.55 			"/>
			<polygon class="st7" points="302.02,365.03 304.14,362.68 303.97,365.84 307.13,365.68 304.78,367.79 307.13,369.91 
				303.97,369.75 304.14,372.9 302.02,370.56 299.9,372.9 300.06,369.75 296.91,369.91 299.25,367.79 296.91,365.68 300.06,365.84 
				299.9,362.68 			"/>
			<polygon class="st7" points="293.77,377.97 295.6,375.94 295.46,378.67 298.2,378.53 296.17,380.37 298.2,382.21 295.46,382.07 
				295.6,384.8 293.77,382.77 291.93,384.8 292.07,382.07 289.34,382.21 291.37,380.37 289.34,378.53 292.07,378.67 291.93,375.94 
							"/>
			<polygon class="st7" points="311.61,352.81 313.44,350.78 313.3,353.52 316.04,353.38 314,355.21 316.04,357.05 313.3,356.91 
				313.44,359.64 311.61,357.61 309.77,359.64 309.91,356.91 307.17,357.05 309.21,355.21 307.17,353.38 309.91,353.52 
				309.77,350.78 			"/>
			<polygon class="st7" points="280.46,454.08 282.29,452.04 282.15,454.78 284.89,454.64 282.85,456.48 284.89,458.31 
				282.15,458.17 282.29,460.91 280.46,458.88 278.62,460.91 278.76,458.17 276.02,458.31 278.06,456.48 276.02,454.64 
				278.76,454.78 278.62,452.04 			"/>
			<polygon class="st7" points="292.48,259.31 294.31,257.28 294.17,260.01 296.91,259.87 294.88,261.71 296.91,263.55 
				294.17,263.41 294.31,266.14 292.48,264.11 290.64,266.14 290.78,263.41 288.05,263.55 290.08,261.71 288.05,259.87 
				290.78,260.01 290.64,257.28 			"/>
			<polygon class="st7" points="386.02,255.58 387.32,254.14 387.22,256.08 389.16,255.98 387.72,257.28 389.16,258.58 
				387.22,258.48 387.32,260.41 386.02,258.97 384.72,260.41 384.82,258.48 382.89,258.58 384.33,257.28 382.89,255.98 
				384.82,256.08 384.72,254.14 			"/>
			<polygon class="st7" points="394.9,264.45 396.2,263.01 396.1,264.94 398.04,264.85 396.6,266.14 398.04,267.44 396.1,267.34 
				396.2,269.28 394.9,267.84 393.61,269.28 393.7,267.34 391.77,267.44 393.21,266.14 391.77,264.85 393.7,264.94 393.61,263.01 
							"/>
			<polygon class="st7" points="403.1,280.22 404.4,278.78 404.3,280.72 406.23,280.62 404.8,281.92 406.23,283.22 404.3,283.12 
				404.4,285.05 403.1,283.62 401.8,285.05 401.9,283.12 399.97,283.22 401.4,281.92 399.97,280.62 401.9,280.72 401.8,278.78 			
				"/>
			<polygon class="st7" points="401.17,292 402.47,290.56 402.37,292.5 404.31,292.4 402.87,293.7 404.31,295 402.37,294.9 
				402.47,296.83 401.17,295.39 399.87,296.83 399.97,294.9 398.04,295 399.48,293.7 398.04,292.4 399.97,292.5 399.87,290.56 			
				"/>
			<polygon class="st7" points="394.9,327.17 396.2,325.74 396.1,327.67 398.04,327.57 396.6,328.87 398.04,330.17 396.1,330.07 
				396.2,332 394.9,330.57 393.61,332 393.7,330.07 391.77,330.17 393.21,328.87 391.77,327.57 393.7,327.67 393.61,325.74 			"/>
			<polygon class="st7" points="386.02,335.05 387.32,333.61 387.22,335.54 389.16,335.44 387.72,336.74 389.16,338.04 
				387.22,337.94 387.32,339.88 386.02,338.44 384.72,339.88 384.82,337.94 382.89,338.04 384.33,336.74 382.89,335.44 
				384.82,335.54 384.72,333.61 			"/>
			<polygon class="st7" points="204.6,238.02 205.9,236.59 205.8,238.52 207.74,238.42 206.3,239.72 207.74,241.02 205.8,240.92 
				205.9,242.85 204.6,241.42 203.3,242.85 203.4,240.92 201.47,241.02 202.91,239.72 201.47,238.42 203.4,238.52 203.3,236.59 			
				"/>
			<polygon class="st7" points="241.39,173.59 242.69,172.15 242.59,174.08 244.53,173.99 243.09,175.28 244.53,176.58 
				242.59,176.48 242.69,178.42 241.39,176.98 240.09,178.42 240.19,176.48 238.26,176.58 239.69,175.28 238.26,173.99 
				240.19,174.08 240.09,172.15 			"/>
			<polygon class="st7" points="223.7,179.97 225,178.54 224.9,180.47 226.84,180.37 225.4,181.67 226.84,182.97 224.9,182.87 
				225,184.8 223.7,183.37 222.4,184.8 222.5,182.87 220.57,182.97 222.01,181.67 220.57,180.37 222.5,180.47 222.4,178.54 			"/>
		</g>
	</g>
	<g>
		<path class="st8" d="M77.35,233.21c6.05-3.96,13.86-5.66,22.14-3.79c7.15,1.61,13.89,5.84,18.21,12.89
			c3.7,6.07,5.23,13.51,3.2,22.52c-2.27,10.05-7.83,15.97-12.59,19.12c-5.98,4.06-13.94,5.64-21.82,3.86
			c-7.72-1.74-14.73-6.96-18.47-12.87c-2.8-4.43-5.56-12.07-3.15-22.76C66.76,243.83,70.91,237.41,77.35,233.21z M78.21,267.61
			c1.72,2.84,5.12,6.14,11.07,7.48c4.9,1.11,9.21,0.39,13.17-2.18c4.08-2.71,6.07-6.32,7.01-10.5c1.23-5.47,0.09-9.78-1.9-12.93
			c-1.54-2.54-4.74-5.97-10.93-7.37c-5.55-1.25-10.15,0.08-13.11,1.94c-3.17,2.07-6.14,5.88-7.25,10.78
			C75.22,259.51,75.97,264.07,78.21,267.61z"/>
		<path class="st8" d="M157.87,111.06c5.61-4.19,10.49-4.96,14.08-4.56c3.18,0.4,7.53,2.09,11.18,6.97
			c2.07,2.77,4.04,6.65,3.28,11.54c-0.43,2.59-1.62,5.53-3.62,7.95l27,7.9l-12.41,9.28l-24.86-8.48l12.98,17.36l-10.16,7.6
			l-32.91-44.02L157.87,111.06z M167.54,135.01l2.31-1.73c1.85-1.38,4.21-3.45,4.64-6.45c0.18-1.27,0.07-3.34-1.56-5.52
			c-1.88-2.51-4.05-2.94-5.4-2.96c-2.59-0.02-5.33,1.82-6.65,2.81l-2.38,1.78L167.54,135.01z"/>
		<path class="st8" d="M300.5,62.85l2.04,54.93l-12.68,0.47l-2.04-54.93L300.5,62.85z"/>
		<path class="st8" d="M455.84,124.56c1.38,7.09-0.01,14.97-4.87,21.93c-4.2,6.01-10.66,10.65-18.83,11.98
			c-7.02,1.13-14.49-0.27-22.05-5.56c-8.44-5.9-11.83-13.29-12.94-18.89c-1.49-7.07,0.05-15.04,4.68-21.66
			c4.53-6.49,12.01-11.01,18.9-12.23c5.16-0.92,13.27-0.58,22.26,5.7C450.01,110.74,454.38,117.01,455.84,124.56z M423.66,112.34
			c-3.28,0.52-7.62,2.42-11.11,7.42c-2.88,4.12-3.84,8.38-2.96,13.01c0.97,4.8,3.55,8.01,7.06,10.46c4.59,3.21,9.02,3.79,12.69,3.14
			c2.94-0.46,7.32-2.13,10.95-7.33c3.26-4.66,3.77-9.43,3.16-12.87c-0.72-3.72-3.12-7.91-7.24-10.79
			C432.3,112.64,427.79,111.6,423.66,112.34z"/>
		<path class="st8" d="M480.95,239.81l53.7-11.7l2.35,10.79l-28.27,36.69l34.62-7.54l2.7,12.4l-53.71,11.71l-2.35-10.79l28.43-36.73
			l-34.78,7.58L480.95,239.81z"/>
	</g>
</g>
</svg>
