<?xml version="1.0" encoding="utf-8"?>
<!-- Generator: Adobe Illustrator 25.4.1, SVG Export Plug-In . SVG Version: 6.00 Build 0)  -->
<svg version="1.1" id="Layer_1" xmlns="http://www.w3.org/2000/svg" xmlns:xlink="http://www.w3.org/1999/xlink" x="0px" y="0px"
	 viewBox="0 0 606.07 611.63" style="enable-background:new 0 0 606.07 611.63;" xml:space="preserve">
<style type="text/css">
	.st0{fill:#FFFFFF;stroke:#810915;stroke-width:11.1035;stroke-miterlimit:10;}
	.st1{fill:url(#SVGID_1_);}
	.st2{fill:#FFFFFF;}
	.st3{fill:#810915;}
	.st4{fill:#FFFFFF;stroke:#006838;stroke-width:11.1035;stroke-miterlimit:10;}
	.st5{fill:url(#SVGID_00000125583911097368815830000004936517063920450969_);}
	.st6{fill:none;stroke:#E6E7E8;stroke-width:1.1701;stroke-linejoin:round;stroke-miterlimit:10;}
	.st7{fill:#FFF200;}
	.st8{fill:#006838;}
	.st9{fill:#FFFFFF;stroke:#000000;stroke-width:11.1035;stroke-miterlimit:10;}
	.st10{fill:url(#SVGID_00000121994058758965648730000014399012717431462323_);}
	.st11{fill:url(#SVGID_00000167387790754157718290000010311955274841099668_);}
	.st12{fill:url(#SVGID_00000180358005058944350780000017271958389202787470_);}
	.st13{fill:url(#SVGID_00000083776400003628426980000006929763216762275211_);}
	.st14{fill:#FFFFFF;stroke:#262262;stroke-width:11.1035;stroke-miterlimit:10;}
	.st15{fill:#262262;}
	.st16{fill-rule:evenodd;clip-rule:evenodd;fill:url(#SVGID_00000178909469318039493550000018276377775291125379_);}
	.st17{fill-rule:evenodd;clip-rule:evenodd;fill:url(#SVGID_00000055692723989334117330000015878335947341111187_);}
	.st18{fill-rule:evenodd;clip-rule:evenodd;fill:url(#SVGID_00000114072792988779836650000007085493879871819195_);}
	.st19{fill-rule:evenodd;clip-rule:evenodd;fill:url(#SVGID_00000135675849673531946070000015647972846976329398_);}
	.st20{fill-rule:evenodd;clip-rule:evenodd;fill:url(#SVGID_00000155833969733422016070000010936050845166865322_);}
	.st21{fill-rule:evenodd;clip-rule:evenodd;fill:url(#SVGID_00000178181323875775694620000009107253557807014326_);}
	.st22{fill-rule:evenodd;clip-rule:evenodd;fill:url(#SVGID_00000116938498682232197790000008948271132581718163_);}
</style>
<g>
	<circle class="st9" cx="303.03" cy="305.82" r="284.46"/>
	<g>
		<path d="M65.7,254.27c0.65-2.89,2.3-9.45,7.18-12.74c4.07-2.71,8.67-2.1,11-1.58c2.09,0.47,4.43,1.33,6.44,3.31
			c1.94,1.87,2.65,3.98,2.93,5.39c0.98-2.48,2.92-5.09,5.28-6.58c2.17-1.37,5.6-2.37,10.34-1.3c5.39,1.21,8.29,4.06,9.91,6.62
			c3.27,5.38,2.14,11.88,1.4,15.18l-4.54,20.18l-53.62-12.07L65.7,254.27z M86.54,263.35l0.45-2.01c0.38-1.69,0.77-4.56-0.12-6.61
			c-0.55-1.31-1.92-2.71-4.25-3.24s-4.03,0.28-4.97,1.08c-1.77,1.46-2.31,3.87-2.81,6.12l-0.43,1.93L86.54,263.35z M108.73,268.35
			l0.67-2.97c0.71-3.14,1.48-6.93-0.11-9.65c-0.79-1.36-2.17-2.35-4.1-2.78c-2.17-0.49-3.82,0.07-4.72,0.71
			c-2.5,1.72-3.44,5.9-4,8.39l-0.76,3.38L108.73,268.35z"/>
		<path d="M143.3,122.82l29.13,33.31l12.84-11.23l7.05,8.06l-22.4,19.58l-36.18-41.38L143.3,122.82z"/>
		<path d="M302.05,107.22l-20.73,1.19l-3.6,10.61l-13.16,0.76l18.97-56.15l11.6-0.67l24.8,53.63l-13.16,0.76L302.05,107.22z
			 M298.04,97.71l-7.81-18.04l-5.77,18.82L298.04,97.71z"/>
		<path d="M429.47,162.93c-5.4-0.78-8.92-2.66-11.61-4.56c-8.28-5.84-11.88-12.61-13.04-18.97c-1.29-6.76-0.07-14.77,5.01-21.98
			c4.99-7.07,12.13-10.91,18.92-11.97c6.68-1.04,14.33,0.42,21.33,5.36c2.96,2.09,5.97,5.12,9.02,10.09l-8.45,11.99
			c-0.58-4.04-2.35-8.82-7.13-12.19c-3.77-2.66-7.66-3.58-11.63-2.96c-4.2,0.67-8.52,3.07-11.56,7.38
			c-3.28,4.65-3.72,9.28-3.08,12.66c0.28,1.61,1.52,6.71,7.04,10.61c2.69,1.9,6.85,3.72,13.58,2.62L429.47,162.93z"/>
		<path d="M512.18,237.16l27.18,11.78l4.25,14.9l-31.15-14.25l-21.24,31l-4.48-15.69l18.05-25.63l-23.46,6.69l-3.48-12.2
			l52.86-15.08l3.48,12.2L512.18,237.16z"/>
		<path d="M435.36,497.3l14.35-11.48l-6.64-8.3l-13.64,10.92l-6.69-8.37l13.64-10.92l-7.62-9.52l-14.35,11.48l-6.69-8.37
			l24.26-19.41l34.34,42.92l-24.26,19.41L435.36,497.3z"/>
		<path d="M314.71,519.15l20.41,28.84l-14.99,0.37l-11.46-16.78l-10.62,17.33l-14.99,0.37l18.96-29.81l-0.63-25.62l12.69-0.31
			L314.71,519.15z"/>
		<path d="M153.84,484.46l14.9,10.74l6.22-8.62l-14.17-10.21l6.26-8.69l14.17,10.21l7.13-9.89l-14.91-10.74l6.26-8.69l25.2,18.16
			l-32.14,44.58l-25.2-18.16L153.84,484.46z"/>
	</g>
	<g>
		<g>
			<linearGradient id="SVGID_1_" gradientUnits="userSpaceOnUse" x1="157.9407" y1="315.4323" x2="484.6161" y2="299.5999">
				<stop  offset="0" style="stop-color:#414042"/>
				<stop  offset="1" style="stop-color:#000000"/>
			</linearGradient>
			<path class="st1" d="M140.32,308.22c176.59,196.14,333.01,0,333.01,0C296.75,112.07,140.32,308.22,140.32,308.22z"/>
			
				<linearGradient id="SVGID_00000080176502950417470440000003894758778791466130_" gradientUnits="userSpaceOnUse" x1="155.2564" y1="260.0463" x2="481.9319" y2="244.2139">
				<stop  offset="0" style="stop-color:#414042"/>
				<stop  offset="1" style="stop-color:#000000"/>
			</linearGradient>
			<path style="fill:url(#SVGID_00000080176502950417470440000003894758778791466130_);" d="M143.99,289.89
				c0,0,150.32-165.59,329.35,0C473.34,289.89,320.58,104.74,143.99,289.89z"/>
			
				<linearGradient id="SVGID_00000158728988209854448490000017769003984202934709_" gradientUnits="userSpaceOnUse" x1="160.589" y1="370.0767" x2="487.2645" y2="354.2443">
				<stop  offset="0" style="stop-color:#414042"/>
				<stop  offset="1" style="stop-color:#000000"/>
			</linearGradient>
			<path style="fill:url(#SVGID_00000158728988209854448490000017769003984202934709_);" d="M473.34,325.63
				c0,0-150.32,165.59-329.35,0C143.99,325.63,296.75,510.77,473.34,325.63z"/>
			
				<linearGradient id="SVGID_00000045620317233165206160000007959509029845394072_" gradientUnits="userSpaceOnUse" x1="161.1799" y1="382.2688" x2="487.8554" y2="366.4364">
				<stop  offset="0" style="stop-color:#414042"/>
				<stop  offset="1" style="stop-color:#000000"/>
			</linearGradient>
			<path style="fill:url(#SVGID_00000045620317233165206160000007959509029845394072_);" d="M473.34,337.85
				c0,0-150.32,165.59-329.35,0C143.99,337.85,296.75,522.99,473.34,337.85z"/>
		</g>
		<g>
			<polygon class="st2" points="311.54,308.75 324.25,303.33 310.49,304.58 318.78,293.53 307.49,301.49 309.15,287.78 
				303.36,300.32 297.94,287.61 299.19,301.37 288.14,293.07 296.1,304.36 282.39,302.7 294.92,308.5 282.22,313.92 295.98,312.67 
				287.68,323.72 298.97,315.76 297.31,329.47 303.11,316.93 308.53,329.64 307.28,315.88 318.33,324.17 310.37,312.88 
				324.08,314.54 			"/>
			<path class="st2" d="M369.1,248.81c0,0-123.8,12.81-114.9,69.61c-8.74-3.42-7.7-14.03-7.7-14.03
				c-4.7,27.89,16.08,22.88,16.08,22.88S241.24,277.06,369.1,248.81z"/>
			<path class="st2" d="M337.08,285.09c0,0,39.36,0.01,17.93,26.07c-11.25,13.68-52.18,61.44-141.82,46.19
				c0,0,82.12,10.06,135.18-50.62C348.37,306.74,363,291.04,337.08,285.09z"/>
			<path class="st2" d="M242.65,353.93c0,0-50.58,3.09-38.81-38.03C203.84,315.89,181.64,364.35,242.65,353.93z"/>
			<path class="st2" d="M386.28,295.24c0,0-14.48,37.65-50.68,55.89C335.61,351.13,381.07,339.83,386.28,295.24z"/>
			<path class="st2" d="M393.72,312.99c20.1-23.73,23.45-62.74-25-57.91c-76.77,7.65-97.32,47.83-98.77,50.89c0,0,0,0,0,0
				c-0.01,0.03-0.01,0.02-0.02,0.04c-0.05,0.1-0.07,0.16-0.07,0.16s13.69-14.73,36.51-26.27c15.61-7.9,35.5-14.31,58.21-13.48
				c15.26,0.55,22.11,7.14,24.97,14.37c0.2,0.52,0.39,1.04,0.56,1.56c0.33,1.04,0.59,2.09,0.78,3.13c0.1,0.52,0.18,1.03,0.25,1.55
				c0.14,1.02,0.22,2.03,0.26,3c0.24,5.83-1.04,10.43-1.04,10.43c8.39-8.84,6.51-24.96,6.51-24.96c0.35,0.32,0.68,0.65,0.98,1
				c0.1,0.12,0.19,0.24,0.29,0.36c0.19,0.24,0.39,0.47,0.56,0.72c0.1,0.15,0.19,0.31,0.29,0.46c0.15,0.23,0.29,0.46,0.42,0.7
				c0.09,0.17,0.17,0.35,0.26,0.52c0.11,0.24,0.23,0.47,0.33,0.71c0.08,0.19,0.14,0.38,0.21,0.56c0.09,0.24,0.18,0.48,0.25,0.73
				c0.06,0.2,0.12,0.4,0.17,0.6c0.07,0.25,0.13,0.5,0.19,0.75c0.05,0.2,0.09,0.41,0.13,0.62c0.05,0.26,0.09,0.52,0.13,0.78
				c0.03,0.21,0.06,0.42,0.08,0.64c0.03,0.27,0.06,0.53,0.08,0.8c0.02,0.21,0.03,0.43,0.04,0.65c0.01,0.27,0.02,0.55,0.03,0.83
				c0,0.22,0.01,0.43,0.01,0.65c0,0.28-0.01,0.57-0.02,0.85c-0.01,0.22-0.01,0.43-0.03,0.65c-0.02,0.29-0.04,0.58-0.07,0.87
				c-0.02,0.21-0.03,0.43-0.06,0.64c-0.03,0.3-0.07,0.61-0.11,0.91c-0.03,0.2-0.05,0.4-0.08,0.61c-0.05,0.32-0.1,0.65-0.16,0.97
				c-0.03,0.18-0.06,0.37-0.09,0.55c-0.07,0.38-0.15,0.76-0.23,1.14c-0.03,0.12-0.05,0.25-0.07,0.37c-0.11,0.51-0.23,1.01-0.35,1.51
				c-0.01,0.06-0.03,0.11-0.05,0.17c-0.11,0.44-0.22,0.88-0.34,1.31c-0.05,0.16-0.09,0.32-0.14,0.49c-0.09,0.32-0.18,0.65-0.28,0.97
				c-0.06,0.19-0.11,0.37-0.17,0.55c-0.09,0.29-0.18,0.58-0.27,0.86c-0.06,0.2-0.13,0.39-0.19,0.58c-0.09,0.27-0.18,0.54-0.27,0.8
				c-0.07,0.19-0.13,0.38-0.2,0.57c-0.09,0.26-0.18,0.51-0.27,0.76c-0.07,0.19-0.14,0.37-0.21,0.55c-0.09,0.24-0.18,0.48-0.27,0.72
				c-0.07,0.18-0.14,0.36-0.21,0.53c-0.09,0.22-0.18,0.45-0.27,0.66c-0.07,0.17-0.14,0.34-0.21,0.51c-0.09,0.21-0.17,0.41-0.26,0.61
				c-0.07,0.16-0.14,0.33-0.21,0.48c-0.08,0.19-0.17,0.38-0.25,0.57c-0.07,0.15-0.13,0.3-0.19,0.44c-0.08,0.19-0.16,0.36-0.24,0.54
				c-0.06,0.13-0.12,0.25-0.17,0.37c-0.08,0.18-0.16,0.34-0.24,0.51c-0.05,0.11-0.1,0.22-0.15,0.32c-0.08,0.16-0.15,0.3-0.22,0.45
				c-0.04,0.09-0.09,0.18-0.13,0.27c-0.07,0.15-0.14,0.27-0.2,0.4c-0.03,0.07-0.07,0.14-0.1,0.2c-0.08,0.16-0.16,0.31-0.22,0.44
				c-0.01,0.01-0.02,0.03-0.02,0.04c-0.05,0.1-0.09,0.17-0.13,0.25c-0.02,0.03-0.04,0.08-0.05,0.11c0,0,0,0,0,0
				C393.78,312.88,393.72,312.99,393.72,312.99z M348.4,261.1c64.88-10.6,56.34,23.8,56.34,23.8
				C407.26,253.11,348.4,261.1,348.4,261.1z"/>
			<path class="st2" d="M366,276.18c0,0,9.29,0.38,18.81,7.78c0,0-15.73-29.19-68.42,0.32c0,0,86.86-12.68,33.2,37.39
				c-54.88,51.23-105.2,44.21-121.57,40.92c0,0,85.48,30.25,150.16-57.71c4.83-6.56,3.61-13.94,0.47-19.68
				C376.58,281.43,372.81,277.88,366,276.18z M266.39,365.17c63.42-5.21,101.65-56.81,101.65-56.81
				C336.19,365.12,266.39,365.17,266.39,365.17z M370.74,305.95c16.89-33.21-42.67-25.48-42.67-25.48
				C397.19,269.27,370.74,305.95,370.74,305.95z"/>
			<path class="st2" d="M234.58,318.58c0.2-41.34,90.61-69.57,90.61-69.57s-105.91,10.32-102.37,77.92c0,0-6.64-17.29,1.62-31.46
				c0,0-26.92,30.81,0.32,48.32c0,0-3.66,0.76-16.54-5.84c0,0,41.51,33.01,99.43-4.93C307.66,333.03,234.39,358.22,234.58,318.58z
				 M298.83,256.72c-81.94,30.62-67.51,70.97-65.96,74.72c0.04,0.1,0.08,0.19,0.12,0.28c0,0-0.05-0.1-0.12-0.28
				C209.98,281.24,298.83,256.72,298.83,256.72z M217.6,312.76c0,0-4.2,47.2,69.36,28.09C286.95,340.85,211.71,371.49,217.6,312.76z
				"/>
		</g>
	</g>
</g>
</svg>
