<?xml version="1.0" encoding="utf-8"?>
<!-- Generator: Adobe Illustrator 25.4.1, SVG Export Plug-In . SVG Version: 6.00 Build 0)  -->
<svg version="1.1" id="Layer_1" xmlns="http://www.w3.org/2000/svg" xmlns:xlink="http://www.w3.org/1999/xlink" x="0px" y="0px"
	 viewBox="0 0 606.07 611.63" style="enable-background:new 0 0 606.07 611.63;" xml:space="preserve">
<style type="text/css">
	.st0{fill:#FFFFFF;stroke:#810915;stroke-width:11.1035;stroke-miterlimit:10;}
	.st1{fill:url(#SVGID_1_);}
	.st2{fill:#FFFFFF;}
	.st3{fill:#810915;}
	.st4{fill:#FFFFFF;stroke:#006838;stroke-width:11.1035;stroke-miterlimit:10;}
	.st5{fill:url(#SVGID_00000128465378108537690660000000738718208059717776_);}
	.st6{fill:none;stroke:#E6E7E8;stroke-width:1.1701;stroke-linejoin:round;stroke-miterlimit:10;}
	.st7{fill:#FFF200;}
	.st8{fill:#006838;}
	.st9{fill:#FFFFFF;stroke:#000000;stroke-width:11.1035;stroke-miterlimit:10;}
	.st10{fill:url(#SVGID_00000181059842735866762320000000815731666749436581_);}
	.st11{fill:url(#SVGID_00000018221194121536788940000009684187689610612612_);}
	.st12{fill:url(#SVGID_00000013887040519936726740000003577335549926924727_);}
	.st13{fill:url(#SVGID_00000098211724997390950480000003518417084798993294_);}
	.st14{fill:#FFFFFF;stroke:#262262;stroke-width:11.1035;stroke-miterlimit:10;}
	.st15{fill:#262262;}
	.st16{fill-rule:evenodd;clip-rule:evenodd;fill:url(#SVGID_00000179638181423956018850000014703790155624327344_);}
	.st17{fill-rule:evenodd;clip-rule:evenodd;fill:url(#SVGID_00000133499478356662470560000012841529987322358168_);}
	.st18{fill-rule:evenodd;clip-rule:evenodd;fill:url(#SVGID_00000112627834902505035090000008207836727526826384_);}
	.st19{fill-rule:evenodd;clip-rule:evenodd;fill:url(#SVGID_00000015337248377485421500000000314846812890168208_);}
	.st20{fill-rule:evenodd;clip-rule:evenodd;fill:url(#SVGID_00000129195158429182878950000005021308153029256858_);}
	.st21{fill-rule:evenodd;clip-rule:evenodd;fill:url(#SVGID_00000056395087984470880280000001970881430576710812_);}
	.st22{fill-rule:evenodd;clip-rule:evenodd;fill:url(#SVGID_00000074434471466620205850000008498299937088682125_);}
</style>
<g>
	<circle class="st14" cx="303.03" cy="305.82" r="284.46"/>
	<g>
		<path class="st15" d="M113.38,326.74c3.47,4.2,4.82,7.96,5.54,11.17c2.21,9.89,0.33,17.32-3.08,22.82
			c-3.58,5.87-9.87,10.99-18.47,12.92c-8.44,1.89-16.31-0.06-22.06-3.84c-5.64-3.72-10.33-9.93-12.2-18.3
			c-0.79-3.54-0.99-7.8,0.09-13.53l14.31-3.21c-2.28,3.38-4.18,8.11-2.9,13.82c1.01,4.5,3.27,7.8,6.63,10
			c3.56,2.33,8.37,3.45,13.52,2.29c5.55-1.24,8.99-4.38,10.78-7.31c0.87-1.38,3.39-5.99,1.91-12.59c-0.72-3.22-2.58-7.36-8.3-11.06
			L113.38,326.74z"/>
		<path class="st15" d="M104.57,176.16c6.87-2.23,14.86-1.81,22.36,2.17c6.48,3.44,11.86,9.29,14.18,17.23
			c1.97,6.83,1.49,14.41-2.84,22.56c-4.83,9.1-11.75,13.35-17.18,15.14c-6.84,2.34-14.94,1.77-22.07-2.01
			c-6.99-3.71-12.39-10.59-14.43-17.27c-1.54-5.01-2.19-13.1,2.95-22.78C91.55,183.62,97.25,178.53,104.57,176.16z M96.34,209.58
			c0.92,3.19,3.32,7.27,8.71,10.13c4.44,2.36,8.78,2.79,13.27,1.36c4.65-1.54,7.52-4.5,9.53-8.28c2.63-4.95,2.66-9.41,1.57-12.97
			c-0.82-2.86-3-7-8.6-9.98c-5.02-2.67-9.82-2.6-13.16-1.58c-3.6,1.17-7.47,4.06-9.83,8.5C95.59,200.97,95.11,205.57,96.34,209.58z"
			/>
		<path class="st15" d="M227.59,88.84c-5.21-1.88-8.59-0.78-10.04-0.19c-1.6,0.65-3.5,1.69-4.25,3.77c-0.45,1.07-0.52,2.44,0,3.73
			c0.5,1.22,1.25,1.98,2.29,2.36c1.69,0.65,3.63,0.39,7.59,0.3l4.41-0.1c2.56-0.06,5.77-0.03,8.53,1.07
			c4.12,1.62,6.38,4.97,7.59,7.95c2.14,5.27,2.17,10.59,0.61,14.43c-2.58,6.56-8.96,9.69-12.32,11.05
			c-3.67,1.49-7.09,2.26-10.95,1.96c-3.12-0.24-7.06-1.4-9.75-2.53l2.7-10.88c1.83,0.77,4.6,1.69,6.32,1.97
			c2.48,0.42,4.79,0.19,7.16-0.77c1.53-0.62,3.54-1.79,4.63-3.93c0.65-1.24,0.93-2.96,0.16-4.87c-0.68-1.68-1.8-2.47-3.24-2.95
			c-1.84-0.59-5.44-0.46-7.1-0.41l-4.79,0.26c-2.71,0.12-5.89,0.17-8.75-1.16c-3.82-1.74-5.66-5.17-6.65-7.62
			c-1.83-4.5-2.01-8.88-0.22-13.25c2.1-5.12,5.97-7.85,10.71-9.77c3.51-1.43,9.41-3.11,17.17-1.1L227.59,88.84z"/>
		<path class="st15" d="M331.97,117.24l26-49.22l9.99,3.39l2.4,35.53l23.51-26.75l9.99,3.39l-9.29,54.89l-12.02-4.07l6.39-32.46
			l-23.56,26.64l-4.21-1.43l-2.5-35.48l-14.66,29.66L331.97,117.24z"/>
		<path class="st15" d="M522.38,215.95c-2.07,6.92-6.96,13.26-14.5,17.17c-6.51,3.38-14.38,4.48-22.24,1.87
			c-6.74-2.26-12.71-6.97-16.96-15.16c-4.74-9.15-4.3-17.26-2.69-22.74c1.96-6.96,7.03-13.3,14.2-17.01
			c7.02-3.64,15.75-4.17,22.42-2.06c5,1.59,12.02,5.65,17.07,15.38C523.64,201,524.6,208.58,522.38,215.95z M499.56,190.18
			c-3.15-1.06-7.87-1.4-13.29,1.41c-4.46,2.31-7.29,5.63-8.66,10.15c-1.37,4.7-0.57,8.75,1.4,12.55c2.58,4.98,6.23,7.54,9.78,8.67
			c2.81,0.96,7.47,1.51,13.1-1.4c5.05-2.62,7.72-6.6,8.78-9.93c1.09-3.63,0.91-8.45-1.4-12.92
			C507.07,194.46,503.56,191.45,499.56,190.18z"/>
		<path class="st15" d="M524.53,366.72c4.51-3.22,5.52-6.62,5.86-8.15c0.37-1.69,0.6-3.83-0.69-5.64c-0.63-0.98-1.71-1.81-3.08-2.12
			c-1.29-0.28-2.34-0.1-3.24,0.55c-1.49,1.02-2.38,2.76-4.55,6.08l-2.42,3.68c-1.4,2.14-3.25,4.77-5.72,6.41
			c-3.67,2.48-7.71,2.43-10.85,1.73c-5.55-1.23-9.95-4.23-12.22-7.69c-3.94-5.85-2.89-12.88-2.1-16.42
			c0.86-3.86,2.17-7.12,4.61-10.12c1.97-2.43,5.16-5.02,7.62-6.58l7.42,8.4c-1.67,1.06-4,2.83-5.21,4.08
			c-1.75,1.81-2.88,3.84-3.43,6.33c-0.36,1.61-0.53,3.93,0.6,6.04c0.65,1.24,1.91,2.45,3.92,2.89c1.77,0.39,3.06-0.08,4.27-0.99
			c1.53-1.18,3.46-4.21,4.37-5.62l2.51-4.09c1.44-2.3,3.21-4.94,5.92-6.54c3.6-2.16,7.47-1.72,10.04-1.15
			c4.75,1.05,8.45,3.39,11.03,7.34c3.02,4.64,3.07,9.37,1.97,14.36c-0.82,3.7-2.78,9.51-8.84,14.75L524.53,366.72z"/>
	</g>
	<g>
		<linearGradient id="SVGID_1_" gradientUnits="userSpaceOnUse" x1="174.0074" y1="330.0043" x2="433.708" y2="330.0043">
			<stop  offset="0" style="stop-color:#154A99"/>
			<stop  offset="0.9913" style="stop-color:#1C75BC"/>
		</linearGradient>
		<path style="fill-rule:evenodd;clip-rule:evenodd;fill:url(#SVGID_1_);" d="M430.13,256.85c16.66,28.85-26.37,84.87-96.11,125.13
			c-69.74,40.26-139.77,49.52-156.43,20.67c-13.61-23.58,12.67-65.33,60.81-101.78c-0.2,2.53-0.38,5.04-0.52,7.54
			c-38.28,29.84-59.41,61.44-49.58,78.46c12.78,22.14,73.02,11.29,134.55-24.24c61.53-35.52,101.05-82.27,88.27-104.4
			c-2.68-4.64-7.46-7.84-13.9-9.65l0-0.02c-1.02-0.26-1.93-0.92-2.5-1.9c-1.12-1.94-0.46-4.43,1.48-5.55
			c0.84-0.49,1.78-0.64,2.66-0.5l0.01-0.05C413.69,242.14,424.72,247.49,430.13,256.85L430.13,256.85z M360.19,249.11
			c-0.62,0.12-1.25,0.24-1.88,0.37c-0.5-1.86-1.01-3.7-1.55-5.54c0.79-0.17,1.56-0.33,2.34-0.49
			C359.22,245.35,359.57,247.25,360.19,249.11L360.19,249.11z M310.44,259.11c10.67-4.55,21.12-8.31,31.13-11.25
			c0.55,1.79,1.07,3.6,1.57,5.42c-8.26,2.41-16.95,5.46-25.92,9.13C314.98,261.29,312.72,260.19,310.44,259.11L310.44,259.11z
			 M279.77,280.66c-1.07,0.6-2.14,1.21-3.21,1.83c-1.41,0.81-2.8,1.64-4.18,2.46c0.3-2.28,0.63-4.56,0.99-6.83
			C275.51,278.94,277.65,279.79,279.77,280.66L279.77,280.66z"/>
		
			<linearGradient id="SVGID_00000181066461237118703130000011771644515136304825_" gradientUnits="userSpaceOnUse" x1="173.4862" y1="329.0682" x2="433.1819" y2="329.0682">
			<stop  offset="0" style="stop-color:#16376A"/>
			<stop  offset="1" style="stop-color:#2B3990"/>
		</linearGradient>
		<path style="fill-rule:evenodd;clip-rule:evenodd;fill:url(#SVGID_00000181066461237118703130000011771644515136304825_);" d="
			M177.06,256.17c9.6-16.61,36.9-20.59,71.65-13.28c-2.03,6.81-3.75,13.81-5.2,20.91c-27.7-6.2-48.78-3.94-55.74,8.13
			c-2.66,4.61-3.06,10.27-1.46,16.68l-0.03,0.01c0.78,1.86,0.08,4.06-1.71,5.09c-1.94,1.13-4.43,0.46-5.55-1.48
			c-0.1-0.16-0.18-0.33-0.25-0.5l-0.02,0.01C172.56,277.97,171.61,265.61,177.06,256.17L177.06,256.17z M202.9,324.51l-0.94,0.98
			l-0.21-0.24C202.14,325.02,202.53,324.77,202.9,324.51L202.9,324.51z M216.8,332.66c6.27,6.06,13.35,12.17,21.14,18.2
			c0.15,2.5,0.33,5.02,0.53,7.54c-9.38-7.07-17.95-14.35-25.56-21.65C214.18,335.36,215.47,334.01,216.8,332.66L216.8,332.66z
			 M272.51,374.27c1.17,0.68,2.34,1.38,3.53,2.06c0.94,0.54,1.89,1.09,2.84,1.62c-1.83,0.74-3.67,1.47-5.51,2.17
			C273.07,378.18,272.78,376.23,272.51,374.27L272.51,374.27z M279.11,251.54c17.48,6.18,35.94,14.65,54.38,25.3
			c18.26,10.54,34.68,22.16,48.67,34.08c-5.09,5.2-10.57,10.23-16.31,15.04c-12.6-10.27-27.3-20.42-43.53-29.79
			c-16.43-9.48-32.76-17.21-48.12-23.01C275.51,265.79,277.13,258.54,279.11,251.54L279.11,251.54z M404.9,332.86
			c23.97,26.59,34.34,52.4,24.7,69.1c-9.72,16.84-37.62,20.69-73.03,12.99c0.54-1.84,1.06-3.68,1.56-5.54
			c26.07,5.29,45.77,2.75,52.46-8.84c7.02-12.15-1.73-31.72-21.22-52.78C394.8,343.01,400.01,338.02,404.9,332.86L404.9,332.86z
			 M341.37,411.06c-10.22-2.99-20.9-6.83-31.81-11.5c2.29-1.08,4.56-2.18,6.81-3.29c9.2,3.79,18.12,6.92,26.58,9.37
			C342.45,407.47,341.92,409.27,341.37,411.06L341.37,411.06z"/>
		
			<linearGradient id="SVGID_00000029003872295614310790000009353503302232662446_" gradientUnits="userSpaceOnUse" x1="242.691" y1="329.868" x2="361.97" y2="329.868">
			<stop  offset="0" style="stop-color:#302F75"/>
			<stop  offset="0.9965" style="stop-color:#262262"/>
		</linearGradient>
		<path style="fill-rule:evenodd;clip-rule:evenodd;fill:url(#SVGID_00000029003872295614310790000009353503302232662446_);" d="
			M303,475.67c-19.42,0-36.7-22.21-47.73-56.68c6.92-1.63,13.85-3.63,20.74-5.92c8.49,27.79,21.15,45.43,35.29,45.43
			c5.43,0,10.64-2.6,15.48-7.37c0.19-0.24,0.4-0.45,0.64-0.64l0.02-0.02h0c0.15-0.12,0.33-0.24,0.5-0.34
			c1.94-1.12,4.43-0.46,5.55,1.49c0.88,1.54,0.65,3.42-0.45,4.68C324.2,468.62,313.94,475.67,303,475.67L303,475.67z M345.28,417.21
			c4.11-12.36,7.36-26.95,9.49-43.07c2.09-1.38,4.17-2.79,6.25-4.23c-2.15,18.19-5.71,34.93-10.4,49.47
			C348.96,418.44,347.16,417.71,345.28,417.21L345.28,417.21z M247.74,388.32c-3.24-17.9-5.05-37.67-5.05-58.45
			c0-80.53,27-145.8,60.31-145.8c27.32,0,50.4,43.94,57.82,104.18c-2.09-1.44-4.17-2.85-6.27-4.24
			c-6.65-48.4-23.5-82.78-43.25-82.78c-25.56,0-46.28,57.6-46.28,128.65c0,18.47,1.41,36.03,3.93,51.91
			C261.9,384.32,254.8,386.54,247.74,388.32L247.74,388.32z M361.97,329.16c-1.45,1.17-2.92,2.33-4.4,3.47
			c0.01-0.92,0.01-1.84,0.01-2.76c0-1.4-0.01-2.8-0.03-4.2C359.04,326.82,360.51,327.98,361.97,329.16L361.97,329.16z"/>
		
			<radialGradient id="SVGID_00000156545900860494351070000014532575366505238431_" cx="381.0711" cy="242.0172" r="17.345" gradientUnits="userSpaceOnUse">
			<stop  offset="0" style="stop-color:#16376A"/>
			<stop  offset="1" style="stop-color:#2B3990"/>
		</radialGradient>
		<path style="fill-rule:evenodd;clip-rule:evenodd;fill:url(#SVGID_00000156545900860494351070000014532575366505238431_);" d="
			M372.86,226.74c8.44-4.87,19.23-1.98,24.1,6.46c0.45,0.78,0.82,1.58,1.15,2.4c-1.5,0.02-3.01,0.41-4.4,1.21
			c-4.33,2.5-5.81,8.03-3.31,12.36c1.14,1.98,2.92,3.36,4.93,4.04c-1.31,1.6-2.93,3-4.83,4.1c-8.44,4.87-19.23,1.98-24.1-6.46
			C361.53,242.4,364.41,231.61,372.86,226.74L372.86,226.74z"/>
		
			<radialGradient id="SVGID_00000111913438727163040990000001152442081281500588_" cx="190.0039" cy="305.9518" r="17.6306" gradientUnits="userSpaceOnUse">
			<stop  offset="0" style="stop-color:#302F75"/>
			<stop  offset="0.9965" style="stop-color:#262262"/>
		</radialGradient>
		<path style="fill-rule:evenodd;clip-rule:evenodd;fill:url(#SVGID_00000111913438727163040990000001152442081281500588_);" d="
			M181.18,321.2c-8.44-4.88-11.33-15.66-6.46-24.1c0.24-0.42,0.5-0.82,0.77-1.22c2.75,3.41,7.65,4.41,11.56,2.15
			c3.48-2,5.12-5.97,4.33-9.7c2.55,0.2,5.08,0.95,7.44,2.31c8.44,4.88,11.33,15.66,6.46,24.1
			C200.41,323.18,189.62,326.07,181.18,321.2L181.18,321.2z"/>
		
			<radialGradient id="SVGID_00000042008780696276989510000015171493037487593882_" cx="339.5051" cy="439.0884" r="17.6432" gradientUnits="userSpaceOnUse">
			<stop  offset="0" style="stop-color:#302F75"/>
			<stop  offset="0.9965" style="stop-color:#262262"/>
		</radialGradient>
		<path style="fill-rule:evenodd;clip-rule:evenodd;fill:url(#SVGID_00000042008780696276989510000015171493037487593882_);" d="
			M357.15,439.08c0,9.75-7.9,17.65-17.64,17.65c-0.34,0-0.68-0.01-1.02-0.03c0.86-2.41,0.7-5.18-0.68-7.57
			c-2.5-4.32-8.03-5.81-12.36-3.31c-0.62,0.36-1.18,0.77-1.68,1.25c-1.22-2.39-1.9-5.11-1.9-7.98c0-9.74,7.9-17.64,17.65-17.64
			C349.25,421.44,357.15,429.34,357.15,439.08L357.15,439.08z"/>
		
			<radialGradient id="SVGID_00000061430090779484844790000007986923017979782575_" cx="303.7204" cy="329.5163" r="17.437" gradientUnits="userSpaceOnUse">
			<stop  offset="0" style="stop-color:#27AAE1"/>
			<stop  offset="0.1143" style="stop-color:#29A5DC"/>
			<stop  offset="0.25" style="stop-color:#2C9ACE"/>
			<stop  offset="0.3966" style="stop-color:#2E89BC"/>
			<stop  offset="0.551" style="stop-color:#2F73A6"/>
			<stop  offset="0.7116" style="stop-color:#2D5A8E"/>
			<stop  offset="0.8747" style="stop-color:#293D74"/>
			<stop  offset="1" style="stop-color:#262262"/>
		</radialGradient>
		<path style="fill-rule:evenodd;clip-rule:evenodd;fill:url(#SVGID_00000061430090779484844790000007986923017979782575_);" d="
			M295,314.42c8.34-4.81,19.01-1.96,23.82,6.38c4.81,8.34,1.95,19-6.38,23.82c-8.34,4.81-19,1.96-23.81-6.38
			C283.81,329.89,286.66,319.23,295,314.42L295,314.42z"/>
	</g>
</g>
</svg>
