<?xml version="1.0" encoding="utf-8"?>
<!-- Generator: Adobe Illustrator 25.4.1, SVG Export Plug-In . SVG Version: 6.00 Build 0)  -->
<svg version="1.1" id="Layer_1" xmlns="http://www.w3.org/2000/svg" xmlns:xlink="http://www.w3.org/1999/xlink" x="0px" y="0px"
	 viewBox="0 0 606.07 611.63" style="enable-background:new 0 0 606.07 611.63;" xml:space="preserve">
<style type="text/css">
	.st0{fill:#FFFFFF;stroke:#810915;stroke-width:11.1035;stroke-miterlimit:10;}
	.st1{fill:url(#SVGID_1_);}
	.st2{fill:#FFFFFF;}
	.st3{fill:#810915;}
	.st4{fill:#FFFFFF;stroke:#006838;stroke-width:11.1035;stroke-miterlimit:10;}
	.st5{fill:url(#SVGID_00000071517812036871816550000016054217745389691274_);}
	.st6{fill:none;stroke:#E6E7E8;stroke-width:1.1701;stroke-linejoin:round;stroke-miterlimit:10;}
	.st7{fill:#FFF200;}
	.st8{fill:#006838;}
	.st9{fill:#FFFFFF;stroke:#000000;stroke-width:11.1035;stroke-miterlimit:10;}
	.st10{fill:url(#SVGID_00000070119777255428823740000017079326593708967065_);}
	.st11{fill:url(#SVGID_00000122710732125910050360000014964351871326886292_);}
	.st12{fill:url(#SVGID_00000116930201496500921150000014104245368771032246_);}
	.st13{fill:url(#SVGID_00000024701955459011893480000015385102931496886454_);}
	.st14{fill:#FFFFFF;stroke:#262262;stroke-width:11.1035;stroke-miterlimit:10;}
	.st15{fill:#262262;}
	.st16{fill-rule:evenodd;clip-rule:evenodd;fill:url(#SVGID_00000049206513734076525530000008704889373280723615_);}
	.st17{fill-rule:evenodd;clip-rule:evenodd;fill:url(#SVGID_00000119114685971308429070000016111537532474387125_);}
	.st18{fill-rule:evenodd;clip-rule:evenodd;fill:url(#SVGID_00000170242393342590562180000014742065112201898679_);}
	.st19{fill-rule:evenodd;clip-rule:evenodd;fill:url(#SVGID_00000071555192645367585400000012179453406088255421_);}
	.st20{fill-rule:evenodd;clip-rule:evenodd;fill:url(#SVGID_00000074405753891914401690000014783209854320747952_);}
	.st21{fill-rule:evenodd;clip-rule:evenodd;fill:url(#SVGID_00000024697063650162769750000017696718724266122683_);}
	.st22{fill-rule:evenodd;clip-rule:evenodd;fill:url(#SVGID_00000120557323387974887320000008453484514181627777_);}
</style>
<g>
	<circle class="st0" cx="303.03" cy="305.82" r="284.46"/>
	<g>
		<linearGradient id="SVGID_1_" gradientUnits="userSpaceOnUse" x1="332.6653" y1="477.6971" x2="289.4258" y2="208.6515">
			<stop  offset="0" style="stop-color:#810915"/>
			<stop  offset="1" style="stop-color:#BE1E2D"/>
		</linearGradient>
		<path class="st1" d="M368.76,327.07c3.92-7.54,7.74-14.9,11.57-22.27c3.39-6.52,6.75-13.06,10.17-19.56
			c0.58-1.11,0.67-2.05,0.23-3.27c-6.46-17.71-12.85-35.45-19.29-53.17c-0.4-1.09-0.31-1.92,0.33-2.93
			c5.15-8.2,10.23-16.44,15.34-24.66c0.19-0.3,0.43-0.58,0.77-1.02c1.52,4.39,2.99,8.62,4.44,12.84
			c7.61,22.23,15.22,44.45,22.83,66.68c0.74,2.15,1.53,4.28,2.16,6.46c0.19,0.67,0.13,1.6-0.21,2.19
			c-10.78,18.93-21.61,37.84-32.43,56.75c-2.36,4.13-4.71,8.26-7.14,12.54c-3.09-1.4-6.14-2.8-8.92-4.06
			c-0.86,0.66-1.5,1.35-2.29,1.75c-5.29,2.66-10.59,5.3-15.92,7.86c-1.05,0.51-1.48,1.13-1.58,2.27
			c-0.62,7.39-1.28,14.77-2.01,22.14c-0.05,0.55-0.68,1.31-1.21,1.5c-1.04,0.37-1.26,0.91-1.33,1.96c-0.16,2.18,0.47,3.95,1.7,5.75
			c2.97,4.37,5.74,8.89,8.64,13.31c0.27,0.42,0.83,0.81,1.32,0.9c10.79,2.12,21.36,5.06,31.71,8.77c3.41,1.22,6.75,2.64,10.42,4.08
			c-7.87,2.08-13.89,6.52-19.57,11.49c-9.9,8.66-17.84,18.98-24.81,30.04c-3.8,6.04-7.19,12.33-10.72,18.54
			c-0.43,0.76-0.89,1.01-1.73,1.01c-21.16-0.02-42.31-0.01-63.47-0.01c-4.19,0-8.38-0.06-12.57,0.03c-1.2,0.02-1.75-0.4-2.28-1.41
			c-6.73-12.89-14.36-25.19-23.77-36.32c-6.49-7.68-13.58-14.73-22.42-19.74c-2.6-1.47-5.43-2.54-8.17-3.79
			c2.43-0.98,5.07-2.09,7.75-3.11c10.73-4.09,21.79-7.06,33.02-9.39c1.25-0.26,1.97-0.66,2.64-1.75c2.95-4.77,5.96-9.51,9.11-14.15
			c1.2-1.77,0.46-3.59,0.66-5.38c0.02-0.19-0.58-0.58-0.94-0.65c-1.2-0.23-1.37-0.99-1.46-2.06c-0.64-7.33-1.33-14.66-2.09-21.98
			c-0.07-0.64-0.62-1.49-1.18-1.77c-5.66-2.87-11.37-5.63-17.05-8.47c-0.51-0.26-0.86-0.84-1.45-1.44c-2.77,1.26-5.83,2.65-9.01,4.1
			c-2.2-3.83-4.38-7.63-6.55-11.43c-7.5-13.13-15-26.26-22.5-39.39c-3.52-6.15-7.06-12.29-10.51-18.48
			c-0.35-0.62-0.44-1.63-0.2-2.31c6.02-17.69,12.1-35.37,18.16-53.05c3.68-10.74,7.36-21.48,11.04-32.22
			c0.05-0.13,0.12-0.26,0.3-0.6c2.01,3.21,3.95,6.27,5.86,9.35c3.44,5.53,6.89,11.04,10.27,16.61c0.37,0.61,0.56,1.63,0.33,2.28
			c-4.68,13.08-9.43,26.13-14.17,39.19c-1.78,4.91-3.59,9.82-5.32,14.75c-0.22,0.62-0.31,1.51-0.03,2.06
			c7.2,14.01,14.46,28,21.72,41.99c0.1,0.18,0.24,0.34,0.45,0.63c3.86-1.69,7.73-3.36,11.57-5.08c1.37-0.61,3.23-1.04,3.85-2.13
			c0.61-1.06-0.06-2.87-0.2-4.34c-0.73-7.85-1.45-15.71-2.21-23.56c-0.9-9.38-1.85-18.75-2.76-28.13c-0.56-5.8-1.05-11.6-1.66-17.39
			c-0.25-2.41,0.9-4.32,1.97-6.23c4.75-8.44,11.91-14.26,20.65-18.12c4.28-1.89,8.8-3.2,13.43-4.85c1.89,5.73,3.67,11.11,5.51,16.65
			c1.68-1.41,3.21-2.95,4.98-4.11c3-1.95,6.12-3.73,9.27-5.43c0.66-0.36,1.77-0.29,2.53-0.01c5.04,1.89,9.24,5.08,13.14,8.72
			c0.19,0.18,0.38,0.37,0.58,0.54c0.08,0.06,0.19,0.09,0.5,0.24c1.78-5.4,3.55-10.77,5.37-16.31c14.7,3.52,27.31,9.87,34.96,23.73
			c1.59,2.87,1.24,5.69,0.97,8.61c-0.46,5.11-1,10.22-1.49,15.33c-0.72,7.48-1.45,14.97-2.16,22.45
			c-0.58,6.11-1.12,12.23-1.69,18.35c-0.4,4.32-0.8,8.64-1.25,12.96c-0.1,0.99,0.16,1.47,1.14,1.88
			C359.17,322.8,363.89,324.92,368.76,327.07z M302.16,327.21c-2.43,2.23-0.81,5.2-2.05,7.52c-0.75-0.13-1.59-0.27-2.78-0.48
			c1.04,1.99,1.82,3.65,2.76,5.23c0.92,1.54,3.06,1.54,4.17,0.11c0.61-0.79,1.24-1.55,1.99-2.49c1.1,1.2,2.1,2.28,3.31,3.59
			c-0.11-1.17-0.19-2.06-0.28-2.96c0.16-0.01,0.32-0.03,0.48-0.04c0.11,1.22,0.76,2.82,0.22,3.59c-1.34,1.9-3.27,3.28-5.93,2.21
			c0.23,1.82,0.67,3.44,0.54,5.02c-0.06,0.81-1,1.89-1.8,2.2c-0.61,0.24-1.86,0.04-2.06-1.44c-0.28-2.15-0.92-4.26-1.42-6.45
			c-3.92,2.96-4.89,4.78-5.07,9.49c0.49-0.31,1.01-0.52,1.36-0.89c1.26-1.34,2.5-1.2,4.08-0.45c1.12,0.53,2.77,0.98,3.76,0.53
			c3.39-1.54,6.28-1.21,9.18,1.07c2.24,1.76,5.3,2.38,6.99,4.94c0.2-0.48,0.41-0.96,0.61-1.45c0.18,0.04,0.37,0.08,0.55,0.12
			c-0.13,1-0.27,2-0.41,3.08c-0.73-0.61-1.07-1.02-1.51-1.24c-2.11-1.07-4.22-2.15-6.39-3.11c-1.33-0.59-2.74-1.27-4.14-1.35
			c-3.15-0.2-6.32-0.02-9.48-0.07c-1.04-0.02-1.41,0.34-1.37,1.37c0.09,2.3,1.9,3.87,4.21,3.66c1.6-0.15,3.26-0.44,4.99,0.92
			c-1.17-0.07-1.95-0.21-2.72-0.13c-0.8,0.08-1.79,0.12-2.35,0.59c-3.1,2.62-5.76,5.64-7.41,9.39c-0.65,1.48-0.94,3.11-1.49,4.99
			c0.67-0.22,0.82-0.25,0.96-0.32c7.39-3.67,17.26-2.67,22.8,3.9c0.29,0.35,0.91,0.69,1.31,0.63c1.32-0.22,2.6-0.63,4.38-1.09
			c-1.24-2.93-2.36-5.58-3.43-8.11c0.34,0.19,0.95,0.41,1.41,0.81c1.18,1.01,1.94,0.43,2.51-0.63c0.6-1.12,1.2-2.26,1.58-3.46
			c0.82-2.57,1.92-5.07,1.62-7.93c-0.14-1.37,0.35-2.82,0.56-4.23c0.15,0.02,0.29,0.04,0.44,0.07c-0.12,1.34-0.24,2.67-0.35,4.01
			c0.13,0.03,0.26,0.06,0.39,0.09c0.66-2.47,1.33-4.93,1.99-7.4c0.16,0.05,0.33,0.09,0.49,0.14c-0.14,0.49-0.31,0.97-0.41,1.47
			c-0.1,0.51-0.13,1.03-0.19,1.55c1.95-4.32,2.07-4.51,3.58-5.33c-0.5,0.9,1.1-1.04,3.23-1.89c0.21-0.08,0.39-0.51,0.39-0.78
			c0.03-2.57,0.02-5.13,0.02-7.82c-0.73,0.16-1.26,0.23-1.75,0.38c-5.1,1.59-10.22,3.15-15.3,4.8c-1.16,0.38-1.88,0.23-2.74-0.71
			c-3.23-3.54-6.58-6.98-9.9-10.47c-0.16,0.17-0.25,0.3-0.37,0.4c-0.11,0.1-0.23,0.17-0.67,0.47
			C306.71,329.26,303.34,329.13,302.16,327.21z M342.03,389.26c3.7-0.71,3.9-0.93,4.15-3.84c0.83-9.42,1.68-18.84,2.54-28.25
			c0.3-3.31,0.67-6.62,0.99-9.93c0.46-4.79,0.9-9.58,1.36-14.37c0.6-6.32,1.22-12.63,1.81-18.95c0.46-4.9,0.88-9.8,1.35-14.7
			c0.6-6.27,1.24-12.53,1.83-18.8c0.48-5.05,0.87-10.12,1.35-15.17c0.58-6.05,1.2-12.1,1.83-18.15c0.2-1.86-0.05-3.64-1.07-5.18
			c-1.92-2.9-3.71-5.95-6.01-8.53c-5.72-6.37-13.02-10.36-21.09-12.99c-2.17-0.71-4.38-1.29-6.56-1.93
			c-0.09,0.17-0.18,0.34-0.28,0.51c0.45,0.33,0.85,0.73,1.34,0.97c2.04,1,4.14,1.89,6.13,2.97c0.47,0.26,0.9,1.12,0.88,1.69
			c-0.28,9.95-0.65,19.89-0.96,29.84c-0.02,0.51,0.18,1.26,0.55,1.51c2.16,1.5,4.4,2.88,6.26,4.07c0.35-1.84,0.46-3.98,1.18-5.89
			c1.78-4.69,1.49-9.39,0.82-14.2c-0.58-4.11-0.8-8.28-1.17-12.44c0.27,0,0.4-0.04,0.47,0.01c6.08,3.94,11.57,8.56,16.03,14.31
			c0.34,0.44,0.48,1.17,0.43,1.74c-0.52,5.64-1.12,11.27-1.66,16.9c-1.09,11.33-2.15,22.65-3.25,33.98
			c-0.94,9.69-1.91,19.38-2.87,29.07c-1.03,10.32-2.08,20.64-3.1,30.96c-0.86,8.74-1.71,17.49-2.55,26.23
			C342.51,383.54,342.28,386.38,342.03,389.26z M396.07,322.46c0.17,0.02,0.35,0.05,0.52,0.07c2.85-5,5.7-9.99,8.54-14.99
			c0.2-0.36,0.39-0.78,0.42-1.18c0.42-5.22,1.04-10.44,1.15-15.66c0.21-10.33,0.14-20.68,0.15-31.01c0-0.83-0.1-1.7-0.36-2.48
			c-2.13-6.35-4.3-12.69-6.47-19.02c-0.29-0.84-0.61-1.67-0.91-2.51c-0.14,0.03-0.28,0.05-0.42,0.08
			C397.81,264.66,396.94,293.56,396.07,322.46z M391.83,282.53c0.09-0.02,0.18-0.03,0.27-0.05c0.42-5.54,0.92-11.08,1.24-16.62
			c0.23-3.85,0.56-7.73,0.24-11.55c-0.61-7.37-1.68-14.7-2.49-22.06c-0.77-7-1.43-14-2.19-21c-0.32-2.97-0.77-5.93-1.22-9.27
			c-1.36,2.15-2.53,3.96-3.64,5.79c-0.2,0.34-0.23,0.82-0.22,1.23c0.21,7.51,0.19,15.05,0.71,22.54
			c0.76,10.92,1.92,21.81,2.88,32.72c0.21,2.37-0.14,4.86,0.46,7.11C388.9,275.17,390.48,278.82,391.83,282.53z M236.27,327.1
			c-0.15-0.39-0.2-0.6-0.29-0.78c-7.23-13.93-14.46-27.86-21.67-41.8c-0.23-0.45-0.35-1.13-0.19-1.58
			c2.24-6.32,4.53-12.61,6.81-18.91c4.3-11.86,8.61-23.71,12.86-35.58c0.21-0.58,0.11-1.48-0.21-2
			c-3.49-5.74-7.04-11.43-10.58-17.13c-1.46-2.35-2.95-4.69-4.43-7.05c-1.08,1.39-0.29,2.42,0.33,3.47
			c4.11,6.97,8.2,13.94,12.35,20.89c0.78,1.31,1.05,2.46,0.27,3.92c-0.82,1.52-1.34,3.22-1.98,4.84
			c-5.97,15.07-11.93,30.15-17.94,45.21c-0.45,1.13-0.41,2.01,0.12,3.09c5.85,11.91,11.64,23.84,17.46,35.77
			c1.48,3.03,2.99,6.05,4.53,9.17C234.59,328.08,235.4,327.6,236.27,327.1z M310.7,276.05c-0.47-2.69-2.24-4.34-4.86-4.6
			c2.83,1.65,2.9,1.77,3.71,5.8c0.38,0.07,0.78,0.16,1.2,0.21c6.15,0.73,12.29,1.49,18.44,2.17c1.23,0.14,1.76,0.41,1.6,1.83
			c-0.2,1.71-0.05,3.46-0.05,5.23c1.21,0.23,2.32,0.44,3.94,0.74c-1.08,0.96-1.76,1.84-2.65,2.3c-1.53,0.8-1.67,2.04-1.72,3.54
			c-0.19,5.26,0.21,10.56-1.04,15.92c1.56,0.2,3.17,0.4,4.79,0.62c2.27,0.31,2.41,0.23,3.12-1.92c0.08-0.25,0.12-0.51,0.17-0.77
			c0.62-3.7,1.29-7.4,1.83-11.11c0.37-2.54,0.49-5.08-1.16-7.33c-0.23-0.32-0.31-0.79-0.36-1.2c-0.31-2.56-0.6-5.12-0.92-7.85
			c-4.22-0.65-8.54-1.36-12.87-1.96C319.52,277.08,315.16,276.6,310.7,276.05z M359.8,324.1c-0.06,1.37-0.09,2.58-0.19,3.78
			c-0.08,0.91,0.22,1.45,1.09,1.84c2.02,0.93,3.96,2.02,5.99,2.92c1.02,0.46,1.38,1.06,1.37,2.18c-0.06,5.41-0.04,10.81,0,16.22
			c0,0.51,0.19,1.27,0.54,1.47c1.35,0.77,2.8,1.36,4.25,2.04c1.23-4.59,1.42-31.31,0.26-33.87c-1.33,2.49-2.63,4.95-3.97,7.47
			C366,326.79,363.01,325.49,359.8,324.1z M391.79,284.64c-2.16,4.15-4.46,8.01-4.57,13.05c-0.29,12.47-1.16,24.92-1.8,37.38
			c-0.12,2.34-0.24,4.68-0.36,7.02c1.3-1.7,2.64-3.4,3.11-5.32c2.25-9.25,2.19-18.75,2.71-28.18c0.09-1.58,0.2-3.16,0.32-4.74
			c0.19-2.68,0.5-5.36,0.57-8.04C391.87,292.13,391.79,288.43,391.79,284.64z M336.84,277.15c0.91-3.73,1.96-8.04,3.12-12.81
			c2.15,2.43,3.98,4.49,5.8,6.56c0.07-0.64,0-1.23-0.31-1.66c-6.86-9.6-16.05-15.41-27.8-17.01c-0.85-0.12-1.21-0.38-1.4-1.31
			c-0.36-1.73-0.78-3.53-1.59-5.08c-1.36-2.63-3.73-4.04-6.76-4.36c5.68,1.82,7.59,5.89,6.72,11.51c5.53,0.92,10.57,2.57,15.41,4.9
			c1.16,0.56,1.62,1.2,1.52,2.53c-0.22,3.01-0.28,6.03-0.33,9.04c-0.01,0.61,0.19,1.36,0.57,1.83
			C333.51,273.38,335.32,275.41,336.84,277.15z M352.8,326.91c-0.8,2.43-0.74,2.66,1.24,3.58c3.12,1.44,6.28,2.8,9.4,4.24
			c2.02,0.93,2.16,1.31,1.7,3.69c-4.33-1.66-8.65-3.31-13.01-4.98c-0.14,0.64-0.25,1.1-0.33,1.56c-0.36,2.12-0.29,2.25,1.77,2.9
			c3.63,1.14,7.26,2.3,10.92,3.35c0.93,0.27,1.28,0.73,1.36,1.63c0.41,4.7-0.06,9.18-3.23,13.07c1.38-0.51,2.69-1.05,3.9-1.76
			c0.35-0.2,0.58-0.88,0.58-1.34c0.04-5.94,0.04-11.88-0.01-17.82c0-0.47-0.34-1.17-0.73-1.37
			C361.9,331.39,357.4,329.19,352.8,326.91z M330.42,401.38c1.43,6.48,2.84,12.9,4.31,19.56c2.25-0.92,4.17-1.71,6.08-2.5
			c-2.17-6.42-5.12-12.34-5.77-19.08C333.46,400.05,331.98,400.7,330.42,401.38z M326.3,381.04c1.35,4.61-0.32,9.1-0.37,13.73
			c2.75-0.9,5.29-1.8,7.87-2.56c1.09-0.32,1.37-0.82,1.14-1.92c-0.27-1.29-0.32-2.63-0.49-3.94c-0.29-2.17-0.61-4.34-0.94-6.63
			C331.02,380.18,328.79,380.59,326.3,381.04z M311.23,406.1c1.13,6.66,2.32,13.71,3.51,20.78c1.4-0.13,1.78-0.91,1.47-2.35
			c-0.69-3.2-1.26-6.42-1.89-9.63c-0.69-3.5-1.39-7.01-2.1-10.59c-5.89,0-11.66-0.01-17.43,0.02c-0.38,0-0.76,0.35-1.14,0.54
			c0.06,0.18,0.13,0.36,0.19,0.54C299.49,405.64,305.13,405.86,311.23,406.1z M317.01,405.7c2.02,6.23,3.98,12.29,5.97,18.41
			c0.84-0.21,1.64-0.41,2.59-0.64c-2.43-6.11-4.42-12.2-4.92-18.74C319.26,405.1,318.04,405.42,317.01,405.7z M353.6,410.43
			c-0.18-0.35-0.28-0.59-0.41-0.8c-2.97-4.62-5.94-9.23-8.94-13.83c-0.19-0.29-0.65-0.41-0.99-0.61c0.02,0.41-0.06,0.86,0.08,1.23
			c0.96,2.51,1.89,5.04,2.99,7.49c1.31,2.91,2.78,5.74,4.31,8.87C351.87,411.8,352.72,411.13,353.6,410.43z M334.59,335.62
			c-0.84-1.14-1.48-2.24-2.34-3.12c-2.16-2.21-2.99-4.72-2.05-7.72c0.02-0.07-0.07-0.18-0.16-0.38c-0.95,0.47-1.85,1.02-2.83,1.37
			c-0.97,0.35-1.17,0.91-0.87,1.81c1.05,3.17,2.09,6.35,3.15,9.59C331.31,336.63,332.84,336.16,334.59,335.62z M322.93,339.15
			c1.54-0.47,3.34-1.01,5.15-1.56c-1.01-3.68-1.96-7.12-2.9-10.55c-2.14,0.55-2.2,0.55-2.23,2.36
			C322.89,332.6,322.93,335.81,322.93,339.15z M271.74,287.85c-0.11,0.16-0.22,0.31-0.33,0.47c4.23,3.57,9.06,6.14,14.25,8.1
			c9.25,3.49,18.6,3.38,28.02,0.83c-0.36-0.08-0.73-0.13-1.08-0.08c-7.18,1.09-14.35,0.99-21.47-0.38
			c-6.81-1.32-13.31-3.44-18.47-8.43C272.41,288.13,272.05,288.02,271.74,287.85z M411.5,271.03c-0.18,0.01-0.36,0.02-0.55,0.03
			c-1.22,8.8-0.64,17.61-0.18,26.45c0.28-0.51,0.51-1.04,0.53-1.58c0.28-6.82,0.57-13.65,0.75-20.47
			C412.09,273.99,411.7,272.51,411.5,271.03z M305.41,317.27c0.93,2.19-0.48,3.27-1.84,4.43c-0.75,0.64-0.98,4.76-0.27,5.4
			c1.34,1.2,2.78,2.29,4.53,3.7c-0.99-2.54-1.71-4.64-2.64-6.65c-0.48-1.04-0.18-1.58,0.51-2.31c1.3-1.37,2.48-2.87,3.92-4.57
			C307.96,317.27,306.81,317.27,305.41,317.27z M318.27,237.09c0.3-1.12,0.1-2.3-1.11-3.23c-2.85-2.18-5.61-4.46-8.55-6.52
			c-1.49-1.05-3.26-1.69-4.91-2.51c-0.01,0.05-0.02,0.11-0.03,0.16C308.53,229.02,313.39,233.05,318.27,237.09z M279.38,219.35
			c2.57,5.67,5.14,11.34,7.71,17.01c0.15-0.06,0.29-0.12,0.44-0.18c-0.24-0.58-0.51-1.15-0.71-1.74c-1.56-4.7-3.12-9.4-4.64-14.11
			C281.55,218.35,281.42,218.27,279.38,219.35z M321.17,381.98c-0.18,2.56-0.4,4.86-0.48,7.16c-0.08,2.37-0.02,4.74-0.02,7.32
			c1.07-0.34,1.84-0.59,2.41-0.78c-0.36-2.46-0.95-4.75-0.95-7.04c-0.01-2.25,0.58-4.5,0.93-6.9
			C322.24,381.85,321.67,381.92,321.17,381.98z M309.3,316.58c0.04-0.18,0.07-0.36,0.11-0.54c-0.64-0.12-1.28-0.29-1.93-0.34
			c-0.76-0.06-1.53-0.01-2.31-0.01c0-1.16,0-2.04,0-2.88c0.65-0.2,1.2-0.36,1.76-0.53c-2.06-4.4-1.64-3.89-4.03-3.35
			c2.12-0.14,2.41,1.39,2.89,2.92c-0.66,0.17-1.2,0.32-1.9,0.5c0.14,1.46,0.27,2.85,0.4,4.23
			C306.1,316.58,307.7,316.58,309.3,316.58z M278.85,322.62c0,0.74,0,1.39,0,2.16c1.08-0.15,2.26,0.6,2.91-0.85
			c0.05-0.11,0.92-0.05,0.95,0.07c0.47,1.57,1.61,0.57,2.44,0.81c0-0.82,0-1.52,0-2.18C283,322.62,280.95,322.62,278.85,322.62z
			 M320.89,322.62c0,0.82,0,1.48,0,2.25c0.98-0.23,2.12,0.5,2.58-0.94c0.03-0.08,0.9-0.08,0.95,0.05c0.64,1.61,1.79,0.54,2.71,0.71
			c0-0.76,0-1.38,0-2.07C325.01,322.62,322.98,322.62,320.89,322.62z M302.97,252.35c-2.99-0.4-5.77-0.46-6.78-3.64
			c-0.89-2.82,0.32-5.1,2.1-7.3c-2.1-0.07-2.4,1.58-2.89,2.79c-1,2.49-0.35,4.82,1.47,6.71
			C298.43,252.54,300.38,253.07,302.97,252.35z M333.36,378.75c-0.32-1.37-3.33-1.14-8.26,0.62c0.8,0.33,1.25,0.71,1.62,0.65
			C328.9,379.66,331.07,379.2,333.36,378.75z M335.44,311.89c0.03-0.27,0.06-0.53,0.09-0.8c-2.31-0.32-4.58-1.13-6.97-0.37
			C330.85,311.25,333.1,312.02,335.44,311.89z M333.19,376.87c-0.06-0.29-0.11-0.57-0.17-0.86c-2.67,0.61-5.35,1.23-8.02,1.84
			c0.05,0.23,0.1,0.45,0.15,0.68C327.83,377.98,330.51,377.42,333.19,376.87z M321.85,379.6c-0.54,0.36-0.95,0.64-1.36,0.92
			c0.24,0.19,0.55,0.57,0.72,0.52c0.51-0.17,0.97-0.5,1.46-0.77C322.44,380.08,322.21,379.9,321.85,379.6z"/>
		<path class="st2" d="M302.16,327.21c1.19,1.92,4.56,2.05,3.13,5.6c0.43-0.3,0.56-0.37,0.67-0.47c0.12-0.1,0.22-0.23,0.37-0.4
			c3.32,3.5,6.67,6.93,9.9,10.47c0.86,0.94,1.58,1.09,2.74,0.71c5.08-1.65,10.19-3.22,15.3-4.8c0.5-0.15,1.02-0.22,1.75-0.38
			c0,2.69,0.01,5.26-0.02,7.82c0,0.27-8.42,9.78-9.09,12.24c-0.13-0.03-1.83,5.42-2.66,7.99c-0.38,1.2-0.99,2.34-1.58,3.46
			c-0.57,1.06-1.33,1.64-2.51,0.63c-0.46-0.4-1.07-0.62-1.41-0.81c1.07,2.53,2.19,5.18,3.43,8.11c-1.78,0.46-3.06,0.87-4.38,1.09
			c-0.4,0.07-1.02-0.28-1.31-0.63c-5.53-6.57-15.4-7.57-22.8-3.9c-0.14,0.07-0.29,0.1-0.96,0.32c0.55-1.88,0.84-3.51,1.49-4.99
			c1.65-3.75,4.31-6.78,7.41-9.39c0.56-0.47,1.54-0.51,2.35-0.59c0.76-0.07,1.55,0.07,2.72,0.13c-1.73-1.37-3.4-1.07-4.99-0.92
			c-2.31,0.21-4.12-1.36-4.21-3.66c-0.04-1.04,0.33-1.39,1.37-1.37c3.16,0.05,6.33-0.13,9.48,0.07c1.41,0.09,2.81,0.77,4.14,1.35
			c2.17,0.96,4.28,2.04,6.39,3.11c0.44,0.22,0.78,0.63,1.51,1.24c0.14-1.07-5.5-4.93-7.74-6.69c-2.9-2.27-5.79-2.61-9.18-1.07
			c-0.99,0.45-2.64,0-3.76-0.53c-1.58-0.75-2.82-0.9-4.08,0.45c-0.35,0.37-0.87,0.58-1.36,0.89c0.18-4.71,1.15-6.53,5.07-9.49
			c0.5,2.18,1.14,4.29,1.42,6.45c0.2,1.48,1.45,1.67,2.06,1.44c0.79-0.31,1.73-1.39,1.8-2.2c0.13-1.58-0.31-3.2-0.54-5.02
			c2.66,1.07,4.59-0.31,5.93-2.21c0.54-0.77-0.11-2.37-0.22-3.59c-0.16,0.01-0.32,0.03-0.48,0.04c0.08,0.89,0.17,1.79,0.28,2.96
			c-1.21-1.31-2.21-2.4-3.31-3.59c-0.75,0.93-1.38,1.7-1.99,2.49c-1.11,1.43-3.25,1.44-4.17-0.11c-0.94-1.57-1.72-3.24-2.76-5.23
			c1.19,0.2,2.02,0.35,2.78,0.48C301.35,332.41,299.73,329.44,302.16,327.21z"/>
		<path class="st2" d="M342.03,389.26c0.25-2.88,0.47-5.72,0.74-8.55c0.84-8.74,1.68-17.49,2.55-26.23
			c1.02-10.32,2.07-20.64,3.1-30.96c0.97-9.69,1.94-19.38,2.87-29.07c1.1-11.33,2.15-22.65,3.25-33.98
			c0.54-5.64,1.14-11.27,1.66-16.9c0.05-0.57-0.09-1.31-0.43-1.74c-4.46-5.75-9.95-10.36-16.03-14.31c-0.07-0.05-0.2-0.01-0.47-0.01
			c0.38,4.16,0.6,8.32,1.17,12.44c0.68,4.82,0.97,9.51-0.82,14.2c-0.72,1.91-0.83,4.05-1.18,5.89c-1.86-1.19-4.1-2.57-6.26-4.07
			c-0.37-0.25-0.56-1-0.55-1.51c0.31-9.95,0.67-19.89,0.96-29.84c0.02-0.57-0.41-1.43-0.88-1.69c-1.99-1.08-4.09-1.97-6.13-2.97
			c-0.49-0.24-0.9-0.64-1.34-0.97c0.09-0.17,0.18-0.34,0.28-0.51c2.19,0.64,4.4,1.23,6.56,1.93c8.07,2.63,15.37,6.62,21.09,12.99
			c2.31,2.57,4.09,5.63,6.01,8.53c1.02,1.54,1.27,3.32,1.07,5.18c-0.64,6.05-1.25,12.1-1.83,18.15c-0.48,5.05-0.88,10.12-1.35,15.17
			c-0.59,6.27-1.24,12.53-1.83,18.8c-0.47,4.9-0.89,9.8-1.35,14.7c-0.59,6.32-1.21,12.63-1.81,18.95c-0.46,4.79-0.9,9.58-1.36,14.37
			c-0.32,3.31-0.69,6.62-0.99,9.93c-0.86,9.42-1.7,18.83-2.54,28.25C345.93,388.33,345.73,388.55,342.03,389.26z"/>
		<path class="st2" d="M396.07,322.46c0.87-28.9,1.74-57.8,2.61-86.71c0.14-0.03,0.28-0.05,0.42-0.08c0.31,0.84,0.63,1.67,0.91,2.51
			c2.17,6.34,4.34,12.67,6.47,19.02c0.26,0.78,0.37,1.65,0.36,2.48c-0.01,10.34,0.06,20.68-0.15,31.01
			c-0.11,5.23-0.73,10.44-1.15,15.66c-0.03,0.4-0.22,0.82-0.42,1.18c-2.84,5-5.69,10-8.54,14.99
			C396.41,322.51,396.24,322.48,396.07,322.46z"/>
		<path class="st2" d="M391.83,282.53c-1.35-3.71-2.93-7.36-3.95-11.16c-0.61-2.25-0.25-4.74-0.46-7.11
			c-0.95-10.91-2.12-21.8-2.88-32.72c-0.52-7.49-0.5-15.02-0.71-22.54c-0.01-0.41,0.02-0.9,0.22-1.23c1.11-1.84,2.28-3.64,3.64-5.79
			c0.44,3.34,0.89,6.3,1.22,9.27c0.76,7,1.42,14,2.19,21c0.81,7.35,1.88,14.69,2.49,22.06c0.32,3.82-0.01,7.71-0.24,11.55
			c-0.32,5.55-0.82,11.08-1.24,16.62C392.01,282.49,391.92,282.51,391.83,282.53z"/>
		<path class="st2" d="M236.27,327.1c-0.87,0.51-1.68,0.98-2.58,1.5c-1.54-3.12-3.05-6.14-4.53-9.17
			c-5.82-11.92-11.61-23.86-17.46-35.77c-0.53-1.08-0.57-1.96-0.12-3.09c6.01-15.06,11.97-30.14,17.94-45.21
			c0.64-1.62,1.16-3.31,1.98-4.84c0.79-1.46,0.52-2.61-0.27-3.92c-4.14-6.95-8.24-13.92-12.35-20.89c-0.62-1.05-1.41-2.07-0.33-3.47
			c1.48,2.36,2.97,4.7,4.43,7.05c3.54,5.7,7.1,11.4,10.58,17.13c0.32,0.53,0.42,1.42,0.21,2c-4.25,11.87-8.56,23.72-12.86,35.58
			c-2.28,6.3-4.58,12.6-6.81,18.91c-0.16,0.45-0.04,1.13,0.19,1.58c7.21,13.94,14.44,27.87,21.67,41.8
			C236.07,326.5,236.12,326.71,236.27,327.1z"/>
		<path class="st2" d="M310.7,276.05c4.46,0.55,8.82,1.03,13.16,1.62c4.34,0.6,8.65,1.31,12.87,1.96c0.32,2.73,0.6,5.29,0.92,7.85
			c0.05,0.41,0.13,0.88,0.36,1.2c1.65,2.25,1.54,4.79,1.16,7.33c-0.55,3.71-1.22,7.41-1.83,11.11c-0.04,0.26-0.09,0.52-0.17,0.77
			c-0.71,2.15-0.84,2.23-3.12,1.92c-1.61-0.22-3.23-0.42-4.79-0.62c1.25-5.36,0.85-10.66,1.04-15.92c0.05-1.5,0.19-2.73,1.72-3.54
			c0.89-0.47,1.57-1.34,2.65-2.3c-1.62-0.31-2.73-0.52-3.94-0.74c0-1.78-0.15-3.53,0.05-5.23c0.17-1.42-0.37-1.69-1.6-1.83
			c-6.15-0.68-12.3-1.43-18.44-2.17c-0.41-0.05-0.82-0.14-1.2-0.21c-0.81-4.03-0.88-4.14-3.71-5.8
			C308.46,271.71,310.23,273.36,310.7,276.05z"/>
		<path class="st2" d="M359.8,324.1c3.2,1.39,6.19,2.69,9.33,4.05c1.34-2.52,2.64-4.97,3.97-7.47c1.16,2.56,0.97,29.28-0.26,33.87
			c-1.44-0.67-2.9-1.26-4.25-2.04c-0.35-0.2-0.53-0.96-0.54-1.47c-0.04-5.41-0.05-10.81,0-16.22c0.01-1.12-0.35-1.72-1.37-2.18
			c-2.03-0.91-3.97-2-5.99-2.92c-0.86-0.4-1.16-0.94-1.09-1.84C359.72,326.68,359.74,325.47,359.8,324.1z"/>
		<path class="st2" d="M391.79,284.64c0,3.79,0.07,7.49-0.02,11.18c-0.07,2.68-0.38,5.36-0.57,8.04c-0.11,1.58-0.23,3.16-0.32,4.74
			c-0.52,9.43-0.46,18.93-2.71,28.18c-0.47,1.92-1.81,3.62-3.11,5.32c0.12-2.34,0.24-4.68,0.36-7.02
			c0.64-12.46,1.51-24.92,1.8-37.38C387.33,292.65,389.63,288.78,391.79,284.64z"/>
		<path class="st2" d="M336.84,277.15c-1.51-1.74-3.33-3.77-5.04-5.87c-0.38-0.46-0.58-1.21-0.57-1.83
			c0.04-3.01,0.11-6.03,0.33-9.04c0.1-1.33-0.36-1.97-1.52-2.53c-4.83-2.33-9.87-3.99-15.41-4.9c0.86-5.63-1.04-9.7-6.72-11.51
			c3.03,0.32,5.4,1.72,6.76,4.36c0.81,1.56,1.23,3.35,1.59,5.08c0.19,0.93,0.55,1.2,1.4,1.31c11.75,1.6,20.94,7.41,27.8,17.01
			c0.3,0.43,0.38,1.02,0.31,1.66c-1.82-2.06-3.64-4.12-5.8-6.56C338.8,269.11,337.74,273.42,336.84,277.15z"/>
		<path class="st2" d="M352.8,326.91c4.6,2.27,9.1,4.47,13.57,6.75c0.39,0.2,0.72,0.9,0.73,1.37c0.05,5.94,0.04,11.88,0.01,17.82
			c0,0.46-0.24,1.14-0.58,1.34c-1.21,0.71-2.52,1.25-3.9,1.76c3.17-3.88,3.64-8.36,3.23-13.07c-0.08-0.9-0.42-1.36-1.36-1.63
			c-3.66-1.05-7.29-2.21-10.92-3.35c-2.06-0.65-2.13-0.78-1.77-2.9c0.08-0.47,0.19-0.93,0.33-1.56c4.36,1.67,8.68,3.32,13.01,4.98
			c0.46-2.38,0.31-2.76-1.7-3.69c-3.12-1.44-6.28-2.8-9.4-4.24C352.06,329.58,352,329.35,352.8,326.91z"/>
		<path class="st2" d="M330.42,401.38c1.56-0.68,3.04-1.33,4.62-2.03c0.65,6.74,3.6,12.66,5.77,19.08c-1.92,0.79-3.83,1.57-6.08,2.5
			C333.26,414.28,331.85,407.86,330.42,401.38z"/>
		<path class="st2" d="M326.3,381.04c2.49-0.45,4.72-0.86,7.21-1.31c0.33,2.29,0.65,4.46,0.94,6.63c0.18,1.31,0.22,2.65,0.49,3.94
			c0.23,1.1-0.05,1.6-1.14,1.92c-2.58,0.76-5.12,1.66-7.87,2.56C325.98,390.14,327.65,385.66,326.3,381.04z"/>
		<path class="st2" d="M311.23,406.1c-6.11-0.24-11.74-0.46-17.38-0.68c-0.06-0.18-0.13-0.36-0.19-0.54
			c0.38-0.19,0.76-0.54,1.14-0.54c5.77-0.04,11.54-0.02,17.43-0.02c0.71,3.58,1.41,7.08,2.1,10.59c0.63,3.21,1.2,6.43,1.89,9.63
			c0.31,1.45-0.07,2.22-1.47,2.35C313.55,419.81,312.36,412.76,311.23,406.1z"/>
		<path class="st2" d="M317.01,405.7c1.04-0.28,2.25-0.6,3.64-0.97c0.5,6.54,2.49,12.62,4.92,18.74c-0.95,0.23-1.75,0.43-2.59,0.64
			C320.99,417.98,319.03,411.93,317.01,405.7z"/>
		<path class="st2" d="M353.6,410.43c-0.88,0.7-1.73,1.37-2.96,2.35c-1.53-3.12-3-5.96-4.31-8.87c-1.1-2.45-2.03-4.98-2.99-7.49
			c-0.14-0.37-0.06-0.82-0.08-1.23c0.34,0.2,0.8,0.32,0.99,0.61c3,4.6,5.97,9.21,8.94,13.83
			C353.33,409.85,353.42,410.08,353.6,410.43z"/>
		<path class="st2" d="M334.59,335.62c-1.75,0.54-3.28,1.01-5.09,1.56c-1.06-3.24-2.1-6.42-3.15-9.59c-0.3-0.91-0.11-1.46,0.87-1.81
			c0.98-0.36,1.89-0.9,2.83-1.37c0.09,0.2,0.18,0.31,0.16,0.38c-0.94,3.01-0.12,5.51,2.05,7.72
			C333.11,333.38,333.75,334.48,334.59,335.62z"/>
		<path class="st2" d="M322.93,339.15c0-3.34-0.04-6.54,0.01-9.75c0.03-1.81,0.1-1.81,2.23-2.36c0.94,3.43,1.89,6.87,2.9,10.55
			C326.27,338.13,324.47,338.68,322.93,339.15z"/>
		<path class="st2" d="M271.74,287.85c0.31,0.17,0.68,0.27,0.92,0.51c5.16,4.99,11.66,7.11,18.47,8.43
			c7.12,1.37,14.29,1.47,21.47,0.38c0.35-0.05,0.72-0.01,1.08,0.08c-9.42,2.55-18.77,2.66-28.02-0.83
			c-5.19-1.96-10.02-4.53-14.25-8.1C271.52,288.16,271.63,288.01,271.74,287.85z"/>
		<path class="st2" d="M411.5,271.03c0.19,1.48,0.59,2.96,0.55,4.43c-0.18,6.83-0.47,13.65-0.75,20.47
			c-0.02,0.54-0.25,1.07-0.53,1.58c-0.46-8.84-1.04-17.66,0.18-26.45C411.14,271.05,411.32,271.04,411.5,271.03z"/>
		<path class="st2" d="M305.41,317.27c1.4,0,2.55,0,4.21,0c-1.44,1.7-2.61,3.2-3.92,4.57c-0.7,0.73-0.99,1.28-0.51,2.31
			c0.92,2.01,1.65,4.11,2.64,6.65c-1.75-1.42-3.19-2.5-4.53-3.7c-0.71-0.64-0.48-4.76,0.27-5.4
			C304.93,320.54,306.34,319.46,305.41,317.27z"/>
		<path class="st2" d="M318.27,237.09c-4.89-4.05-9.74-8.07-14.6-12.09c0.01-0.05,0.02-0.11,0.03-0.16
			c1.65,0.82,3.42,1.47,4.91,2.51c2.93,2.06,5.7,4.34,8.55,6.52C318.37,234.79,318.57,235.97,318.27,237.09z"/>
		<path class="st2" d="M279.38,219.35c2.04-1.08,2.17-1,2.81,0.98c1.52,4.71,3.08,9.41,4.64,14.11c0.2,0.59,0.47,1.16,0.71,1.74
			c-0.15,0.06-0.29,0.12-0.44,0.18C284.52,230.69,281.95,225.02,279.38,219.35z"/>
		<path class="st2" d="M321.17,381.98c0.51-0.06,1.07-0.13,1.9-0.23c-0.35,2.4-0.93,4.65-0.93,6.9c0.01,2.29,0.59,4.57,0.95,7.04
			c-0.57,0.18-1.34,0.43-2.41,0.78c0-2.58-0.06-4.95,0.02-7.32C320.77,386.84,320.99,384.54,321.17,381.98z"/>
		<path class="st2" d="M309.3,316.58c-1.6,0-3.2,0-5.02,0c-0.13-1.39-0.26-2.77-0.4-4.23c0.7-0.18,1.23-0.32,1.9-0.5
			c-0.48-1.53-0.77-3.06-2.89-2.92c2.4-0.54,1.98-1.04,4.03,3.35c-0.56,0.17-1.11,0.34-1.76,0.53c0,0.84,0,1.72,0,2.88
			c0.78,0,1.55-0.05,2.31,0.01c0.65,0.05,1.29,0.22,1.93,0.34C309.37,316.22,309.33,316.4,309.3,316.58z"/>
		<path class="st2" d="M278.85,322.62c2.1,0,4.15,0,6.3,0c0,0.66,0,1.36,0,2.18c-0.83-0.24-1.97,0.76-2.44-0.81
			c-0.03-0.12-0.9-0.17-0.95-0.07c-0.65,1.46-1.84,0.7-2.91,0.85C278.85,324.02,278.85,323.36,278.85,322.62z"/>
		<path class="st2" d="M320.89,322.62c2.09,0,4.13,0,6.24,0c0,0.7,0,1.31,0,2.07c-0.91-0.17-2.06,0.89-2.71-0.71
			c-0.05-0.13-0.93-0.13-0.95-0.05c-0.45,1.44-1.6,0.71-2.58,0.94C320.89,324.1,320.89,323.44,320.89,322.62z"/>
		<path class="st2" d="M302.97,252.35c-2.59,0.72-4.53,0.19-6.09-1.44c-1.82-1.9-2.47-4.22-1.47-6.71c0.48-1.21,0.79-2.86,2.89-2.79
			c-1.79,2.2-2.99,4.47-2.1,7.3C297.2,251.89,299.98,251.95,302.97,252.35z"/>
		<path class="st2" d="M333.36,378.75c-2.3,0.45-4.46,0.91-6.64,1.27c-0.37,0.06-0.82-0.31-1.62-0.65
			C330.03,377.6,333.04,377.38,333.36,378.75z"/>
		<path class="st2" d="M335.44,311.89c-2.34,0.14-4.6-0.63-6.88-1.17c2.39-0.76,4.66,0.05,6.97,0.37
			C335.5,311.35,335.47,311.62,335.44,311.89z"/>
		<path class="st2" d="M333.19,376.87c-2.68,0.55-5.36,1.11-8.04,1.66c-0.05-0.23-0.1-0.45-0.15-0.68c2.67-0.61,5.35-1.23,8.02-1.84
			C333.08,376.3,333.13,376.58,333.19,376.87z"/>
		<path class="st2" d="M321.85,379.6c0.36,0.29,0.59,0.48,0.81,0.66c-0.48,0.27-0.94,0.61-1.46,0.77c-0.17,0.05-0.48-0.33-0.72-0.52
			C320.9,380.24,321.32,379.96,321.85,379.6z"/>
	</g>
	<g>
		<path class="st3" d="M145.01,455.89l-18.87-19.7l0.42-0.4c4.82-4.62,13.79-9.9,22.6-9.89c8.8,0.02,14.48,4.28,18.98,8.98
			c4.56,4.76,8.69,10.62,8.37,19.82c-0.16,4.6-1.62,12.73-9.53,20.31c-6.49,6.21-13.95,8.79-20.53,8.71
			c-9.73-0.04-16.2-5.36-20.71-10.07c-3.13-3.27-6.59-7.95-7.68-13.98c-0.78-4.39-0.2-9.39,0.93-13.21l12.39,4
			c-0.81,2.26-1.27,4.99-0.92,7.62c0.4,3.04,1.74,5.63,3.91,7.89c3.48,3.63,7.23,5.17,11.08,5.14c4.43-0.02,8.96-2.08,12.65-5.61
			c4.52-4.33,5.84-8.79,5.91-12.05c0.16-4.6-1.69-7.96-4.6-11c-3.76-3.93-7.13-4.7-8.75-4.85c-0.52-0.07-3.78-0.37-7.44,1.65
			l9.18,9.58L145.01,455.89z"/>
		<path class="st3" d="M104.44,306.98l1.21,20.73l10.61,3.59l0.77,13.16l-56.17-18.92l-0.68-11.6l53.6-24.85l0.77,13.16
			L104.44,306.98z M94.94,311l-18.03,7.83l18.83,5.75L94.94,311z"/>
		<path class="st3" d="M101.36,170.49l36.79,24.6l9.48-14.18l8.91,5.96L140,211.59l-45.69-30.55L101.36,170.49z"/>
		<path class="st3" d="M250.67,114.29l-19.71,6.54l-0.72,11.18l-12.51,4.15l3.73-59.15l11.03-3.66l37.88,45.34l-12.51,4.15
			L250.67,114.29z M244.32,106.15L232.1,90.76l-0.68,19.67L244.32,106.15z"/>
		<path class="st3" d="M388.12,135.09c-5.42,0.64-9.3-0.27-12.39-1.41c-9.51-3.5-14.73-9.12-17.49-14.97
			c-2.99-6.2-3.88-14.25-0.83-22.53c2.99-8.12,8.9-13.67,15.2-16.44c6.19-2.73,13.95-3.29,21.99-0.33c3.4,1.25,7.09,3.4,11.32,7.42
			l-5.07,13.76c-1.6-3.75-4.55-7.91-10.04-9.94c-4.33-1.6-8.32-1.49-12,0.14c-3.89,1.73-7.44,5.16-9.26,10.11
			c-1.97,5.33-1.2,9.92,0.29,13.02c0.68,1.48,3.2,6.1,9.54,8.44c3.09,1.14,7.58,1.83,13.8-0.97L388.12,135.09z"/>
		<path class="st3" d="M500.55,183.64l-37,24.26l-6.96-10.61l37-24.26l-6.55-9.99l8.96-5.87l20.06,30.6l-8.96,5.87L500.55,183.64z"
			/>
		<path class="st3" d="M510.98,345c-5.26-0.41-11.7-1.56-16.87-7.42c-5.02-5.68-5.37-11.82-4.93-17.57
			c0.44-5.75,1.73-11.77,7.56-16.61c6-4.99,12.55-5.15,17.8-4.75l32.46,2.5l-0.97,12.65l-32.13-2.47c-2.38-0.18-6.42-0.33-9.42,2.17
			c-2.55,2.04-3.28,5.04-3.46,7.42c-0.18,2.38,0.08,5.46,2.29,7.86c2.58,2.93,6.6,3.4,8.98,3.58l32.13,2.47l-0.97,12.65L510.98,345z
			"/>
		<path class="st3" d="M462.58,471.16c5.52-0.48,8.12-2.9,9.19-4.04c1.18-1.26,2.46-3,2.27-5.21c-0.04-1.17-0.55-2.43-1.57-3.39
			c-0.96-0.9-1.97-1.28-3.07-1.18c-1.8,0.12-3.46,1.17-7.01,2.92l-3.96,1.94c-2.29,1.13-5.22,2.45-8.19,2.61
			c-4.42,0.27-7.87-1.83-10.22-4.03c-4.15-3.88-6.42-8.7-6.61-12.84c-0.41-7.04,4.07-12.55,6.54-15.2c2.7-2.89,5.49-5.02,9.11-6.37
			c2.94-1.09,7-1.69,9.91-1.79l2.12,11c-1.98,0.07-4.88,0.4-6.56,0.86c-2.43,0.66-4.43,1.84-6.17,3.71
			c-1.13,1.2-2.46,3.11-2.55,5.51c-0.07,1.4,0.39,3.08,1.9,4.48c1.33,1.24,2.67,1.48,4.18,1.32c1.92-0.24,5.13-1.86,6.62-2.61
			l4.24-2.24c2.41-1.25,5.28-2.63,8.42-2.62c4.2-0.03,7.31,2.32,9.23,4.12c3.55,3.32,5.55,7.22,5.77,11.93
			c0.24,5.53-2.12,9.63-5.61,13.37c-2.59,2.77-7.23,6.77-15.12,8.2L462.58,471.16z"/>
	</g>
</g>
</svg>
