<svg width="1080" height="1080" viewBox="0 0 1080 1080" fill="none" xmlns="http://www.w3.org/2000/svg">
<path fill-rule="evenodd" clip-rule="evenodd" d="M769.941 945.658L932 783.571V134H661.697V240.468C780.314 288.43 864 404.692 864 540.5C864 712.142 730.326 852.562 561.404 863.335V945.658H769.941ZM518.596 863.27V945.658H310.671L148 783.571V134H418.914V240.626C300.503 288.684 217 404.84 217 540.5C217 711.803 350.147 852.007 518.596 863.27Z" fill="white"/>
<path d="M524.822 441.329V550.603H555.178V460.289L611.324 495.356L634.546 482.494V383.35H604.19V455.128L555.178 424.516V273H524.822V405.556L468.675 370.488L445.453 383.35V482.494H475.809V410.717L524.822 441.329Z" fill="white"/>
<path d="M496.966 743.397L409.396 708.67L420.593 680.474L540 727.825L659.407 680.474L670.604 708.67L583.034 743.397L684 779.432L673.79 808L540 760.25L406.21 808L396 779.432L496.966 743.397Z" fill="white"/>
<path d="M445.928 528.502L481.346 666.581L482.957 668.86C490.735 679.867 505.691 693.342 526.084 697.366C547.627 701.616 571.79 694.677 595.438 670.775L598.327 667.855L634.071 528.502L604.666 520.969L570.999 652.224C554.32 667.846 541.038 669.395 531.965 667.605C522.327 665.703 514.205 659.396 509.3 653.392L475.334 520.969L445.928 528.502Z" fill="white"/>
</svg>
