<?xml version="1.0" encoding="utf-8"?>
<!-- Generator: Adobe Illustrator 25.4.1, SVG Export Plug-In . SVG Version: 6.00 Build 0)  -->
<svg version="1.1" id="Calque_1" xmlns="http://www.w3.org/2000/svg" xmlns:xlink="http://www.w3.org/1999/xlink" x="0px" y="0px"
	 viewBox="0 0 612 612" style="enable-background:new 0 0 612 612;" xml:space="preserve">
<rect x="169.6" y="172" transform="matrix(0.6438 0.7652 -0.7652 0.6438 228.0016 -123.4342)" width="153.9" height="22.4"/>
<rect x="46.1" y="174.8" transform="matrix(-0.6476 0.762 -0.762 -0.6476 334.4185 217.4283)" width="141.6" height="22.4"/>
<rect x="21.5" y="391.1" transform="matrix(-0.6704 -0.742 0.742 -0.6704 10.139 809.1285)" width="326.6" height="22.4"/>
<path d="M345.2,255.4c0,18-14.6,32.7-32.7,32.7c-18,0-32.7-14.6-32.7-32.7s14.6-32.7,32.7-32.7C330.5,222.7,345.2,237.3,345.2,255.4
	z M312.5,240.9c-8,0-14.5,6.5-14.5,14.5s6.5,14.5,14.5,14.5c8,0,14.5-6.5,14.5-14.5S320.5,240.9,312.5,240.9z"/>
<path d="M211.4,113c0,18-14.6,32.7-32.7,32.7s-32.7-14.6-32.7-32.7s14.6-32.7,32.7-32.7S211.4,95,211.4,113z M178.7,98.6
	c-8,0-14.5,6.5-14.5,14.5s6.5,14.5,14.5,14.5c8,0,14.5-6.5,14.5-14.5S186.7,98.6,178.7,98.6z"/>
<path d="M91.1,259.1c0,18-14.6,32.7-32.7,32.7s-32.7-14.6-32.7-32.7c0-18,14.6-32.7,32.7-32.7S91.1,241.1,91.1,259.1z M58.4,244.7
	c-8,0-14.5,6.5-14.5,14.5c0,8,6.5,14.5,14.5,14.5s14.5-6.5,14.5-14.5C72.9,251.1,66.4,244.7,58.4,244.7z"/>
<circle cx="117.2" cy="259.1" r="17.1"/>
<polygon points="205.5,358.9 193.7,317.9 164.1,348.6 "/>
<path d="M345.2,534.1c0,18-14.6,32.7-32.7,32.7c-18,0-32.7-14.6-32.7-32.7c0-18,14.6-32.7,32.7-32.7
	C330.5,501.5,345.2,516.1,345.2,534.1z M312.5,519.7c-8,0-14.5,6.5-14.5,14.5s6.5,14.5,14.5,14.5c8,0,14.5-6.5,14.5-14.5
	S320.5,519.7,312.5,519.7z"/>
<circle cx="567.2" cy="258" r="19.7"/>
<circle cx="439" cy="107.1" r="19.7"/>
<rect x="297.3" y="167.9" transform="matrix(-0.6438 0.7652 -0.7652 -0.6438 759.1451 4.9513)" width="162.3" height="22.4"/>
<rect x="417.5" y="171.2" transform="matrix(0.6476 0.762 -0.762 0.6476 316.3036 -319.0046)" width="171.1" height="22.4"/>
<rect x="271.9" y="385.2" transform="matrix(0.6704 -0.742 0.742 0.6704 -148.3959 458.744)" width="340.4" height="22.4"/>
<circle cx="188.2" cy="175.6" r="17.1"/>
<circle cx="253.4" cy="250" r="17.1"/>
<rect x="108.7" y="208" transform="matrix(-0.6476 0.762 -0.762 -0.6476 417.652 240.3558)" width="89.1" height="17.6"/>
<rect x="178.9" y="207.1" transform="matrix(-0.6476 -0.762 0.762 -0.6476 205.6458 526.9987)" width="91.6" height="17.6"/>
<rect x="106" y="291" transform="matrix(-0.6476 -0.762 0.762 -0.6476 21.7766 609.5786)" width="91.6" height="17.6"/>
</svg>
