<?xml version="1.0" encoding="utf-8"?>
<!-- Generator: Adobe Illustrator 25.4.1, SVG Export Plug-In . SVG Version: 6.00 Build 0)  -->
<svg version="1.1" id="Calque_1" xmlns="http://www.w3.org/2000/svg" xmlns:xlink="http://www.w3.org/1999/xlink" x="0px" y="0px"
	 viewBox="0 0 612 612" style="enable-background:new 0 0 612 612;" xml:space="preserve">
<style type="text/css">
	.st0{fill:none;stroke:#000000;stroke-width:20;}
</style>
<path class="st0" d="M468.4,183.9"/>
<path class="st0" d="M325.7,187.8"/>
<rect x="142.7" y="176.6" width="133" height="22.4"/>
<rect x="330.9" y="176.6" width="133" height="22.4"/>
<rect x="150.7" y="358.5" transform="matrix(4.125595e-11 -1 1 4.125595e-11 -67.3121 672.1584)" width="303.4" height="22.4"/>
<rect x="378.5" y="317.5" transform="matrix(5.654683e-11 -1 1 5.654683e-11 160.4089 817.8742)" width="221.4" height="22.4"/>
<rect x="82" y="238.5" transform="matrix(1.732393e-10 -1 1 1.732393e-10 -131.5919 367.8603)" width="72.2" height="22.4"/>
<rect x="83.3" y="285.9" transform="matrix(-1 -2.247248e-10 2.247248e-10 -1 236.2684 594.1387)" width="69.6" height="22.4"/>
<rect x="267.6" y="521.4" transform="matrix(-1 -2.246986e-10 2.246986e-10 -1 604.8464 1065.2906)" width="69.6" height="22.4"/>
<rect x="454.3" y="439.4" transform="matrix(-1 -2.246986e-10 2.246986e-10 -1 978.2831 901.2803)" width="69.6" height="22.4"/>
<path d="M335.1,56.6c0,18-14.6,32.7-32.7,32.7c-18,0-32.7-14.6-32.7-32.7s14.6-32.7,32.7-32.7C320.5,23.9,335.1,38.5,335.1,56.6z
	 M302.4,42.1c-8,0-14.5,6.5-14.5,14.5S294.4,71,302.4,71c8,0,14.5-6.5,14.5-14.5S310.4,42.1,302.4,42.1z"/>
<rect x="260.8" y="105.2" transform="matrix(1.503802e-10 -1 1 1.503802e-10 186.0431 418.8033)" width="83.2" height="22.4"/>
<path d="M335.2,187.8c0,18-14.6,32.7-32.7,32.7c-18,0-32.7-14.6-32.7-32.7s14.6-32.7,32.7-32.7C320.6,155.1,335.2,169.8,335.2,187.8
	z M302.6,173.3c-8,0-14.5,6.5-14.5,14.5s6.5,14.5,14.5,14.5c8,0,14.5-6.5,14.5-14.5S310.6,173.3,302.6,173.3z"/>
<path d="M521.8,187.8c0,18-14.6,32.7-32.7,32.7c-18,0-32.7-14.6-32.7-32.7s14.6-32.7,32.7-32.7C507.2,155.1,521.8,169.8,521.8,187.8
	z M489.1,173.3c-8,0-14.5,6.5-14.5,14.5s6.5,14.5,14.5,14.5c8,0,14.5-6.5,14.5-14.5S497.1,173.3,489.1,173.3z"/>
<path d="M150.8,183.9c0,18-14.6,32.7-32.7,32.7s-32.7-14.6-32.7-32.7s14.6-32.7,32.7-32.7S150.8,165.9,150.8,183.9z M118.1,169.4
	c-8,0-14.5,6.5-14.5,14.5c0,8,6.5,14.5,14.5,14.5s14.5-6.5,14.5-14.5C132.6,175.9,126.1,169.4,118.1,169.4z"/>
<polygon points="523.3,466.8 455,466.8 489.1,526 "/>
<polygon points="336.6,548.3 268.3,548.3 302.4,607.4 "/>
<polygon points="152.3,312.9 84,312.9 118.1,372 "/>
</svg>
