<svg width="612" height="612" viewBox="0 0 612 612" fill="none" xmlns="http://www.w3.org/2000/svg">
<mask id="mask0_1345_1009" style="mask-type:alpha" maskUnits="userSpaceOnUse" x="0" y="0" width="612" height="612">
<circle cx="306" cy="306" r="306" fill="#F1D43D"/>
</mask>
<g mask="url(#mask0_1345_1009)">
<path fill-rule="evenodd" clip-rule="evenodd" d="M428.096 585.331C490.128 558.314 541.456 511.501 574.054 452.212L305.911 304.783L571.203 152.284C537.484 93.625 485.274 47.7958 422.74 21.9637C360.206 -3.86837 290.873 -8.24656 225.586 9.51388C160.3 27.2743 102.74 66.1718 61.9096 120.123C57.7965 125.558 53.8766 131.114 50.1532 136.782L64.1798 131.01L74.597 128.255L86.2778 127.335H96.3807L108.065 129.632L127.007 136.52L144.688 148.001L158.893 160.856L171.523 176.927L183.836 196.673L195.516 224.226L201.2 243.053L205.619 263.719L207.515 281.854L209.093 300.452V523.622L172.312 475.407H168.681L164.262 476.785L151.632 493.776L135.214 517.654L127.321 519.947C119.49 512.961 109.462 500.651 101.315 490.65L101.245 490.563C92.8862 480.296 86.5257 472.485 86.5952 475.407C86.6604 478.236 79.2073 489.791 70.5962 500.393C112.016 550.222 168.242 585.675 231.215 601.526C296.828 618.042 366.064 612.347 428.096 585.331ZM72.3891 303.668C72.3891 329.787 57.9725 350.963 40.1852 350.963C22.401 350.963 7.98438 329.787 7.98438 303.668C7.98438 277.546 22.401 256.369 40.1852 256.369C57.9725 256.369 72.3891 277.546 72.3891 303.668ZM136.797 350.963C154.581 350.963 168.998 329.787 168.998 303.668C168.998 277.546 154.581 256.369 136.797 256.369C119.01 256.369 104.593 277.546 104.593 303.668C104.593 329.787 119.01 350.963 136.797 350.963Z" fill="white"/>
</g>
</svg>
