<svg width="612" height="612" viewBox="0 0 612 612" fill="none" xmlns="http://www.w3.org/2000/svg">
<path fill-rule="evenodd" clip-rule="evenodd" d="M612 306.218C612 337.981 607.167 368.615 598.197 397.424H527.449V511.021H533.493C498.448 549.978 453.553 579.887 402.734 596.819V516.621H289.547V612C128.198 603.445 0 469.813 0 306.218C0 244.036 18.521 186.183 50.3438 137.882V186.036H163.86V72.4395H108.35C161.67 27.2503 230.655 0 306 0C474.999 0 612 137.098 612 306.218ZM289.23 397.094H402.418V510.691H289.23V397.094ZM521.527 397.424H408.34V511.021H521.527V397.424ZM169.77 192.291H282.957V305.888H169.77V192.291ZM282.957 73.0986H169.77V186.366H282.957V73.0986ZM288.879 73.0986H402.395V186.366H288.879V73.0986Z" fill="white"/>
</svg>
