<svg width="612" height="612" viewBox="0 0 612 612" fill="none" xmlns="http://www.w3.org/2000/svg">
<path fill-rule="evenodd" clip-rule="evenodd" d="M306 612C199.085 612 104.977 557.169 50.262 474.092V419.352V362.511H107.101V419.352V476.192L163.941 476.192V533.032H220.782V476.192L163.942 476.192V419.352H220.782V362.511V305.671H163.942V248.831H220.782V191.99V135.15H163.942V78.3098H107.101V135.15H163.941V191.99H107.101V248.831H50.2615V305.671H0C0.177623 136.823 137.11 0 306 0C474.89 0 611.822 136.823 612 305.671H561.824V248.831H504.985V191.99H448.145V135.15H391.304V191.99H334.465H334.465H277.625H277.625H220.785V248.831V305.671V362.511V419.352H277.625H277.625H334.465H334.465H391.304H391.305H448.144V476.192L391.305 476.192H391.304H334.465V533.032H391.304H391.305H448.145V476.192L504.985 476.192V419.352V362.511H561.824V419.352V473.962C507.121 557.111 412.971 612 306 612ZM448.144 248.831V305.671H391.305V248.831H448.144ZM277.625 476.192H220.785V533.032H277.625V476.192ZM448.144 78.3097H504.985V135.15H448.144V78.3097Z" fill="white"/>
</svg>
