<?xml version="1.0" encoding="iso-8859-1"?>
<!-- Generator: Adobe Illustrator 19.0.0, SVG Export Plug-In . SVG Version: 6.00 Build 0)  -->
<svg version="1.1" id="Layer_1" xmlns="http://www.w3.org/2000/svg" xmlns:xlink="http://www.w3.org/1999/xlink" x="0px" y="0px"
	 viewBox="0 0 512 512" style="enable-background:new 0 0 512 512;" xml:space="preserve">
<g>
	<g>
		<path d="M364.211,283.638c-16.396,18.583-33.35,37.799-108.211,37.799s-91.814-19.216-108.211-37.799
			c-14.596-16.543-31.14-35.292-77.912-35.292v31.347c32.626,0,41.29,9.82,54.406,24.686c2.813,3.188,5.73,6.491,8.942,9.806v58.619
			h31.347v-35.816c8.576,4.083,18.841,7.641,31.423,10.342v55.642h31.347v-51.244c8.726,0.684,18.239,1.056,28.657,1.056
			c10.419,0,19.931-0.372,28.657-1.056v51.244h31.347v-55.642c12.583-2.701,22.847-6.26,31.423-10.342v35.816h31.347v-58.619
			c3.212-3.314,6.129-6.618,8.942-9.806c13.116-14.866,21.781-24.686,54.406-24.686v-31.347
			C395.35,248.345,378.807,267.095,364.211,283.638z"/>
	</g>
</g>
<g>
	<g>
		<path d="M151.504,118.244c-11.34,0-20.569,9.324-20.569,20.835c-0.001,11.511,9.229,20.843,20.569,20.843
			c11.355,0,20.582-9.332,20.582-20.843C172.086,127.566,162.859,118.244,151.504,118.244z"/>
	</g>
</g>
<g>
	<g>
		<path d="M360.496,118.244c-11.355,0-20.582,9.324-20.582,20.835c0,11.511,9.227,20.843,20.582,20.843
			c11.34,0,20.569-9.332,20.569-20.843C381.065,127.566,371.836,118.244,360.496,118.244z"/>
	</g>
</g>
<g>
	<g>
		<path d="M497.326,169.866c-13.029-24.466-32.555-45.272-58.09-61.917c-10.809-32.614-41.231-54.862-76.135-54.862
			c-16.3,0-32.23,4.999-45.563,14.193c-19.272-2.386-39.939-3.592-61.537-3.592c-21.598,0-42.265,1.207-61.538,3.592
			c-13.334-9.194-29.263-14.193-45.563-14.193c-34.905,0-65.326,22.247-76.134,54.861c-25.535,16.645-45.061,37.451-58.091,61.919
			C3.855,190.183,0,208.788,0,219.427c0,25.425,2.577,90.624,26.442,146.784c25.771,60.647,68.969,92.703,124.922,92.703h209.273
			c55.952,0,99.15-32.056,124.922-92.703C509.423,310.052,512,244.852,512,219.427C512,208.788,508.145,190.183,497.326,169.866z
			 M456.708,353.951c-9.758,22.964-22.174,40.81-36.901,53.041c-16.669,13.845-36.024,20.574-59.17,20.574H151.363
			c-23.147,0-42.501-6.729-59.17-20.574c-14.727-12.232-27.143-30.077-36.901-53.041C33.68,303.094,31.347,242.931,31.347,219.427
			c0-12.861,11.572-56.636,62.989-88.026l5.53-3.376l1.532-6.296c5.341-21.958,24.875-37.293,47.502-37.293
			c11.391,0,22.483,4.004,31.23,11.276l5.329,4.429l6.862-0.96c19.661-2.75,41.086-4.145,63.68-4.145
			c22.594,0,44.018,1.395,63.68,4.145l6.862,0.96l5.329-4.429c8.747-7.271,19.837-11.276,31.23-11.276
			c22.627,0,42.162,15.336,47.503,37.294l1.531,6.296l5.531,3.376c51.416,31.391,62.987,75.165,62.987,88.025
			C480.653,242.931,478.32,303.094,456.708,353.951z"/>
	</g>
</g>
<g>
	<g>
		<path d="M223.053,247.625c-8.922,0-16.183,7.335-16.183,16.393c-0.001,9.056,7.261,16.399,16.183,16.399
			c8.934,0,16.194-7.341,16.194-16.399C239.247,254.96,231.987,247.625,223.053,247.625z"/>
	</g>
</g>
<g>
	<g>
		<path d="M288.826,247.498c-9.009,0-16.317,7.396-16.317,16.521c0,9.124,7.308,16.521,16.317,16.521
			c8.998,0,16.306-7.397,16.306-16.521C305.131,254.893,297.823,247.498,288.826,247.498z"/>
	</g>
</g>
<g>
</g>
<g>
</g>
<g>
</g>
<g>
</g>
<g>
</g>
<g>
</g>
<g>
</g>
<g>
</g>
<g>
</g>
<g>
</g>
<g>
</g>
<g>
</g>
<g>
</g>
<g>
</g>
<g>
</g>
</svg>
