<?xml version="1.0" encoding="iso-8859-1"?>
<!-- Generator: Adobe Illustrator 19.0.0, SVG Export Plug-In . SVG Version: 6.00 Build 0)  -->
<svg version="1.1" id="Layer_1" xmlns="http://www.w3.org/2000/svg" xmlns:xlink="http://www.w3.org/1999/xlink" x="0px" y="0px"
	 viewBox="0 0 511.998 511.998" style="enable-background:new 0 0 511.998 511.998;" xml:space="preserve">
<g>
	<g>
		<path d="M509.457,97.019c-6.468-17.773-29.373-43.203-110.105-13.818c-27.489,10.004-59.658,26.164-83.491,43.697
			c4.277-8.913,6.517-18.715,6.517-28.699c0-36.601-29.777-66.38-66.378-66.38c-36.601,0-66.378,29.778-66.378,66.38
			c0,9.987,2.241,19.791,6.517,28.699c-23.767-17.485-55.908-33.658-83.49-43.697C31.915,53.816,9.01,79.246,2.542,97.019
			c-16.632,45.695,52.026,75.53,99.061,88.969c-15.297,6.159-27.541,13.045-36.455,20.52c-35.323,29.62-19.702,89.733,72.964,56.005
			c20.927-7.617,43.334-19.063,60.139-30.696c4.55,21.515,20.856,38.73,41.853,44.61v187.856c0,8.778,7.117,15.895,15.895,15.895
			s15.895-7.117,15.895-15.895V276.427c20.998-5.881,37.303-23.096,41.853-44.61c16.805,11.634,39.211,23.079,60.139,30.696
			c18.884,6.873,35.303,10.359,48.805,10.365c0.01,0,0.016,0,0.025,0c46.513,0,68.956-54.161-12.321-86.889
			C457.387,172.562,526.094,142.73,509.457,97.019z M87.715,241.058c-9.716-0.362-10.636-2.545-3.337-9.15
			c19.838-17.952,74.122-32.81,104.621-32.897C165.505,218.617,114.392,242.044,87.715,241.058z M42.748,124.71
			c-17.149-13.915-13.212-23.455,8.406-23.059c42.148,0.699,118.922,38.935,142.195,64.815
			C159.008,171.318,75.57,151.343,42.748,124.71z M283.238,219.589c0,15.02-12.219,27.24-27.239,27.24
			c-15.02,0-27.24-12.22-27.24-27.24c0-8.565,0-52.267,0-60.795c18.231,8.173,38.887,7.154,54.479-0.003
			C283.238,166.221,283.238,212.748,283.238,219.589z M255.999,132.773c-19.412-0.004-34.588-15.7-34.588-34.573
			c0-19.073,15.516-34.589,34.588-34.589s34.588,15.517,34.588,34.589C290.587,117.036,275.452,132.768,255.999,132.773z
			 M427.619,231.907c7.298,6.605,6.379,8.788-3.337,9.15c-26.691,1.015-77.858-22.498-101.284-42.047
			C354.06,199.101,408.079,214.226,427.619,231.907z M469.249,124.71c-32.748,26.574-116.143,46.613-150.602,41.757
			c23.216-25.816,99.945-64.115,142.195-64.815C482.562,101.276,486.326,110.854,469.249,124.71z"/>
	</g>
</g>
<g>
</g>
<g>
</g>
<g>
</g>
<g>
</g>
<g>
</g>
<g>
</g>
<g>
</g>
<g>
</g>
<g>
</g>
<g>
</g>
<g>
</g>
<g>
</g>
<g>
</g>
<g>
</g>
<g>
</g>
</svg>
