<?xml version="1.0" encoding="iso-8859-1"?>
<!-- Generator: Adobe Illustrator 19.0.0, SVG Export Plug-In . SVG Version: 6.00 Build 0)  -->
<svg version="1.1" id="Capa_1" xmlns="http://www.w3.org/2000/svg" xmlns:xlink="http://www.w3.org/1999/xlink" x="0px" y="0px"
	 viewBox="0 0 490 490" style="enable-background:new 0 0 490 490;" xml:space="preserve">
<path id="XMLID_110_" d="M482.5,70H351.555C326.113,28.072,280.023,0,227.5,0C168.736,0,113.489,22.884,71.937,64.437
	C30.384,105.989,7.5,161.235,7.5,220s22.884,114.011,64.437,155.563C113.489,417.116,168.736,440,227.5,440h35.312
	c16.437,30.683,48.263,50,83.676,50h11.581l2.931-11.204c2.063-7.885,3.108-16.041,3.108-24.241
	c0-21.723-7.461-42.743-20.837-59.555c13.376-16.812,20.837-37.832,20.837-59.555c0-8.2-1.046-16.356-3.108-24.241L358.068,300
	h-11.581c-35.252,0-66.945,19.14-83.446,49.576c-43.073-4.191-77.814-37.278-84.55-79.576h66.818v-15
	c0-28.388-13.46-54.776-35.479-71.583C226.999,168.378,249.009,160,272.309,160H372.5v-15c0-15.703-2.519-30.827-7.157-45H482.5V70z
	 M272.309,130c-38.346,0-74.036,17.241-97.917,47.302l-11.977,15.076l17.547,7.925c16.79,7.584,28.934,22.363,33.432,39.697h-96.085
	v30h30.895c7.431,61.895,60.254,110.024,124.112,110.024h10.112l3.793-9.375c8.391-20.74,26.42-35.316,47.751-39.452
	c0.09,1.412,0.136,2.829,0.136,4.248c0,18.396-7.804,36.063-21.41,48.471L300.541,395l12.156,11.084
	c13.606,12.407,21.41,30.074,21.41,48.471c0,1.419-0.046,2.836-0.136,4.247c-21.323-4.135-39.35-18.703-47.743-39.432l-3.794-9.37
	H227.5c-104.767,0-190-85.233-190-190s85.233-190,190-190c58.329,0,106.655,43.648,114.026,100H272.309z"/>
<g>
</g>
<g>
</g>
<g>
</g>
<g>
</g>
<g>
</g>
<g>
</g>
<g>
</g>
<g>
</g>
<g>
</g>
<g>
</g>
<g>
</g>
<g>
</g>
<g>
</g>
<g>
</g>
<g>
</g>
</svg>
