<?xml version="1.0" standalone="no"?>
<!DOCTYPE svg PUBLIC "-//W3C//DTD SVG 20010904//EN"
 "http://www.w3.org/TR/2001/REC-SVG-20010904/DTD/svg10.dtd">
<svg version="1.0" xmlns="http://www.w3.org/2000/svg"
 width="500.000000pt" height="500.000000pt" viewBox="0 0 500.000000 500.000000"
 preserveAspectRatio="xMidYMid meet">

<g transform="translate(0.000000,500.000000) scale(0.100000,-0.100000)"
fill="#000000" stroke="none">
<path d="M3055 4059 c-16 -5 -156 -111 -310 -237 l-279 -227 -52 -115 c-28
-63 -149 -329 -269 -590 -119 -261 -224 -489 -231 -507 l-14 -31 88 -32 c95
-35 309 -79 385 -80 27 0 62 8 80 17 49 26 247 25 305 -1 40 -18 50 -19 149
-7 128 16 303 61 377 97 l54 26 -13 57 c-8 31 -50 210 -94 398 -45 187 -81
352 -81 366 0 14 20 177 45 364 25 186 45 356 45 378 0 43 -28 98 -57 113 -29
16 -96 21 -128 11z"/>
<path d="M1499 3167 c-6 -14 -22 -30 -36 -36 -20 -9 -24 -17 -21 -44 2 -23 8
-33 23 -35 13 -2 26 -15 32 -33 10 -25 16 -30 40 -27 19 2 32 12 41 31 7 15
19 27 26 27 43 0 44 75 1 86 -14 3 -25 14 -27 27 -2 17 -11 23 -35 25 -27 3
-35 -1 -44 -21z"/>
<path d="M1667 2883 c-4 -3 -7 -14 -7 -24 0 -10 -10 -19 -25 -23 -43 -11 -43
-86 1 -86 7 0 19 -12 26 -27 9 -19 22 -29 41 -31 24 -3 30 2 40 27 6 18 19 31
32 33 15 2 21 12 23 35 3 27 -1 35 -21 44 -14 6 -30 22 -36 35 -7 17 -19 24
-39 24 -16 0 -32 -3 -35 -7z"/>
<path d="M1457 2813 c-13 -12 -7 -41 10 -47 21 -8 48 17 40 38 -6 16 -38 22
-50 9z"/>
<path d="M3290 2243 c-76 -34 -205 -67 -346 -88 l-119 -18 -1 -88 -1 -89 31 0
c43 0 181 25 279 51 89 23 185 66 231 102 l28 23 -14 64 c-8 35 -18 65 -24 66
-5 1 -34 -9 -64 -23z"/>
<path d="M1831 2205 l-24 -56 22 -23 c56 -60 201 -114 389 -147 175 -29 162
-35 162 70 l0 90 -57 6 c-117 14 -267 47 -346 76 -127 47 -119 48 -146 -16z"/>
<path d="M1625 2126 c-200 -66 -321 -131 -411 -221 -185 -185 -88 -424 230
-570 154 -71 406 -138 646 -172 185 -27 822 -26 995 0 393 61 710 181 850 321
65 66 88 114 93 199 4 60 1 75 -26 130 -61 123 -215 228 -448 307 l-86 29 7
-27 c55 -216 45 -289 -56 -396 -98 -106 -276 -182 -528 -228 -164 -29 -443
-29 -629 1 -352 56 -575 195 -614 382 -11 59 -2 96 55 222 15 31 26 57 24 57
-1 -1 -47 -16 -102 -34z"/>
<path d="M1740 2005 c-39 -91 -18 -168 65 -249 81 -77 224 -135 438 -178 97
-20 143 -23 342 -23 214 0 239 2 358 28 274 60 422 144 479 275 16 36 19 57
14 100 -4 30 -9 59 -12 63 -3 5 -22 -2 -42 -16 -82 -54 -288 -113 -487 -139
-61 -8 -127 -22 -147 -30 -56 -24 -244 -22 -306 3 -26 10 -102 26 -169 35
-214 29 -393 85 -480 152 l-33 25 -20 -46z"/>
</g>
</svg>
