<svg id="medoed_mirrored" data-name="medoed_mirrored" xmlns="http://www.w3.org/2000/svg" viewBox="0 0 612 612">
  <path id="HEAD_UP" data-name="HEAD UP" class="cls-1" d="M581.26,261.452c5.4-1.942,17.739-7.285,19.02-17.623a36.148,36.148,0,0,1-2.583-7.9c-0.831-6.023,6.709-7.562,9.268-15.941a25.939,25.939,0,0,0-4.18-22.57c-4.463-5.647-8.472-7.476-16.718-8.359-16.681-1.786-27.88-.455-36.5-8.208-11.739-10.554-5.938-15.915-4.308-24.647,2.912-12.282-5.253-26-.533-17.753-8.533-22.2-41.307-36.2-47.733-41.763-0.585-4.806,29.882-.462,43.926,4.516,9.653,5.423,11.323,8.087,12.924,13.718,2.226,7.829-1.024,11.977-4.18,17.047,5.858-1.812,8.447-3.891,9.834-11.046,0.381-1.966.234-6.993-1.935-12.366C548.869,92.176,527.431,88.3,489.9,83.7c-9.286-1.8-8.825-2.341-22.083-6.253,0,0-28.781-13.131-69.831-17.119,0,0-54.577-1.343-86.934,11.7-39.523-6.4-55.888-6.633-75.536,3-44.494,30.359-28.916,81.711-28.916,81.711C36.157,277.14-11.444,405.977,4.733,535.132c11.995,19.326,40.924,28.61,75.51,20.362-31.6-77.447-53.388-216.98,108.6-357.96,3.214-2.8,24.559-20.223,27.917-23.026,0,0,13.484,3.958,22.4,20.4-1.8-18.887-14.315-22.095-21.623-41.72-8.611-31.631,1.537-51.344,7.961-61.077C233.952,81,257.851,67.42,296.009,77.05c10.651,3.235,34.089,5.113,71.052,20.062,65.009,22.769,82.182,35.287,115.354,46.81,32.739,9.293,54.527,9.423,43.161-18.056,0,0,20.719,7.04,11.173,38.954,0,0-2.685,14.321,11.7,19.7-9.731,2.108-3.225.368-19.527,0.758,12.892,8.8,35.618,7.326,48.72,7.885,7.082,0.477,12.586-.02,17.943,4.1,7.485,7.928,1.823,9.026-1.008,13.019-4.009,3.21-5.525,6.551-5.955,10.006a7.525,7.525,0,0,0,3.338,6.98c0.193-17.028,10.132-15.878,12.017-16.462,1.488,6.233-4.027,12.19-11.05,22.646-3.434,5.672,4.446,9.609-1.916,14.293-10.468,7.844-21.18,12.272-45.683,15.1-27.562-2.313-40.536-6.355-59.735-10.124-46.6-3.763-55.1,14.265-55.477,19.484,0,0,21.981-12.149,41.6-12.725,34.056,2.3,31.7,8.006,74.6,10.436C566.9,268.77,575.858,263.393,581.26,261.452Z"/>
  <path id="HEAD_DOWN" data-name="HEAD DOWN" class="cls-1" d="M534.559,346.8c0.81,0.9-4.4,10.542-13.526,18.3-9.781,8.315-22.676,13.14-41.05,13.145-17.251,0-46.831-13.788-69.728-4.4-9.371,3.84-14.493,8.5-15.222,13.921-1.355,10.067,7.873,20.23,19.519,25.015a120.94,120.94,0,0,1,45.587,33.778c36.364,48.177,38.025,107.5,36.866,107.879-0.413.135-2.156-8.588-7.749-23.694C478.2,500.872,463.3,473.674,453.537,461.03c-16.636-16.372-28.321-23.2-36.055-28.817-14.444-6.289-29.853-8.191-38.131-19.849-7.3-10.273-.528-25.68,1.383-32.047-5.114-4.824-7.579-7.8-18.826-1.935-11.32,6.945-20.919,17.546-27.7,41.065-0.53-12.9-.291-24.533,8.253-37.645s14.341-18.624,28.206-24.2c19.337-6.962,40.756-8.518,80.663,3.98,15.027,4.706,39.54,15.438,54.942,6.756C519.031,363.393,523.736,359.112,534.559,346.8Z"/>
  <path id="EYE" class="cls-1" d="M461.968,189.248c-4.29-1.45-17.509-4.254-28.935-8.621-8.026-4.595-16.191-12.814-28.936-17.572-12.257-4.952-28.254-10.373-28.234-10.361,18.659,11.789,30.673,17.457,34.128,24.352,5.673,11.319,8.121,14.781,20.788,15.19-5.823,1.2-8.659,2.229-14.059.545-12.547-3.912-19.877-16.351-20.034-16.108,2.177,9.591,5.909,19.355,20.418,22.776C435.587,203.807,449.023,194.129,461.968,189.248Z"/>
  <path id="BACK_JAWLINE" data-name="BACK JAWLINE" class="cls-1" d="M499.488,272.622c-15.916,12.624-14.759,13.177-2.972,31.22a250.8,250.8,0,0,0,29.051,29.977c-13.592-7.214-31.81-19.721-42.623-39.226-5.143-11.018-8.813-14.923-.747-24.855C483.438,264.879,499.488,272.622,499.488,272.622Z"/>
  <path id="TONGUE" class="cls-1" d="M441.121,282c2.645-.548,5.835,2.556,19.065,9.925,9.841,7.46,16.054,15.72,21.809,23.148-19.624-20.14-31.641-21.166-39.88-26C441.375,288.393,438.565,284.273,441.121,282Z"/>
  <path id="NOSE" class="cls-1" d="M577.781,227.793c-1.421.149,9.923-9.522-4.893-11.976-10.124,1.2-11.92,4.412-14.725,5.651C578.9,219.075,576.964,219.64,577.781,227.793Z"/>
  <path id="TEETH_UP" data-name="TEETH UP" class="cls-1" d="M591.894,262.437c-2.047,14.454-16.263,22.848-18.757,23.092s0.489-5.719.782-7.994c-1.167.457-2.869,0.478-3.908,0.889-6.364,2.516-15.634,5.493-18.756,4.44-1.063-.358-0.558-2.5-0.782-3.552-0.872,1.641-1.46,2.76-2.344,2.664,0,0-4.594,8.79-14.068,12.435-1.725-5.085-1.359-4.629-3.291-14.589-2.483-.134-8.64,7.892-15.341,2.846,0,0-3.84-6.991-17.318-2.468-2.6-.991-9.59-11.718-25.009-5.329-11.6-5.982-26.232-1.4-23.445-4.441,7.712-6.98,27.067-7.863,43.765-1.776,17.066,2.905,42.491,5.669,42.491,5.669s16.859-.809,29.257-4.179C582.934,267.22,589.55,260.11,591.894,262.437Z"/>
  <path id="_TEETH_DOWN" data-name=" TEETH DOWN" class="cls-1" d="M538.605,325.315c2.087-.143.671,11.063-5.715,18.181s-23.785,13.54-32.458,12.627c-5.869.706-16.477-1.014-22.03-4.478-9.737-4.609-14.335-4.513-31.856-19.2-6.934-5.244-10.563-9.879-16.235-19.81-2.425-5.974-8.381-22.95-4.918-33.579,0,0,3.836,14.4,7.776,24.581,6.4,12.951,15.979,19.67,17.85,21.525,16.926,13.807,40.906,18.821,41.229,18.84,10.036,0.591,17.294-11.107,20.014-10.552s4.359,4.6,1.909,11.479c2.358-1.1,4.536-.847,6.95-2.935,1.7-1.473,3.991-2.58,5.361-3.763,2.93-2.531-15.285-11.637-13.679-12.8,0.872-.631,11.546,1.595,17.291,2.884a2.186,2.186,0,0,1-.7,2.693C530.482,330.434,536.6,325.451,538.605,325.315Z"/>
  <path class="cls-1" d="M255.778,93.937c-29.584,10.984-27,43.477-10.813,48.664-12.116-13.1-1.119-39.446,23.61-40.353,15.815,0.014,16.406.807,26.513,1.967C283.093,95.619,271.709,91.112,255.778,93.937Z"/>
</svg>
