<svg id="Layer_1" data-name="Layer 1" xmlns="http://www.w3.org/2000/svg" width="70.5556cm" height="70.5556cm" viewBox="0 0 2000 2000"><defs><style>.cls-1{fill:#232323;}.cls-2{fill:#fff;}.cls-3{fill:#333;}.cls-4{fill:#1a1a1a;}</style></defs><title>Pandora</title><path d="M505.8774,1347.9121c7.3355-14.7383,19.0274-40.55,19.0586-55.4092h950.1763c.1455,13.9746,11.7578,40.1045,19.1816,55.4092Z"/><path d="M1468.5447,1299.7529c1.2272,7.15,4.4068,18.0019,11.9424,35.3488.8258,1.9013,1.6522,3.7616,2.4658,5.5611H517.3555c.7213-1.5649,1.4513-3.177,2.18-4.8223,7.7808-17.5644,10.9334-28.6856,12.081-36.0876h936.928m14.249-14.4988H517.2458l.399,5.9418c1.2759,18.1049-23.688,63.9657-23.688,63.9657H1506.0432s-24.8049-47.5755-23.6482-63.9657l.3987-5.9418Z"/><polygon points="522.577 1257.028 510.138 1076.639 620.501 1076.639 620.501 1116.455 547.881 1116.455 547.881 1221.519 725.804 1221.519 725.804 1076.639 838.399 1076.639 838.399 1116.455 765.78 1116.455 765.78 1221.519 943.702 1221.519 943.702 1076.639 974.041 1076.639 968.606 1125.618 1031.406 1125.618 1025.973 1076.639 1056.298 1076.639 1056.298 1221.519 1234.22 1221.519 1234.22 1116.455 1161.601 1116.455 1161.601 1076.639 1274.196 1076.639 1274.196 1221.519 1452.118 1221.519 1452.118 1116.455 1379.459 1116.455 1379.459 1076.639 1489.902 1076.639 1477.463 1257.028 522.577 1257.028"/><path d="M1482.1356,1083.8883l-11.44,165.89H529.3439l-11.44-165.89h95.3473v25.3173h-72.62v119.5628H733.0534v-144.88H831.15v25.3173H758.53v119.5628H950.9517v-144.88h14.99l-3.6484,32.8815-1.7861,16.0978h78.998l-1.7862-16.0978-3.6485-32.8815h14.9771v144.88H1241.47V1109.2056h-72.62v-25.3173h98.0963v144.88h192.4213V1109.2056h-72.6593v-25.3173h95.4272m15.5331-14.4988H1372.21v54.315h72.6593V1214.27H1281.4452V1069.39h-127.094v54.315h72.62V1214.27h-163.424V1069.39h-45.68l.47,4.1676,4.9722,44.8117H976.7042l4.9722-44.8117.47-4.1676H936.4529v144.88H773.0292v-90.5651h72.62V1069.39H718.5546v144.88H555.1309v-90.5651h72.62V1069.39H502.3712L515.81,1264.2776h968.419l13.4393-194.8881Z"/><path d="M1306.8389,1188.915V1043.9961H1128.957v105.0625h72.62v39.8564H1088.94V1043.9961h-54.9931a37.1327,37.1327,0,0,0-21.2559-50.1372,37.0783,37.0783,0,0,0-25.3628-.0025,37.117,37.117,0,0,0-21.2568,50.14H911.0186V1188.915H798.4233v-39.8564h72.66V1043.9961H693.16V1188.915H580.5649v-39.8564h72.62V1043.9961H507.8638l-6.1421-89.3467h996.5566l-6.1416,89.3467H1346.8555v105.0625h72.6191v39.8564Z"/><path d="M1490.5133,961.8987l-5.1449,74.8471H1339.6058v119.5625h72.6194v25.3573H1314.089v-144.92H1121.7076v119.5625h72.6192v25.3573h-98.1361v-144.92h-52.4528a44.3911,44.3911,0,0,0-28.5564-49.6951,44.3271,44.3271,0,0,0-30.35,0,44.39,44.39,0,0,0-28.5564,49.6951h-52.506v144.92H805.6729v-25.3573h72.6594V1036.7458H685.9108v144.92H587.8145v-25.3573h72.62V1036.7458H514.6316l-5.145-74.8471h981.0267m15.53-14.4989H493.9568l7.1382,103.8449h144.84V1141.81h-72.62v54.355H700.41v-144.92H863.8335V1141.81H791.174v54.355H918.2682v-144.92h62.12a29.4591,29.4591,0,0,1-10.3331-22.499,29.835,29.835,0,0,1,19.7678-28.0821,29.8255,29.8255,0,0,1,20.3672,0,29.8351,29.8351,0,0,1,19.7678,28.0821,29.4587,29.4587,0,0,1-10.3332,22.499h62.067v144.92h127.1339V1141.81h-72.6192v-90.5648H1299.59v144.92H1426.724V1141.81h-72.6194v-90.5648h144.8L1506.0432,947.4Z"/><polygon class="cls-1" points="497.836 945.962 578.674 875.687 1421.512 875.502 1502.196 945.962 497.836 945.962"/><path class="cls-1" d="M1420.9681,876.9516l77.3633,67.5607H501.7139l77.5022-67.3757,841.752-.185m1.0878-2.9h-.0281l-843.8962.1855L493.9585,947.412H1506.06l-84.0045-73.36Z"/><path d="M1526.2834,778.1383l-6.2826,96.403a7.3068,7.3068,0,0,1-7.258,6.7792h-90.7244l-843.8773.16H487.2569a7.2129,7.2129,0,0,1-7.2181-6.7795L473.663,776.78Z"/><path d="M1526.78,757.5365H473.22c11.804-77.8437,100.0161-77.8437,129.2873-77.8437h794.9857C1426.764,679.6928,1514.9761,679.6928,1526.78,757.5365Z"/><ellipse class="cls-2" cx="1153.5244" cy="829.1301" rx="18.5825" ry="18.5347"/><ellipse class="cls-2" cx="856.2043" cy="829.1301" rx="18.5825" ry="18.5347"/><ellipse class="cls-2" cx="1450.8445" cy="829.1301" rx="18.5825" ry="18.5347"/><ellipse class="cls-2" cx="558.8842" cy="829.1301" rx="18.5825" ry="18.5347"/><path d="M859.3593,213.4188,641.1265,432.7581,495.291,294.49A922.2347,922.2347,0,0,1,778.005,173.0874c11.2611-2.7431,22.6334-5.2638,34.0433-7.5992Z"/><path d="M687.184,430.1552,859.3591,256.6l49.13,37.938,260.697-3.4886s74.3583,28.5626,199.1742,158.0751,116.8489,120.3551,116.8489,120.3551-27.2205,37.2839-74.3584,15.0444l-82.3253-60.1776-103.5707-60.1775s-2.2428-31.2117-24.5057-41.5991a24.7779,24.7779,0,0,0-10.88-2.1535L959.7207,424.1s-11.465,8.658.332,17.5258l218.41-5.79c12.9892.2145,27.0782,5.6357,30.5541,24.4507a17.0254,17.0254,0,0,1-2.5634,12.7688c-5.9654,8.7367-17.3505,17.7131-53.8658,21.8558L839.5523,535.793s-32.8638,8.5033-72.6986-26.4912Z"/><path class="cls-3" d="M827.1373,1599.8712l-20.478,24.503-20.2549,24.2433-21.1469,25.3184c-30.3638-23.6874-76.2987-64.2824-120.1905-109.8037l56.7084-62.7937L796.6247,1556.5s2.267,31.2124,24.5291,41.5917A21.01,21.01,0,0,0,827.1373,1599.8712Z"/><path class="cls-3" d="M670.9326,1480.1l-15.4233,15.3839-38.54,38.4409c-69.4986-71.9515-79.3474-81.7379-80.5367-82.7759,1.0407-1.4456,28.0967-36.81,74.33-15.0131Z"/><polygon class="cls-4" points="684.223 1520.775 664.377 1542.75 634.511 1516.428 655.509 1495.484 684.223 1520.775"/><path class="cls-3" d="M1332.53,1592.4069l-53.8365,54.2752-64.4442,64.9628-52.0022,52.4007L852.428,1729.63s-26.0807-15.0345-58.0237-36.5292l27.5165-32.1424.1594.04,20.7371-24.0868-.2393-.08,26.9981-31.5444,67.2757-1.0366,43.2286-.718,82.39-1.3159s5.0645-11.7244-.9174-15.6723l-62.8491,2.2332-4.7456-26.081-5.2638-29.1914-4.1476-22.8505,197.48-25.8015Z"/><polygon points="842.817 1636.912 822.08 1660.999 821.921 1660.959 842.578 1636.832 842.817 1636.912"/><polygon class="cls-4" points="842.817 1636.912 822.08 1660.999 821.921 1660.959 786.389 1648.636 806.647 1624.39 842.578 1636.832 842.817 1636.912"/><path class="cls-3" d="M946.8828,1589.9366l-90.7936,2.4467a29.101,29.101,0,0,1-9.44-1.3344c-8.4737-2.6691-23.6371-10.0088-27.1306-28.803a17.0643,17.0643,0,0,1,2.5644-12.7889c5.9837-8.7112,23.3769-19.5725,59.91-23.7245l52.8108-8.563,3.5679,21.5,4.8314,29.1735Z"/><polygon class="cls-4" points="993.958 1562.697 943.192 1567.842 938.367 1538.65 988.694 1533.506 993.958 1562.697"/><path class="cls-3" d="M1469.1153,1747.2967c-.12.08-.2392.1195-.3587.1993a920.6,920.6,0,0,1-187.4309,83.5464q-5.5634,1.7945-11.1263,3.4694l-75.0921-65.0025,39.2809-38.3238,66.5579-64.9627,37.9645-36.9678Z"/><polygon class="cls-4" points="1300.946 1666.223 1234.388 1731.185 1214.249 1711.645 1278.694 1646.682 1300.946 1666.223"/></svg>