<svg xmlns="http://www.w3.org/2000/svg" width="70.5556cm" height="70.5556cm" viewBox="0 0 2000 2000"><defs><style>.cls-1{fill:none;stroke:#000;stroke-miterlimit:10;stroke-width:29.7665px;}</style></defs><title>Commodore</title><g id="Layer_3" data-name="Layer 3"><path d="M1214.2676,931.4451s13.258-83.07,63.8222-100.78,83.3976-27,95.0656-31.2691c13.6072-4.9783,38.428-12.9152,70.7885-32.2517,24.162-14.4377,65.5936-46.61,82.4879-66.8637,0,0-28.08,85.9341-58.9041,115.0721s-76.11,42.0967-91.3915,47.01-79.4415,16.6057-94.4608,23.2773S1246.8244,900.1808,1214.2676,931.4451Z"/><path d="M1181.1841,1044.5069s10.7939-79.0963,107.91-109.4116l82.433-22.828s98.4484-34.2886,119.5091-68.8639c0,0-24.8145,77.5855-77.0569,107.9975-27.2528,17.8408-112.2238,30.7652-140.3063,39.649S1209.7834,1020.7492,1181.1841,1044.5069Z"/><path d="M1167.0432,1139.9s9.7-54.9454,67.8188-77.1513c58.08-22.1912,104.4662-29.3087,126.5384-36.69s81.7707-37.19,96.7412-60.3573c0,0-21.0809,72.1555-75.37,103.5686-41.7113,23.4555-120.7131,28.9875-148.0195,37.6711C1207.4114,1115.6354,1185.8884,1130.6666,1167.0432,1139.9Z"/><path d="M749.0751,1366.2075c28.89-68.7856,67.0511-59.4346,124.5017-73.6,100.4272-24.763,171.6149-52.1,224.241-103.1783,46.7738-45.3985,48.7786-150.6192,50.7755-177.2941,0,0,9.6595-218.3906,92.5472-241.7s115.0232-34.8756,161.3267-53.0663c50.6545-19.9,93.7094-61.738,120.6573-152.1739,0,0-41.28,73.3477-122.8622,111.934-45.6686,21.6-143.617,53.6945-186.6359,65.792-82.8877,23.3093-97.6151,264.9144-97.6151,264.9144-4.2774,44.4252-1.19,119.9939-49.3393,159.89-56.4716,46.791-120.1826,72.6055-220.6092,97.3682-57.4507,14.1661-93.5482,27.5144-96.3,100.4269"/><path d="M573.6481,1091.566a13.5189,13.5189,0,0,1,8.3884,1.7662c6.3679,3.6277,12.6577,1.9777,18.4483-2.374,12.0454-9.018,21.9009-29.6572,25.7673-38.5959a9.8942,9.8942,0,0,1,5.949-5.4928c42.5585-14.0446,103.117-77.18,103.117-77.18s57.5322,65.47,38.6712,124.8181h-.0138a81.6178,81.6178,0,0,1-18.0217,30.6371c-119.6868,140.3224-41.2713,214.6107-41.2713,214.6107,0-45.3984-15.1328-107.3054,160.958-145.8252,174.4538-38.1622,185.0628-107.8956,185.0628-124.1152q0-9.6527-.5813-19.1643c-1.2635-20.77-6.8806-50.1672-14.9712-69.3378-21.8095-51.6777-32.294-96.58-76.7874-129.5355a307.5153,307.5153,0,0,0-34.9155-19.9341c1.7608.1376,3.5218.289,5.2689.4815A308.6385,308.6385,0,0,1,996.8405,843.84,311.3834,311.3834,0,0,0,723.4457,753.648c-36.5112-67.231-78.6218-67.3547-78.9244-67.3547,31.6413,26.1384,22.0113,72.9126,22.0113,72.9126-11.0056-33.0171-41.2713-46.7742-41.2713-46.7742,5.379,17.9255,2.5864,52.7722-.0137,74.8937-1.4033,11.8448-2.7377,20.03-2.7377,20.03-49.5255,0-88.0454,99.0511-88.0454,99.0511,2.4075.1926,4.6774.3164,6.8235.3577,11.1709.2889,19.0812-1.1694,24.5565-3.0541,7.9653-2.7239,10.84-6.342,11.2257-6.8648-11.16,19.7672-17.49,41.13-20.6673,54.3732a103.4952,103.4952,0,0,1-10.4954,26.7978l-22.1819,39.2449a51.0427,51.0427,0,0,0-6.6673,25.8207C517.8011,1094.2522,559.2776,1093.4016,573.6481,1091.566Z"/><polygon points="523.977 515.269 523.977 425.49 535.687 493.8 523.977 515.269"/><polygon points="530.808 516.245 554.228 492.825 548.373 508.438 530.808 516.245"/><polygon points="517.146 521.125 427.366 521.125 495.677 509.414 517.146 521.125"/><polygon points="518.122 514.294 494.701 490.873 510.315 496.728 518.122 514.294"/><polygon points="523.001 527.956 523.001 617.735 511.291 549.425 523.001 527.956"/><polygon points="516.17 526.98 492.749 550.4 498.604 534.787 516.17 526.98"/><polygon points="529.832 522.1 619.611 522.1 551.301 533.811 529.832 522.1"/><polygon points="528.856 528.931 552.277 552.352 536.663 546.497 528.856 528.931"/><path class="cls-1" d="M358.068,422.2611s29.4494,326.8416,64.1931,513.5458c18.7662,100.8447,40.2241,196.2839,63.2734,286.0057,41.5549,161.7565,130.0628,307.7965,255.4328,418.1335.7521.662,180.425,144.5339,259.0327,194.5657,78.6077-50.0318,258.2806-193.9037,259.0327-194.5657,125.37-110.337,213.8784-256.377,255.4332-418.1335,23.0489-89.7218,44.5068-185.161,63.273-286.0057a4342.2977,4342.2977,0,0,0,64.1931-513.5458A2444.391,2444.391,0,0,0,1000,165.4882,2444.391,2444.391,0,0,0,358.068,422.2611Z"/></g></svg>