<svg xmlns="http://www.w3.org/2000/svg" width="70.5556cm" height="70.5556cm" viewBox="0 0 2000 2000"><title>Freax</title><g id="Layer_4" data-name="Layer 4"><path d="M1296.36,583.6584c-17.1854,13.2921-34.3708,28.1377-50.0027,45.3231-17.1854,17.1854-32.031,35.9241-46.09,57.0225l-26.5645-67.9748-29.6912-78.9074L1000.2556,165.7031,855.7527,540.6949l-29.7106,76.5674-25.7782,67.9551a391.2618,391.2618,0,0,0-44.5168-56.2359c-16.399-17.972-34.3709-33.604-52.3429-47.6629C606.525,504.7708,498.7131,476.633,498.7131,476.633c10.9523,10.9327,20.3119,24.2247,28.9045,39.8371,10.9523,18.7585,20.3119,41.41,28.1377,64.8485l1.5533,3.9129c42.1967,132.0169,42.1967,307.0171,42.1967,307.0171l800.7535,1.573s.7864-185.166,46.8764-317.1828c7.02-21.0984,14.8454-39.8568,24.9915-57.0422L1473.7,516.47c7.8064-14.0589,17.1856-27.3314,27.3515-37.4972C1501.0511,478.9729,1393.2194,507.1105,1296.36,583.6584ZM1000,706.4927c19.1714,0,34.7247,27.6855,34.7247,61.84s-15.5533,61.86-34.7247,61.86-34.7247-27.7051-34.7247-61.86S980.8286,706.4927,1000,706.4927Zm-294.767,1.8484c16.34-2.9888,34.587,21.8062,40.7612,55.41,6.1742,33.5843-2.0646,63.2556-18.4045,66.2641-16.34,2.9888-34.5871-21.8062-40.7613-55.41C680.6543,741.0209,688.8931,711.35,705.233,708.3411Zm564.6605,122.1855a6.545,6.545,0,0,1-.8651-.118c-15.1406-2.7725-22.3963-32.2669-16.2219-65.8511,6.174-33.6041,23.4381-58.576,38.5587-55.8035s22.3964,32.2669,16.222,65.8512c-5.6627,30.7921-20.6264,54.3484-34.7443,55.9214A12.3309,12.3309,0,0,1,1269.8935,830.5266Z"/><path d="M1296.281,1756.6705c-346.736,1.1012-495.6239-507.2448-495.6239-507.2448-99.2192,153.0564-297.8344,153.5872-297.8344,153.5872,198.5366-102.3848,96.25-409.8543,96.25-409.8543l154.61.02,529.857.0591h117.3879c-198.6153,255.2249,93.89,407.121,93.89,407.121-198.1828.531-346.8148-151.7782-346.8148-151.7782C1048.6854,1605.01,1296.281,1756.6705,1296.281,1756.6705Z"/><polygon points="399.173 1421.862 434.545 1433.044 456.269 1463.75 467.218 1427.479 497.198 1405.167 461.831 1393.983 440.103 1363.263 429.155 1399.548 399.173 1421.862"/><polygon points="1301.993 1764.474 1321.343 1796.61 1317.971 1834.297 1349.384 1814.324 1386.117 1817.621 1366.778 1785.493 1370.155 1747.798 1338.737 1767.775 1301.993 1764.474"/><polygon points="1505.108 1398.526 1541.26 1406.03 1565.7 1434.324 1573.165 1397.172 1600.827 1371.949 1564.678 1364.442 1540.234 1336.135 1532.77 1373.301 1505.108 1398.526"/></g></svg>