<?xml version="1.0" encoding="utf-8"?>
<!-- Generator: Adobe Illustrator 19.0.1, SVG Export Plug-In . SVG Version: 6.00 Build 0)  -->
<!DOCTYPE svg PUBLIC "-//W3C//DTD SVG 1.1//EN" "http://www.w3.org/Graphics/SVG/1.1/DTD/svg11.dtd">
<svg version="1.1" id="Calque_1" xmlns="http://www.w3.org/2000/svg" xmlns:xlink="http://www.w3.org/1999/xlink" x="0px" y="0px"
	 viewBox="0 0 41.1 41.2" enable-background="new 0 0 41.1 41.2" xml:space="preserve">
<g>
	<circle fill="#B9ABCC" cx="20.6" cy="20.6" r="20.1"/>
	<path fill="#876B9F" d="M20.6,41.2C9.2,41.2,0,31.9,0,20.6S9.2,0,20.6,0c11.3,0,20.6,9.2,20.6,20.6S31.9,41.2,20.6,41.2z M20.6,1
		C9.8,1,1,9.8,1,20.6c0,10.8,8.8,19.6,19.6,19.6s19.6-8.8,19.6-19.6C40.2,9.8,31.4,1,20.6,1z"/>
</g>
<g>
	<g>
		<path fill="#FFFFFF" d="M31,10.2h-10l2.1,17.9c0.1,1.5,1.3,2.9,2.9,2.9c1.5,0,2.7-1.3,2.9-2.9L31,10.2z"/>
		<path fill="#876B9F" d="M25.9,31.5c-1.7,0-3.2-1.5-3.4-3.3l-2.1-17.9c0-0.1,0-0.3,0.1-0.4s0.2-0.2,0.4-0.2h10
			c0.1,0,0.3,0.1,0.4,0.2s0.1,0.2,0.1,0.4l-2.1,17.9C29.1,30,27.7,31.5,25.9,31.5z M21.5,10.7L23.6,28c0.1,1.4,1.2,2.4,2.4,2.4
			c1.2,0,2.2-1.1,2.4-2.4l2.1-17.4H21.5z"/>
	</g>
	<g>
		<path fill="#FFFFFF" d="M10.2,31h10l-2.1-17.9c-0.1-1.5-1.3-2.9-2.9-2.9c-1.5,0-2.7,1.3-2.9,2.9L10.2,31z"/>
		<path fill="#876B9F" d="M20.2,31.5h-10c-0.1,0-0.3-0.1-0.4-0.2c-0.1-0.1-0.1-0.2-0.1-0.4L11.9,13c0.2-1.8,1.6-3.3,3.4-3.3
			c1.7,0,3.2,1.5,3.4,3.3l2.1,17.9c0,0.1,0,0.3-0.1,0.4C20.5,31.4,20.4,31.5,20.2,31.5z M10.8,30.5h8.9l-2.1-17.3
			c-0.1-1.4-1.2-2.4-2.4-2.4c-1.2,0-2.2,1.1-2.4,2.4L10.8,30.5z"/>
	</g>
	
		<rect x="18.2" y="15.1" transform="matrix(9.946340e-02 0.995 -0.995 9.946340e-02 36.7649 -9.484)" fill="#876B9F" width="10.8" height="1"/>
	
		<rect x="27.8" y="10.2" transform="matrix(0.995 9.969727e-02 -9.969727e-02 0.995 1.6931 -2.7413)" fill="#876B9F" width="1" height="10.8"/>
	<g>
		<path fill="#FFFFFF" d="M27.4,28.1c0,0.8-0.6,1.4-1.4,1.4s-1.4-0.6-1.4-1.4v-2.1c0-0.8,0.6-1.4,1.4-1.4s1.4,0.6,1.4,1.4V28.1z"/>
		<path fill="#876B9F" d="M25.9,30c-1.1,0-1.9-0.9-1.9-1.9v-2.1c0-1.1,0.9-1.9,1.9-1.9c1.1,0,1.9,0.9,1.9,1.9v2.1
			C27.9,29.2,27,30,25.9,30z M25.9,25c-0.5,0-0.9,0.4-0.9,0.9v2.1c0,0.5,0.4,0.9,0.9,0.9c0.5,0,0.9-0.4,0.9-0.9v-2.1
			C26.9,25.4,26.5,25,25.9,25z"/>
	</g>
	
		<rect x="12.1" y="25.1" transform="matrix(9.950820e-02 0.995 -0.995 9.950820e-02 41.2562 5.5933)" fill="#876B9F" width="10.8" height="1"/>
	
		<rect x="12.4" y="20.2" transform="matrix(0.995 9.960040e-02 -9.960040e-02 0.995 2.6129 -1.1562)" fill="#876B9F" width="1" height="10.8"/>
	<g>
		<path fill="#FFFFFF" d="M13.8,13.1c0-0.8,0.6-1.4,1.4-1.4c0.8,0,1.4,0.6,1.4,1.4v2.1c0,0.8-0.6,1.4-1.4,1.4
			c-0.8,0-1.4-0.6-1.4-1.4V13.1z"/>
		<path fill="#876B9F" d="M15.2,17.1c-1.1,0-1.9-0.9-1.9-1.9v-2.1c0-1.1,0.9-1.9,1.9-1.9s1.9,0.9,1.9,1.9v2.1
			C17.1,16.3,16.3,17.1,15.2,17.1z M15.2,12.1c-0.5,0-0.9,0.4-0.9,0.9v2.1c0,0.5,0.4,0.9,0.9,0.9s0.9-0.4,0.9-0.9v-2.1
			C16.1,12.6,15.7,12.1,15.2,12.1z"/>
	</g>
</g>
</svg>
