<?xml version="1.0" encoding="utf-8"?>
<!-- Generator: Adobe Illustrator 19.0.1, SVG Export Plug-In . SVG Version: 6.00 Build 0)  -->
<!DOCTYPE svg PUBLIC "-//W3C//DTD SVG 1.1//EN" "http://www.w3.org/Graphics/SVG/1.1/DTD/svg11.dtd">
<svg version="1.1" id="Calque_1" xmlns="http://www.w3.org/2000/svg" xmlns:xlink="http://www.w3.org/1999/xlink" x="0px" y="0px"
	 viewBox="0 0 41.2 41.2" enable-background="new 0 0 41.2 41.2" xml:space="preserve">
<g>
	<circle fill="#B9ABCC" cx="20.6" cy="20.6" r="20.1"/>
	<path fill="#876B9F" d="M20.6,41.2C9.2,41.2,0,31.9,0,20.6S9.2,0,20.6,0c11.3,0,20.6,9.2,20.6,20.6S31.9,41.2,20.6,41.2z M20.6,1
		C9.8,1,1,9.8,1,20.6c0,10.8,8.8,19.6,19.6,19.6s19.6-8.8,19.6-19.6C40.2,9.8,31.4,1,20.6,1z"/>
</g>
<polygon fill="#FFFFFF" points="16.8,24.7 27.8,24.7 27.8,18.7 "/>
<g>
	<path fill="#876B9F" d="M29,25.3c-0.1,0-0.1,0-0.2,0l-1.5-0.7l0.3-0.7l1.2,0.6l0.6-1.2l0.7,0.3L29.3,25c0,0.1-0.1,0.2-0.2,0.2
		C29,25.2,29,25.3,29,25.3z"/>
	<path fill="#876B9F" d="M22.4,28.9l-0.7-0.3l0.7-1.5c0.1-0.2,0.3-0.3,0.5-0.2l1.5,0.7l-0.3,0.7L23,27.7L22.4,28.9z"/>
	<g>
		<path fill="#FFFFFF" d="M20.1,24.9H15c-0.9,0-1.7-0.8-1.7-1.7v-8c0-0.9,0.8-1.7,1.7-1.7h10.8c0.9,0,1.7,0.8,1.7,1.7V20"/>
		<path fill="#876B9F" d="M20.1,25.3H15c-1.1,0-2.1-0.9-2.1-2.1v-8c0-1.1,0.9-2.1,2.1-2.1h10.8c1.1,0,2.1,0.9,2.1,2.1V20h-0.8v-4.8
			c0-0.7-0.6-1.3-1.3-1.3H15c-0.7,0-1.3,0.6-1.3,1.3v8c0,0.7,0.6,1.3,1.3,1.3h5.1V25.3z"/>
	</g>
	<g>
		<line fill="#FFFFFF" x1="13.3" y1="16.3" x2="27.5" y2="16.3"/>
		<rect x="13.3" y="16" fill="#876B9F" width="14.3" height="0.8"/>
	</g>
	<g>
		<circle fill="#FFFFFF" cx="15.3" cy="14.9" r="0.3"/>
		<circle fill="#876B9F" cx="15.3" cy="14.9" r="0.7"/>
	</g>
	<g>
		<circle fill="#FFFFFF" cx="17" cy="14.9" r="0.3"/>
		<circle fill="#876B9F" cx="17" cy="14.9" r="0.7"/>
	</g>
	<g>
		<circle fill="#FFFFFF" cx="18.7" cy="14.9" r="0.3"/>
		<circle fill="#876B9F" cx="18.7" cy="14.9" r="0.7"/>
	</g>
	<path fill="#876B9F" d="M28.6,25c-0.4-1.2-1.6-2-2.9-2s-2.4,0.8-2.9,2l-0.7-0.2c0.5-1.5,2-2.5,3.6-2.5s3,1,3.6,2.5L28.6,25z"/>
	<path fill="#876B9F" d="M26.2,30.4c-1.9,0-3.4-1.3-3.7-3.2l0.7-0.1c0.2,1.5,1.5,2.5,3,2.5c1.5,0,2.8-1.1,3-2.5l0.7,0.1
		C29.6,29.1,28,30.4,26.2,30.4z"/>
</g>
</svg>
