<?xml version="1.0" encoding="utf-8"?>
<!-- Generator: Adobe Illustrator 19.0.1, SVG Export Plug-In . SVG Version: 6.00 Build 0)  -->
<!DOCTYPE svg PUBLIC "-//W3C//DTD SVG 1.1//EN" "http://www.w3.org/Graphics/SVG/1.1/DTD/svg11.dtd">
<svg version="1.1" id="Calque_1" xmlns="http://www.w3.org/2000/svg" xmlns:xlink="http://www.w3.org/1999/xlink" x="0px" y="0px"
	 viewBox="0 0 41.2 41.2" enable-background="new 0 0 41.2 41.2" xml:space="preserve">
<g>
	<circle fill="#B9ABCC" cx="20.6" cy="20.6" r="20.1"/>
	<path fill="#876B9F" d="M20.6,41.2C9.2,41.2,0,31.9,0,20.6S9.2,0,20.6,0c11.3,0,20.6,9.2,20.6,20.6S31.9,41.2,20.6,41.2z M20.6,1
		C9.8,1,1,9.8,1,20.6c0,10.8,8.8,19.6,19.6,19.6s19.6-8.8,19.6-19.6C40.2,9.8,31.4,1,20.6,1z"/>
</g>
<g>
	<g>
		<path fill="#FFFFFF" d="M18.8,28h-6.3c-1.3,0-2.4-1.1-2.4-2.4V14.5c0-1.3,1.1-2.4,2.4-2.4h15.1c1.3,0,2.4,1.1,2.4,2.4v6.7V28H18.8
			z"/>
		<path fill="#876B9F" d="M29.9,28.5H12.4c-1.6,0-2.9-1.3-2.9-2.9V14.5c0-1.6,1.3-2.9,2.9-2.9h15.1c1.6,0,2.9,1.3,2.9,2.9V28
			C30.4,28.3,30.1,28.5,29.9,28.5z M12.4,12.6c-1,0-1.9,0.8-1.9,1.9v11.1c0,1,0.8,1.9,1.9,1.9h16.9v-13c0-1-0.8-1.9-1.9-1.9H12.4z"
			/>
	</g>
	<g>
		<line fill="#FFFFFF" x1="10" y1="16.2" x2="29.9" y2="16.2"/>
		<rect x="10" y="15.7" fill="#876B9F" width="19.8" height="1"/>
	</g>
	<g>
		<circle fill="#FFFFFF" cx="12.8" cy="14.2" r="0.4"/>
		<circle fill="#876B9F" cx="12.8" cy="14.2" r="0.9"/>
	</g>
	<g>
		<circle fill="#FFFFFF" cx="15.2" cy="14.2" r="0.4"/>
		<circle fill="#876B9F" cx="15.2" cy="14.2" r="0.9"/>
	</g>
	<g>
		<circle fill="#FFFFFF" cx="17.6" cy="14.2" r="0.4"/>
		<circle fill="#876B9F" cx="17.6" cy="14.2" r="0.9"/>
	</g>
	<g>
		<g>
			<polygon fill="#FFFFFF" points="27.6,21.3 29.2,25.3 33.1,25.3 30,27.7 31.9,32.4 27.6,29.7 23.6,32.4 25.2,27.7 22,25.3 
				26,25.3 			"/>
			<path fill="#876B9F" d="M23.6,32.9c-0.1,0-0.2,0-0.3-0.1c-0.2-0.1-0.2-0.4-0.2-0.6l1.5-4.4l-2.9-2.2c-0.2-0.1-0.2-0.4-0.2-0.6
				c0.1-0.2,0.3-0.3,0.5-0.3h3.6l1.5-3.7c0.2-0.4,0.8-0.4,0.9,0l1.5,3.7h3.6c0.2,0,0.4,0.1,0.5,0.3c0.1,0.2,0,0.4-0.2,0.6l-2.9,2.1
				l1.8,4.4c0.1,0.2,0,0.4-0.1,0.6c-0.2,0.1-0.4,0.2-0.6,0l-4.1-2.6l-3.7,2.6C23.8,32.9,23.7,32.9,23.6,32.9z M27.6,29.2
				c0.1,0,0.2,0,0.3,0.1l3,1.9l-1.4-3.3c-0.1-0.2,0-0.5,0.2-0.6l2-1.5h-2.5c-0.2,0-0.4-0.1-0.5-0.3l-1.1-2.8l-1.1,2.8
				c-0.1,0.2-0.3,0.3-0.5,0.3h-2.5l2,1.5c0.2,0.1,0.2,0.4,0.2,0.6l-1.1,3.3l2.7-1.9C27.4,29.2,27.5,29.2,27.6,29.2z"/>
		</g>
	</g>
</g>
</svg>
