<?xml version="1.0" encoding="utf-8"?>
<!-- Generator: Adobe Illustrator 19.0.1, SVG Export Plug-In . SVG Version: 6.00 Build 0)  -->
<!DOCTYPE svg PUBLIC "-//W3C//DTD SVG 1.1//EN" "http://www.w3.org/Graphics/SVG/1.1/DTD/svg11.dtd">
<svg version="1.1" id="Calque_1" xmlns="http://www.w3.org/2000/svg" xmlns:xlink="http://www.w3.org/1999/xlink" x="0px" y="0px"
	 viewBox="0 0 41.2 41.1" enable-background="new 0 0 41.2 41.1" xml:space="preserve">
<g>
	<circle fill="#B9ABCC" cx="20.6" cy="20.6" r="20.1"/>
	<path fill="#876B9F" d="M20.6,41.2C9.2,41.2,0,31.9,0,20.6S9.2,0,20.6,0c11.3,0,20.6,9.2,20.6,20.6S31.9,41.2,20.6,41.2z M20.6,1
		C9.8,1,1,9.8,1,20.6c0,10.8,8.8,19.6,19.6,19.6s19.6-8.8,19.6-19.6C40.2,9.8,31.4,1,20.6,1z"/>
</g>
<g>
	<g>
		<path fill="#FFFFFF" d="M28.8,16.3h0.3c1,0,1.7,0.8,1.7,1.7v9c0,1-0.8,1.7-1.7,1.7H16c-1,0-1.7-0.8-1.7-1.7v-0.3"/>
		<path fill="#876B9F" d="M29.1,29H16c-1.2,0-2.1-0.9-2.1-2.1v-0.3h0.8v0.3c0,0.7,0.6,1.3,1.3,1.3h13.1c0.7,0,1.3-0.6,1.3-1.3v-9
			c0-0.7-0.6-1.3-1.3-1.3h-0.3v-0.8h0.3c1.2,0,2.1,0.9,2.1,2.1v9C31.2,28.1,30.3,29,29.1,29z"/>
	</g>
	<g>
		<path fill="#FFFFFF" d="M26.7,14.2H27c1,0,1.7,0.8,1.7,1.7v9c0,1-0.8,1.7-1.7,1.7H13.9c-1,0-1.7-0.8-1.7-1.7v-0.3"/>
		<path fill="#876B9F" d="M27,27H13.9c-1.2,0-2.1-0.9-2.1-2.1v-0.3h0.8v0.3c0,0.7,0.6,1.3,1.3,1.3H27c0.7,0,1.3-0.6,1.3-1.3v-9
			c0-0.7-0.6-1.3-1.3-1.3h-0.3v-0.8H27c1.2,0,2.1,0.9,2.1,2.1v9C29.1,26,28.2,27,27,27z"/>
	</g>
	<g>
		<path fill="#FFFFFF" d="M26.7,23.2c0,0.8-0.6,1.4-1.4,1.4H12.2c-0.8,0-1.4-0.6-1.4-1.4v-9c0-0.8,0.6-1.4,1.4-1.4h13.1
			c0.8,0,1.4,0.6,1.4,1.4V23.2z"/>
		<path fill="#876B9F" d="M25.3,24.9H12.2c-1,0-1.8-0.8-1.8-1.8v-9c0-1,0.8-1.8,1.8-1.8h13.1c1,0,1.8,0.8,1.8,1.8v9
			C27.1,24.1,26.3,24.9,25.3,24.9z M12.2,13.2c-0.6,0-1,0.5-1,1v9c0,0.6,0.5,1,1,1h13.1c0.6,0,1-0.5,1-1v-9c0-0.6-0.5-1-1-1H12.2z"
			/>
	</g>
	<g>
		<line fill="#FFFFFF" x1="10.8" y1="15.6" x2="26.7" y2="15.6"/>
		<rect x="10.8" y="15.2" fill="#876B9F" width="15.9" height="0.8"/>
	</g>
	<g>
		<g>
			<path fill="#FFFFFF" d="M13.2,13.8c-0.2,0-0.3,0.2-0.3,0.3c0,0.2,0.2,0.3,0.3,0.3c0.2,0,0.3-0.2,0.3-0.3
				C13.6,14,13.4,13.8,13.2,13.8L13.2,13.8z"/>
			<circle fill="#876B9F" cx="13.2" cy="14.2" r="0.7"/>
		</g>
	</g>
	<g>
		<g>
			<path fill="#FFFFFF" d="M14.6,13.8c-0.2,0-0.3,0.2-0.3,0.3c0,0.2,0.2,0.3,0.3,0.3c0.2,0,0.3-0.2,0.3-0.3
				C15,14,14.8,13.8,14.6,13.8L14.6,13.8z"/>
			<circle fill="#876B9F" cx="14.6" cy="14.2" r="0.7"/>
		</g>
	</g>
	<g>
		<g>
			<path fill="#FFFFFF" d="M16,13.8c-0.2,0-0.3,0.2-0.3,0.3c0,0.2,0.2,0.3,0.3,0.3c0.2,0,0.3-0.2,0.3-0.3C16.4,14,16.2,13.8,16,13.8
				L16,13.8z"/>
			<circle fill="#876B9F" cx="16" cy="14.2" r="0.7"/>
		</g>
	</g>
</g>
</svg>
