<?xml version="1.0" encoding="utf-8"?>
<!-- Generator: Adobe Illustrator 19.0.1, SVG Export Plug-In . SVG Version: 6.00 Build 0)  -->
<!DOCTYPE svg PUBLIC "-//W3C//DTD SVG 1.1//EN" "http://www.w3.org/Graphics/SVG/1.1/DTD/svg11.dtd">
<svg version="1.1" id="Calque_1" xmlns="http://www.w3.org/2000/svg" xmlns:xlink="http://www.w3.org/1999/xlink" x="0px" y="0px"
	 viewBox="0 0 41.2 41.2" enable-background="new 0 0 41.2 41.2" xml:space="preserve">
<g>
	<circle fill="#B9ABCC" cx="20.6" cy="20.6" r="20.1"/>
	<path fill="#876B9F" d="M20.6,41.2C9.2,41.2,0,31.9,0,20.6S9.2,0,20.6,0c11.3,0,20.6,9.2,20.6,20.6S31.9,41.2,20.6,41.2z M20.6,1
		C9.8,1,1,9.8,1,20.6c0,10.8,8.8,19.6,19.6,19.6s19.6-8.8,19.6-19.6C40.2,9.8,31.4,1,20.6,1z"/>
</g>
<g>
	<g>
		<path fill="#FFFFFF" d="M31.6,26.5c0,1.3-1,2.3-2.3,2.3H11.9c-1.3,0-2.3-1-2.3-2.3V14.3c0-1.3,1-2.3,2.3-2.3h17.4
			c1.3,0,2.3,1,2.3,2.3V26.5z"/>
		<path fill="#876B9F" d="M29.3,29.1H11.9c-1.5,0-2.7-1.2-2.7-2.7V14.3c0-1.5,1.2-2.7,2.7-2.7h17.4c1.5,0,2.7,1.2,2.7,2.7v12.1
			C32,27.9,30.8,29.1,29.3,29.1z M11.9,12.4c-1,0-1.9,0.9-1.9,1.9v12.1c0,1,0.9,1.9,1.9,1.9h17.4c1,0,1.9-0.9,1.9-1.9V14.3
			c0-1-0.9-1.9-1.9-1.9H11.9z"/>
	</g>
	<g>
		<line fill="#FFFFFF" x1="9.6" y1="15.9" x2="31.6" y2="15.9"/>
		<rect x="9.6" y="15.5" fill="#876B9F" width="22" height="0.8"/>
	</g>
	<g>
		<circle fill="#FFFFFF" cx="12.2" cy="14" r="0.4"/>
		<circle fill="#876B9F" cx="12.2" cy="14" r="0.8"/>
	</g>
	<g>
		<circle fill="#FFFFFF" cx="14.5" cy="14" r="0.4"/>
		<circle fill="#876B9F" cx="14.5" cy="14" r="0.8"/>
	</g>
	<g>
		<circle fill="#FFFFFF" cx="16.8" cy="14" r="0.4"/>
		<circle fill="#876B9F" cx="16.8" cy="14" r="0.8"/>
	</g>
	<g>
		<polyline fill="#FFFFFF" points="14.1,24.2 16.4,21.9 14.1,19.7 		"/>
		<path fill="#876B9F" d="M14.4,24.5l-0.5-0.5l2-2l-2-2l0.5-0.5l2.3,2.3c0.1,0.1,0.1,0.4,0,0.5L14.4,24.5z"/>
	</g>
	<g>
		<line fill="#FFFFFF" x1="19.4" y1="21.9" x2="24" y2="21.9"/>
		<rect x="19.4" y="21.6" fill="#876B9F" width="4.6" height="0.8"/>
	</g>
</g>
</svg>
