<?xml version="1.0" encoding="utf-8"?>
<!-- Generator: Adobe Illustrator 19.0.1, SVG Export Plug-In . SVG Version: 6.00 Build 0)  -->
<!DOCTYPE svg PUBLIC "-//W3C//DTD SVG 1.1//EN" "http://www.w3.org/Graphics/SVG/1.1/DTD/svg11.dtd">
<svg version="1.1" id="Calque_1" xmlns="http://www.w3.org/2000/svg" xmlns:xlink="http://www.w3.org/1999/xlink" x="0px" y="0px"
	 viewBox="0 0 41.2 41.2" enable-background="new 0 0 41.2 41.2" xml:space="preserve">
<g>
	<circle fill="#B9ABCC" cx="20.6" cy="20.6" r="20.1"/>
	<path fill="#876B9F" d="M20.6,41.2C9.2,41.2,0,31.9,0,20.6C0,9.2,9.2,0,20.6,0c11.3,0,20.6,9.2,20.6,20.6
		C41.2,31.9,31.9,41.2,20.6,41.2z M20.6,1C9.8,1,1,9.8,1,20.6s8.8,19.6,19.6,19.6s19.6-8.8,19.6-19.6S31.4,1,20.6,1z"/>
</g>
<g>
	<g>
		<path fill="#FFFFFF" d="M32.3,27.1c0,1.3-1,2.3-2.3,2.3H12.2c-1.3,0-2.3-1-2.3-2.3V14.7c0-1.3,1-2.3,2.3-2.3h17.8
			c1.3,0,2.3,1,2.3,2.3V27.1z"/>
		<path fill="#876B9F" d="M29.9,29.8H12.2c-1.5,0-2.7-1.2-2.7-2.7V14.7c0-1.5,1.2-2.7,2.7-2.7h17.8c1.5,0,2.7,1.2,2.7,2.7v12.4
			C32.6,28.5,31.4,29.8,29.9,29.8z M12.2,12.8c-1.1,0-1.9,0.9-1.9,1.9v12.4c0,1.1,0.9,1.9,1.9,1.9h17.8c1.1,0,1.9-0.9,1.9-1.9V14.7
			c0-1.1-0.9-1.9-1.9-1.9H12.2z"/>
	</g>
	<g>
		<line fill="#FFFFFF" x1="9.9" y1="16.2" x2="32.3" y2="16.2"/>
		<rect x="9.9" y="15.9" fill="#876B9F" width="22.4" height="0.8"/>
	</g>
	<g>
		<circle fill="#FFFFFF" cx="12.6" cy="14.3" r="0.4"/>
		<circle fill="#876B9F" cx="12.6" cy="14.3" r="0.8"/>
	</g>
	<g>
		<circle fill="#FFFFFF" cx="14.9" cy="14.3" r="0.4"/>
		<circle fill="#876B9F" cx="14.9" cy="14.3" r="0.8"/>
	</g>
	<g>
		<circle fill="#FFFFFF" cx="17.2" cy="14.3" r="0.4"/>
		<circle fill="#876B9F" cx="17.2" cy="14.3" r="0.8"/>
	</g>
	<g>
		<rect x="12.9" y="18.6" fill="#FFFFFF" width="3.9" height="3.1"/>
		<path fill="#876B9F" d="M16.8,22h-3.9c-0.2,0-0.4-0.2-0.4-0.4v-3.1c0-0.2,0.2-0.4,0.4-0.4h3.9c0.2,0,0.4,0.2,0.4,0.4v3.1
			C17.2,21.9,17,22,16.8,22z M13.3,21.3h3.1v-2.3h-3.1V21.3z"/>
	</g>
	<g>
		<rect x="19.1" y="18.6" fill="#FFFFFF" width="3.9" height="3.1"/>
		<path fill="#876B9F" d="M23,22h-3.9c-0.2,0-0.4-0.2-0.4-0.4v-3.1c0-0.2,0.2-0.4,0.4-0.4H23c0.2,0,0.4,0.2,0.4,0.4v3.1
			C23.4,21.9,23.2,22,23,22z M19.5,21.3h3.1v-2.3h-3.1V21.3z"/>
	</g>
	<g>
		<rect x="25.3" y="18.6" fill="#FFFFFF" width="3.9" height="3.1"/>
		<path fill="#876B9F" d="M29.2,22h-3.9c-0.2,0-0.4-0.2-0.4-0.4v-3.1c0-0.2,0.2-0.4,0.4-0.4h3.9c0.2,0,0.4,0.2,0.4,0.4v3.1
			C29.5,21.9,29.4,22,29.2,22z M25.7,21.3h3.1v-2.3h-3.1V21.3z"/>
	</g>
	<g>
		<rect x="12.9" y="24" fill="#FFFFFF" width="3.9" height="3.1"/>
		<path fill="#876B9F" d="M16.8,27.4h-3.9c-0.2,0-0.4-0.2-0.4-0.4V24c0-0.2,0.2-0.4,0.4-0.4h3.9c0.2,0,0.4,0.2,0.4,0.4v3.1
			C17.2,27.3,17,27.4,16.8,27.4z M13.3,26.7h3.1v-2.3h-3.1V26.7z"/>
	</g>
	<g>
		<rect x="19.1" y="24" fill="#FFFFFF" width="3.9" height="3.1"/>
		<path fill="#876B9F" d="M23,27.4h-3.9c-0.2,0-0.4-0.2-0.4-0.4V24c0-0.2,0.2-0.4,0.4-0.4H23c0.2,0,0.4,0.2,0.4,0.4v3.1
			C23.4,27.3,23.2,27.4,23,27.4z M19.5,26.7h3.1v-2.3h-3.1V26.7z"/>
	</g>
	<g>
		<rect x="25.3" y="24" fill="#FFFFFF" width="3.9" height="3.1"/>
		<path fill="#876B9F" d="M29.2,27.4h-3.9c-0.2,0-0.4-0.2-0.4-0.4V24c0-0.2,0.2-0.4,0.4-0.4h3.9c0.2,0,0.4,0.2,0.4,0.4v3.1
			C29.5,27.3,29.4,27.4,29.2,27.4z M25.7,26.7h3.1v-2.3h-3.1V26.7z"/>
	</g>
</g>
</svg>
