<?xml version="1.0" encoding="utf-8"?>
<!-- Generator: Adobe Illustrator 19.0.1, SVG Export Plug-In . SVG Version: 6.00 Build 0)  -->
<!DOCTYPE svg PUBLIC "-//W3C//DTD SVG 1.1//EN" "http://www.w3.org/Graphics/SVG/1.1/DTD/svg11.dtd">
<svg version="1.1" id="Calque_1" xmlns="http://www.w3.org/2000/svg" xmlns:xlink="http://www.w3.org/1999/xlink" x="0px" y="0px"
	 viewBox="-401 279.7 37.6 37.6" style="enable-background:new -401 279.7 37.6 37.6;" xml:space="preserve">
<style type="text/css">
	.st0{fill:#FCC963;}
	.st1{fill:#F7A817;}
	.st2{fill:#FFFFFF;}
</style>
<g>
	<g>
		<path class="st0" d="M-363.9,298.5c0-1.6-1.1-2.8-2.6-3.1c1.3-0.8,1.8-2.4,1.2-3.9c-0.6-1.4-2.1-2.2-3.6-1.9
			c0.9-1.2,0.7-2.9-0.4-4c-1.1-1.1-2.8-1.2-4-0.4c0.3-1.5-0.5-3-1.9-3.6c-1.4-0.6-3.1-0.1-3.9,1.2c-0.3-1.5-1.6-2.6-3.1-2.6
			c-1.6,0-2.8,1.1-3.1,2.6c-0.8-1.3-2.4-1.8-3.9-1.2c-1.4,0.6-2.2,2.1-1.9,3.6c-1.2-0.9-2.9-0.7-4,0.4s-1.3,2.8-0.4,4
			c-1.5-0.3-3,0.5-3.6,1.9c-0.6,1.4-0.1,3.1,1.2,3.9c-1.5,0.3-2.6,1.6-2.6,3.1c0,1.6,1.1,2.8,2.6,3.1c-1.3,0.8-1.8,2.4-1.2,3.9
			c0.6,1.4,2.1,2.2,3.6,1.9c-0.8,1.2-0.7,2.9,0.4,4c1.1,1.1,2.8,1.2,4,0.4c-0.3,1.5,0.5,3,1.9,3.6c1.4,0.6,3.1,0.1,3.9-1.2
			c0.3,1.5,1.6,2.6,3.1,2.6c1.6,0,2.8-1.1,3.1-2.6c0.8,1.3,2.4,1.8,3.9,1.2c1.4-0.6,2.2-2.1,1.9-3.6c1.2,0.9,2.9,0.7,4-0.4
			c1.1-1.1,1.2-2.8,0.4-4c1.5,0.3,3-0.5,3.6-1.9c0.6-1.4,0.1-3.1-1.2-3.9C-365,301.3-363.9,300.1-363.9,298.5z"/>
		<path class="st1" d="M-382.2,317.3c-1.4,0-2.7-0.8-3.3-2.1c-1,0.9-2.5,1.2-3.9,0.7s-2.2-1.8-2.3-3.2c-1.3,0.5-2.8,0.2-3.8-0.9
			c-1-1-1.3-2.5-0.9-3.8c-1.3-0.1-2.6-1-3.2-2.3s-0.3-2.8,0.7-3.9c-1.3-0.6-2.1-1.9-2.1-3.3c0-1.4,0.8-2.7,2.1-3.3
			c-0.9-1-1.2-2.5-0.7-3.9c0.6-1.3,1.9-2.2,3.2-2.3c-0.4-1.3-0.1-2.8,0.9-3.8s2.5-1.3,3.8-0.9c0.1-1.4,0.9-2.7,2.3-3.2
			c1.3-0.6,2.8-0.3,3.9,0.7c0.6-1.3,1.9-2.1,3.3-2.1c1.4,0,2.7,0.8,3.3,2.1c1-0.9,2.5-1.2,3.9-0.7c1.3,0.6,2.2,1.8,2.3,3.2
			c1.3-0.5,2.8-0.2,3.8,0.9c1,1,1.3,2.5,0.9,3.8c1.4,0.1,2.7,0.9,3.2,2.3s0.3,2.8-0.7,3.9c1.3,0.6,2.1,1.9,2.1,3.3
			c0,1.4-0.8,2.7-2.1,3.3c0.9,1,1.2,2.5,0.7,3.9c-0.6,1.3-1.8,2.2-3.2,2.3c0.5,1.3,0.2,2.8-0.9,3.8c-1,1-2.5,1.3-3.8,0.9
			c-0.1,1.4-0.9,2.7-2.3,3.2s-2.8,0.3-3.9-0.7C-379.5,316.4-380.8,317.3-382.2,317.3z M-385.3,313.7L-385.3,313.7
			c0.3,0,0.5,0.2,0.5,0.4c0.2,1.3,1.3,2.2,2.6,2.2c1.3,0,2.4-0.9,2.6-2.2c0-0.2,0.2-0.4,0.4-0.4c0.2,0,0.4,0,0.5,0.2
			c0.7,1.1,2.1,1.5,3.3,1c1.2-0.5,1.9-1.8,1.6-3c0-0.2,0-0.4,0.2-0.5c0.2-0.1,0.4-0.1,0.6,0c1.1,0.7,2.5,0.6,3.4-0.3s1-2.3,0.3-3.4
			c-0.1-0.2-0.1-0.4,0-0.6c0.1-0.2,0.3-0.3,0.5-0.2c1.3,0.3,2.5-0.4,3-1.6c0.5-1.2,0.1-2.6-1-3.3c-0.1-0.1-0.2-0.3-0.2-0.5
			c0-0.2,0.2-0.4,0.4-0.4c1.3-0.2,2.2-1.3,2.2-2.6c0-1.3-0.9-2.4-2.2-2.6c-0.2,0-0.4-0.2-0.4-0.4c0-0.2,0-0.4,0.2-0.5
			c1.1-0.7,1.5-2.1,1-3.3s-1.8-1.9-3-1.6c-0.2,0-0.4,0-0.5-0.2c-0.1-0.2-0.1-0.4,0-0.6c0.7-1.1,0.6-2.5-0.3-3.4
			c-0.9-0.9-2.3-1-3.4-0.3c-0.2,0.1-0.4,0.1-0.6,0c-0.2-0.1-0.3-0.3-0.2-0.5c0.3-1.3-0.4-2.5-1.6-3c-1.2-0.5-2.6-0.1-3.3,1
			c-0.1,0.2-0.3,0.3-0.5,0.2c-0.2,0-0.4-0.2-0.4-0.4c-0.2-1.3-1.3-2.2-2.6-2.2c-1.3,0-2.4,0.9-2.6,2.2c0,0.2-0.2,0.4-0.4,0.4
			c-0.2,0-0.4,0-0.5-0.2c-0.7-1.1-2.1-1.5-3.3-1s-1.9,1.8-1.6,3c0,0.2,0,0.4-0.2,0.5c-0.2,0.1-0.4,0.1-0.6,0c-1-0.7-2.5-0.6-3.4,0.3
			c-0.9,0.9-1,2.3-0.3,3.4c0.1,0.2,0.1,0.4,0,0.6c-0.1,0.2-0.3,0.3-0.5,0.2c-1.3-0.3-2.5,0.4-3,1.6s-0.1,2.6,1,3.3
			c0.2,0.1,0.3,0.3,0.2,0.5c-0.1,0.2-0.2,0.4-0.4,0.4c-1.3,0.2-2.2,1.3-2.2,2.6c0,1.3,0.9,2.4,2.2,2.6c0.2,0,0.4,0.2,0.4,0.4
			c0,0.2,0,0.4-0.2,0.5c-1.1,0.7-1.5,2.1-1,3.3c0.5,1.2,1.8,1.9,3,1.6c0.2,0,0.4,0,0.5,0.2c0.1,0.2,0.1,0.4,0,0.6
			c-0.7,1.1-0.6,2.5,0.3,3.4c0.9,0.9,2.3,1,3.4,0.3c0.2-0.1,0.4-0.1,0.6,0c0.2,0.1,0.3,0.3,0.2,0.5c-0.3,1.3,0.4,2.5,1.6,3
			s2.6,0.1,3.3-1C-385.7,313.8-385.5,313.7-385.3,313.7z"/>
	</g>
</g>
<path class="st2" d="M-384.3,294.8c0.1,0-3.6-3.3-3.6-3.3l-3,0.1l-1.8,1.8l-0.4,1.3l0.4,2.1l2.6,2.6l-1.6,1.8l0.4,2.8l1.7,1.6
	l2.6,0.4l1.9-1.4l0.9-1.3l1.1,0.7h1.3l1-0.7l1.3,2l2.1,1l2.3-0.7l1.5-2l0.4-1.5l-0.8-1.5l-0.6-1.2l2-2.1l0.6-2.4l-0.7-2l-1.3-1.1
	l-2.5-0.1l-2.5,1.3l-1.3,1.2l-0.7,0.3l-0.7-0.6l-1.1-0.2L-384.3,294.8z"/>
<g>
	<path class="st1" d="M-372.7,292.3c-1.6-1.6-4.1-1.6-5.7-0.1l0,0l-2.2,2.2c0,0,0-0.1-0.1-0.1l1.9-2.9l-0.7-0.4l-1.8,2.8
		c-0.4-0.3-0.7-0.4-1.1-0.4c-0.4,0-0.7,0.1-1,0.3l-1.8-2.8l-0.7,0.4l1.9,2.9l-0.1,0.1l-2.3-2.2l0,0c-1.7-1.5-4.1-1.5-5.7,0.1
		c-1.6,1.6-1.6,4.2,0,5.9l1.4,1.4c-0.7,0.8-1.1,1.8-1.1,2.9c0,2.3,1.8,4.1,4.1,4.1c1.8,0,3.2-1.1,3.9-2.6c0.4,0.4,1,0.7,1.6,0.7
		c0.6,0,1.1-0.3,1.5-0.6c0.6,1.5,2.1,2.6,3.9,2.6c2.3,0,4.1-1.8,4.1-4.1c0-1.1-0.4-2.1-1.1-2.9l1.4-1.4
		C-371.1,296.6-371.1,293.9-372.7,292.3z M-384.5,299.8L-384.5,299.8v2.8c-0.1,1.7-1.5,3-3.3,3c-1.8,0-3.3-1.5-3.3-3.3
		c0-1.2,0.6-2.2,1.6-2.8l0,0l-0.6-0.6l-1.5-1.5c-1.3-1.3-1.3-3.3,0-4.7s3.3-1.3,4.7,0l2.4,2.4c0,0.2,0,0.3,0,0.3L-384.5,299.8z
		 M-381.3,302.7c0,0.6-0.5,1.1-1.1,1.1c-1.2,0-1.2-1.1-1.2-1.1V302h2.4C-381.3,302-381.3,302.7-381.3,302.7z M-381.3,301.2h-2.4
		v-1.7h2.4V301.2z M-381.3,298.6h-2.4V297h2.4V298.6z M-381.3,296.1h-2.4v-0.7c0-0.6,0.5-1.1,1.2-1.1s1.1,0.5,1.1,1.1
		C-381.3,295.4-381.3,296.1-381.3,296.1z M-374.8,299l-0.6,0.6l0,0c1,0.6,1.6,1.6,1.6,2.8c0,1.8-1.5,3.3-3.3,3.3
		c-1.8,0-3.3-1.5-3.3-3.3v-2.6v-4.5c0-0.1,0-0.2,0-0.2l2.4-2.4c1.3-1.3,3.3-1.3,4.7,0s1.3,3.3,0,4.7L-374.8,299z"/>
	<path class="st1" d="M-389.2,293c-1.2,0-2.2,1-2.2,2.2c0,1.2,1,2.2,2.2,2.2s2.2-1,2.2-2.2C-387,293.9-388,293-389.2,293z
		 M-389.2,296.5c-0.7,0-1.3-0.6-1.3-1.3s0.6-1.3,1.3-1.3s1.3,0.6,1.3,1.3S-388.4,296.5-389.2,296.5z"/>
	<path class="st1" d="M-375.7,293c-1.2,0-2.2,1-2.2,2.2c0,1.2,1,2.2,2.2,2.2s2.2-1,2.2-2.2C-373.5,293.9-374.5,293-375.7,293z
		 M-375.7,296.5c-0.7,0-1.3-0.6-1.3-1.3s0.6-1.3,1.3-1.3s1.3,0.6,1.3,1.3S-374.9,296.5-375.7,296.5z"/>
</g>
</svg>
