<?xml version="1.0" encoding="utf-8"?>
<!-- Generator: Adobe Illustrator 19.0.1, SVG Export Plug-In . SVG Version: 6.00 Build 0)  -->
<!DOCTYPE svg PUBLIC "-//W3C//DTD SVG 1.1//EN" "http://www.w3.org/Graphics/SVG/1.1/DTD/svg11.dtd">
<svg version="1.1" id="Calque_1" xmlns="http://www.w3.org/2000/svg" xmlns:xlink="http://www.w3.org/1999/xlink" x="0px" y="0px"
	 viewBox="0 0 41.2 41.7" enable-background="new 0 0 41.2 41.7" xml:space="preserve">
<g>
	<circle fill="#B9ABCC" cx="20.6" cy="21.1" r="20.1"/>
	<path fill="#876B9F" d="M20.6,41.7C9.2,41.7,0,32.4,0,21.1S9.2,0.5,20.6,0.5c11.3,0,20.6,9.2,20.6,20.6S31.9,41.7,20.6,41.7z
		 M20.6,1.5C9.8,1.5,1,10.3,1,21.1c0,10.8,8.8,19.6,19.6,19.6s19.6-8.8,19.6-19.6C40.2,10.3,31.4,1.5,20.6,1.5z"/>
</g>
<g>
	<g>
		<path fill="#FFFFFF" d="M19.7,19.3c0,0.7-0.6,1.2-1.2,1.2h-5.6c-0.7,0-1.2-0.6-1.2-1.2v-5.6c0-0.7,0.6-1.2,1.2-1.2h5.6
			c0.7,0,1.2,0.6,1.2,1.2V19.3z"/>
		<path fill="#876B9F" d="M18.4,21h-5.6c-1,0-1.7-0.8-1.7-1.7v-5.6c0-1,0.8-1.7,1.7-1.7h5.6c1,0,1.7,0.8,1.7,1.7v5.6
			C20.2,20.2,19.4,21,18.4,21z M12.9,13c-0.4,0-0.7,0.3-0.7,0.7v5.6c0,0.4,0.3,0.7,0.7,0.7h5.6c0.4,0,0.7-0.3,0.7-0.7v-5.6
			c0-0.4-0.3-0.7-0.7-0.7H12.9z"/>
	</g>
	<g>
		<line fill="#FFFFFF" x1="11.6" y1="14.9" x2="19.7" y2="14.9"/>
		<rect x="11.6" y="14.4" fill="#876B9F" width="8" height="1"/>
	</g>
	<g>
		<path fill="#FFFFFF" d="M29.5,19.3c0,0.7-0.6,1.2-1.2,1.2h-5.6c-0.7,0-1.2-0.6-1.2-1.2v-5.6c0-0.7,0.6-1.2,1.2-1.2h5.6
			c0.7,0,1.2,0.6,1.2,1.2V19.3z"/>
		<path fill="#876B9F" d="M28.3,21h-5.5c-1,0-1.7-0.8-1.7-1.7v-5.6c0-1,0.8-1.7,1.7-1.7h5.5c1,0,1.7,0.8,1.7,1.7v5.6
			C30,20.2,29.2,21,28.3,21z M22.7,13c-0.4,0-0.7,0.3-0.7,0.7v5.6c0,0.4,0.3,0.7,0.7,0.7h5.5c0.4,0,0.7-0.3,0.7-0.7v-5.6
			c0-0.4-0.3-0.7-0.7-0.7H22.7z"/>
	</g>
	<g>
		<line fill="#FFFFFF" x1="21.5" y1="14.9" x2="29.5" y2="14.9"/>
		<rect x="21.5" y="14.4" fill="#876B9F" width="8" height="1"/>
	</g>
	<g>
		<path fill="#FFFFFF" d="M19.7,29.1c0,0.7-0.6,1.2-1.2,1.2h-5.6c-0.7,0-1.2-0.6-1.2-1.2v-5.6c0-0.7,0.6-1.2,1.2-1.2h5.6
			c0.7,0,1.2,0.6,1.2,1.2V29.1z"/>
		<path fill="#876B9F" d="M18.4,30.9h-5.6c-1,0-1.7-0.8-1.7-1.7v-5.6c0-1,0.8-1.7,1.7-1.7h5.6c1,0,1.7,0.8,1.7,1.7v5.6
			C20.2,30.1,19.4,30.9,18.4,30.9z M12.9,22.8c-0.4,0-0.7,0.3-0.7,0.7v5.6c0,0.4,0.3,0.7,0.7,0.7h5.6c0.4,0,0.7-0.3,0.7-0.7v-5.6
			c0-0.4-0.3-0.7-0.7-0.7H12.9z"/>
	</g>
	<g>
		<line fill="#FFFFFF" x1="11.6" y1="24.8" x2="19.7" y2="24.8"/>
		<rect x="11.6" y="24.3" fill="#876B9F" width="8" height="1"/>
	</g>
	<g>
		<path fill="#FFFFFF" d="M29.5,29.1c0,0.7-0.6,1.2-1.2,1.2h-5.6c-0.7,0-1.2-0.6-1.2-1.2v-5.6c0-0.7,0.6-1.2,1.2-1.2h5.6
			c0.7,0,1.2,0.6,1.2,1.2V29.1z"/>
		<path fill="#876B9F" d="M28.3,30.9h-5.5c-1,0-1.7-0.8-1.7-1.7v-5.6c0-1,0.8-1.7,1.7-1.7h5.5c1,0,1.7,0.8,1.7,1.7v5.6
			C30,30.1,29.2,30.9,28.3,30.9z M22.7,22.8c-0.4,0-0.7,0.3-0.7,0.7v5.6c0,0.4,0.3,0.7,0.7,0.7h5.5c0.4,0,0.7-0.3,0.7-0.7v-5.6
			c0-0.4-0.3-0.7-0.7-0.7H22.7z"/>
	</g>
	<g>
		<line fill="#FFFFFF" x1="21.5" y1="24.8" x2="29.5" y2="24.8"/>
		<rect x="21.5" y="24.3" fill="#876B9F" width="8" height="1"/>
	</g>
</g>
</svg>
