<svg id="レイヤー_1" data-name="レイヤー 1" xmlns="http://www.w3.org/2000/svg" viewBox="0 0 400 400"><defs><style>.cls-1{fill:#eeaca4;}.cls-2{fill:#dd6b54;}.cls-3{fill:none;stroke:#dd6b54;stroke-miterlimit:10;stroke-width:10px;}.cls-4{fill:#fff;}</style></defs><path class="cls-1" d="M200,394.4A298.4,298.4,0,0,1,82.992,283.825,301.533,301.533,0,0,1,40,128.57V5.49A.491.491,0,0,1,40.49,5H359.51a.491.491,0,0,1,.49.49V128.57C360,240.708,298.7,342.553,200,394.4Z"/><path class="cls-2" d="M355,10V128.57a296.538,296.538,0,0,1-42.272,153.082A293.569,293.569,0,0,1,200,388.741,293.44,293.44,0,0,1,87.279,281.251,296.537,296.537,0,0,1,45,128.57V10H355m4.51-10H40.49A5.493,5.493,0,0,0,35,5.49V128.57C35,241.76,97.28,346.15,197.81,398.9c0,1.1,1.1,1.1,2.19,1.1a3.838,3.838,0,0,0,2.19-1.1C302.72,346.15,365,242.86,365,128.57V5.49A5.493,5.493,0,0,0,359.51,0Z"/><line class="cls-3" x1="41" y1="64" x2="359" y2="64"/><path class="cls-4" d="M234.305,229.03l-29.088,29.088a51.452,51.452,0,0,1-72.765-72.764l29.088-29.088Z"/><path class="cls-1" d="M168.835,273.674a51.939,51.939,0,0,1-36.727-88.663L161.2,155.923a.472.472,0,0,1,.343-.142h0a.472.472,0,0,1,.343.142l72.764,72.764a.485.485,0,0,1,0,.686l-29.087,29.088A51.6,51.6,0,0,1,168.835,273.674ZM132.795,185.7a50.967,50.967,0,1,0,72.078,72.078l28.745-28.744L161.54,156.952Z"/><path class="cls-2" d="M161.54,150.781a5.466,5.466,0,0,0-3.878,1.606l-29.089,29.088A56.937,56.937,0,1,0,209.1,262l29.088-29.088a5.483,5.483,0,0,0,0-7.756l-72.764-72.765a5.468,5.468,0,0,0-3.879-1.606Zm7.3,116.922a45.967,45.967,0,0,1-32.5-78.47l25.209-25.21,65.007,65.008L201.338,254.24a45.665,45.665,0,0,1-32.5,13.463Z"/><path class="cls-1" d="M168.508,274a51.938,51.938,0,0,1-36.727-88.663l64.583-64.582a51.937,51.937,0,0,1,73.451,73.45l-16.384,16.384a.485.485,0,0,1-.687-.685l16.384-16.384a50.967,50.967,0,0,0-72.078-72.079l-64.583,64.583A50.967,50.967,0,0,0,204.545,258.1a.484.484,0,0,1,.686,0,.486.486,0,0,1,0,.687A51.59,51.59,0,0,1,168.508,274Z"/><path class="cls-2" d="M233.089,100.569a56.759,56.759,0,0,0-40.26,16.65L128.246,181.8a56.938,56.938,0,0,0,80.521,80.523,5.486,5.486,0,0,0-7.758-7.758A45.967,45.967,0,0,1,136,189.56l64.583-64.583a45.967,45.967,0,0,1,65.008,65.007l-16.384,16.384a5.485,5.485,0,0,0,7.757,7.757l16.384-16.384a56.911,56.911,0,0,0-40.261-97.172ZM168.508,279Zm0,0Z"/><path class="cls-1" d="M154.122,202.356a.473.473,0,0,1-.344-.142.488.488,0,0,1,0-.687l58.776-58.776a.486.486,0,1,1,.687.687l-58.777,58.776A.472.472,0,0,1,154.122,202.356Z"/><path class="cls-2" d="M212.9,137.609a5.467,5.467,0,0,0-3.878,1.606l-58.776,58.776A5.485,5.485,0,1,0,158,205.749l58.778-58.776a5.485,5.485,0,0,0-3.88-9.364Z"/></svg>