<?xml version="1.0" encoding="utf-8"?>
<!-- Generator: Adobe Illustrator 19.0.1, SVG Export Plug-In . SVG Version: 6.00 Build 0)  -->
<!DOCTYPE svg PUBLIC "-//W3C//DTD SVG 1.1//EN" "http://www.w3.org/Graphics/SVG/1.1/DTD/svg11.dtd">
<svg version="1.1" id="Calque_1" xmlns="http://www.w3.org/2000/svg" xmlns:xlink="http://www.w3.org/1999/xlink" x="0px" y="0px"
	 viewBox="0 0 37 37" enable-background="new 0 0 37 37" xml:space="preserve">
<g>
	<g>
		<path fill="#60C0C4" d="M36.5,30.3c0,3.5-2.8,6.2-6.2,6.2H6.7c-3.5,0-6.2-2.7-6.2-6.2V6.7c0-3.5,2.8-6.2,6.2-6.2h23.6
			c3.5,0,6.2,2.8,6.2,6.2V30.3z"/>
		<path fill="#24B4B7" d="M30.3,37H6.7C2.9,37,0,34.1,0,30.3V6.7C0,2.9,2.9,0,6.7,0h23.6C34.1,0,37,2.9,37,6.7v23.6
			C37,34.1,34.1,37,30.3,37z M6.7,1C3.5,1,1,3.5,1,6.7v23.6C1,33.5,3.5,36,6.7,36h23.6c3.2,0,5.7-2.5,5.7-5.7V6.7
			C36,3.5,33.5,1,30.3,1H6.7z"/>
	</g>
</g>
<g>
	<g>
		
			<rect x="14.4" y="15.4" transform="matrix(0.7071 0.7071 -0.7071 0.7071 20.0335 -4.0215)" fill="#FFFFFF" width="1" height="13.5"/>
		<path fill="#24B4B7" d="M10.4,27.4C10.4,27.4,10.4,27.4,10.4,27.4l-0.8-0.7c0,0,0-0.1,0-0.2l9.6-9.6c0,0,0.1,0,0.2,0l0.7,0.7
			c0,0,0,0.1,0,0.2L10.4,27.4C10.5,27.4,10.5,27.4,10.4,27.4z M9.9,26.6l0.5,0.5l9.4-9.4l-0.5-0.5L9.9,26.6z"/>
	</g>
	<g>
		<rect x="24.6" y="14.2" fill="#FFFFFF" width="2.3" height="1"/>
		<path fill="#24B4B7" d="M26.9,15.4h-2.3c-0.1,0-0.1-0.1-0.1-0.1v-1c0-0.1,0.1-0.1,0.1-0.1h2.3c0.1,0,0.1,0.1,0.1,0.1v1
			C27.1,15.3,27,15.4,26.9,15.4z M24.7,15.1h2.1v-0.8h-2.1V15.1z"/>
	</g>
	<g>
		
			<rect x="24.4" y="10.9" transform="matrix(0.7071 0.7071 -0.7071 0.7071 15.848 -14.0544)" fill="#FFFFFF" width="1" height="2.5"/>
		<path fill="#24B4B7" d="M24.4,13.5C24.3,13.5,24.3,13.4,24.4,13.5l-0.8-0.7c0,0,0-0.1,0-0.2l1.8-1.8c0,0,0.1,0,0.2,0l0.7,0.7
			c0,0,0,0.1,0,0.2L24.4,13.5C24.4,13.4,24.4,13.5,24.4,13.5z M23.8,12.6l0.5,0.5l1.6-1.6l-0.5-0.5L23.8,12.6z"/>
	</g>
	<g>
		<rect x="21.8" y="10.1" fill="#FFFFFF" width="1" height="2.3"/>
		<path fill="#24B4B7" d="M22.8,12.5h-1c-0.1,0-0.1-0.1-0.1-0.1v-2.3c0-0.1,0.1-0.1,0.1-0.1h1c0.1,0,0.1,0.1,0.1,0.1v2.3
			C22.9,12.5,22.8,12.5,22.8,12.5z M21.9,12.3h0.8v-2.1h-0.8V12.3z"/>
	</g>
	<g>
		
			<rect x="18.4" y="11.6" transform="matrix(0.7071 0.7071 -0.7071 0.7071 14.3083 -10.3373)" fill="#FFFFFF" width="2.5" height="1"/>
		<path fill="#24B4B7" d="M20.2,13.5C20.1,13.5,20.1,13.4,20.2,13.5l-1.8-1.8c0,0,0-0.1,0-0.2l0.7-0.7c0,0,0.1,0,0.2,0l1.8,1.8
			c0,0,0,0.1,0,0.2L20.2,13.5C20.2,13.4,20.2,13.5,20.2,13.5z M18.6,11.6l1.6,1.6l0.5-0.5l-1.6-1.6L18.6,11.6z"/>
	</g>
	<g>
		<rect x="17.6" y="14.2" fill="#FFFFFF" width="2.3" height="1"/>
		<path fill="#24B4B7" d="M19.9,15.4h-2.3c-0.1,0-0.1-0.1-0.1-0.1v-1c0-0.1,0.1-0.1,0.1-0.1h2.3c0.1,0,0.1,0.1,0.1,0.1v1
			C20,15.3,20,15.4,19.9,15.4z M17.7,15.1h2.1v-0.8h-2.1V15.1z"/>
	</g>
	<g>
		<rect x="21.8" y="17.4" fill="#FFFFFF" width="1" height="2.3"/>
		<path fill="#24B4B7" d="M22.8,19.8h-1c-0.1,0-0.1-0.1-0.1-0.1v-2.3c0-0.1,0.1-0.1,0.1-0.1h1c0.1,0,0.1,0.1,0.1,0.1v2.3
			C22.9,19.8,22.8,19.8,22.8,19.8z M21.9,19.6h0.8v-2.1h-0.8V19.6z"/>
	</g>
	<g>
		
			<rect x="23.7" y="16.9" transform="matrix(0.707 0.7072 -0.7072 0.707 19.5691 -12.5155)" fill="#FFFFFF" width="2.5" height="1"/>
		<path fill="#24B4B7" d="M25.4,18.7C25.4,18.7,25.3,18.7,25.4,18.7l-1.8-1.8c0,0,0-0.1,0-0.2l0.7-0.7c0,0,0.1,0,0.2,0l1.8,1.8
			c0,0,0,0.1,0,0.2L25.4,18.7C25.5,18.7,25.4,18.7,25.4,18.7z M23.8,16.8l1.6,1.6l0.5-0.5l-1.6-1.6L23.8,16.8z"/>
	</g>
</g>
</svg>
