<?xml version="1.0" encoding="utf-8"?>
<!-- Generator: Adobe Illustrator 19.0.1, SVG Export Plug-In . SVG Version: 6.00 Build 0)  -->
<!DOCTYPE svg PUBLIC "-//W3C//DTD SVG 1.1//EN" "http://www.w3.org/Graphics/SVG/1.1/DTD/svg11.dtd">
<svg version="1.1" id="Calque_1" xmlns="http://www.w3.org/2000/svg" xmlns:xlink="http://www.w3.org/1999/xlink" x="0px" y="0px"
	 viewBox="0 0 37 37" enable-background="new 0 0 37 37" xml:space="preserve">
<g>
	<g>
		<path fill="#60C0C4" d="M36.5,30.3c0,3.5-2.8,6.2-6.2,6.2H6.7c-3.5,0-6.2-2.7-6.2-6.2V6.7c0-3.5,2.8-6.2,6.2-6.2h23.6
			c3.5,0,6.2,2.8,6.2,6.2V30.3z"/>
		<path fill="#24B4B7" d="M30.3,37H6.7C2.9,37,0,34.1,0,30.3V6.7C0,2.9,2.9,0,6.7,0h23.6C34.1,0,37,2.9,37,6.7v23.6
			C37,34.1,34.1,37,30.3,37z M6.7,1C3.5,1,1,3.5,1,6.7v23.6C1,33.5,3.5,36,6.7,36h23.6c3.2,0,5.7-2.5,5.7-5.7V6.7
			C36,3.5,33.5,1,30.3,1H6.7z"/>
	</g>
</g>
<g>
	<path fill="#24B4B7" d="M24,29.8h-4v-0.5h4c3.7,0,6.8-3.3,6.8-7.2V6.5h0.5V22C31.3,26.3,28,29.8,24,29.8z"/>
	<g>
		<line fill="#FFFFFF" x1="28" y1="18" x2="28" y2="21"/>
		<rect x="27.8" y="18" fill="#24B4B7" width="0.5" height="3"/>
	</g>
	<g>
		<line fill="#FFFFFF" x1="31" y1="3.5" x2="31" y2="4.5"/>
		<rect x="30.8" y="3.5" fill="#24B4B7" width="0.5" height="1"/>
	</g>
	<g>
		<path fill="#FFFFFF" d="M27,20.5c0,2-1,3-3,3h-2c-2.5,0-5-2.5-5-5v-5h4.5c3.5,0,5.5,2,5.5,5V20.5z"/>
		<path fill="#24B4B7" d="M24,23.8h-2c-2.6,0-5.3-2.6-5.3-5.2v-5c0-0.1,0.1-0.2,0.2-0.2h4.5c3.5,0,5.8,2,5.8,5.2v2
			C27.3,22.6,26.1,23.8,24,23.8z M17.3,13.8v4.8c0,2.4,2.4,4.8,4.8,4.8h2c1.9,0,2.8-0.9,2.8-2.8v-2c0-3-2-4.8-5.2-4.8H17.3z"/>
	</g>
	<g>
		<line fill="#FFFFFF" x1="6" y1="18" x2="6" y2="21"/>
		<rect x="5.8" y="18" fill="#24B4B7" width="0.5" height="3"/>
	</g>
	<g>
		<path fill="#FFFFFF" d="M7,20.5c0,2,1,3,3,3h2c2.5,0,5-2.5,5-5v-5h-4.5c-3.5,0-5.5,2-5.5,5V20.5z"/>
		<path fill="#24B4B7" d="M12,23.8h-2c-2.1,0-3.2-1.1-3.2-3.2v-2c0-3.2,2.2-5.2,5.7-5.2H17c0.1,0,0.2,0.1,0.2,0.2v5
			C17.3,21.2,14.7,23.8,12,23.8z M12.5,13.8c-3.3,0-5.2,1.8-5.2,4.8v2c0,1.9,0.9,2.8,2.7,2.8h2c2.4,0,4.8-2.4,4.8-4.8v-4.8H12.5z"/>
	</g>
	<g>
		<line fill="#FFFFFF" x1="14" y1="29.5" x2="11" y2="29.5"/>
		<rect x="11" y="29.3" fill="#24B4B7" width="3" height="0.5"/>
	</g>
	<g>
		<circle fill="#FFFFFF" cx="17" cy="29.5" r="3"/>
		<path fill="#24B4B7" d="M17,32.8c-1.8,0-3.3-1.5-3.3-3.2s1.5-3.2,3.3-3.2c1.8,0,3.3,1.5,3.3,3.2S18.8,32.8,17,32.8z M17,26.8
			c-1.5,0-2.8,1.2-2.8,2.8s1.2,2.8,2.8,2.8c1.5,0,2.8-1.2,2.8-2.8S18.5,26.8,17,26.8z"/>
	</g>
</g>
</svg>
