<?xml version="1.0" encoding="utf-8"?>
<!-- Generator: Adobe Illustrator 19.0.1, SVG Export Plug-In . SVG Version: 6.00 Build 0)  -->
<!DOCTYPE svg PUBLIC "-//W3C//DTD SVG 1.1//EN" "http://www.w3.org/Graphics/SVG/1.1/DTD/svg11.dtd">
<svg version="1.1" id="Calque_1" xmlns="http://www.w3.org/2000/svg" xmlns:xlink="http://www.w3.org/1999/xlink" x="0px" y="0px"
	 viewBox="0 0 37 37" enable-background="new 0 0 37 37" xml:space="preserve">
<g>
	<g>
		<path fill="#60C0C4" d="M36.5,30.3c0,3.5-2.8,6.2-6.2,6.2H6.7c-3.5,0-6.2-2.7-6.2-6.2V6.7c0-3.5,2.8-6.2,6.2-6.2h23.6
			c3.5,0,6.2,2.8,6.2,6.2V30.3z"/>
		<path fill="#24B4B7" d="M30.3,37H6.7C2.9,37,0,34.1,0,30.3V6.7C0,2.9,2.9,0,6.7,0h23.6C34.1,0,37,2.9,37,6.7v23.6
			C37,34.1,34.1,37,30.3,37z M6.7,1C3.5,1,1,3.5,1,6.7v23.6C1,33.5,3.5,36,6.7,36h23.6c3.2,0,5.7-2.5,5.7-5.7V6.7
			C36,3.5,33.5,1,30.3,1H6.7z"/>
	</g>
</g>
<g>
	<circle fill="#FFFFFF" cx="18.7" cy="18.7" r="11.1"/>
	<path fill="#24B4B7" d="M18.7,29.9c-6.2,0-11.2-5-11.2-11.2c0-6.2,5-11.2,11.2-11.2s11.2,5,11.2,11.2
		C29.9,24.9,24.9,29.9,18.7,29.9z M18.7,7.7c-6,0-11,4.9-11,11s4.9,11,11,11s11-4.9,11-11S24.7,7.7,18.7,7.7z"/>
</g>
<g>
	<path fill="#60C0C4" d="M13.8,22.4l3.9-3.5c0.5-0.4,0.7-1,0.7-1.6c0-0.5-0.2-1-0.6-1.4c-0.4-0.5-1-0.7-1.6-0.7
		c-0.5,0-1,0.2-1.5,0.6L14.4,16c-0.1,0.1-0.3,0.1-0.4,0c-0.1-0.1-0.1-0.3,0-0.4l0.4-0.4c0.5-0.5,1.2-0.7,1.9-0.7
		c0.7,0,1.5,0.3,2,0.9c0.5,0.5,0.7,1.2,0.7,1.8c0,0.7-0.3,1.5-0.9,2l-3.4,3h4c0.2,0,0.3,0.1,0.3,0.3c0,0.2-0.1,0.3-0.3,0.3H14h0
		c-0.1,0-0.2,0-0.2-0.1C13.7,22.7,13.7,22.5,13.8,22.4z"/>
	<path fill="#60C0C4" d="M22.2,15.4l-1.2,0.7c0,0-0.1,0-0.1,0c-0.1,0-0.2-0.1-0.3-0.1c-0.1-0.2,0-0.3,0.1-0.4l1.6-1
		c0.1-0.1,0.3,0,0.4,0.1c0,0.1,0,0.1,0,0.2v7.7c0,0.2-0.1,0.3-0.3,0.3c-0.2,0-0.3-0.1-0.3-0.3V15.4z"/>
</g>
</svg>
