<?xml version="1.0" encoding="utf-8"?>
<!-- Generator: Adobe Illustrator 19.0.1, SVG Export Plug-In . SVG Version: 6.00 Build 0)  -->
<!DOCTYPE svg PUBLIC "-//W3C//DTD SVG 1.1//EN" "http://www.w3.org/Graphics/SVG/1.1/DTD/svg11.dtd">
<svg version="1.1" id="Calque_1" xmlns="http://www.w3.org/2000/svg" xmlns:xlink="http://www.w3.org/1999/xlink" x="0px" y="0px"
	 viewBox="0 0 37.6 37.6" enable-background="new 0 0 37.6 37.6" xml:space="preserve">
<g>
	<g>
		<path fill="#FCC963" d="M37.1,18.8c0-1.6-1.1-2.8-2.6-3.1c1.3-0.8,1.8-2.4,1.2-3.9c-0.6-1.4-2.1-2.2-3.6-1.9
			c0.9-1.2,0.7-2.9-0.4-4c-1.1-1.1-2.8-1.2-4-0.4c0.3-1.5-0.5-3-1.9-3.6c-1.4-0.6-3.1-0.1-3.9,1.2c-0.3-1.5-1.6-2.6-3.1-2.6
			c-1.6,0-2.8,1.1-3.1,2.6c-0.8-1.3-2.4-1.8-3.9-1.2C10.4,2.5,9.6,4,9.9,5.5C8.7,4.6,7,4.8,5.9,5.9C4.8,7,4.6,8.7,5.5,9.9
			c-1.5-0.3-3,0.5-3.6,1.9c-0.6,1.4-0.1,3.1,1.2,3.9c-1.5,0.3-2.6,1.6-2.6,3.1c0,1.6,1.1,2.8,2.6,3.1c-1.3,0.8-1.8,2.4-1.2,3.9
			C2.5,27.2,4,28,5.5,27.7c-0.8,1.2-0.7,2.9,0.4,4c1.1,1.1,2.8,1.2,4,0.4c-0.3,1.5,0.5,3,1.9,3.6c1.4,0.6,3.1,0.1,3.9-1.2
			c0.3,1.5,1.6,2.6,3.1,2.6c1.6,0,2.8-1.1,3.1-2.6c0.8,1.3,2.4,1.8,3.9,1.2c1.4-0.6,2.2-2.1,1.9-3.6c1.2,0.9,2.9,0.7,4-0.4
			c1.1-1.1,1.2-2.8,0.4-4c1.5,0.3,3-0.5,3.6-1.9c0.6-1.4,0.1-3.1-1.2-3.9C36,21.6,37.1,20.4,37.1,18.8z"/>
		<path fill="#F7A817" d="M18.8,37.6c-1.4,0-2.7-0.8-3.3-2.1c-1,0.9-2.5,1.2-3.9,0.7s-2.2-1.8-2.3-3.2c-1.3,0.5-2.8,0.2-3.8-0.9
			c-1-1-1.3-2.5-0.9-3.8C3.3,28.2,2,27.3,1.4,26c-0.6-1.3-0.3-2.8,0.7-3.9C0.8,21.5,0,20.2,0,18.8c0-1.4,0.8-2.7,2.1-3.3
			c-0.9-1-1.2-2.5-0.7-3.9C2,10.3,3.3,9.4,4.6,9.3C4.2,8,4.5,6.5,5.5,5.5c1-1,2.5-1.3,3.8-0.9c0.1-1.4,0.9-2.7,2.3-3.2
			c1.3-0.6,2.8-0.3,3.9,0.7C16.1,0.8,17.4,0,18.8,0s2.7,0.8,3.3,2.1c1-0.9,2.5-1.2,3.9-0.7c1.3,0.6,2.2,1.8,2.3,3.2
			c1.3-0.5,2.8-0.2,3.8,0.9c1,1,1.3,2.5,0.9,3.8c1.4,0.1,2.7,0.9,3.2,2.3s0.3,2.8-0.7,3.9c1.3,0.6,2.1,1.9,2.1,3.3
			c0,1.4-0.8,2.7-2.1,3.3c0.9,1,1.2,2.5,0.7,3.9c-0.6,1.3-1.8,2.2-3.2,2.3c0.5,1.3,0.2,2.8-0.9,3.8c-1,1-2.5,1.3-3.8,0.9
			c-0.1,1.4-0.9,2.7-2.3,3.2s-2.8,0.3-3.9-0.7C21.5,36.7,20.2,37.6,18.8,37.6z M15.7,34C15.7,34,15.7,34,15.7,34
			c0.3,0,0.5,0.2,0.5,0.4c0.2,1.3,1.3,2.2,2.6,2.2c1.3,0,2.4-0.9,2.6-2.2c0-0.2,0.2-0.4,0.4-0.4c0.2,0,0.4,0,0.5,0.2
			c0.7,1.1,2.1,1.5,3.3,1c1.2-0.5,1.9-1.8,1.6-3c0-0.2,0-0.4,0.2-0.5c0.2-0.1,0.4-0.1,0.6,0c1.1,0.7,2.5,0.6,3.4-0.3
			c0.9-0.9,1-2.3,0.3-3.4c-0.1-0.2-0.1-0.4,0-0.6c0.1-0.2,0.3-0.3,0.5-0.2c1.3,0.3,2.5-0.4,3-1.6c0.5-1.2,0.1-2.6-1-3.3
			C34.1,22.2,34,22,34,21.8s0.2-0.4,0.4-0.4c1.3-0.2,2.2-1.3,2.2-2.6s-0.9-2.4-2.2-2.6c-0.2,0-0.4-0.2-0.4-0.4s0-0.4,0.2-0.5
			c1.1-0.7,1.5-2.1,1-3.3c-0.5-1.2-1.8-1.9-3-1.6c-0.2,0-0.4,0-0.5-0.2c-0.1-0.2-0.1-0.4,0-0.6c0.7-1.1,0.6-2.5-0.3-3.4
			c-0.9-0.9-2.3-1-3.4-0.3c-0.2,0.1-0.4,0.1-0.6,0c-0.2-0.1-0.3-0.3-0.2-0.5c0.3-1.3-0.4-2.5-1.6-3c-1.2-0.5-2.6-0.1-3.3,1
			c-0.1,0.2-0.3,0.3-0.5,0.2c-0.2,0-0.4-0.2-0.4-0.4C21.2,1.9,20.1,1,18.8,1c-1.3,0-2.4,0.9-2.6,2.2c0,0.2-0.2,0.4-0.4,0.4
			c-0.2,0-0.4,0-0.5-0.2c-0.7-1.1-2.1-1.5-3.3-1c-1.2,0.5-1.9,1.8-1.6,3c0,0.2,0,0.4-0.2,0.5C10,6,9.8,6,9.6,5.9
			C8.6,5.2,7.1,5.3,6.2,6.2c-0.9,0.9-1,2.3-0.3,3.4C6,9.8,6,10,5.9,10.2c-0.1,0.2-0.3,0.3-0.5,0.2c-1.3-0.3-2.5,0.4-3,1.6
			c-0.5,1.2-0.1,2.6,1,3.3c0.2,0.1,0.3,0.3,0.2,0.5s-0.2,0.4-0.4,0.4C1.9,16.4,1,17.5,1,18.8c0,1.3,0.9,2.4,2.2,2.6
			c0.2,0,0.4,0.2,0.4,0.4c0,0.2,0,0.4-0.2,0.5c-1.1,0.7-1.5,2.1-1,3.3c0.5,1.2,1.8,1.9,3,1.6c0.2,0,0.4,0,0.5,0.2
			C6,27.6,6,27.8,5.9,28c-0.7,1.1-0.6,2.5,0.3,3.4c0.9,0.9,2.3,1,3.4,0.3c0.2-0.1,0.4-0.1,0.6,0c0.2,0.1,0.3,0.3,0.2,0.5
			c-0.3,1.3,0.4,2.5,1.6,3c1.2,0.5,2.6,0.1,3.3-1C15.3,34.1,15.5,34,15.7,34z"/>
	</g>
</g>
<g>
	<g>
		<path fill="#FFFFFF" d="M21.1,21c0,0.5-0.5,1-1,1h-2.6c-0.5,0-1-0.5-1-1v-3.2c0-0.4,0.5-1,1-1h2.6c0.4,0,1,0.5,1,1V21z"/>
		<path fill="#F7A817" d="M20.1,22.2h-2.6c-0.6,0-1.2-0.6-1.2-1.2v-3.2c0-0.6,0.6-1.2,1.2-1.2h2.6c0.6,0,1.2,0.6,1.2,1.2V21
			C21.3,21.6,20.7,22.2,20.1,22.2z M17.5,17c-0.3,0-0.7,0.4-0.7,0.7V21c0,0.3,0.4,0.7,0.7,0.7h2.6c0.3,0,0.7-0.4,0.7-0.7v-3.2
			c0-0.3-0.4-0.7-0.7-0.7H17.5z"/>
	</g>
	<g>
		<path fill="#FFFFFF" d="M16.6,17.3l-5.9-1.9c-0.5-0.2-1.3,0.1-1.3,0.6v6.5c0,0.6,0.8,0.8,1.3,0.6l5.9-1.9"/>
		<path fill="#F7A817" d="M10.4,23.5c-0.3,0-0.6-0.1-0.8-0.2c-0.2-0.2-0.4-0.4-0.4-0.7v-6.5c0-0.3,0.1-0.5,0.4-0.7
			c0.3-0.2,0.8-0.3,1.2-0.2l5.9,1.9l-0.2,0.5l-5.9-1.9c-0.3-0.1-0.6,0-0.8,0.1c-0.1,0.1-0.2,0.2-0.2,0.3v6.5c0,0.1,0.1,0.2,0.2,0.3
			c0.2,0.1,0.5,0.2,0.8,0.1l5.9-1.9l0.2,0.5l-5.9,1.9C10.6,23.5,10.5,23.5,10.4,23.5z"/>
	</g>
	<g>
		<line fill="#FFFFFF" x1="14.6" y1="19.4" x2="16.5" y2="19.4"/>
		<rect x="14.6" y="19.1" fill="#F7A817" width="1.9" height="0.5"/>
	</g>
	<g>
		<path fill="#FFFFFF" d="M20.9,17.3l5.9-1.9c0.5-0.2,1.3,0.1,1.3,0.6v6.5c0,0.6-0.8,0.8-1.3,0.6l-5.9-1.9"/>
		<path fill="#F7A817" d="M27.2,23.5c-0.1,0-0.3,0-0.4-0.1l-5.9-1.9l0.2-0.5L27,23c0.3,0.1,0.6,0,0.8-0.1c0.1-0.1,0.2-0.2,0.2-0.3
			v-6.5c0-0.1-0.1-0.2-0.2-0.3c-0.2-0.2-0.5-0.2-0.8-0.1L21,17.6l-0.2-0.5l5.9-1.9c0.4-0.1,0.9-0.1,1.2,0.2c0.2,0.2,0.4,0.4,0.4,0.7
			v6.5c0,0.3-0.1,0.5-0.4,0.7C27.8,23.5,27.5,23.5,27.2,23.5z"/>
	</g>
	<g>
		<line fill="#FFFFFF" x1="23" y1="19.4" x2="21.1" y2="19.4"/>
		<rect x="21.1" y="19.1" fill="#F7A817" width="1.9" height="0.5"/>
	</g>
</g>
</svg>
