<?xml version="1.0" encoding="utf-8"?>
<!-- Generator: Adobe Illustrator 25.0.0, SVG Export Plug-In . SVG Version: 6.00 Build 0)  -->
<svg version="1.1" id="Camada_1" xmlns="http://www.w3.org/2000/svg" xmlns:xlink="http://www.w3.org/1999/xlink" x="0px" y="0px"
	 viewBox="0 0 600 600" style="enable-background:new 0 0 600 600;" xml:space="preserve">
<style type="text/css">
	.st0{display:none;}
	.st1{display:inline;}
	.st2{fill:#BA7B47;}
	.st3{fill:#E6CD70;}
	.st4{fill:#6E3F25;}
	.st5{fill:#74BE86;}
	.st6{fill:#4D8157;}
	.st7{fill:#F2F2F2;}
	.st8{fill:#CB4D4D;}
	.st9{fill:#838893;}
	.st10{fill:#56B46F;}
	.st11{fill:#F29C1F;}
	.st12{fill:#51835A;}
	.st13{fill:#508259;}
	.st14{fill:#888989;}
	.st15{fill:#879469;}
	.st16{fill:#212F36;}
	.st17{fill:#E57E26;}
	.st18{fill:#F08E48;}
	.st19{fill:#F2D45C;}
	.st20{fill:#E3C05E;}
	.st21{fill:#A37D76;}
</style>
<g class="st0">
	<g class="st1">
		<circle class="st2" cx="300" cy="300" r="265"/>
		<ellipse class="st3" cx="300" cy="300" rx="245" ry="234"/>
	</g>
	<g class="st1">
		<path class="st4" d="M253.48,469.99c-0.69-1.12-2.02-1.23-3-1.89c-3.99-2.69-6.03-7.23-4.92-12.09c1.04-4.55,3.92-7.59,8.56-8.66
			c1.59-0.37,3.28-0.47,4.92-0.48c11.26-0.04,22.53-0.01,33.79-0.04c1.28,0,2.67,0.39,3.8-0.64c0.26-0.07,0.51-0.14,0.77-0.21
			c4.66,1.6,9.35,0.5,14.03,0.18c0.94,1.17,2.26,0.66,3.4,0.66c11.04,0.04,22.08-0.04,33.12,0.05c8.12,0.06,13.58,5.81,12.6,13.16
			c-0.68,5.15-4.25,7.92-8.6,9.96C319.14,469.99,286.31,469.99,253.48,469.99z"/>
		<path class="st5" d="M170.24,337.17c9.01-12.17,18.01-24.35,27.04-36.51c14.97-20.15,29.96-40.29,44.93-60.43
			c3.7-4.94,7.43-9.85,11.1-14.81c6.29-8.49,12.55-17.01,18.82-25.52c8.63-11.2,17.16-22.46,25.26-34.05
			c1.65-1.33,2.67-3.16,3.88-4.84c1.17-1.62,2.15-1.94,3.42,0.02c1.12,1.73,2.18,3.57,3.9,4.85c5.04,7.81,10.87,15.04,16.41,22.48
			c36.32,48.79,72.69,97.53,109.02,146.31c0.71,0.95,1.68,1.79,1.87,3.08c-0.01,6.48-0.02,12.95-0.03,19.43
			c-0.02,4.85,0.02,9.71-0.09,14.56c-0.16,6.81-4.93,11.72-11.73,11.84c-7.62,0.14-15.25-0.02-22.87-0.05
			c0.01-12.59-0.01-25.18,0.04-37.77c0.04-9.39-3.2-17.4-9.87-24.04c-17.93-17.87-35.84-35.76-53.76-53.64
			c-0.84-0.84-1.52-1.96-2.94-1.95c-8-13.98-15.94-27.99-24.03-41.91c-1.46-2.51-1.98-4.99-1.93-7.82
			c0.12-7.51,0.1-15.03,0.01-22.55c-0.05-3.79-2.55-6.21-5.95-6.09c-3.43,0.12-5.34,2.26-5.36,6.19
			c-0.04,6.85-0.15,13.71,0.04,20.56c0.11,3.98-0.49,7.53-2.8,10.95c-2.46,3.65-4.37,7.67-6.56,11.5
			c-5.3,9.29-10.63,18.57-15.94,27.85c-0.53,0.28-0.67,0.76-0.69,1.31c-0.2,0.23-0.4,0.46-0.6,0.69c-1.43-0.04-2.11,1.09-2.95,1.92
			c-18.17,18.11-36.38,36.19-54.45,54.4c-5.02,5.06-8.31,11.28-8.43,18.5c-0.23,13.8-0.03,27.62,0,41.43c0.01,0.16,0,0.33-0.02,0.49
			c-7.65,0.03-15.3,0.18-22.95,0.05c-7.04-0.12-11.69-5-11.78-12.1c-0.06-4.76-0.02-9.52-0.03-14.28
			C170.22,350.51,170.23,343.84,170.24,337.17z"/>
		<path class="st6" d="M270.82,266.79c0.2-0.23,0.4-0.46,0.6-0.69c0.55-0.27,0.68-0.76,0.69-1.31c5.31-9.28,10.64-18.56,15.94-27.85
			c2.19-3.83,4.09-7.85,6.56-11.5c2.31-3.41,2.9-6.97,2.8-10.95c-0.18-6.85-0.08-13.7-0.04-20.56c0.02-3.93,1.93-6.06,5.36-6.19
			c3.39-0.12,5.9,2.3,5.95,6.09c0.09,7.51,0.11,15.03-0.01,22.55c-0.04,2.83,0.48,5.32,1.93,7.82
			c8.09,13.92,16.04,27.93,24.03,41.91c0.93,3.1,2.84,5.72,4.39,8.49c8.92,15.87,17.98,31.67,26.99,47.49
			c8.03,14.09,16.13,28.15,24.06,42.3c3.55,6.34,7.57,12.43,10.46,19.14c-18.48,0.04-36.97,0.07-55.45,0.11
			c-2.43,0.01-4.87,0.04-7.3,0.06c-4.45-6.89-9.31-13.44-15.16-19.25c-3.06-3.04-5.69-6.5-7.42-10.52c-2.23-5.19-3-10.43,0.02-15.6
			c2.2-3.75,2.27-3.71-1.87-5.09c-0.42-0.14-0.84-0.29-1.27-0.4c-9.07-2.55-19.48-0.85-25.4,7.36c-4.45,6.17-5.42,13.16-4.14,20.52
			c0.35,2.03,0.4,2.93-2.31,2.5c-5.14-0.82-10.2-0.15-14.62,2.94c-1.3,0.91-3.14,1.75-2.77,3.77c0.34,1.85,2.29,1.83,3.66,2.42
			c1.62,0.69,3.41,1.11,4.89,2.02c3.4,2.09,5.45,5.05,4.98,9.29c-22.47,0-44.95,0-67.42-0.01c-1.33,0-2.65-0.07-3.98-0.11
			c0.02-0.16,0.02-0.33,0.02-0.49c1.86-2.1,2.83-4.72,4.19-7.11c9.93-17.44,19.87-34.88,29.8-52.32
			c7.15-12.55,14.42-25.04,21.43-37.67C263.93,279.58,267.97,273.5,270.82,266.79z"/>
		<path class="st7" d="M272.13,199.9c-6.27,8.51-12.53,17.03-18.82,25.52c-3.67,4.96-7.4,9.88-11.1,14.81
			c-1.08-1.18-2.5-0.66-3.77-0.66c-28.15-0.03-56.3-0.05-84.44-0.01c-7.45,0.01-13.25-3.12-16.57-9.61
			c-3.43-6.69-2.2-13.29,2.43-19.21c1.54-1.97,3.67-3.31,5.87-4.2c2.17-0.88,2.74-1.62,2.18-4.09
			c-3.38-14.91,4.99-28.15,19.74-31.62c10.72-2.53,22.76,2.97,27.87,12.73c0.75,1.43,1.47,2.89,2.49,4.9
			c0.97-10.59,5.14-18.91,12.39-25.75c15.07-14.21,41.36-12.08,54.04,4.19c7.18,9.2,9.71,19.32,7.74,30.7
			C272.04,198.33,272.14,199.12,272.13,199.9z"/>
		<path class="st8" d="M276.37,383.64c0.47-4.23-1.58-7.19-4.98-9.29c-1.48-0.91-3.26-1.33-4.89-2.02
			c-1.37-0.58-3.32-0.56-3.66-2.42c-0.37-2.01,1.47-2.86,2.77-3.77c4.42-3.09,9.48-3.75,14.62-2.94c2.7,0.43,2.66-0.47,2.31-2.5
			c-1.29-7.36-0.31-14.35,4.14-20.52c5.92-8.21,16.34-9.91,25.4-7.36c0.43,0.12,0.85,0.26,1.27,0.4c4.14,1.38,4.07,1.34,1.87,5.09
			c-3.03,5.16-2.26,10.41-0.02,15.6c1.73,4.02,4.36,7.48,7.42,10.52c5.86,5.81,10.71,12.36,15.16,19.25
			c3.71,8.73,5.86,17.76,5.52,27.31c-0.51,14.62-7.65,24.94-20.51,31.55c-0.46,0.24-1.06,0.2-1.59,0.3
			c0.41-0.51,0.79-1.07,1.25-1.53c5.22-5.31,7.48-11.62,6.16-18.98c-0.56-3.14-1.39-6.33-4.28-8.5c-2.67,5.48-7.46,7.5-12.95,5.84
			c-2.16-0.66-2.89-1.22-1.38-3.54c6.41-9.81,4.79-20.59-4.03-28.18c-0.99-0.85-2.16-2.32-3.26-1.91c-1.36,0.51-0.66,2.35-0.61,3.58
			c0.37,7.69-2.35,13.77-8.98,17.98c-2.14,1.36-4.11,2.98-6.16,4.49c-7.23,5.35-8.86,14.51-4,22.01c3.56,5.49,9.04,8.62,14.43,11.87
			c-0.26,0.07-0.51,0.14-0.77,0.21c-15.96-1.72-34.3-15.97-32.53-37.05c0.62-7.45,3.77-13.79,8.73-19.28
			C274.48,388.04,276.01,386.19,276.37,383.64z"/>
		<path class="st9" d="M390.41,140.05c14.79-7.69,41.43-5.7,58.24,13.1c16.54,18.5,17.6,46.48,1.93,66.49
			c-15.56,19.87-42.06,24.3-60.41,15.65c19.52-9.93,30.82-25.45,30.9-47.5C421.16,165.73,409.96,150.1,390.41,140.05z"/>
		<path class="st10" d="M400.54,383.53c-2.89-6.7-6.91-12.8-10.46-19.14c-7.93-14.15-16.03-28.2-24.06-42.3
			c-9.01-15.82-18.07-31.61-26.99-47.49c-1.56-2.77-3.46-5.39-4.39-8.49c1.42-0.01,2.1,1.11,2.94,1.95
			c17.93,17.87,35.84,35.76,53.76,53.64c6.66,6.64,9.9,14.65,9.87,24.04c-0.05,12.59-0.03,25.18-0.04,37.77c0,0-0.31,0.09-0.31,0.09
			L400.54,383.53z"/>
		<path class="st11" d="M297.4,445.98c-5.39-3.25-10.87-6.38-14.43-11.87c-4.86-7.5-3.23-16.67,4-22.01
			c2.04-1.51,4.02-3.13,6.16-4.49c6.64-4.22,9.35-10.29,8.98-17.98c-0.06-1.22-0.76-3.07,0.61-3.58c1.1-0.41,2.28,1.06,3.26,1.91
			c8.82,7.59,10.44,18.36,4.03,28.18c-1.51,2.31-0.78,2.88,1.38,3.54c5.49,1.67,10.28-0.36,12.95-5.84c2.9,2.17,3.72,5.36,4.28,8.5
			c1.32,7.36-0.94,13.67-6.16,18.98c-0.46,0.47-0.83,1.02-1.25,1.53c-2.89,2.2-6.31,2.81-9.78,3.32
			C306.75,446.48,302.06,447.58,297.4,445.98z"/>
		<path class="st12" d="M412.59,422.54c0-4.83,0.01-9.66,0-14.49c0-1.69,0.2-3.32,1.22-4.72c1.45-1.98,3.44-2.8,5.82-2.26
			c2.33,0.54,3.92,1.98,4.33,4.46c0.66,3.95,0.16,7.94,0.3,11.9c0.06,1.71,0.01,3.43,0.69,5.37c1.83-2.41,3.63-4.85,5.51-7.23
			c2.69-3.42,6.07-4.12,8.88-1.89c2.65,2.1,2.83,5.47,0.32,8.85c-5.2,7.01-10.43,14-15.73,20.93c-3.51,4.59-7.38,4.65-10.87,0.11
			c-5.39-7.01-10.68-14.09-15.93-21.2c-2.48-3.36-2.19-6.72,0.56-8.79c2.76-2.07,6.08-1.4,8.65,1.85c1.9,2.41,3.72,4.9,5.57,7.35
			C412.12,422.7,412.36,422.62,412.59,422.54z"/>
		<path class="st13" d="M194.05,422.78c1.83-2.43,3.64-4.89,5.5-7.29c2.6-3.35,5.71-4.04,8.6-1.96c2.81,2.02,3.16,5.48,0.72,8.77
			c-5.27,7.11-10.58,14.19-15.95,21.23c-3.47,4.55-7.38,4.56-10.89-0.02c-5.38-7.02-10.69-14.11-15.95-21.22
			c-2.48-3.36-2.11-6.71,0.73-8.76c2.73-1.97,5.84-1.33,8.41,1.79c1.05,1.28,2.02,2.63,3.02,3.96c0.93,1.23,1.86,2.47,3.08,4.09
			c0.64-3.47,0.23-6.59,0.33-9.68c0.07-2.43-0.11-4.88,0.1-7.29c0.28-3.23,2.7-5.42,5.65-5.46c2.99-0.03,5.44,2.01,5.69,5.31
			c0.29,3.96,0.17,7.95,0.21,11.93c0.02,1.43,0,2.86,0,4.29C193.54,422.56,193.79,422.67,194.05,422.78z"/>
		<path class="st14" d="M170.24,337.17c-0.01,6.67-0.02,13.35-0.03,20.02c-4.59,4.65-7.94,10.27-11.95,15.38
			c-2.04,2.61-3.91,5.35-5.94,7.97c-1.73,2.23-3.94,3.65-6.89,2.82c-3.02-0.85-4.16-3.36-4.22-6.11
			c-0.17-7.29-0.21-14.58,0.02-21.87c0.12-3.95,2.68-6.31,5.92-6.25c3.36,0.07,5.62,2.69,5.78,6.78c0.04,1.09,0.01,2.18,0.01,4.34
			C159.09,352.05,164.67,344.61,170.24,337.17z"/>
		<path class="st14" d="M435.85,357.16c0.01-6.48,0.02-12.95,0.03-19.43c5.53,7.25,11.05,14.49,17.22,22.57
			c0-2.36-0.06-3.73,0.01-5.1c0.18-3.52,2.6-6.03,5.77-6.06c3.25-0.03,5.55,2.36,5.59,6.07c0.07,7.18-0.04,14.36,0.06,21.55
			c0.04,3.09-0.91,5.41-3.97,6.51c-3.06,1.1-5.19-0.5-6.86-2.7c-4.95-6.5-9.76-13.11-14.69-19.63
			C438.01,359.64,437.29,358.09,435.85,357.16z"/>
		<path class="st14" d="M308.59,165.88c-1.71-1.28-2.77-3.12-3.9-4.85c-1.27-1.96-2.25-1.63-3.42-0.02
			c-1.21,1.68-2.24,3.51-3.88,4.84c-0.03-9.92-0.1-19.84-0.06-29.76c0.01-3.6,2.43-6.06,5.64-6.08c3.05-0.02,5.69,2.63,5.7,6.11
			C308.72,146.04,308.63,155.96,308.59,165.88z"/>
		<path class="st10" d="M270.82,266.79c-2.85,6.72-6.89,12.79-10.42,19.14c-7.01,12.63-14.27,25.12-21.43,37.67
			c-9.94,17.44-19.87,34.88-29.8,52.32c-1.36,2.39-2.33,5.01-4.19,7.11c-0.02-13.81-0.23-27.62,0-41.43
			c0.12-7.22,3.41-13.44,8.43-18.5c18.08-18.21,36.28-36.28,54.45-54.4C268.71,267.87,269.39,266.74,270.82,266.79z"/>
		<path class="st10" d="M272.11,264.79c-0.01,0.55-0.14,1.04-0.69,1.31C271.45,265.55,271.58,265.07,272.11,264.79z"/>
	</g>
</g>
<g>
	<g>
		<circle class="st15" cx="300" cy="300" r="265"/>
		<ellipse class="st16" cx="300" cy="300" rx="245" ry="234"/>
	</g>
	<g>
		<path class="st17" d="M164.71,423.85c0.06-3-0.32-6.02,0.61-8.98c0.87-2.78,2.99-4.14,6.18-3.85c2.87,0.26,4.72,2.11,4.81,5.08
			c0.1,3.45,0.01,6.9,0.01,10.35C172.36,425.96,168.45,425.25,164.71,423.85z"/>
		<path class="st17" d="M210.65,428.98c-0.01-2.16-0.11-4.32,0-6.48c0.16-3.24,2.3-5.58,5.28-6c2.66-0.37,4.95,1.49,5.95,4.7
			c0.76,2.44,0.19,4.94,0.41,7.39C218.43,429.47,214.54,429.11,210.65,428.98z"/>
		<path class="st17" d="M187.98,427.86c0-1.92-0.03-3.85,0-5.77c0.04-2.97,2.44-5.58,5.26-5.77c2.55-0.17,5.08,2.18,5.79,4.95
			c0.63,2.43,0.52,4.86,0.6,7.31C195.73,428.57,191.82,428.8,187.98,427.86z"/>
		<g>
			<path class="st17" d="M427.27,425.66c0.08-3.42-0.37-6.86,0.6-10.24c0.93-3.27,3.09-4.8,6.46-4.37c2.85,0.36,4.48,2.36,4.55,5.65
				c0.05,2.04,0.04,4.09,0.05,6.13C435.14,424.13,431.23,425,427.27,425.66z"/>
			<path class="st17" d="M450.57,419.61c-0.01-2.89-0.06-5.79-0.03-8.68c0.03-2.91,2.01-5.35,4.55-5.73
				c3.07-0.46,5.24,0.98,6.43,4.02c0.86,2.18,0.47,4.45,0.8,6.65C458.52,417.5,454.59,418.71,450.57,419.61z"/>
			<path class="st17" d="M404.6,429.8c0-2.25-0.11-4.51,0.03-6.75c0.24-3.99,2.64-6.31,6.2-6.2c3.57,0.12,5.34,2.24,5.41,6.51
				c0.02,1.5,0,3,0,4.5C412.41,428.89,408.56,429.69,404.6,429.8z"/>
			<path class="st17" d="M336.02,432.93c0.09-2.45-0.25-4.89,0.57-7.33c0.98-2.87,3.02-4.18,5.8-4.06c2.96,0.13,5.09,2.57,5.23,5.55
				c0.1,2.14,0,4.29,0,6.44C343.72,433.93,339.89,433.18,336.02,432.93z"/>
			<path class="st17" d="M359.31,433.6c-0.01-2.04-0.04-4.07-0.02-6.11c0.03-3.26,2.76-6.18,5.65-6.08
				c2.79,0.09,5.32,2.94,5.36,6.05c0.03,1.93,0.05,3.86,0.07,5.79C366.7,433.99,363,433.63,359.31,433.6z"/>
			<path class="st17" d="M381.94,432.43c0-1.6-0.03-3.21,0.01-4.81c0.07-3.13,2.19-5.76,4.94-6.19c2.69-0.42,5.01,1.34,6.15,4.4
				c0.66,1.78,0.46,3.58,0.58,5.37C389.78,432.1,385.88,432.51,381.94,432.43z"/>
			<path class="st17" d="M313.35,430.49c0.01-1.29-0.09-2.59,0.04-3.86c0.27-2.68,2.69-5.04,5.3-5.21c2.85-0.19,4.61,1.25,5.6,3.86
				c0.83,2.18,0.73,4.41,0.66,6.66C321.04,431.82,317.15,431.5,313.35,430.49z"/>
			<g>
				<path class="st18" d="M450.57,419.61c-3.88,1.07-7.76,2.13-11.64,3.2c-0.02-2.04-0.01-4.09-0.05-6.13
					c-0.07-3.29-1.7-5.29-4.55-5.65c-3.36-0.42-5.53,1.11-6.46,4.37c-0.97,3.38-0.52,6.82-0.6,10.24
					c-3.68,0.74-7.36,1.47-11.04,2.21c0-1.5,0.03-3,0-4.5c-0.07-4.27-1.84-6.39-5.41-6.51c-3.57-0.12-5.96,2.2-6.2,6.2
					c-0.13,2.24-0.03,4.5-0.03,6.75c-3.62,0.79-7.27,1.32-10.97,1.41c-0.13-1.8,0.08-3.59-0.58-5.37c-1.13-3.06-3.46-4.83-6.15-4.4
					c-2.75,0.43-4.87,3.06-4.94,6.19c-0.04,1.6-0.01,3.2-0.01,4.81c-3.82,0.75-7.71,0.58-11.57,0.81c-0.02-1.93-0.04-3.86-0.07-5.79
					c-0.04-3.11-2.57-5.95-5.36-6.05c-2.89-0.1-5.62,2.82-5.65,6.08c-0.02,2.04,0.01,4.07,0.02,6.11c-3.9-0.02-7.8-0.04-11.69-0.06
					c0.01-2.15,0.1-4.3,0-6.44c-0.13-2.98-2.27-5.42-5.23-5.55c-2.78-0.12-4.82,1.19-5.8,4.06c-0.83,2.43-0.48,4.88-0.57,7.33
					c-3.69-0.33-7.38-0.66-11.06-1c0.07-2.25,0.17-4.48-0.66-6.66c-1-2.61-2.75-4.05-5.6-3.86c-2.61,0.18-5.03,2.54-5.3,5.21
					c-0.13,1.28-0.04,2.57-0.04,3.86c-3.7-0.65-7.44-1.16-11.1-2c-3.71-0.85-5.49-3.21-5.88-7.13c-0.12-1.18-0.22-2.36-0.41-3.53
					c-0.79-5.04-4.57-8.89-9.66-9.44c-12.25-1.32-24.53-1.01-36.76,0.27c-6,0.63-9.58,4.59-10.45,10.62
					c-0.9,6.24-3.24,8.36-9.53,8.56c-2.47,0.08-4.95,0.08-7.43,0.12c-0.22-2.46,0.35-4.95-0.41-7.39c-1-3.21-3.29-5.07-5.95-4.7
					c-2.98,0.41-5.11,2.76-5.28,6c-0.11,2.15-0.01,4.32,0,6.48c-3.68,0.11-7.36,0.16-11.02-0.4c-0.08-2.44,0.03-4.88-0.6-7.31
					c-0.71-2.77-3.24-5.12-5.79-4.95c-2.82,0.19-5.22,2.79-5.26,5.77c-0.03,1.92,0,3.85,0,5.77c-3.89-0.47-7.78-0.94-11.67-1.41
					c0.01-3.45,0.1-6.9-0.01-10.35c-0.09-2.97-1.94-4.81-4.81-5.08c-3.19-0.29-5.31,1.07-6.18,3.85c-0.93,2.95-0.55,5.98-0.61,8.98
					c-5.49-0.93-10.43-3.14-15.05-6.21c-1.3-0.87-1.85-1.8-1.83-3.4c0.07-10.12,0.05-20.24,0.02-30.37
					c-0.01-1.34,0.33-2.52,0.93-3.69c1.62-3.14,3.18-6.3,4.77-9.46c11.09,3.78,22.35,7.06,33.74,9.76
					c14.08,3.35,28.27,6.06,42.74,7.36c9.45,0.85,18.86,0.88,28.26,0.33c9.29-0.54,18.49-1.87,27.88-1.28
					c11.77,0.73,23.12,3.19,34.43,6.25c11.18,3.02,22.32,6.36,34.08,6.2c7.41-0.1,14.79-0.77,22.19-1.18
					c14.59-0.81,29.04-2.59,43.37-5.33c16.6-3.18,33.08-6.81,47.51-16.38c6.16,2.35,9.59,7.07,11.41,13.19c0,3.24,0,6.48,0,9.73
					c-1.07,0.64-0.91,1.86-1.28,2.82c-2.86,7.25-7.76,12.27-15.4,14.36c-0.33-2.21,0.06-4.48-0.8-6.65
					c-1.2-3.04-3.37-4.48-6.43-4.02c-2.54,0.38-4.52,2.82-4.55,5.73C450.51,413.83,450.56,416.72,450.57,419.61z"/>
				<path class="st19" d="M467.59,375.79c-14.42,9.57-30.9,13.2-47.51,16.38c-14.33,2.74-28.78,4.52-43.37,5.33
					c-7.4,0.41-14.78,1.09-22.19,1.18c-11.76,0.16-22.9-3.18-34.08-6.2c-11.31-3.06-22.66-5.52-34.43-6.25
					c-9.4-0.58-18.59,0.74-27.88,1.28c-9.41,0.55-18.82,0.52-28.26-0.33c-14.47-1.29-28.66-4.01-42.74-7.36
					c-11.39-2.71-22.64-5.98-33.74-9.76c-3.52-18.6,0.02-36.55,5.04-54.36c0.93-3.3,1.82-6.6,2.74-9.91
					c0.45,0.98,1.35,1.16,2.26,1.57c2.72,1.22,5.3-0.15,7.94-0.1c7.52,0.13,15.03,0.06,22.56,0.53c7.27,0.46,14.55,0.83,21.83,1.31
					c11.67,0.77,23.2,2.4,34.64,4.68c14.15,2.82,27.9,6.89,41.06,12.94c8.28,3.8,15.33,9.49,22.96,14.29
					c11.21,7.06,23.72,9.27,36.55,7.43c11.83-1.69,22.56-6.95,32.08-14.28c3.7-2.85,7.63-5.6,9.91-9.93
					c14.1-0.01,28.22-0.32,42.31,0.03c17.13,0.43,31.75,15.57,32.15,32.74C467.55,363.28,467.53,369.53,467.59,375.79z"/>
				<path class="st20" d="M392.94,324.25c-2.28,4.33-6.21,7.08-9.91,9.93c-9.52,7.33-20.24,12.59-32.08,14.28
					c-12.82,1.83-25.33-0.37-36.55-7.43c-7.63-4.8-14.68-10.48-22.96-14.29c-13.16-6.05-26.92-10.12-41.06-12.94
					c-11.44-2.29-22.97-3.91-34.64-4.68c-7.28-0.48-14.55-0.85-21.83-1.31c-7.53-0.47-15.04-0.4-22.56-0.53
					c-2.64-0.05-5.22,1.32-7.94,0.1c-0.91-0.41-1.81-0.59-2.26-1.57c1.02-5.93,2.95-11.66,3.67-17.67
					c1.5-12.49,1.2-24.94-0.55-37.36c-0.32-2.25-0.42-4.48-0.49-6.73c10.52-1.39,21.03-2.78,31.55-4.18
					c11.36-1.52,22.76-2.83,34.07-4.63c11.74-1.87,19.18-12.27,18.64-22.5c-0.62-11.93-2.04-23.77-3.35-35.63
					c-0.11-9.54,1.39-18.7,6.48-26.96c6.66-10.8,16.95-16.17,28.81-19.15c0.73-0.18,1.46-0.35,2.2-0.5
					c4.64-0.97,7.84,1.58,7.85,6.36c0.03,11.22-0.4,22.46,0.09,33.65c1.06,23.96,3.99,47.66,12.88,70.17
					c6.36,16.11,16.13,30.19,27.09,43.47c7.91,9.58,16.48,18.53,25.54,27.03c8.98,8.42,19.56,12.68,31.81,12.95
					C389.28,324.18,391.11,324.21,392.94,324.25z M278.99,244.82c2.79,0.06,5.74-2.84,5.86-5.75c0.12-2.85-2.8-5.69-5.82-5.68
					c-2.91,0.02-5.67,2.68-5.69,5.49C273.32,241.79,276.15,244.76,278.99,244.82z M273.5,221.69c3.17,0.02,5.49-2.27,5.53-5.44
					c0.04-3.13-2.3-5.53-5.41-5.56c-3.44-0.03-6,2.43-5.99,5.78C267.64,219.23,270.38,221.67,273.5,221.69z M307.47,290.41
					c3.03,0.13,5.61-2.15,5.84-5.17c0.22-2.86-2.3-5.7-5.18-5.82c-3.31-0.14-6.32,2.47-6.32,5.49
					C301.8,287.69,304.46,290.28,307.47,290.41z M295.88,261.78c-0.04-2.81-2.6-5.51-5.21-5.49c-3.2,0.02-5.85,2.68-5.77,5.78
					c0.08,2.9,2.85,5.7,5.58,5.64C293.8,267.63,295.93,265.3,295.88,261.78z"/>
				<path class="st21" d="M244.71,177.1c1.31,11.86,2.73,23.7,3.35,35.63c0.54,10.23-6.9,20.63-18.64,22.5
					c-11.32,1.8-22.71,3.11-34.07,4.63c-10.52,1.4-21.03,2.79-31.55,4.18c-2.28-12.48-4.92-24.91-6.74-37.46
					c-1.41-9.73,6.49-19.04,16.96-20.53c13.62-1.93,27.29-3.49,40.94-5.21C224.87,179.6,234.79,178.35,244.71,177.1z"/>
				<path class="st18" d="M278.99,244.82c-2.84-0.06-5.67-3.03-5.65-5.95c0.02-2.81,2.78-5.47,5.69-5.49
					c3.02-0.02,5.94,2.83,5.82,5.68C284.73,241.98,281.77,244.87,278.99,244.82z"/>
				<path class="st18" d="M273.5,221.69c-3.13-0.02-5.86-2.45-5.87-5.23c-0.01-3.34,2.55-5.81,5.99-5.78
					c3.11,0.03,5.45,2.43,5.41,5.56C279,219.42,276.67,221.71,273.5,221.69z"/>
				<path class="st18" d="M307.47,290.41c-3.01-0.13-5.67-2.72-5.67-5.51c0.01-3.02,3.01-5.63,6.32-5.49
					c2.88,0.12,5.4,2.96,5.18,5.82C313.08,288.26,310.51,290.54,307.47,290.41z"/>
				<path class="st18" d="M295.88,261.78c0.05,3.52-2.08,5.85-5.39,5.93c-2.73,0.06-5.51-2.74-5.58-5.64
					c-0.08-3.1,2.57-5.76,5.77-5.78C293.28,256.27,295.84,258.97,295.88,261.78z"/>
			</g>
		</g>
	</g>
</g>
</svg>
