<?xml version="1.0" encoding="utf-8"?>
<!-- Generator: Adobe Illustrator 25.0.0, SVG Export Plug-In . SVG Version: 6.00 Build 0)  -->
<svg version="1.1" id="Camada_1" xmlns="http://www.w3.org/2000/svg" xmlns:xlink="http://www.w3.org/1999/xlink" x="0px" y="0px"
	 viewBox="0 0 600 600" style="enable-background:new 0 0 600 600;" xml:space="preserve">
<style type="text/css">
	.st0{display:none;}
	.st1{display:inline;}
	.st2{fill:#BA7B47;}
	.st3{fill:#E6CD70;}
	.st4{fill:#6E3F25;}
	.st5{fill:#74BE86;}
	.st6{fill:#4D8157;}
	.st7{fill:#F2F2F2;}
	.st8{fill:#CB4D4D;}
	.st9{fill:#838893;}
	.st10{fill:#56B46F;}
	.st11{fill:#F29C1F;}
	.st12{fill:#51835A;}
	.st13{fill:#508259;}
	.st14{fill:#888989;}
	.st15{fill:#879469;}
	.st16{fill:#212F36;}
	.st17{fill:#E57E26;}
	.st18{fill:#F08E48;}
	.st19{fill:#F2D45C;}
	.st20{fill:#E3C05E;}
	.st21{fill:#A37D76;}
	.st22{fill:#746E66;}
	.st23{fill:#C7CBC6;}
	.st24{fill:#45B29D;}
	.st25{fill:#7F5D55;}
	.st26{fill:#78C4AF;}
	.st27{fill:#7F5C54;}
	.st28{fill:#79C4AE;}
	.st29{fill:#18A085;}
	.st30{fill:#7E5D55;}
	.st31{fill:#FEEF83;}
	.st32{fill:#FEDB65;}
	.st33{fill:#FDC750;}
</style>
<g class="st0">
	<g class="st1">
		<circle class="st2" cx="300" cy="300" r="265"/>
		<ellipse class="st3" cx="300" cy="300" rx="245" ry="234"/>
	</g>
	<g class="st1">
		<path class="st4" d="M253.48,469.99c-0.69-1.12-2.02-1.23-3-1.89c-3.99-2.69-6.03-7.23-4.92-12.09c1.04-4.55,3.92-7.59,8.56-8.66
			c1.59-0.37,3.28-0.47,4.92-0.48c11.26-0.04,22.53-0.01,33.79-0.04c1.28,0,2.67,0.39,3.8-0.64c0.26-0.07,0.51-0.14,0.77-0.21
			c4.66,1.6,9.35,0.5,14.03,0.18c0.94,1.17,2.26,0.66,3.4,0.66c11.04,0.04,22.08-0.04,33.12,0.05c8.12,0.06,13.58,5.81,12.6,13.16
			c-0.68,5.15-4.25,7.92-8.6,9.96C319.14,469.99,286.31,469.99,253.48,469.99z"/>
		<path class="st5" d="M170.24,337.17c9.01-12.17,18.01-24.35,27.04-36.51c14.97-20.15,29.96-40.29,44.93-60.43
			c3.7-4.94,7.43-9.85,11.1-14.81c6.29-8.49,12.55-17.01,18.82-25.52c8.63-11.2,17.16-22.46,25.26-34.05
			c1.65-1.33,2.67-3.16,3.88-4.84c1.17-1.62,2.15-1.94,3.42,0.02c1.12,1.73,2.18,3.57,3.9,4.85c5.04,7.81,10.87,15.04,16.41,22.48
			c36.32,48.79,72.69,97.53,109.02,146.31c0.71,0.95,1.68,1.79,1.87,3.08c-0.01,6.48-0.02,12.95-0.03,19.43
			c-0.02,4.85,0.02,9.71-0.09,14.56c-0.16,6.81-4.93,11.72-11.73,11.84c-7.62,0.14-15.25-0.02-22.87-0.05
			c0.01-12.59-0.01-25.18,0.04-37.77c0.04-9.39-3.2-17.4-9.87-24.04c-17.93-17.87-35.84-35.76-53.76-53.64
			c-0.84-0.84-1.52-1.96-2.94-1.95c-8-13.98-15.94-27.99-24.03-41.91c-1.46-2.51-1.98-4.99-1.93-7.82
			c0.12-7.51,0.1-15.03,0.01-22.55c-0.05-3.79-2.55-6.21-5.95-6.09c-3.43,0.12-5.34,2.26-5.36,6.19
			c-0.04,6.85-0.15,13.71,0.04,20.56c0.11,3.98-0.49,7.53-2.8,10.95c-2.46,3.65-4.37,7.67-6.56,11.5
			c-5.3,9.29-10.63,18.57-15.94,27.85c-0.53,0.28-0.67,0.76-0.69,1.31c-0.2,0.23-0.4,0.46-0.6,0.69c-1.43-0.04-2.11,1.09-2.95,1.92
			c-18.17,18.11-36.38,36.19-54.45,54.4c-5.02,5.06-8.31,11.28-8.43,18.5c-0.23,13.8-0.03,27.62,0,41.43c0.01,0.16,0,0.33-0.02,0.49
			c-7.65,0.03-15.3,0.18-22.95,0.05c-7.04-0.12-11.69-5-11.78-12.1c-0.06-4.76-0.02-9.52-0.03-14.28
			C170.22,350.51,170.23,343.84,170.24,337.17z"/>
		<path class="st6" d="M270.82,266.79c0.2-0.23,0.4-0.46,0.6-0.69c0.55-0.27,0.68-0.76,0.69-1.31c5.31-9.28,10.64-18.56,15.94-27.85
			c2.19-3.83,4.09-7.85,6.56-11.5c2.31-3.41,2.9-6.97,2.8-10.95c-0.18-6.85-0.08-13.7-0.04-20.56c0.02-3.93,1.93-6.06,5.36-6.19
			c3.39-0.12,5.9,2.3,5.95,6.09c0.09,7.51,0.11,15.03-0.01,22.55c-0.04,2.83,0.48,5.32,1.93,7.82
			c8.09,13.92,16.04,27.93,24.03,41.91c0.93,3.1,2.84,5.72,4.39,8.49c8.92,15.87,17.98,31.67,26.99,47.49
			c8.03,14.09,16.13,28.15,24.06,42.3c3.55,6.34,7.57,12.43,10.46,19.14c-18.48,0.04-36.97,0.07-55.45,0.11
			c-2.43,0.01-4.87,0.04-7.3,0.06c-4.45-6.89-9.31-13.44-15.16-19.25c-3.06-3.04-5.69-6.5-7.42-10.52c-2.23-5.19-3-10.43,0.02-15.6
			c2.2-3.75,2.27-3.71-1.87-5.09c-0.42-0.14-0.84-0.29-1.27-0.4c-9.07-2.55-19.48-0.85-25.4,7.36c-4.45,6.17-5.42,13.16-4.14,20.52
			c0.35,2.03,0.4,2.93-2.31,2.5c-5.14-0.82-10.2-0.15-14.62,2.94c-1.3,0.91-3.14,1.75-2.77,3.77c0.34,1.85,2.29,1.83,3.66,2.42
			c1.62,0.69,3.41,1.11,4.89,2.02c3.4,2.09,5.45,5.05,4.98,9.29c-22.47,0-44.95,0-67.42-0.01c-1.33,0-2.65-0.07-3.98-0.11
			c0.02-0.16,0.02-0.33,0.02-0.49c1.86-2.1,2.83-4.72,4.19-7.11c9.93-17.44,19.87-34.88,29.8-52.32
			c7.15-12.55,14.42-25.04,21.43-37.67C263.93,279.58,267.97,273.5,270.82,266.79z"/>
		<path class="st7" d="M272.13,199.9c-6.27,8.51-12.53,17.03-18.82,25.52c-3.67,4.96-7.4,9.88-11.1,14.81
			c-1.08-1.18-2.5-0.66-3.77-0.66c-28.15-0.03-56.3-0.05-84.44-0.01c-7.45,0.01-13.25-3.12-16.57-9.61
			c-3.43-6.69-2.2-13.29,2.43-19.21c1.54-1.97,3.67-3.31,5.87-4.2c2.17-0.88,2.74-1.62,2.18-4.09
			c-3.38-14.91,4.99-28.15,19.74-31.62c10.72-2.53,22.76,2.97,27.87,12.73c0.75,1.43,1.47,2.89,2.49,4.9
			c0.97-10.59,5.14-18.91,12.39-25.75c15.07-14.21,41.36-12.08,54.04,4.19c7.18,9.2,9.71,19.32,7.74,30.7
			C272.04,198.33,272.14,199.12,272.13,199.9z"/>
		<path class="st8" d="M276.37,383.64c0.47-4.23-1.58-7.19-4.98-9.29c-1.48-0.91-3.26-1.33-4.89-2.02
			c-1.37-0.58-3.32-0.56-3.66-2.42c-0.37-2.01,1.47-2.86,2.77-3.77c4.42-3.09,9.48-3.75,14.62-2.94c2.7,0.43,2.66-0.47,2.31-2.5
			c-1.29-7.36-0.31-14.35,4.14-20.52c5.92-8.21,16.34-9.91,25.4-7.36c0.43,0.12,0.85,0.26,1.27,0.4c4.14,1.38,4.07,1.34,1.87,5.09
			c-3.03,5.16-2.26,10.41-0.02,15.6c1.73,4.02,4.36,7.48,7.42,10.52c5.86,5.81,10.71,12.36,15.16,19.25
			c3.71,8.73,5.86,17.76,5.52,27.31c-0.51,14.62-7.65,24.94-20.51,31.55c-0.46,0.24-1.06,0.2-1.59,0.3
			c0.41-0.51,0.79-1.07,1.25-1.53c5.22-5.31,7.48-11.62,6.16-18.98c-0.56-3.14-1.39-6.33-4.28-8.5c-2.67,5.48-7.46,7.5-12.95,5.84
			c-2.16-0.66-2.89-1.22-1.38-3.54c6.41-9.81,4.79-20.59-4.03-28.18c-0.99-0.85-2.16-2.32-3.26-1.91c-1.36,0.51-0.66,2.35-0.61,3.58
			c0.37,7.69-2.35,13.77-8.98,17.98c-2.14,1.36-4.11,2.98-6.16,4.49c-7.23,5.35-8.86,14.51-4,22.01c3.56,5.49,9.04,8.62,14.43,11.87
			c-0.26,0.07-0.51,0.14-0.77,0.21c-15.96-1.72-34.3-15.97-32.53-37.05c0.62-7.45,3.77-13.79,8.73-19.28
			C274.48,388.04,276.01,386.19,276.37,383.64z"/>
		<path class="st9" d="M390.41,140.05c14.79-7.69,41.43-5.7,58.24,13.1c16.54,18.5,17.6,46.48,1.93,66.49
			c-15.56,19.87-42.06,24.3-60.41,15.65c19.52-9.93,30.82-25.45,30.9-47.5C421.16,165.73,409.96,150.1,390.41,140.05z"/>
		<path class="st10" d="M400.54,383.53c-2.89-6.7-6.91-12.8-10.46-19.14c-7.93-14.15-16.03-28.2-24.06-42.3
			c-9.01-15.82-18.07-31.61-26.99-47.49c-1.56-2.77-3.46-5.39-4.39-8.49c1.42-0.01,2.1,1.11,2.94,1.95
			c17.93,17.87,35.84,35.76,53.76,53.64c6.66,6.64,9.9,14.65,9.87,24.04c-0.05,12.59-0.03,25.18-0.04,37.77c0,0-0.31,0.09-0.31,0.09
			L400.54,383.53z"/>
		<path class="st11" d="M297.4,445.98c-5.39-3.25-10.87-6.38-14.43-11.87c-4.86-7.5-3.23-16.67,4-22.01
			c2.04-1.51,4.02-3.13,6.16-4.49c6.64-4.22,9.35-10.29,8.98-17.98c-0.06-1.22-0.76-3.07,0.61-3.58c1.1-0.41,2.28,1.06,3.26,1.91
			c8.82,7.59,10.44,18.36,4.03,28.18c-1.51,2.31-0.78,2.88,1.38,3.54c5.49,1.67,10.28-0.36,12.95-5.84c2.9,2.17,3.72,5.36,4.28,8.5
			c1.32,7.36-0.94,13.67-6.16,18.98c-0.46,0.47-0.83,1.02-1.25,1.53c-2.89,2.2-6.31,2.81-9.78,3.32
			C306.75,446.48,302.06,447.58,297.4,445.98z"/>
		<path class="st12" d="M412.59,422.54c0-4.83,0.01-9.66,0-14.49c0-1.69,0.2-3.32,1.22-4.72c1.45-1.98,3.44-2.8,5.82-2.26
			c2.33,0.54,3.92,1.98,4.33,4.46c0.66,3.95,0.16,7.94,0.3,11.9c0.06,1.71,0.01,3.43,0.69,5.37c1.83-2.41,3.63-4.85,5.51-7.23
			c2.69-3.42,6.07-4.12,8.88-1.89c2.65,2.1,2.83,5.47,0.32,8.85c-5.2,7.01-10.43,14-15.73,20.93c-3.51,4.59-7.38,4.65-10.87,0.11
			c-5.39-7.01-10.68-14.09-15.93-21.2c-2.48-3.36-2.19-6.72,0.56-8.79c2.76-2.07,6.08-1.4,8.65,1.85c1.9,2.41,3.72,4.9,5.57,7.35
			C412.12,422.7,412.36,422.62,412.59,422.54z"/>
		<path class="st13" d="M194.05,422.78c1.83-2.43,3.64-4.89,5.5-7.29c2.6-3.35,5.71-4.04,8.6-1.96c2.81,2.02,3.16,5.48,0.72,8.77
			c-5.27,7.11-10.58,14.19-15.95,21.23c-3.47,4.55-7.38,4.56-10.89-0.02c-5.38-7.02-10.69-14.11-15.95-21.22
			c-2.48-3.36-2.11-6.71,0.73-8.76c2.73-1.97,5.84-1.33,8.41,1.79c1.05,1.28,2.02,2.63,3.02,3.96c0.93,1.23,1.86,2.47,3.08,4.09
			c0.64-3.47,0.23-6.59,0.33-9.68c0.07-2.43-0.11-4.88,0.1-7.29c0.28-3.23,2.7-5.42,5.65-5.46c2.99-0.03,5.44,2.01,5.69,5.31
			c0.29,3.96,0.17,7.95,0.21,11.93c0.02,1.43,0,2.86,0,4.29C193.54,422.56,193.79,422.67,194.05,422.78z"/>
		<path class="st14" d="M170.24,337.17c-0.01,6.67-0.02,13.35-0.03,20.02c-4.59,4.65-7.94,10.27-11.95,15.38
			c-2.04,2.61-3.91,5.35-5.94,7.97c-1.73,2.23-3.94,3.65-6.89,2.82c-3.02-0.85-4.16-3.36-4.22-6.11
			c-0.17-7.29-0.21-14.58,0.02-21.87c0.12-3.95,2.68-6.31,5.92-6.25c3.36,0.07,5.62,2.69,5.78,6.78c0.04,1.09,0.01,2.18,0.01,4.34
			C159.09,352.05,164.67,344.61,170.24,337.17z"/>
		<path class="st14" d="M435.85,357.16c0.01-6.48,0.02-12.95,0.03-19.43c5.53,7.25,11.05,14.49,17.22,22.57
			c0-2.36-0.06-3.73,0.01-5.1c0.18-3.52,2.6-6.03,5.77-6.06c3.25-0.03,5.55,2.36,5.59,6.07c0.07,7.18-0.04,14.36,0.06,21.55
			c0.04,3.09-0.91,5.41-3.97,6.51c-3.06,1.1-5.19-0.5-6.86-2.7c-4.95-6.5-9.76-13.11-14.69-19.63
			C438.01,359.64,437.29,358.09,435.85,357.16z"/>
		<path class="st14" d="M308.59,165.88c-1.71-1.28-2.77-3.12-3.9-4.85c-1.27-1.96-2.25-1.63-3.42-0.02
			c-1.21,1.68-2.24,3.51-3.88,4.84c-0.03-9.92-0.1-19.84-0.06-29.76c0.01-3.6,2.43-6.06,5.64-6.08c3.05-0.02,5.69,2.63,5.7,6.11
			C308.72,146.04,308.63,155.96,308.59,165.88z"/>
		<path class="st10" d="M270.82,266.79c-2.85,6.72-6.89,12.79-10.42,19.14c-7.01,12.63-14.27,25.12-21.43,37.67
			c-9.94,17.44-19.87,34.88-29.8,52.32c-1.36,2.39-2.33,5.01-4.19,7.11c-0.02-13.81-0.23-27.62,0-41.43
			c0.12-7.22,3.41-13.44,8.43-18.5c18.08-18.21,36.28-36.28,54.45-54.4C268.71,267.87,269.39,266.74,270.82,266.79z"/>
		<path class="st10" d="M272.11,264.79c-0.01,0.55-0.14,1.04-0.69,1.31C271.45,265.55,271.58,265.07,272.11,264.79z"/>
	</g>
</g>
<g class="st0">
	<g class="st1">
		<circle class="st15" cx="300" cy="300" r="265"/>
		<ellipse class="st16" cx="300" cy="300" rx="245" ry="234"/>
	</g>
	<g class="st1">
		<path class="st17" d="M164.71,423.85c0.06-3-0.32-6.02,0.61-8.98c0.87-2.78,2.99-4.14,6.18-3.85c2.87,0.26,4.72,2.11,4.81,5.08
			c0.1,3.45,0.01,6.9,0.01,10.35C172.36,425.96,168.45,425.25,164.71,423.85z"/>
		<path class="st17" d="M210.65,428.98c-0.01-2.16-0.11-4.32,0-6.48c0.16-3.24,2.3-5.58,5.28-6c2.66-0.37,4.95,1.49,5.95,4.7
			c0.76,2.44,0.19,4.94,0.41,7.39C218.43,429.47,214.54,429.11,210.65,428.98z"/>
		<path class="st17" d="M187.98,427.86c0-1.92-0.03-3.85,0-5.77c0.04-2.97,2.44-5.58,5.26-5.77c2.55-0.17,5.08,2.18,5.79,4.95
			c0.63,2.43,0.52,4.86,0.6,7.31C195.73,428.57,191.82,428.8,187.98,427.86z"/>
		<g>
			<path class="st17" d="M427.27,425.66c0.08-3.42-0.37-6.86,0.6-10.24c0.93-3.27,3.09-4.8,6.46-4.37c2.85,0.36,4.48,2.36,4.55,5.65
				c0.05,2.04,0.04,4.09,0.05,6.13C435.14,424.13,431.23,425,427.27,425.66z"/>
			<path class="st17" d="M450.57,419.61c-0.01-2.89-0.06-5.79-0.03-8.68c0.03-2.91,2.01-5.35,4.55-5.73
				c3.07-0.46,5.24,0.98,6.43,4.02c0.86,2.18,0.47,4.45,0.8,6.65C458.52,417.5,454.59,418.71,450.57,419.61z"/>
			<path class="st17" d="M404.6,429.8c0-2.25-0.11-4.51,0.03-6.75c0.24-3.99,2.64-6.31,6.2-6.2c3.57,0.12,5.34,2.24,5.41,6.51
				c0.02,1.5,0,3,0,4.5C412.41,428.89,408.56,429.69,404.6,429.8z"/>
			<path class="st17" d="M336.02,432.93c0.09-2.45-0.25-4.89,0.57-7.33c0.98-2.87,3.02-4.18,5.8-4.06c2.96,0.13,5.09,2.57,5.23,5.55
				c0.1,2.14,0,4.29,0,6.44C343.72,433.93,339.89,433.18,336.02,432.93z"/>
			<path class="st17" d="M359.31,433.6c-0.01-2.04-0.04-4.07-0.02-6.11c0.03-3.26,2.76-6.18,5.65-6.08
				c2.79,0.09,5.32,2.94,5.36,6.05c0.03,1.93,0.05,3.86,0.07,5.79C366.7,433.99,363,433.63,359.31,433.6z"/>
			<path class="st17" d="M381.94,432.43c0-1.6-0.03-3.21,0.01-4.81c0.07-3.13,2.19-5.76,4.94-6.19c2.69-0.42,5.01,1.34,6.15,4.4
				c0.66,1.78,0.46,3.58,0.58,5.37C389.78,432.1,385.88,432.51,381.94,432.43z"/>
			<path class="st17" d="M313.35,430.49c0.01-1.29-0.09-2.59,0.04-3.86c0.27-2.68,2.69-5.04,5.3-5.21c2.85-0.19,4.61,1.25,5.6,3.86
				c0.83,2.18,0.73,4.41,0.66,6.66C321.04,431.82,317.15,431.5,313.35,430.49z"/>
			<g>
				<path class="st18" d="M450.57,419.61c-3.88,1.07-7.76,2.13-11.64,3.2c-0.02-2.04-0.01-4.09-0.05-6.13
					c-0.07-3.29-1.7-5.29-4.55-5.65c-3.36-0.42-5.53,1.11-6.46,4.37c-0.97,3.38-0.52,6.82-0.6,10.24
					c-3.68,0.74-7.36,1.47-11.04,2.21c0-1.5,0.03-3,0-4.5c-0.07-4.27-1.84-6.39-5.41-6.51c-3.57-0.12-5.96,2.2-6.2,6.2
					c-0.13,2.24-0.03,4.5-0.03,6.75c-3.62,0.79-7.27,1.32-10.97,1.41c-0.13-1.8,0.08-3.59-0.58-5.37c-1.13-3.06-3.46-4.83-6.15-4.4
					c-2.75,0.43-4.87,3.06-4.94,6.19c-0.04,1.6-0.01,3.2-0.01,4.81c-3.82,0.75-7.71,0.58-11.57,0.81c-0.02-1.93-0.04-3.86-0.07-5.79
					c-0.04-3.11-2.57-5.95-5.36-6.05c-2.89-0.1-5.62,2.82-5.65,6.08c-0.02,2.04,0.01,4.07,0.02,6.11c-3.9-0.02-7.8-0.04-11.69-0.06
					c0.01-2.15,0.1-4.3,0-6.44c-0.13-2.98-2.27-5.42-5.23-5.55c-2.78-0.12-4.82,1.19-5.8,4.06c-0.83,2.43-0.48,4.88-0.57,7.33
					c-3.69-0.33-7.38-0.66-11.06-1c0.07-2.25,0.17-4.48-0.66-6.66c-1-2.61-2.75-4.05-5.6-3.86c-2.61,0.18-5.03,2.54-5.3,5.21
					c-0.13,1.28-0.04,2.57-0.04,3.86c-3.7-0.65-7.44-1.16-11.1-2c-3.71-0.85-5.49-3.21-5.88-7.13c-0.12-1.18-0.22-2.36-0.41-3.53
					c-0.79-5.04-4.57-8.89-9.66-9.44c-12.25-1.32-24.53-1.01-36.76,0.27c-6,0.63-9.58,4.59-10.45,10.62
					c-0.9,6.24-3.24,8.36-9.53,8.56c-2.47,0.08-4.95,0.08-7.43,0.12c-0.22-2.46,0.35-4.95-0.41-7.39c-1-3.21-3.29-5.07-5.95-4.7
					c-2.98,0.41-5.11,2.76-5.28,6c-0.11,2.15-0.01,4.32,0,6.48c-3.68,0.11-7.36,0.16-11.02-0.4c-0.08-2.44,0.03-4.88-0.6-7.31
					c-0.71-2.77-3.24-5.12-5.79-4.95c-2.82,0.19-5.22,2.79-5.26,5.77c-0.03,1.92,0,3.85,0,5.77c-3.89-0.47-7.78-0.94-11.67-1.41
					c0.01-3.45,0.1-6.9-0.01-10.35c-0.09-2.97-1.94-4.81-4.81-5.08c-3.19-0.29-5.31,1.07-6.18,3.85c-0.93,2.95-0.55,5.98-0.61,8.98
					c-5.49-0.93-10.43-3.14-15.05-6.21c-1.3-0.87-1.85-1.8-1.83-3.4c0.07-10.12,0.05-20.24,0.02-30.37
					c-0.01-1.34,0.33-2.52,0.93-3.69c1.62-3.14,3.18-6.3,4.77-9.46c11.09,3.78,22.35,7.06,33.74,9.76
					c14.08,3.35,28.27,6.06,42.74,7.36c9.45,0.85,18.86,0.88,28.26,0.33c9.29-0.54,18.49-1.87,27.88-1.28
					c11.77,0.73,23.12,3.19,34.43,6.25c11.18,3.02,22.32,6.36,34.08,6.2c7.41-0.1,14.79-0.77,22.19-1.18
					c14.59-0.81,29.04-2.59,43.37-5.33c16.6-3.18,33.08-6.81,47.51-16.38c6.16,2.35,9.59,7.07,11.41,13.19c0,3.24,0,6.48,0,9.73
					c-1.07,0.64-0.91,1.86-1.28,2.82c-2.86,7.25-7.76,12.27-15.4,14.36c-0.33-2.21,0.06-4.48-0.8-6.65
					c-1.2-3.04-3.37-4.48-6.43-4.02c-2.54,0.38-4.52,2.82-4.55,5.73C450.51,413.83,450.56,416.72,450.57,419.61z"/>
				<path class="st19" d="M467.59,375.79c-14.42,9.57-30.9,13.2-47.51,16.38c-14.33,2.74-28.78,4.52-43.37,5.33
					c-7.4,0.41-14.78,1.09-22.19,1.18c-11.76,0.16-22.9-3.18-34.08-6.2c-11.31-3.06-22.66-5.52-34.43-6.25
					c-9.4-0.58-18.59,0.74-27.88,1.28c-9.41,0.55-18.82,0.52-28.26-0.33c-14.47-1.29-28.66-4.01-42.74-7.36
					c-11.39-2.71-22.64-5.98-33.74-9.76c-3.52-18.6,0.02-36.55,5.04-54.36c0.93-3.3,1.82-6.6,2.74-9.91
					c0.45,0.98,1.35,1.16,2.26,1.57c2.72,1.22,5.3-0.15,7.94-0.1c7.52,0.13,15.03,0.06,22.56,0.53c7.27,0.46,14.55,0.83,21.83,1.31
					c11.67,0.77,23.2,2.4,34.64,4.68c14.15,2.82,27.9,6.89,41.06,12.94c8.28,3.8,15.33,9.49,22.96,14.29
					c11.21,7.06,23.72,9.27,36.55,7.43c11.83-1.69,22.56-6.95,32.08-14.28c3.7-2.85,7.63-5.6,9.91-9.93
					c14.1-0.01,28.22-0.32,42.31,0.03c17.13,0.43,31.75,15.57,32.15,32.74C467.55,363.28,467.53,369.53,467.59,375.79z"/>
				<path class="st20" d="M392.94,324.25c-2.28,4.33-6.21,7.08-9.91,9.93c-9.52,7.33-20.24,12.59-32.08,14.28
					c-12.82,1.83-25.33-0.37-36.55-7.43c-7.63-4.8-14.68-10.48-22.96-14.29c-13.16-6.05-26.92-10.12-41.06-12.94
					c-11.44-2.29-22.97-3.91-34.64-4.68c-7.28-0.48-14.55-0.85-21.83-1.31c-7.53-0.47-15.04-0.4-22.56-0.53
					c-2.64-0.05-5.22,1.32-7.94,0.1c-0.91-0.41-1.81-0.59-2.26-1.57c1.02-5.93,2.95-11.66,3.67-17.67
					c1.5-12.49,1.2-24.94-0.55-37.36c-0.32-2.25-0.42-4.48-0.49-6.73c10.52-1.39,21.03-2.78,31.55-4.18
					c11.36-1.52,22.76-2.83,34.07-4.63c11.74-1.87,19.18-12.27,18.64-22.5c-0.62-11.93-2.04-23.77-3.35-35.63
					c-0.11-9.54,1.39-18.7,6.48-26.96c6.66-10.8,16.95-16.17,28.81-19.15c0.73-0.18,1.46-0.35,2.2-0.5
					c4.64-0.97,7.84,1.58,7.85,6.36c0.03,11.22-0.4,22.46,0.09,33.65c1.06,23.96,3.99,47.66,12.88,70.17
					c6.36,16.11,16.13,30.19,27.09,43.47c7.91,9.58,16.48,18.53,25.54,27.03c8.98,8.42,19.56,12.68,31.81,12.95
					C389.28,324.18,391.11,324.21,392.94,324.25z M278.99,244.82c2.79,0.06,5.74-2.84,5.86-5.75c0.12-2.85-2.8-5.69-5.82-5.68
					c-2.91,0.02-5.67,2.68-5.69,5.49C273.32,241.79,276.15,244.76,278.99,244.82z M273.5,221.69c3.17,0.02,5.49-2.27,5.53-5.44
					c0.04-3.13-2.3-5.53-5.41-5.56c-3.44-0.03-6,2.43-5.99,5.78C267.64,219.23,270.38,221.67,273.5,221.69z M307.47,290.41
					c3.03,0.13,5.61-2.15,5.84-5.17c0.22-2.86-2.3-5.7-5.18-5.82c-3.31-0.14-6.32,2.47-6.32,5.49
					C301.8,287.69,304.46,290.28,307.47,290.41z M295.88,261.78c-0.04-2.81-2.6-5.51-5.21-5.49c-3.2,0.02-5.85,2.68-5.77,5.78
					c0.08,2.9,2.85,5.7,5.58,5.64C293.8,267.63,295.93,265.3,295.88,261.78z"/>
				<path class="st21" d="M244.71,177.1c1.31,11.86,2.73,23.7,3.35,35.63c0.54,10.23-6.9,20.63-18.64,22.5
					c-11.32,1.8-22.71,3.11-34.07,4.63c-10.52,1.4-21.03,2.79-31.55,4.18c-2.28-12.48-4.92-24.91-6.74-37.46
					c-1.41-9.73,6.49-19.04,16.96-20.53c13.62-1.93,27.29-3.49,40.94-5.21C224.87,179.6,234.79,178.35,244.71,177.1z"/>
				<path class="st18" d="M278.99,244.82c-2.84-0.06-5.67-3.03-5.65-5.95c0.02-2.81,2.78-5.47,5.69-5.49
					c3.02-0.02,5.94,2.83,5.82,5.68C284.73,241.98,281.77,244.87,278.99,244.82z"/>
				<path class="st18" d="M273.5,221.69c-3.13-0.02-5.86-2.45-5.87-5.23c-0.01-3.34,2.55-5.81,5.99-5.78
					c3.11,0.03,5.45,2.43,5.41,5.56C279,219.42,276.67,221.71,273.5,221.69z"/>
				<path class="st18" d="M307.47,290.41c-3.01-0.13-5.67-2.72-5.67-5.51c0.01-3.02,3.01-5.63,6.32-5.49
					c2.88,0.12,5.4,2.96,5.18,5.82C313.08,288.26,310.51,290.54,307.47,290.41z"/>
				<path class="st18" d="M295.88,261.78c0.05,3.52-2.08,5.85-5.39,5.93c-2.73,0.06-5.51-2.74-5.58-5.64
					c-0.08-3.1,2.57-5.76,5.77-5.78C293.28,256.27,295.84,258.97,295.88,261.78z"/>
			</g>
		</g>
	</g>
</g>
<g>
	<g>
		<circle class="st22" cx="300" cy="300" r="265"/>
		<ellipse class="st23" cx="300" cy="300" rx="245" ry="234"/>
	</g>
	<g>
		<g>
			<path class="st24" d="M381.21,431.3c-58.44,0-116.87,0-175.31,0c-5.09-2.19-8.22-5.76-8.17-11.6c0.01-1.47-0.08-2.93-0.13-4.4
				c0.01-23.11,0.01-46.23,0.02-69.34c-0.01-14.21-0.01-28.41-0.02-42.62c0.04-1.28,0.11-2.56,0.13-3.84
				c0.22-16.79-0.51-33.58,0.43-50.36c1-17.9,6.93-34.09,17.07-48.79c6.81-9.87,15.5-17.84,25.13-24.85
				c5.32-2.89,10.65-5.78,15.97-8.68c0.75-0.22,1.53-0.38,2.26-0.66c17.08-6.55,34.59-8.2,52.61-4.95
				c6.73,1.22,13.1,3.56,19.56,5.61c5.32,2.89,10.65,5.78,15.97,8.68c1.95,1.5,3.92,2.98,5.86,4.51
				c8.52,6.72,15.71,14.64,21.57,23.78c10.59,16.52,15.2,34.71,15.21,54.22c0,15.11,0.08,30.22,0.13,45.33
				c-0.01,14.21-0.01,28.41-0.02,42.62c0.01,23.11,0.01,46.23,0.02,69.34C389.77,422.21,388.8,428.48,381.21,431.3z M341.48,249.72
				c0-3.46,0.11-6.92-0.03-10.36c-0.37-9.07-6.91-15.7-15.9-15.75c-21.29-0.12-42.58-0.12-63.86,0
				c-9.14,0.05-15.72,6.73-16.02,15.94c-0.12,3.55,0,7.11,0.01,10.66c-0.02,17.2-0.07,34.39-0.05,51.59
				c0.01,4.84,2.03,6.74,6.89,6.74c27.33,0.01,54.66,0.01,81.99,0c5.03,0,6.99-1.88,7-6.93
				C341.53,284.31,341.49,267.01,341.48,249.72z M368.12,351.21c-0.86-13.41-10.62-21.27-23.07-21.26
				c-34.32,0.03-68.64,0-102.97,0.03c-3.66,0-7.28,0.49-10.64,2.13c-7.96,3.88-11.73,10.48-12.43,19.1
				c-0.01,11.86-0.08,23.73,0.01,35.59c0.02,2.54,0.35,5.16,1.03,7.6c2.63,9.53,10.77,15.52,20.96,15.53
				c34.54,0.03,69.08,0.01,103.63,0.01c14.48,0,23.37-8.69,23.5-23.14C368.23,374.94,368.13,363.08,368.12,351.21z M293.07,175.53
				c-20.21,0.22-38.22,7.75-53.16,22.24c-13.05,12.65-20.99,28.22-24.52,46.08c-1.02,5.16-1.21,10.38-1.66,15.59
				c-0.32,3.67,1.98,6.27,5.08,6.37c3.51,0.11,5.23-1.74,5.5-5.8c0.2-2.95,0.35-5.91,0.71-8.85c1.82-14.99,7.41-28.42,17.09-40.02
				c12.06-14.45,27.4-23.43,46.22-24.66c27.19-1.78,47.75,10.27,62.51,32.71c8.08,12.3,11.37,26.13,11.99,40.7
				c0.18,4.22,2.06,6.12,5.66,5.92c3.05-0.17,5.11-2.84,4.94-6.55c-0.12-2.66-0.25-5.33-0.58-7.97
				c-2.78-22.42-11.88-41.62-29.09-56.58C329.45,182.26,312.85,175.65,293.07,175.53z"/>
			<path class="st25" d="M329.1,127.54c3.17,1.41,6.58,2.25,9.39,4.51c5.6,4.52,8.21,10.43,8.29,17.48c0.09,8.66,0,17.32-0.02,25.97
				c-5.32-2.89-10.65-5.78-15.97-8.68c0.02-5.23,0.1-10.46,0.03-15.69c-0.06-5.14-2.57-7.59-7.7-7.6c-19.7-0.02-39.4-0.02-59.1,0
				c-5.14,0.01-7.64,2.46-7.7,7.6c-0.06,5.23,0.02,10.46,0.03,15.69c-5.32,2.89-10.65,5.78-15.97,8.68
				c0.03-9.54-0.6-19.11,0.27-28.61c0.89-9.75,6.59-15.87,15.88-18.7c0.53-0.16,1.22,0.04,1.51-0.66
				C281.72,127.54,305.41,127.54,329.1,127.54z"/>
			<path class="st26" d="M368.11,351.21c0.01,11.86,0.12,23.73,0.02,35.59c-0.12,14.45-9.02,23.14-23.5,23.14
				c-34.54,0-69.08,0.02-103.63-0.01c-10.19-0.01-18.33-5.99-20.96-15.53c-0.68-2.45-1.01-5.06-1.03-7.6
				c-0.09-11.86-0.02-23.73-0.01-35.59c1.48,0.04,2.95,0.11,4.43,0.11c16.06,0.03,32.13,0.06,48.19,0.08
				c-2.07,4.77-5.72,8.48-8.52,12.76c-0.83,1.27-1.54,2.48-1.53,4.06c0.04,4.05-0.02,8.1,0.02,12.16c0.04,3.16,1.56,5.47,4.4,6.81
				c3.33,1.57,6.83,1.92,10.38,0.86c4.76-1.42,6.51-3.87,6.52-8.86c0.01-2.96-0.14-5.94,0.04-8.89c0.19-2.95-0.81-5.29-2.5-7.65
				c-2.64-3.67-5.72-7.05-7.59-11.24c25.35-0.03,50.69-0.05,76.04-0.08C355.3,351.32,361.71,351.25,368.11,351.21z"/>
			<path class="st26" d="M341.48,249.72c0.01,17.3,0.05,34.59,0.03,51.89c-0.01,5.05-1.97,6.93-7,6.93
				c-27.33,0.01-54.66,0.01-81.99,0c-4.85,0-6.88-1.9-6.89-6.74c-0.03-17.2,0.02-34.39,0.05-51.59c10.45,0.03,20.89,0.07,31.34,0.1
				c-0.32,1.4-1.26,2.44-2.08,3.55c-8.14,10.96-8.06,10.95-8.08,24.49c-0.01,3.65,1.5,6.14,4.59,7.59c4.25,2,8.67,1.96,12.81-0.24
				c2.54-1.35,4.1-3.58,3.99-6.76c-0.12-3.65-0.1-7.31,0-10.97c0.05-1.98-0.51-3.62-1.62-5.24c-2.84-4.14-6.17-7.95-8.52-12.43
				c19.77-0.03,39.54-0.06,59.3-0.09C338.79,250.21,340.19,250.43,341.48,249.72z"/>
			<path class="st27" d="M271.63,351.41c-16.06-0.03-32.13-0.05-48.19-0.08c-1.48,0-2.95-0.07-4.43-0.11
				c0.7-8.62,4.47-15.22,12.43-19.1c3.36-1.64,6.98-2.13,10.64-2.13c34.32-0.03,68.64,0,102.97-0.03
				c12.45-0.01,22.21,7.85,23.07,21.26c-6.41,0.04-12.82,0.1-19.23,0.11c-25.35,0.04-50.69,0.06-76.04,0.08
				C272.45,351.41,272.04,351.41,271.63,351.41z"/>
			<path class="st28" d="M293.07,175.53c19.78,0.12,36.38,6.73,50.69,19.17c17.21,14.95,26.3,34.16,29.09,56.58
				c0.33,2.64,0.45,5.31,0.58,7.97c0.17,3.7-1.89,6.38-4.94,6.55c-3.6,0.2-5.48-1.69-5.66-5.92c-0.62-14.57-3.91-28.41-11.99-40.7
				c-14.75-22.44-35.32-34.49-62.51-32.71c-18.83,1.23-34.16,10.21-46.22,24.66c-9.68,11.6-15.27,25.02-17.09,40.02
				c-0.36,2.94-0.51,5.9-0.71,8.85c-0.27,4.07-1.99,5.91-5.5,5.8c-3.1-0.1-5.4-2.7-5.08-6.37c0.45-5.2,0.64-10.43,1.66-15.59
				c3.53-17.86,11.47-33.43,24.52-46.08C254.85,183.28,272.86,175.75,293.07,175.53z"/>
			<path class="st29" d="M197.61,415.3c-9.95,0-19.9,0.01-29.86,0c-5.42-0.01-7.21-1.8-7.22-7.32c-0.03-20.63-0.03-41.26-0.04-61.89
				c12.38-0.04,24.76-0.08,37.14-0.12C197.63,369.08,197.62,392.19,197.61,415.3z"/>
			<path class="st29" d="M426.63,346.09c-0.01,20.33-0.02,40.67-0.04,61c0,6.75-1.45,8.21-8.11,8.21c-9.66,0-19.31,0-28.97,0
				c-0.01-23.11-0.01-46.23-0.02-69.34C401.87,346,414.25,346.05,426.63,346.09z"/>
			<path class="st30" d="M341.48,249.72c-1.28,0.71-2.68,0.49-4.04,0.49c-19.77,0.04-39.54,0.07-59.3,0.09c-0.37,0-0.74,0-1.11,0
				c-10.45-0.03-20.89-0.07-31.34-0.1c-0.01-3.55-0.13-7.11-0.01-10.66c0.3-9.21,6.88-15.9,16.02-15.94
				c21.29-0.11,42.58-0.11,63.86,0c9,0.05,15.54,6.68,15.9,15.75C341.59,242.8,341.47,246.26,341.48,249.72z"/>
			<path class="st25" d="M197.63,345.96c-12.38,0.04-24.76,0.08-37.14,0.12c-5.26-0.28-5.26-0.28-5.26-5.69
				c0-4.74-0.05-9.49,0.01-14.23c0.19-13.91,8.96-22.67,22.84-22.81c6.51-0.06,13.02-0.01,19.53-0.02
				C197.62,317.55,197.63,331.76,197.63,345.96z"/>
			<path class="st25" d="M426.63,346.09c-12.38-0.04-24.76-0.08-37.14-0.12c0.01-14.21,0.01-28.41,0.02-42.62
				c7.3,0.05,14.59,0.01,21.89,0.17c10.46,0.23,20.26,8.59,20.46,21.47c0.1,6.32,0,12.65,0.06,18.97c0.01,1.51-0.46,2.18-2.03,2.06
				C428.8,345.93,427.71,346.05,426.63,346.09z"/>
			<path class="st24" d="M271.63,351.41c0.41,0,0.82,0,1.22,0c1.86,4.19,4.95,7.58,7.59,11.24c1.69,2.36,2.69,4.7,2.5,7.65
				c-0.19,2.95-0.04,5.93-0.04,8.89c-0.01,5-1.76,7.44-6.52,8.86c-3.54,1.06-7.04,0.71-10.38-0.86c-2.84-1.34-4.36-3.65-4.4-6.81
				c-0.05-4.05,0.01-8.1-0.02-12.16c-0.01-1.58,0.69-2.79,1.53-4.06C265.91,359.88,269.56,356.17,271.63,351.41z"/>
			<path class="st24" d="M277.02,250.3c0.37,0,0.74,0,1.11,0c2.35,4.48,5.68,8.28,8.52,12.43c1.11,1.62,1.67,3.26,1.62,5.24
				c-0.1,3.65-0.12,7.32,0,10.97c0.11,3.18-1.45,5.41-3.99,6.76c-4.15,2.2-8.57,2.24-12.81,0.24c-3.09-1.45-4.6-3.94-4.59-7.59
				c0.02-13.54-0.06-13.54,8.08-24.49C275.76,252.75,276.7,251.7,277.02,250.3z"/>
		</g>
		<g>
			<path class="st31" d="M444.79,427.52c-1.31,2.67-3.12,3.75-5.23,3.01c-1.21-0.43-2.39-0.95-3.52-1.54
				c-4.55-2.38-9.08-4.81-13.62-7.22c-0.18-0.09-0.35-0.19-0.53-0.28c-0.48-0.23-0.61-0.62-0.51-1.1c0.12-0.55,0.55-0.66,1.02-0.6
				c1.95,0.24,3.89,0.47,5.83,0.74c4.2,0.58,8.4,1.17,12.56,1.99c1.9,0.38,3.18,1.38,3.99,3.07
				C444.79,426.24,444.79,426.88,444.79,427.52z"/>
			<path class="st32" d="M389.99,367.83c1.68,3.82,3.35,7.65,5.02,11.47c0.93,2.14,1.87,4.27,2.76,6.43
				c0.28,0.69,0.7,0.92,1.44,0.98c4.92,0.42,9.83,0.92,14.75,1.37c4.76,0.44,9.52,0.85,14.28,1.28c0.8,0.07,1.61,0.12,2.39,0.27
				c0.96,0.18,1.76,0.69,2.02,1.68c0.28,1.07,0.1,2.07-0.79,2.86c-2.24,1.96-4.46,3.94-6.7,5.9c-4.93,4.32-9.86,8.64-14.79,12.96
				c-0.09,0.08-0.17,0.19-0.27,0.24c-2.45,1.32-2.45,3.22-1.84,5.72c2.22,9.08,4.2,18.22,6.24,27.35c0.13,0.57,0.33,1.15,0.19,1.78
				c-0.4,1.91-2.2,2.76-4,1.74c-3.28-1.87-6.52-3.83-9.77-5.76c-5.7-3.39-11.41-6.77-17.1-10.19c-0.7-0.42-1.21-0.34-1.87,0.05
				c-7.45,4.46-14.92,8.89-22.39,13.32c-0.24,0.14-0.51,0.24-0.76,0.36c0.72-4.86,1.67-9.67,2.8-14.45
				c1.74-7.41,3.89-14.71,6.47-21.88c2.48-6.91,5.31-13.68,8.5-20.3c2.46-5.1,5.16-10.07,8.07-14.93
				C386.32,373.27,387.95,370.42,389.99,367.83z"/>
			<path class="st33" d="M389.99,367.83c-2.04,2.59-3.67,5.44-5.35,8.26c-2.91,4.86-5.61,9.83-8.07,14.93
				c-3.18,6.61-6.01,13.38-8.5,20.3c-2.58,7.17-4.72,14.47-6.47,21.88c-1.12,4.78-2.08,9.59-2.8,14.45
				c-1.19,0.96-2.55,1.66-3.89,2.39c-0.95,0.52-1.95,0.46-2.81-0.27c-0.86-0.73-1.18-1.63-0.91-2.8c2.25-9.93,4.45-19.87,6.74-29.79
				c0.29-1.27,0.05-1.97-0.94-2.82c-5.61-4.83-11.14-9.75-16.7-14.64c-2.02-1.78-4.05-3.56-6.07-5.34c-0.9-0.79-1.46-1.71-1.06-2.97
				c0.39-1.23,1.26-1.76,2.52-1.87c4.08-0.36,8.15-0.77,12.23-1.16c3.92-0.37,7.83-0.76,11.75-1.12c2.24-0.21,4.48-0.42,6.72-0.56
				c0.9-0.06,1.44-0.35,1.81-1.24c4.01-9.42,8.07-18.82,12.12-28.23c0.49-1.15,1.22-1.98,2.59-1.99c1.31-0.01,2.1,0.71,2.58,1.82
				c1.45,3.35,2.89,6.71,4.33,10.07C389.9,367.35,389.93,367.6,389.99,367.83z"/>
			<path class="st31" d="M387.04,467.7c0.05,2.96-1.59,4.77-4.01,4.76c-2.4-0.01-4.1-1.83-3.95-4.47c0.23-4.09,1.06-8.11,1.78-12.13
				c0.37-2.09,0.75-4.18,1.13-6.27c0.04-0.24,0.12-0.47,0.17-0.7c0.1-0.48,0.32-0.81,0.87-0.83c0.61-0.02,0.85,0.35,0.95,0.88
				c0.37,1.97,0.77,3.93,1.11,5.91c0.68,3.91,1.43,7.81,1.88,11.75C387.02,467.08,387.03,467.56,387.04,467.7z"/>
			<path class="st31" d="M346.17,354.07c1.93,0,3.11,0.67,3.91,1.96c2.02,3.25,3.63,6.71,5.28,10.15c1.12,2.31,2.2,4.65,3.3,6.97
				c0.25,0.52,0.56,1.03-0.07,1.49c-0.61,0.45-1.03,0.08-1.46-0.33c-3.94-3.68-7.75-7.48-11.53-11.32
				c-0.73-0.74-1.42-1.54-2.07-2.35c-1.09-1.35-1.21-2.83-0.45-4.39C343.78,354.79,345.05,354.25,346.17,354.07z"/>
			<path class="st31" d="M419.59,354.07c1.21,0.09,2.49,0.7,3.22,2.2c0.77,1.56,0.67,3.07-0.47,4.39
				c-3.68,4.27-7.82,8.09-11.85,12.01c-0.61,0.59-1.23,1.15-1.83,1.74c-0.41,0.41-0.84,0.63-1.38,0.22
				c-0.49-0.37-0.39-0.81-0.16-1.28c2.81-5.73,5.28-11.63,8.57-17.13C416.53,354.82,417.71,354.09,419.59,354.07z"/>
			<path class="st31" d="M325.28,430.68c-2.27-0.01-3.91-1.47-4.18-3.58c-0.25-1.96,1.11-3.85,3.17-4.37
				c2.64-0.66,5.34-1.05,8.03-1.47c3.4-0.52,6.81-0.96,10.22-1.43c0.24-0.03,0.48-0.03,0.72-0.04c0.53-0.02,1.09-0.08,1.26,0.61
				c0.15,0.62-0.22,0.94-0.73,1.21c-3.37,1.79-6.71,3.63-10.09,5.4c-2.24,1.17-4.48,2.35-6.82,3.3
				C326.3,430.56,325.74,430.74,325.28,430.68z"/>
		</g>
	</g>
</g>
</svg>
