<?xml version="1.0" encoding="utf-8"?>
<!-- Generator: Adobe Illustrator 19.0.1, SVG Export Plug-In . SVG Version: 6.00 Build 0)  -->
<!DOCTYPE svg PUBLIC "-//W3C//DTD SVG 1.1//EN" "http://www.w3.org/Graphics/SVG/1.1/DTD/svg11.dtd">
<svg version="1.1" id="Calque_1" xmlns="http://www.w3.org/2000/svg" xmlns:xlink="http://www.w3.org/1999/xlink" x="0px" y="0px"
	 viewBox="0 0 37.6 37.6" enable-background="new 0 0 37.6 37.6" xml:space="preserve">
<g>
	<g>
		<path fill="#FCC963" d="M37.1,18.8c0-1.6-1.1-2.8-2.6-3.1c1.3-0.8,1.8-2.4,1.2-3.9c-0.6-1.4-2.1-2.2-3.6-1.9
			c0.9-1.2,0.7-2.9-0.4-4c-1.1-1.1-2.8-1.2-4-0.4c0.3-1.5-0.5-3-1.9-3.6c-1.4-0.6-3.1-0.1-3.9,1.2c-0.3-1.5-1.6-2.6-3.1-2.6
			c-1.6,0-2.8,1.1-3.1,2.6c-0.8-1.3-2.4-1.8-3.9-1.2C10.4,2.5,9.6,4,9.9,5.5C8.7,4.6,7,4.8,5.9,5.9C4.8,7,4.6,8.7,5.5,9.9
			c-1.5-0.3-3,0.5-3.6,1.9c-0.6,1.4-0.1,3.1,1.2,3.9c-1.5,0.3-2.6,1.6-2.6,3.1c0,1.6,1.1,2.8,2.6,3.1c-1.3,0.8-1.8,2.4-1.2,3.9
			C2.5,27.2,4,28,5.5,27.7c-0.8,1.2-0.7,2.9,0.4,4c1.1,1.1,2.8,1.2,4,0.4c-0.3,1.5,0.5,3,1.9,3.6c1.4,0.6,3.1,0.1,3.9-1.2
			c0.3,1.5,1.6,2.6,3.1,2.6c1.6,0,2.8-1.1,3.1-2.6c0.8,1.3,2.4,1.8,3.9,1.2c1.4-0.6,2.2-2.1,1.9-3.6c1.2,0.9,2.9,0.7,4-0.4
			c1.1-1.1,1.2-2.8,0.4-4c1.5,0.3,3-0.5,3.6-1.9c0.6-1.4,0.1-3.1-1.2-3.9C36,21.6,37.1,20.4,37.1,18.8z"/>
		<path fill="#F7A817" d="M18.8,37.6c-1.4,0-2.7-0.8-3.3-2.1c-1,0.9-2.5,1.2-3.9,0.7c-1.3-0.6-2.2-1.8-2.3-3.2
			c-1.3,0.5-2.8,0.2-3.8-0.9c-1-1-1.3-2.5-0.9-3.8C3.3,28.2,2,27.3,1.4,26c-0.6-1.3-0.3-2.8,0.7-3.9C0.8,21.5,0,20.2,0,18.8
			c0-1.4,0.8-2.7,2.1-3.3c-0.9-1-1.2-2.5-0.7-3.9C2,10.3,3.3,9.4,4.6,9.3C4.2,8,4.5,6.5,5.5,5.5c1-1,2.5-1.3,3.8-0.9
			c0.1-1.4,0.9-2.7,2.3-3.2c1.3-0.6,2.8-0.3,3.9,0.7C16.1,0.8,17.3,0,18.8,0s2.7,0.8,3.3,2.1c1-0.9,2.5-1.2,3.9-0.7
			c1.3,0.6,2.2,1.8,2.3,3.2c1.3-0.5,2.8-0.2,3.8,0.9c1,1,1.3,2.5,0.9,3.8c1.4,0.1,2.7,0.9,3.2,2.3c0.6,1.3,0.3,2.8-0.7,3.9
			c1.3,0.6,2.1,1.9,2.1,3.3c0,1.4-0.8,2.7-2.1,3.3c0.9,1,1.2,2.5,0.7,3.9c-0.6,1.3-1.8,2.2-3.2,2.3c0.5,1.3,0.2,2.8-0.9,3.8
			c-1,1-2.5,1.3-3.8,0.9c-0.1,1.4-0.9,2.7-2.3,3.2c-1.3,0.6-2.8,0.3-3.9-0.7C21.5,36.7,20.2,37.6,18.8,37.6z M15.7,34
			C15.7,34,15.7,34,15.7,34c0.3,0,0.5,0.2,0.5,0.4c0.2,1.3,1.3,2.2,2.6,2.2s2.4-0.9,2.6-2.2c0-0.2,0.2-0.4,0.4-0.4
			c0.2,0,0.4,0,0.5,0.2c0.7,1.1,2.1,1.5,3.3,1c1.2-0.5,1.9-1.8,1.6-3c0-0.2,0-0.4,0.2-0.5c0.2-0.1,0.4-0.1,0.6,0
			c1.1,0.7,2.5,0.6,3.4-0.3c0.9-0.9,1-2.3,0.3-3.4c-0.1-0.2-0.1-0.4,0-0.6c0.1-0.2,0.3-0.3,0.5-0.2c1.3,0.3,2.5-0.4,3-1.6
			c0.5-1.2,0.1-2.6-1-3.3C34,22.2,34,22,34,21.8s0.2-0.4,0.4-0.4c1.3-0.2,2.2-1.3,2.2-2.6s-0.9-2.4-2.2-2.6c-0.2,0-0.4-0.2-0.4-0.4
			c0-0.2,0-0.4,0.2-0.5c1.1-0.7,1.5-2.1,1-3.3c-0.5-1.2-1.8-1.9-3-1.6c-0.2,0-0.4,0-0.5-0.2c-0.1-0.2-0.1-0.4,0-0.6
			c0.7-1.1,0.6-2.5-0.3-3.4c-0.9-0.9-2.3-1-3.4-0.3c-0.2,0.1-0.4,0.1-0.6,0c-0.2-0.1-0.3-0.3-0.2-0.5c0.3-1.3-0.4-2.5-1.6-3
			c-1.2-0.5-2.6-0.1-3.3,1c-0.1,0.2-0.3,0.3-0.5,0.2c-0.2,0-0.4-0.2-0.4-0.4C21.2,1.9,20.1,1,18.8,1s-2.4,0.9-2.6,2.2
			c0,0.2-0.2,0.4-0.4,0.4c-0.2,0-0.4,0-0.5-0.2c-0.7-1.1-2.1-1.5-3.3-1c-1.2,0.5-1.9,1.8-1.6,3c0,0.2,0,0.4-0.2,0.5
			C10,6,9.8,6,9.6,5.9C8.6,5.2,7.1,5.3,6.2,6.2c-0.9,0.9-1,2.3-0.3,3.4C6,9.8,6,10,5.9,10.2c-0.1,0.2-0.3,0.3-0.5,0.2
			c-1.3-0.3-2.5,0.4-3,1.6c-0.5,1.2-0.1,2.6,1,3.3c0.2,0.1,0.3,0.3,0.2,0.5s-0.2,0.4-0.4,0.4C1.9,16.4,1,17.5,1,18.8
			c0,1.3,0.9,2.4,2.2,2.6c0.2,0,0.4,0.2,0.4,0.4c0,0.2,0,0.4-0.2,0.5c-1.1,0.7-1.5,2.1-1,3.3c0.5,1.2,1.8,1.9,3,1.6
			c0.2,0,0.4,0,0.5,0.2C6,27.6,6,27.8,5.9,28c-0.7,1.1-0.6,2.5,0.3,3.4c0.9,0.9,2.3,1,3.4,0.3c0.2-0.1,0.4-0.1,0.6,0
			c0.2,0.1,0.3,0.3,0.2,0.5c-0.3,1.3,0.4,2.5,1.6,3c1.2,0.5,2.6,0.1,3.3-1C15.3,34.1,15.5,34,15.7,34z"/>
	</g>
</g>
<g>
	<g>
		<path fill="#FFFFFF" d="M27.7,22.8h-5.1c-2.1,0-4,1-5.1,2.1"/>
		<path fill="#F7A817" d="M17.6,25l-0.3-0.4c0.7-0.6,2.7-2.1,5.3-2.1h5.1v0.5h-5.1C20.1,23.1,18.3,24.4,17.6,25z"/>
	</g>
	<g>
		<line fill="#FFFFFF" x1="22.6" y1="22.8" x2="19.8" y2="16"/>
		
			<rect x="17.5" y="19.1" transform="matrix(0.3714 0.9285 -0.9285 0.3714 31.328 -7.5056)" fill="#F7A817" width="7.4" height="0.5"/>
	</g>
	<g>
		<line fill="#FFFFFF" x1="17.5" y1="10.3" x2="17.2" y2="9.5"/>
		
			<rect x="16.9" y="9.6" transform="matrix(0.3689 0.9295 -0.9295 0.3689 20.1554 -9.8962)" fill="#F7A817" width="0.9" height="0.5"/>
	</g>
	<g>
		<path fill="#FFFFFF" d="M17.5,10.3c-4.2,1.7-6.9,4.7-5.7,7.8l0.3,0.8l2-0.8l0.5-1.1l1.1,0.5l8-3.2l0.5-1.1l1.1,0.5l2-0.8l-0.3-0.8
			C25.8,9,21.7,8.6,17.5,10.3z"/>
		<path fill="#F7A817" d="M12.1,19.2C12.1,19.2,12.1,19.2,12.1,19.2c-0.2,0-0.2-0.1-0.2-0.2l-0.3-0.8c-0.6-1.6-0.3-3.2,0.9-4.7
			c1.1-1.4,2.8-2.6,5-3.5l0,0c2.2-0.9,4.3-1.2,6-0.9c1.9,0.3,3.2,1.3,3.8,2.8l0.3,0.8c0,0.1,0,0.1,0,0.2s-0.1,0.1-0.1,0.1l-2,0.8
			c-0.1,0-0.1,0-0.2,0l-0.9-0.4L24,14.4c0,0.1-0.1,0.1-0.1,0.1l-8,3.2c-0.1,0-0.1,0-0.2,0l-0.9-0.4l-0.4,0.9c0,0.1-0.1,0.1-0.1,0.1
			L12.1,19.2C12.2,19.2,12.2,19.2,12.1,19.2z M22.2,9.6c-1.4,0-3,0.3-4.6,1l0,0c-2.1,0.8-3.8,2-4.8,3.3c-1.1,1.4-1.3,2.8-0.8,4.2
			l0.2,0.6l1.7-0.7l0.4-1c0-0.1,0.1-0.1,0.1-0.1c0.1,0,0.1,0,0.2,0l1,0.4l7.8-3.1l0.4-1c0.1-0.1,0.2-0.2,0.3-0.1l1,0.4l1.7-0.7
			l-0.2-0.6c-0.5-1.4-1.7-2.3-3.5-2.5C23,9.6,22.6,9.6,22.2,9.6z"/>
	</g>
	<path fill="#F7A817" d="M27.7,28.5c-0.6,0-1.1-0.3-1.4-0.8c-0.3,0.5-0.8,0.8-1.4,0.8s-1.1-0.3-1.4-0.8c-0.3,0.5-0.8,0.8-1.4,0.8
		s-1.1-0.3-1.4-0.8c-0.3,0.5-0.8,0.8-1.4,0.8c-0.6,0-1.1-0.3-1.4-0.8c-0.3,0.5-0.8,0.8-1.4,0.8s-1.1-0.3-1.4-0.8
		c-0.3,0.5-0.8,0.8-1.4,0.8c-0.6,0-1.1-0.3-1.4-0.8c-0.3,0.5-0.8,0.8-1.4,0.8s-1.1-0.3-1.4-0.8c-0.3,0.5-0.8,0.8-1.4,0.8
		c-0.3,0-0.5-0.1-0.8-0.2L8,27.9C8.2,28,8.4,28,8.5,28c0.6,0,1.1-0.5,1.1-1.1c0-0.1,0.1-0.2,0.2-0.2s0.2,0.1,0.2,0.2
		c0,0.6,0.5,1.1,1.1,1.1s1.1-0.5,1.1-1.1c0-0.1,0.1-0.2,0.2-0.2s0.2,0.1,0.2,0.2c0,0.6,0.5,1.1,1.1,1.1c0.6,0,1.1-0.5,1.1-1.1
		c0-0.1,0.1-0.2,0.2-0.2s0.2,0.1,0.2,0.2c0,0.6,0.5,1.1,1.1,1.1s1.1-0.5,1.1-1.1c0-0.1,0.1-0.2,0.2-0.2s0.2,0.1,0.2,0.2
		c0,0.6,0.5,1.1,1.1,1.1c0.6,0,1.1-0.5,1.1-1.1c0-0.1,0.1-0.2,0.2-0.2s0.2,0.1,0.2,0.2c0,0.6,0.5,1.1,1.1,1.1c0.6,0,1.1-0.5,1.1-1.1
		c0-0.1,0.1-0.2,0.2-0.2s0.2,0.1,0.2,0.2c0,0.6,0.5,1.1,1.1,1.1s1.1-0.5,1.1-1.1c0-0.1,0.1-0.2,0.2-0.2s0.2,0.1,0.2,0.2
		c0,0.6,0.5,1.1,1.1,1.1V28.5z"/>
</g>
</svg>
