<?xml version="1.0" encoding="utf-8"?>
<!-- Generator: Adobe Illustrator 19.0.1, SVG Export Plug-In . SVG Version: 6.00 Build 0)  -->
<!DOCTYPE svg PUBLIC "-//W3C//DTD SVG 1.1//EN" "http://www.w3.org/Graphics/SVG/1.1/DTD/svg11.dtd">
<svg version="1.1" id="Calque_1" xmlns="http://www.w3.org/2000/svg" xmlns:xlink="http://www.w3.org/1999/xlink" x="0px" y="0px"
	 viewBox="-405 279.9 30.2 36.4" style="enable-background:new -405 279.9 30.2 36.4;" xml:space="preserve">
<style type="text/css">
	.st0{fill:#EEACA4;}
	.st1{fill:#DD6B54;}
	.st2{fill:none;}
	.st3{fill:#FFFFFF;}
</style>
<g>
	<g>
		<path class="st0" d="M-404.5,280.4h29.2v11.2c0,10.1-5.6,19.5-14.6,24.2c-9-4.7-14.6-14-14.6-24.2V280.4z"/>
		<path class="st1" d="M-389.9,316.3c-0.1,0-0.2,0-0.2-0.1c-9.2-4.8-14.9-14.3-14.9-24.6v-11.2c0-0.3,0.2-0.5,0.5-0.5h29.2
			c0.3,0,0.5,0.2,0.5,0.5v11.2c0,10.4-5.7,19.8-14.9,24.6C-389.7,316.2-389.8,316.3-389.9,316.3z M-404,280.9v10.7
			c0,9.9,5.4,18.9,14.1,23.6c8.7-4.7,14.1-13.7,14.1-23.6v-10.7H-404z"/>
	</g>
	<g>
		<line class="st2" x1="-404.6" y1="285.3" x2="-375.3" y2="285.3"/>
		<rect x="-404.6" y="284.8" class="st1" width="29.3" height="1"/>
	</g>
</g>
<g>
	<g>
		<circle class="st3" cx="-384.3" cy="295.3" r="1.4"/>
		<path class="st1" d="M-384.3,296.9c-0.9,0-1.6-0.7-1.6-1.6s0.7-1.6,1.6-1.6c0.9,0,1.6,0.7,1.6,1.6S-383.4,296.9-384.3,296.9z
			 M-384.3,294.1c-0.6,0-1.1,0.5-1.1,1.1s0.5,1.1,1.1,1.1c0.6,0,1.1-0.5,1.1-1.1S-383.7,294.1-384.3,294.1z"/>
	</g>
	<g>
		<path class="st3" d="M-384.2,297.8h2.5c0,1.9-0.2,3.5-1.7,3.8v2.8h-0.8h-0.9v-2.8c-1.4-0.4-1.6-1.9-1.6-3.8H-384.2z"/>
		<path class="st1" d="M-383.4,304.5h-1.7c-0.1,0-0.2-0.1-0.2-0.2v-2.6c-1.4-0.4-1.6-2.3-1.6-4c0-0.1,0.1-0.2,0.2-0.2h4.8
			c0.1,0,0.2,0.1,0.2,0.2c0,1.7-0.1,3.5-1.7,4v2.6C-383.3,304.5-383.3,304.5-383.4,304.5z M-384.9,304.1h1.2v-2.6
			c0-0.1,0.1-0.2,0.2-0.2c1.1-0.3,1.5-1.5,1.5-3.3h-4.4c0,1.9,0.3,3.1,1.4,3.3c0.1,0,0.2,0.1,0.2,0.2L-384.9,304.1L-384.9,304.1z"/>
	</g>
	<g>
		<circle class="st3" cx="-389.8" cy="289.7" r="1.4"/>
		<path class="st1" d="M-389.8,291.3c-0.9,0-1.6-0.7-1.6-1.6c0-0.9,0.7-1.6,1.6-1.6c0.9,0,1.6,0.7,1.6,1.6
			C-388.2,290.6-388.9,291.3-389.8,291.3z M-389.8,288.6c-0.6,0-1.1,0.5-1.1,1.1s0.5,1.1,1.1,1.1c0.6,0,1.1-0.5,1.1-1.1
			S-389.2,288.6-389.8,288.6z"/>
	</g>
	<g>
		<path class="st3" d="M-389.8,292.2h2.5c0,1.9-0.2,3.5-1.7,3.9v2.7h-0.8h-0.9v-2.7c-1.4-0.4-1.6-2-1.6-3.9H-389.8z"/>
		<path class="st1" d="M-389,299.1h-1.7c-0.1,0-0.2-0.1-0.2-0.2v-2.6c-1.4-0.4-1.6-2.3-1.6-4.1c0-0.1,0.1-0.2,0.2-0.2h4.8
			c0.1,0,0.2,0.1,0.2,0.2c0,1.8-0.1,3.6-1.7,4.1v2.5C-388.7,299-388.8,299.1-389,299.1z M-390.4,298.6h1.2v-2.6
			c0-0.1,0.1-0.2,0.2-0.2c1.1-0.3,1.5-1.5,1.5-3.4h-4.4c0,1.9,0.3,3.2,1.4,3.4c0.1,0,0.2,0.1,0.2,0.2L-390.4,298.6L-390.4,298.6z"/>
	</g>
	<g>
		<circle class="st3" cx="-395.3" cy="295.3" r="1.4"/>
		<path class="st1" d="M-395.3,296.9c-0.9,0-1.6-0.7-1.6-1.6s0.7-1.6,1.6-1.6c0.9,0,1.6,0.7,1.6,1.6S-394.4,296.9-395.3,296.9z
			 M-395.3,294.1c-0.6,0-1.1,0.5-1.1,1.1s0.5,1.1,1.1,1.1s1.1-0.5,1.1-1.1S-394.7,294.1-395.3,294.1z"/>
	</g>
	<g>
		<path class="st3" d="M-395.3,297.8h2.4c0,1.9-0.1,3.5-1.6,3.9v2.7h-0.8h-0.8v-2.7c-1.4-0.4-1.7-2-1.7-3.9H-395.3z"/>
		<path class="st1" d="M-394.4,304.5h-1.7c-0.1,0-0.2-0.1-0.2-0.2v-2.6c-1.5-0.4-1.7-2.4-1.7-4.1c0-0.1,0.1-0.2,0.2-0.2h4.8
			c0.1,0,0.2,0.1,0.2,0.2c0,1.6,0,3.5-1.6,4.1v2.6C-394.3,304.5-394.4,304.5-394.4,304.5z M-395.9,304.1h1.2v-2.6
			c0-0.1,0.1-0.2,0.2-0.2c1.2-0.3,1.4-1.6,1.4-3.4h-4.4c0,2.1,0.5,3.2,1.5,3.4c0.1,0,0.2,0.1,0.2,0.2L-395.9,304.1L-395.9,304.1z"/>
	</g>
</g>
</svg>
