<svg xmlns="http://www.w3.org/2000/svg" viewBox="0 0 1080 1080"><defs><style>.cls-1{fill:#a7b4bc;}.cls-2{fill:#7293a3;}.cls-3{fill:#5f8193;}.cls-4{fill:#f2f2f2;}.cls-5{fill:#476980;}.cls-6{fill:#1f5066;}.cls-7{fill:#113d56;}</style></defs><g id="Layer_2" data-name="Layer 2"><g id="Layer_1-2" data-name="Layer 1"><ellipse class="cls-1" cx="540" cy="540" rx="499.25" ry="476.83"/><path class="cls-2" d="M716.84,358.15C698,332.81,678.12,308.2,661,281.61c-5.85-4.36-9.46-10.63-13.28-16.52-4.32-6.67-7.66-5.58-11.64-.07-4.12,5.72-7.59,12-13.21,16.48-27.58,39.47-56.62,77.8-86,115.94q-32,43.46-64.08,86.89c-12.49,16.89-25.19,33.61-37.79,50.43Q358.5,637.62,282,740.51q-46.13,62.1-92.07,124.31c0,5,0,10,0,15,90.11,84.7,213.69,137,350.11,137,203.66,0,378.71-116.53,456.37-283.53Q856.58,545.74,716.84,358.15Z"/><path class="cls-3" d="M500.81,530.87c-18.86-25.33-38.71-49.95-55.87-76.54-5.86-4.36-9.47-10.63-13.28-16.52-4.33-6.67-7.66-5.58-11.65-.06-4.12,5.72-7.59,11.95-13.21,16.48-27.58,39.46-56.62,77.8-86,115.93q-32,43.47-64.08,86.89c-12.5,16.89-25.2,33.61-37.8,50.43q-41.62,56-83.29,112C226.35,939,373.62,1016.83,540,1016.83c98.46,0,190.18-27.34,267.53-74.33Q654.17,736.69,500.81,530.87Z"/><path class="cls-4" d="M346.17,168.82c34,.63,79.72,30.13,91.51,80.15,11.6,49.22-13.74,100.34-61.27,120.91-47.2,20.42-99,2.56-123.38-30.79,44.61,1.22,80-15.56,101.56-55S371.38,205.85,346.17,168.82Z"/><path class="cls-5" d="M540,0C241.77,0,0,241.77,0,540s241.77,540,540,540,540-241.77,540-540S838.23,0,540,0Zm0,1016.83C264.27,1016.83,40.75,803.35,40.75,540S264.27,63.17,540,63.17,1039.25,276.65,1039.25,540,815.73,1016.83,540,1016.83Z"/><path class="cls-6" d="M687,195.71h18.43a2.84,2.84,0,0,1,2.61,1.72l32.17,75.06s11,11,21.94,0c9.69-9.69,19.38-28,21.5-32.07a1.55,1.55,0,0,1,1.39-.84h7.65a1.71,1.71,0,0,1,1.62,2.24l-21.2,63.57a112.38,112.38,0,0,0,0,43.88c20.19,101,33.29,125.05,33.29,125.05s-8.73-4.36-11.35-4.4c-13.71-.18,13.53,45.88,13.53,45.88s-2.18,0-13.53-2c-7-1.24-.58,50.26-19.34,64.21a6.12,6.12,0,0,0-2.6,4.89V799L817,842.85H729.27L707.33,656.39l-160.68,14.4s-4.77,51-34.92,87.32l24,41.48L575,843.25l-65.13-.4-54.84-98.71L400.4,605.3s-107,133.16-186.65,149.8c-1.34.28,164.53-164.52,164.53-164.52L707.33,437,685.54,197.33A1.49,1.49,0,0,1,687,195.71Z"/><path class="cls-7" d="M663.46,393.14c-2.58-10.66-32.91,11-32.91,11s-11-43.87,32.91-76.78c0,0-10.75-53.72,20.94-65.46a1.51,1.51,0,0,0,1-1.4v-63a1.81,1.81,0,0,1,1.81-1.81h18a3.15,3.15,0,0,1,2.89,1.9l31.05,72.46a10.41,10.41,0,0,0,4.09,4.74c4,2.47,11.45,5.11,18.89-2.32,9.42-9.42,18.84-26.93,21.31-31.69a2.27,2.27,0,0,1,2-1.22H793a1.48,1.48,0,0,1,1.4,1.95l-21.29,63.86s-1.64,9.58-1.64,27l-2.18,192.1s-4.37,34.93-30.56,43.66c0,0-13.1,10.86-13.1,21.83S706.07,764.5,695.1,797.4l28.38,34.93-71-.45-1-211.3s-89.34,17.47-122.25,17.47S487.9,739.29,402.58,738.46c-11-.1-28.38,61.13-28.38,61.13l26,32.29H334.4s-26.39-13,11-87.74c21.94-43.88,21.94-54.85,21.94-54.85s43.87-11,32.9-54.84c-6.69-26.77-17.28-31.33-23.36-34.89-.8-.47-5.78-3.78-12.15,4.79-42.89,57.71-158,157.95-150.95,150.75,14.19-14.45,79.46-145.71,100.63-188.87,0,0,30.69-96.31,228.42-96.31,0,0,17,2.22,14.77-10.88a73.63,73.63,0,0,0,24,0c10.51-1.75,21.83-8.73,23.53-12.62,1.13-2.59-7.39-7-10.43-7,0,0,16.79-1.31,34.84-19.35S665.6,402,663.46,393.14Z"/></g></g></svg>