<svg xmlns="http://www.w3.org/2000/svg" viewBox="0 0 120 140"><defs><style>.cls-1{fill:#fff;}.cls-2{fill:#006fff;}.cls-3{fill:#ff9d37;}.cls-4{fill:#ffe349;}.cls-5{fill:#d25333;}</style></defs><g id="Layer_2" data-name="Layer 2"><g id="Layer_1-2" data-name="Layer 1"><polygon class="cls-1" points="100 60 100 50 100 40 90 40 90 30 90 20 80 20 80 10 70 10 60 10 50 10 40 10 40 20 30 20 30 30 30 40 20 40 20 50 20 60 10 60 10 70 10 80 10 90 10 100 10 110 20 110 20 120 30 120 40 120 40 130 50 130 60 130 70 130 80 130 80 120 90 120 100 120 100 110 110 110 110 100 110 90 110 80 110 70 110 60 100 60"/><polygon class="cls-2" points="40 50 50 50 50 40 60 40 60 30 60 20 50 20 50 10 40 10 40 20 30 20 30 30 30 40 20 40 20 50 30 50 40 50"/><polygon class="cls-2" points="100 60 100 50 90 50 80 50 80 60 70 60 70 70 60 70 60 80 60 90 70 90 70 100 80 100 90 100 100 100 100 90 110 90 110 80 110 70 110 60 100 60"/><polygon class="cls-2" points="50 100 40 100 40 90 30 90 20 90 20 100 10 100 10 110 20 110 20 120 30 120 40 120 40 130 50 130 60 130 60 120 60 110 50 110 50 100"/><polygon points="60 10 70 10 80 10 80 0 70 0 60 0 50 0 40 0 40 10 50 10 60 10"/><rect x="80" y="10" width="10" height="10"/><polygon points="90 40 100 40 100 30 100 20 90 20 90 30 90 40"/><polygon points="100 60 110 60 110 50 110 40 100 40 100 50 100 60"/><polygon points="110 60 110 70 110 80 110 90 110 100 110 110 120 110 120 100 120 90 120 80 120 70 120 60 110 60"/><polygon points="10 90 10 80 10 70 10 60 0 60 0 70 0 80 0 90 0 100 0 110 10 110 10 100 10 90"/><rect x="10" y="110" width="10" height="10"/><polygon points="30 120 20 120 20 130 30 130 40 130 40 120 30 120"/><polygon points="80 120 80 130 90 130 100 130 100 120 90 120 80 120"/><polygon points="60 130 50 130 40 130 40 140 50 140 60 140 70 140 80 140 80 130 70 130 60 130"/><rect x="100" y="110" width="10" height="10"/><polygon points="20 50 20 40 10 40 10 50 10 60 20 60 20 50"/><polygon points="30 30 30 20 20 20 20 30 20 40 30 40 30 30"/><rect x="30" y="10" width="10" height="10"/><polygon class="cls-3" points="35 7.5 35 5 32.5 5 30 5 27.5 5 25 5 22.5 5 20 5 17.5 5 15 5 12.5 5 10 5 7.5 5 7.5 7.5 5 7.5 5 10 2.5 10 2.5 12.5 2.5 15 5 15 7.5 15 10 15 12.5 15 12.5 12.5 15 12.5 17.5 12.5 20 12.5 22.5 12.5 25 12.5 27.5 12.5 27.5 15 27.5 17.5 27.5 20 25 20 22.5 20 20 20 17.5 20 15 20 12.5 20 10 20 10 22.5 7.5 22.5 7.5 25 5 25 5 27.5 2.5 27.5 2.5 30 2.5 32.5 2.5 35 2.5 37.5 2.5 40 2.5 42.5 2.5 45 2.5 47.5 5 47.5 7.5 47.5 10 47.5 12.5 47.5 15 47.5 17.5 47.5 20 47.5 22.5 47.5 25 47.5 27.5 47.5 30 47.5 32.5 47.5 35 47.5 37.5 47.5 37.5 45 37.5 42.5 37.5 40 37.5 37.5 35 37.5 32.5 37.5 30 37.5 27.5 37.5 25 37.5 22.5 37.5 20 37.5 17.5 37.5 15 37.5 12.5 37.5 12.5 35 12.5 32.5 12.5 30 15 30 17.5 30 20 30 22.5 30 25 30 27.5 30 30 30 30 27.5 32.5 27.5 32.5 25 35 25 35 22.5 37.5 22.5 37.5 20 37.5 17.5 37.5 15 37.5 12.5 37.5 10 37.5 7.5 35 7.5"/><polygon class="cls-3" points="37.5 10 37.5 7.5 35 7.5 32.5 7.5 30 7.5 27.5 7.5 25 7.5 22.5 7.5 20 7.5 17.5 7.5 15 7.5 12.5 7.5 10 7.5 10 10 7.5 10 7.5 12.5 5 12.5 5 15 5 17.5 7.5 17.5 10 17.5 12.5 17.5 15 17.5 15 15 17.5 15 20 15 22.5 15 25 15 27.5 15 30 15 30 17.5 30 20 30 22.5 27.5 22.5 25 22.5 22.5 22.5 20 22.5 17.5 22.5 15 22.5 12.5 22.5 12.5 25 10 25 10 27.5 7.5 27.5 7.5 30 5 30 5 32.5 5 35 5 37.5 5 40 5 42.5 5 45 5 47.5 5 50 7.5 50 10 50 12.5 50 15 50 17.5 50 20 50 22.5 50 25 50 27.5 50 30 50 32.5 50 35 50 37.5 50 40 50 40 47.5 40 45 40 42.5 40 40 37.5 40 35 40 32.5 40 30 40 27.5 40 25 40 22.5 40 20 40 17.5 40 15 40 15 37.5 15 35 15 32.5 17.5 32.5 20 32.5 22.5 32.5 25 32.5 27.5 32.5 30 32.5 32.5 32.5 32.5 30 35 30 35 27.5 37.5 27.5 37.5 25 40 25 40 22.5 40 20 40 17.5 40 15 40 12.5 40 10 37.5 10"/><polygon class="cls-4" points="32.5 5 32.5 2.5 30 2.5 27.5 2.5 25 2.5 22.5 2.5 20 2.5 17.5 2.5 15 2.5 12.5 2.5 10 2.5 7.5 2.5 5 2.5 5 5 2.5 5 2.5 7.5 0 7.5 0 10 0 12.5 2.5 12.5 5 12.5 7.5 12.5 10 12.5 10 10 12.5 10 15 10 17.5 10 20 10 22.5 10 25 10 25 12.5 25 15 25 17.5 22.5 17.5 20 17.5 17.5 17.5 15 17.5 12.5 17.5 10 17.5 7.5 17.5 7.5 20 5 20 5 22.5 2.5 22.5 2.5 25 0 25 0 27.5 0 30 0 32.5 0 35 0 37.5 0 40 0 42.5 0 45 2.5 45 5 45 7.5 45 10 45 12.5 45 15 45 17.5 45 20 45 22.5 45 25 45 27.5 45 30 45 32.5 45 35 45 35 42.5 35 40 35 37.5 35 35 32.5 35 30 35 27.5 35 25 35 22.5 35 20 35 17.5 35 15 35 12.5 35 10 35 10 32.5 10 30 10 27.5 12.5 27.5 15 27.5 17.5 27.5 20 27.5 22.5 27.5 25 27.5 27.5 27.5 27.5 25 30 25 30 22.5 32.5 22.5 32.5 20 35 20 35 17.5 35 15 35 12.5 35 10 35 7.5 35 5 32.5 5"/><rect class="cls-1" y="5" width="2.5" height="2.5"/><rect class="cls-1" x="2.5" y="2.5" width="2.5" height="2.5"/><polygon class="cls-1" points="27.5 0 25 0 22.5 0 20 0 17.5 0 15 0 12.5 0 10 0 7.5 0 5 0 5 2.5 7.5 2.5 10 2.5 12.5 2.5 15 2.5 17.5 2.5 20 2.5 22.5 2.5 25 2.5 27.5 2.5 30 2.5 30 0 27.5 0"/><polygon class="cls-5" points="5 17.5 7.5 17.5 10 17.5 12.5 17.5 15 17.5 15 15 12.5 15 12.5 12.5 15 12.5 15 15 17.5 15 17.5 17.5 20 17.5 22.5 17.5 25 17.5 25 15 25 12.5 25 10 22.5 10 20 10 17.5 10 15 10 12.5 10 10 10 10 12.5 7.5 12.5 5 12.5 2.5 12.5 2.5 15 5 15 5 17.5"/><polygon class="cls-5" points="35 47.5 35 45 32.5 45 30 45 27.5 45 25 45 22.5 45 20 45 17.5 45 15 45 12.5 45 10 45 7.5 45 5 45 2.5 45 2.5 47.5 5 47.5 5 50 7.5 50 10 50 12.5 50 15 50 17.5 50 20 50 22.5 50 25 50 27.5 50 30 50 32.5 50 35 50 37.5 50 37.5 47.5 35 47.5"/><polygon class="cls-5" points="22.5 27.5 20 27.5 17.5 27.5 15 27.5 12.5 27.5 10 27.5 10 30 12.5 30 12.5 32.5 15 32.5 17.5 32.5 20 32.5 22.5 32.5 25 32.5 27.5 32.5 30 32.5 32.5 32.5 32.5 30 30 30 30 27.5 27.5 27.5 25 27.5 22.5 27.5"/><rect class="cls-3" x="15" y="15" width="2.5" height="2.5"/><rect class="cls-3" x="10" y="10" width="2.5" height="2.5"/></g></g></svg>