<?xml version="1.0" encoding="utf-8"?>
<!-- Generator: Adobe Illustrator 19.0.1, SVG Export Plug-In . SVG Version: 6.00 Build 0)  -->
<!DOCTYPE svg PUBLIC "-//W3C//DTD SVG 1.1//EN" "http://www.w3.org/Graphics/SVG/1.1/DTD/svg11.dtd">
<svg version="1.1" id="Calque_1" xmlns="http://www.w3.org/2000/svg" xmlns:xlink="http://www.w3.org/1999/xlink" x="0px" y="0px"
	 viewBox="0 0 37.6 37.6" enable-background="new 0 0 37.6 37.6" xml:space="preserve">
<g>
	<g>
		<path fill="#FCC963" d="M37.1,18.8c0-1.6-1.1-2.8-2.6-3.1c1.3-0.8,1.8-2.4,1.2-3.9c-0.6-1.4-2.1-2.2-3.6-1.9
			c0.9-1.2,0.7-2.9-0.4-4c-1.1-1.1-2.8-1.2-4-0.4c0.3-1.5-0.5-3-1.9-3.6c-1.4-0.6-3.1-0.1-3.9,1.2c-0.3-1.5-1.6-2.6-3.1-2.6
			c-1.6,0-2.8,1.1-3.1,2.6c-0.8-1.3-2.4-1.8-3.9-1.2C10.4,2.5,9.6,4,9.9,5.5C8.7,4.6,7,4.8,5.9,5.9C4.8,7,4.6,8.7,5.5,9.9
			c-1.5-0.3-3,0.5-3.6,1.9c-0.6,1.4-0.1,3.1,1.2,3.9c-1.5,0.3-2.6,1.6-2.6,3.1c0,1.6,1.1,2.8,2.6,3.1c-1.3,0.8-1.8,2.4-1.2,3.9
			C2.5,27.2,4,28,5.5,27.7c-0.8,1.2-0.7,2.9,0.4,4c1.1,1.1,2.8,1.2,4,0.4c-0.3,1.5,0.5,3,1.9,3.6c1.4,0.6,3.1,0.1,3.9-1.2
			c0.3,1.5,1.6,2.6,3.1,2.6c1.6,0,2.8-1.1,3.1-2.6c0.8,1.3,2.4,1.8,3.9,1.2c1.4-0.6,2.2-2.1,1.9-3.6c1.2,0.9,2.9,0.7,4-0.4
			c1.1-1.1,1.2-2.8,0.4-4c1.5,0.3,3-0.5,3.6-1.9c0.6-1.4,0.1-3.1-1.2-3.9C36,21.6,37.1,20.4,37.1,18.8z"/>
		<path fill="#F7A817" d="M18.8,37.6c-1.4,0-2.7-0.8-3.3-2.1c-1,0.9-2.5,1.2-3.9,0.7c-1.3-0.6-2.2-1.8-2.3-3.2
			c-1.3,0.5-2.8,0.2-3.8-0.9c-1-1-1.3-2.5-0.9-3.8C3.3,28.2,2,27.3,1.4,26c-0.6-1.3-0.3-2.8,0.7-3.9C0.8,21.5,0,20.2,0,18.8
			c0-1.4,0.8-2.7,2.1-3.3c-0.9-1-1.2-2.5-0.7-3.9C2,10.3,3.3,9.4,4.6,9.3C4.2,8,4.5,6.5,5.5,5.5c1-1,2.5-1.3,3.8-0.9
			c0.1-1.4,0.9-2.7,2.3-3.2c1.3-0.6,2.8-0.3,3.9,0.7C16.1,0.8,17.4,0,18.8,0s2.7,0.8,3.3,2.1c1-0.9,2.5-1.2,3.9-0.7
			c1.3,0.6,2.2,1.8,2.3,3.2c1.3-0.5,2.8-0.2,3.8,0.9c1,1,1.3,2.5,0.9,3.8c1.4,0.1,2.7,0.9,3.2,2.3s0.3,2.8-0.7,3.9
			c1.3,0.6,2.1,1.9,2.1,3.3s-0.8,2.7-2.1,3.3c0.9,1,1.2,2.5,0.7,3.9c-0.6,1.3-1.8,2.2-3.2,2.3c0.5,1.3,0.2,2.8-0.9,3.8
			c-1,1-2.5,1.3-3.8,0.9c-0.1,1.4-0.9,2.7-2.3,3.2c-1.3,0.6-2.8,0.3-3.9-0.7C21.5,36.7,20.2,37.6,18.8,37.6z M15.7,34
			C15.7,34,15.7,34,15.7,34c0.3,0,0.5,0.2,0.5,0.4c0.2,1.3,1.3,2.2,2.6,2.2c1.3,0,2.4-0.9,2.6-2.2c0-0.2,0.2-0.4,0.4-0.4
			c0.2,0,0.4,0,0.5,0.2c0.7,1.1,2.1,1.5,3.3,1c1.2-0.5,1.9-1.8,1.6-3c0-0.2,0-0.4,0.2-0.5c0.2-0.1,0.4-0.1,0.6,0
			c1.1,0.7,2.5,0.6,3.4-0.3c0.9-0.9,1-2.3,0.3-3.4c-0.1-0.2-0.1-0.4,0-0.6c0.1-0.2,0.3-0.2,0.5-0.2c1.3,0.3,2.5-0.4,3-1.6
			c0.5-1.2,0.1-2.6-1-3.3C34,22.2,34,22,34,21.8c0-0.2,0.2-0.4,0.4-0.4c1.3-0.2,2.2-1.3,2.2-2.6s-0.9-2.4-2.2-2.6
			c-0.2,0-0.4-0.2-0.4-0.4s0-0.4,0.2-0.5c1.1-0.7,1.5-2.1,1-3.3c-0.5-1.2-1.8-1.9-3-1.6c-0.2,0-0.4,0-0.5-0.2
			c-0.1-0.2-0.1-0.4,0-0.6c0.7-1.1,0.6-2.5-0.3-3.4c-0.9-0.9-2.3-1-3.4-0.3c-0.2,0.1-0.4,0.1-0.6,0c-0.2-0.1-0.3-0.3-0.2-0.5
			c0.3-1.3-0.4-2.5-1.6-3c-1.2-0.5-2.6-0.1-3.3,1c-0.1,0.2-0.3,0.3-0.5,0.2c-0.2,0-0.4-0.2-0.4-0.4C21.2,1.9,20.1,1,18.8,1
			c-1.3,0-2.4,0.9-2.6,2.2c0,0.2-0.2,0.4-0.4,0.4c-0.2,0-0.4,0-0.5-0.2c-0.7-1.1-2.1-1.5-3.3-1c-1.2,0.5-1.9,1.8-1.6,3
			c0,0.2,0,0.4-0.2,0.5C10,6,9.8,6,9.6,5.9C8.6,5.2,7.1,5.3,6.2,6.2c-0.9,0.9-1,2.3-0.3,3.4C6,9.8,6,10,5.9,10.2
			c-0.1,0.2-0.3,0.3-0.5,0.2c-1.3-0.3-2.5,0.4-3,1.6c-0.5,1.2-0.1,2.6,1,3.3c0.2,0.1,0.3,0.3,0.2,0.5s-0.2,0.4-0.4,0.4
			C1.9,16.4,1,17.5,1,18.8c0,1.3,0.9,2.4,2.2,2.6c0.2,0,0.4,0.2,0.4,0.4c0,0.2,0,0.4-0.2,0.5c-1.1,0.7-1.5,2.1-1,3.3
			c0.5,1.2,1.8,1.9,3,1.6c0.2,0,0.4,0,0.5,0.2C6,27.6,6,27.8,5.9,28c-0.7,1.1-0.6,2.5,0.3,3.4c0.9,0.9,2.3,1,3.4,0.3
			c0.2-0.1,0.4-0.1,0.6,0c0.2,0.1,0.3,0.3,0.2,0.5c-0.3,1.3,0.4,2.5,1.6,3c1.2,0.5,2.6,0.1,3.3-1C15.3,34.1,15.5,34,15.7,34z"/>
	</g>
</g>
<polygon fill="#FFFFFF" points="11,19.8 11,24.8 18,26.4 20.6,22.6 14.4,20.3 "/>
<g>
	<g>
		<rect x="8.5" y="19.2" fill="#FFFFFF" width="3.7" height="6.7"/>
		<path fill="#F7A817" d="M12.2,26.2H8.5c-0.1,0-0.2-0.1-0.2-0.2v-6.7c0-0.1,0.1-0.2,0.2-0.2h3.7c0.1,0,0.2,0.1,0.2,0.2v6.7
			C12.5,26.1,12.4,26.2,12.2,26.2z M8.8,25.7H12v-6.2H8.8V25.7z"/>
	</g>
	<g>
		<path fill="#FFFFFF" d="M12.2,25.1c9.8,3.3,6.7,3.4,17.9-2.2c-1-1-1.8-1.4-2.8-1.1l-4.1,1.3"/>
		<path fill="#F7A817" d="M20,27.6c-1.2,0-2.6-0.5-4.9-1.3c-0.8-0.3-1.8-0.6-2.9-1l0.2-0.5c1.1,0.4,2.1,0.7,2.9,1
			c5.2,1.8,5.2,1.8,10.6-1c1-0.5,2.3-1.2,3.8-2c-0.9-0.8-1.5-1-2.3-0.8l-4.1,1.3l-0.2-0.5l4.1-1.3c1.2-0.4,2.1,0.2,3.1,1.1
			c0.1,0.1,0.1,0.1,0.1,0.2s-0.1,0.1-0.1,0.2c-1.7,0.8-3,1.6-4.1,2.1C23,26.9,21.6,27.6,20,27.6z"/>
	</g>
	<g>
		<path fill="#FFFFFF" d="M12.2,20h3c2.2,0,3.6,1.1,4.1,1.5c1.2,0,1.3,0,3,0c1.5,0,1.5,2.2,0,2.2h-5.2"/>
		<path fill="#F7A817" d="M22.3,23.9h-5.2v-0.5h5.2c0.3,0,0.5-0.1,0.6-0.3c0.1-0.2,0.2-0.4,0.2-0.6c0-0.4-0.3-0.9-0.9-0.9l-1.4,0
			c-0.5,0-0.8,0-1.6,0c-0.1,0-0.1,0-0.2-0.1c-1.2-1-2.5-1.4-3.9-1.4h-3v-0.5h3c1.5,0,2.9,0.5,4.2,1.5c0.7,0,1,0,1.5,0l1.4,0
			c0.9,0,1.4,0.7,1.4,1.4C23.7,23.2,23.2,23.9,22.3,23.9z"/>
	</g>
	<g>
		<line fill="#FFFFFF" x1="19.7" y1="15.1" x2="19.7" y2="17.3"/>
		<rect x="19.5" y="15.1" fill="#F7A817" width="0.5" height="2.2"/>
	</g>
	<g>
		<line fill="#FFFFFF" x1="24.2" y1="8.4" x2="24.2" y2="10.6"/>
		<rect x="23.9" y="8.4" fill="#F7A817" width="0.5" height="2.2"/>
	</g>
	<g>
		<circle fill="#FFFFFF" cx="19.7" cy="16.2" r="2.6"/>
		<path fill="#F7A817" d="M19.7,19.1c-1.6,0-2.9-1.3-2.9-2.9s1.3-2.9,2.9-2.9s2.9,1.3,2.9,2.9S21.3,19.1,19.7,19.1z M19.7,13.9
			c-1.3,0-2.4,1.1-2.4,2.4s1.1,2.4,2.4,2.4s2.4-1.1,2.4-2.4S21,13.9,19.7,13.9z"/>
	</g>
	<g>
		<circle fill="#FFFFFF" cx="24.2" cy="9.5" r="2.6"/>
		<path fill="#F7A817" d="M24.2,12.4c-1.6,0-2.9-1.3-2.9-2.9s1.3-2.9,2.9-2.9S27,7.9,27,9.5S25.8,12.4,24.2,12.4z M24.2,7.2
			c-1.3,0-2.4,1.1-2.4,2.4s1.1,2.4,2.4,2.4s2.4-1.1,2.4-2.4S25.5,7.2,24.2,7.2z"/>
	</g>
</g>
</svg>
