<?xml version="1.0" encoding="utf-8"?>
<!-- Generator: Adobe Illustrator 19.0.1, SVG Export Plug-In . SVG Version: 6.00 Build 0)  -->
<!DOCTYPE svg PUBLIC "-//W3C//DTD SVG 1.1//EN" "http://www.w3.org/Graphics/SVG/1.1/DTD/svg11.dtd">
<svg version="1.1" id="Calque_1" xmlns="http://www.w3.org/2000/svg" xmlns:xlink="http://www.w3.org/1999/xlink" x="0px" y="0px"
	 viewBox="0 0 30.2 36.4" enable-background="new 0 0 30.2 36.4" xml:space="preserve">
<g>
	<g>
		<path fill="#EEACA4" d="M0.5,0.5h29.2v11.2c0,10.1-5.6,19.5-14.6,24.2c-9-4.7-14.6-14-14.6-24.2V0.5z"/>
		<path fill="#DD6B54" d="M15.1,36.4c-0.1,0-0.2,0-0.2-0.1C5.7,31.5,0,22,0,11.7V0.5C0,0.2,0.2,0,0.5,0h29.2c0.3,0,0.5,0.2,0.5,0.5
			v11.2c0,10.4-5.7,19.8-14.9,24.6C15.3,36.3,15.2,36.4,15.1,36.4z M1,1v10.7c0,9.9,5.4,18.9,14.1,23.6c8.7-4.7,14.1-13.7,14.1-23.6
			V1H1z"/>
	</g>
	<g>
		<line fill="#EEACA4" x1="0.4" y1="5.4" x2="29.7" y2="5.4"/>
		<rect x="0.4" y="4.9" fill="#DD6B54" width="29.3" height="1"/>
	</g>
</g>
<g>
	<g>
		<path fill="#FFFFFF" d="M10.8,11.8v-1.5c0-0.5,0.5-1,1-1h6.6c0.5,0,1,0.5,1,1v1.5"/>
		<path fill="#DD6B54" d="M19.6,11.8h-0.5v-1.5c0-0.4-0.4-0.8-0.8-0.8h-6.6c-0.4,0-0.8,0.4-0.8,0.8v1.5h-0.5v-1.5
			c0-0.7,0.6-1.3,1.3-1.3h6.6c0.7,0,1.3,0.6,1.3,1.3V11.8z"/>
	</g>
	<g>
		<polyline fill="#FFFFFF" points="18.1,11.8 19.4,11.8 22.4,19.4 7.7,19.4 10.8,11.8 12.1,11.8 		"/>
		<path fill="#DD6B54" d="M22.4,19.7H7.7c-0.1,0-0.2,0-0.2-0.1c0-0.1-0.1-0.2,0-0.2l3-7.6c0-0.1,0.1-0.2,0.2-0.2h1.3v0.5h-1.2
			l-2.8,7.1h14l-2.8-7.1h-1.2v-0.5h1.3c0.1,0,0.2,0.1,0.2,0.2l3,7.6c0,0.1,0,0.2,0,0.2C22.6,19.7,22.5,19.7,22.4,19.7z"/>
	</g>
	<g>
		<path fill="#FFFFFF" d="M22.4,22.5c0,0.5-0.5,1-1,1H8.7c-0.5,0-1-0.5-1-1v-3h14.7V22.5z"/>
		<path fill="#DD6B54" d="M21.4,23.8H8.7c-0.7,0-1.3-0.6-1.3-1.3v-3c0-0.1,0.1-0.2,0.2-0.2h14.7c0.1,0,0.2,0.1,0.2,0.2v3
			C22.7,23.2,22.1,23.8,21.4,23.8z M8,19.7v2.8c0,0.4,0.4,0.8,0.8,0.8h12.7c0.4,0,0.8-0.4,0.8-0.8v-2.8H8z"/>
	</g>
	<g>
		<line fill="#FFFFFF" x1="9.7" y1="14.4" x2="20.4" y2="14.4"/>
		<rect x="9.7" y="14.1" fill="#DD6B54" width="10.7" height="0.5"/>
	</g>
	<g>
		<line fill="#FFFFFF" x1="9.7" y1="23.5" x2="9.7" y2="24"/>
		<rect x="9.5" y="23.5" fill="#DD6B54" width="0.5" height="0.5"/>
	</g>
	<g>
		<line fill="#FFFFFF" x1="20.4" y1="23.5" x2="20.4" y2="24"/>
		<rect x="20.2" y="23.5" fill="#DD6B54" width="0.5" height="0.5"/>
	</g>
	<g>
		<polygon fill="#FFFFFF" points="18.6,13.4 11.5,13.4 12.3,11.3 17.9,11.3 		"/>
		<path fill="#DD6B54" d="M18.6,13.6h-7.1c-0.1,0-0.2,0-0.2-0.1c0-0.1-0.1-0.2,0-0.2l0.8-2c0-0.1,0.1-0.2,0.2-0.2h5.6
			c0.1,0,0.2,0.1,0.2,0.2l0.8,2c0,0.1,0,0.2,0,0.2C18.8,13.6,18.7,13.6,18.6,13.6z M11.9,13.1h6.4l-0.6-1.5h-5.2L11.9,13.1z"/>
	</g>
</g>
</svg>
