<?xml version="1.0" encoding="utf-8"?>
<!-- Generator: Adobe Illustrator 19.0.1, SVG Export Plug-In . SVG Version: 6.00 Build 0)  -->
<!DOCTYPE svg PUBLIC "-//W3C//DTD SVG 1.1//EN" "http://www.w3.org/Graphics/SVG/1.1/DTD/svg11.dtd">
<svg version="1.1" id="Calque_1" xmlns="http://www.w3.org/2000/svg" xmlns:xlink="http://www.w3.org/1999/xlink" x="0px" y="0px"
	 viewBox="0 0 41.2 41.2" enable-background="new 0 0 41.2 41.2" xml:space="preserve">
<g>
	<circle fill="#B9ABCC" cx="20.6" cy="20.6" r="20.1"/>
	<path fill="#876B9F" d="M20.6,41.2C9.2,41.2,0,31.9,0,20.6S9.2,0,20.6,0c11.3,0,20.6,9.2,20.6,20.6S31.9,41.2,20.6,41.2z M20.6,1
		C9.8,1,1,9.8,1,20.6c0,10.8,8.8,19.6,19.6,19.6s19.6-8.8,19.6-19.6C40.2,9.8,31.4,1,20.6,1z"/>
</g>
<g>
	<g>
		<path fill="#FFFFFF" d="M29.3,18v-4.9c0-1.2-1-2.2-2.2-2.2H12.8c-1.2,0-2.2,1-2.2,2.2v10.5c0,1.2,1,2.2,2.2,2.2h4.5"/>
		<path fill="#876B9F" d="M17.2,26.4h-4.5c-1.5,0-2.8-1.2-2.8-2.8V13.1c0-1.5,1.2-2.8,2.8-2.8H27c1.5,0,2.8,1.2,2.8,2.8V18h-1v-4.9
			c0-1-0.8-1.8-1.8-1.8H12.8c-1,0-1.8,0.8-1.8,1.8v10.5c0,1,0.8,1.8,1.8,1.8h4.5V26.4z"/>
	</g>
	<g>
		<circle fill="#FFFFFF" cx="26.3" cy="26.6" r="6"/>
		<path fill="#876B9F" d="M26.3,33.1c-3.6,0-6.5-2.9-6.5-6.5s2.9-6.5,6.5-6.5s6.5,2.9,6.5,6.5S29.8,33.1,26.3,33.1z M26.3,21.1
			c-3,0-5.5,2.5-5.5,5.5s2.5,5.5,5.5,5.5c3,0,5.5-2.5,5.5-5.5S29.3,21.1,26.3,21.1z"/>
	</g>
	<g>
		<polyline fill="#FFFFFF" points="29.3,24.4 25.9,28.5 23.6,26.3 		"/>
		<path fill="#876B9F" d="M25.9,29c-0.1,0-0.3-0.1-0.4-0.1l-2.2-2.2l0.7-0.7l1.9,1.9l3-3.7l0.8,0.6l-3.4,4.1
			C26.2,28.9,26,29,25.9,29C25.9,29,25.9,29,25.9,29z"/>
	</g>
	<g>
		<line fill="#FFFFFF" x1="10.5" y1="14.6" x2="29.3" y2="14.6"/>
		<rect x="10.5" y="14.1" fill="#876B9F" width="18.8" height="1"/>
	</g>
	<g>
		<circle fill="#FFFFFF" cx="13.1" cy="12.8" r="0.4"/>
		<circle fill="#876B9F" cx="13.1" cy="12.8" r="0.9"/>
	</g>
	<g>
		<circle fill="#FFFFFF" cx="15.4" cy="12.8" r="0.4"/>
		<circle fill="#876B9F" cx="15.4" cy="12.8" r="0.9"/>
	</g>
	<g>
		<circle fill="#FFFFFF" cx="17.6" cy="12.8" r="0.4"/>
		<circle fill="#876B9F" cx="17.6" cy="12.8" r="0.9"/>
	</g>
</g>
</svg>
