<svg width="30.200000000000003" height="36.4" xmlns="http://www.w3.org/2000/svg">
 <g>
  <title>Layer 1</title>
  <g id="svg_1">
   <g id="svg_2">
    <path fill="#EEACA4" d="m0.5,0.5l29.2,0l0,11.2c0,10.1 -5.6,19.5 -14.6,24.2c-9,-4.7 -14.6,-14 -14.6,-24.2l0,-11.2z" id="svg_3"/>
    <path fill="#DD6B54" d="m15.1,36.4c-0.1,0 -0.2,0 -0.2,-0.1c-9.2,-4.8 -14.9,-14.3 -14.9,-24.6l0,-11.2c0,-0.3 0.2,-0.5 0.5,-0.5l29.2,0c0.3,0 0.5,0.2 0.5,0.5l0,11.2c0,10.4 -5.7,19.8 -14.9,24.6c0,0 -0.1,0.1 -0.2,0.1zm-14.1,-35.4l0,10.7c0,9.9 5.4,18.9 14.1,23.6c8.7,-4.7 14.1,-13.7 14.1,-23.6l0,-10.7l-28.2,0z" id="svg_4"/>
   </g>
   <g id="svg_5">
    <line fill="#EEACA4" x1="0.4" y1="5.4" x2="29.7" y2="5.4" id="svg_6"/>
    <rect x="0.4" y="4.9" fill="#DD6B54" width="29.3" height="1" id="svg_7"/>
   </g>
  </g>
  <g stroke="null" id="svg_15">
   <g stroke="null" transform="matrix(0.0354447 0 0 0.0356175 -4.44322 -4.26444)" id="svg_12">
    <circle stroke="null" fill="#ffffff" id="svg_13" r="75.217" cy="659.52357" cx="551.68302"/>
    <path stroke="null" fill="#ffffff" id="svg_14" d="m772.87202,511.21457l-124.282,0l-3.718,-29c0,-16.568 -13.432,-30 -30,-30l-128,0c-16.568,0 -30,13.432 -30,30l-3.718,29l-123.282,0c-11.046,0 -20,8.454 -20,19.5l0,258c0,11.046 8.954,20.5 20,20.5l443,0c11.046,0 20,-9.454 20,-20.5l0,-258c0,-11.046 -8.954,-19.5 -20,-19.5zm-221.405,271.562c-67.928,0 -122.994,-55.066 -122.994,-122.993c0,-67.928 55.066,-122.994 122.994,-122.994c67.928,0 122.994,55.066 122.994,122.994c0,67.926 -55.066,122.993 -122.994,122.993zm218.405,-218.562l-105,0l0,-31l105,0l0,31z"/>
   </g>
  </g>
 </g>

</svg>