<?xml version="1.0" encoding="utf-8"?>
<!-- Generator: Adobe Illustrator 19.0.1, SVG Export Plug-In . SVG Version: 6.00 Build 0)  -->
<!DOCTYPE svg PUBLIC "-//W3C//DTD SVG 1.1//EN" "http://www.w3.org/Graphics/SVG/1.1/DTD/svg11.dtd">
<svg version="1.1" id="Calque_1" xmlns="http://www.w3.org/2000/svg" xmlns:xlink="http://www.w3.org/1999/xlink" x="0px" y="0px"
	 viewBox="0 0 37 37" enable-background="new 0 0 37 37" xml:space="preserve">
<g>
	<g>
		<path fill="#60C0C4" d="M36.5,30.3c0,3.5-2.8,6.2-6.2,6.2H6.7c-3.5,0-6.2-2.7-6.2-6.2V6.7c0-3.5,2.8-6.2,6.2-6.2h23.6
			c3.5,0,6.2,2.8,6.2,6.2V30.3z"/>
		<path fill="#24B4B7" d="M30.3,37H6.7C2.9,37,0,34.1,0,30.3V6.7C0,2.9,2.9,0,6.7,0h23.6C34.1,0,37,2.9,37,6.7v23.6
			C37,34.1,34.1,37,30.3,37z M6.7,1C3.5,1,1,3.5,1,6.7v23.6C1,33.5,3.5,36,6.7,36h23.6c3.2,0,5.7-2.5,5.7-5.7V6.7
			C36,3.5,33.5,1,30.3,1H6.7z"/>
	</g>
</g>
<g>
	<g>
		<rect x="9.3" y="11.8" fill="#FFFFFF" width="18.5" height="13.4"/>
		<path fill="#24B4B7" d="M27.8,25.5H9.3c-0.1,0-0.2-0.1-0.2-0.2V11.8c0-0.1,0.1-0.2,0.2-0.2h18.5c0.1,0,0.2,0.1,0.2,0.2v13.4
			C28,25.3,27.9,25.5,27.8,25.5z M9.5,25h18V12.1h-18V25z"/>
	</g>
	<g>
		<rect x="9.3" y="9.3" fill="#FFFFFF" width="18.5" height="2.6"/>
		<path fill="#24B4B7" d="M27.8,12.1H9.3C9.1,12.1,9,12,9,11.8V9.3C9,9.1,9.1,9,9.3,9h18.5C27.9,9,28,9.1,28,9.3v2.6
			C28,12,27.9,12.1,27.8,12.1z M9.5,11.6h18V9.5h-18V11.6z"/>
	</g>
	<g>
		<line fill="#FFFFFF" x1="22" y1="9.3" x2="22" y2="11.8"/>
		<rect x="21.8" y="9.3" fill="#24B4B7" width="0.5" height="2.6"/>
	</g>
	<g>
		<line fill="#FFFFFF" x1="15" y1="9.3" x2="15" y2="11.8"/>
		<rect x="14.8" y="9.3" fill="#24B4B7" width="0.5" height="2.6"/>
	</g>
	<g>
		<rect x="9.3" y="25.2" fill="#FFFFFF" width="18.5" height="2.6"/>
		<path fill="#24B4B7" d="M27.8,28H9.3C9.1,28,9,27.9,9,27.8v-2.6C9,25.1,9.1,25,9.3,25h18.5c0.1,0,0.2,0.1,0.2,0.2v2.6
			C28,27.9,27.9,28,27.8,28z M9.5,27.5h18v-2.1h-18V27.5z"/>
	</g>
	<g>
		<line fill="#FFFFFF" x1="22" y1="25.2" x2="22" y2="27.8"/>
		<rect x="21.8" y="25.2" fill="#24B4B7" width="0.5" height="2.6"/>
	</g>
	<g>
		<line fill="#FFFFFF" x1="15" y1="25.2" x2="15" y2="27.8"/>
		<rect x="14.8" y="25.2" fill="#24B4B7" width="0.5" height="2.6"/>
	</g>
	<g>
		<circle fill="#FFFFFF" cx="18.5" cy="18.5" r="4.5"/>
		<path fill="#24B4B7" d="M18.5,23.2c-2.6,0-4.7-2.1-4.7-4.7s2.1-4.7,4.7-4.7s4.7,2.1,4.7,4.7S21.1,23.2,18.5,23.2z M18.5,14.3
			c-2.3,0-4.2,1.9-4.2,4.2s1.9,4.2,4.2,4.2c2.3,0,4.2-1.9,4.2-4.2S20.8,14.3,18.5,14.3z"/>
	</g>
	<g>
		<polygon fill="#FFFFFF" points="17.6,20.1 17.6,16.9 20.5,18.5 		"/>
		<path fill="#24B4B7" d="M17.6,20.4c0,0-0.1,0-0.1,0c-0.1,0-0.1-0.1-0.1-0.2v-3.2c0-0.1,0-0.2,0.1-0.2c0.1,0,0.2,0,0.2,0l3,1.6
			c0.1,0,0.1,0.1,0.1,0.2s0,0.2-0.1,0.2l-3,1.6C17.6,20.4,17.6,20.4,17.6,20.4z M17.8,17.3v2.4l2.2-1.2L17.8,17.3z"/>
	</g>
</g>
</svg>
