<?xml version="1.0" encoding="utf-8"?>
<!-- Generator: Adobe Illustrator 19.0.1, SVG Export Plug-In . SVG Version: 6.00 Build 0)  -->
<!DOCTYPE svg PUBLIC "-//W3C//DTD SVG 1.1//EN" "http://www.w3.org/Graphics/SVG/1.1/DTD/svg11.dtd">
<svg version="1.1" id="Calque_1" xmlns="http://www.w3.org/2000/svg" xmlns:xlink="http://www.w3.org/1999/xlink" x="0px" y="0px"
	 viewBox="0 0 37 37" enable-background="new 0 0 37 37" xml:space="preserve">
<g>
	<g>
		<path fill="#60C0C4" d="M36.5,30.3c0,3.5-2.8,6.2-6.2,6.2H6.7c-3.5,0-6.2-2.7-6.2-6.2V6.7c0-3.5,2.8-6.2,6.2-6.2h23.6
			c3.5,0,6.2,2.8,6.2,6.2V30.3z"/>
		<path fill="#24B4B7" d="M30.3,37H6.7C2.9,37,0,34.1,0,30.3V6.7C0,2.9,2.9,0,6.7,0h23.6C34.1,0,37,2.9,37,6.7v23.6
			C37,34.1,34.1,37,30.3,37z M6.7,1C3.5,1,1,3.5,1,6.7v23.6C1,33.5,3.5,36,6.7,36h23.6c3.2,0,5.7-2.5,5.7-5.7V6.7
			C36,3.5,33.5,1,30.3,1H6.7z"/>
	</g>
</g>
<polygon fill="#FFFFFF" points="20.7,12.5 20.7,7.5 20.7,6.9 16.7,6.9 16.7,12.8 19,12.6 20.5,12.9 "/>
<polygon fill="#FFFFFF" points="20.7,23.3 20.7,28.3 20.7,28.9 16.7,28.9 16.7,23 19,23.2 20.5,22.9 "/>
<polygon fill="#FFFFFF" points="24.1,15.9 29.1,15.9 29.7,15.9 29.7,19.9 23.8,19.9 24,17.6 23.7,16.1 "/>
<polygon fill="#FFFFFF" points="13.7,15.9 8.7,15.9 7.7,15.9 7.7,19.9 14.1,19.9 13.7,17.6 14,16.1 "/>
<g>
	<g>
		<g>
			<path fill="#FFFFFF" d="M16.9,13.1V7.3c-4.3,0.8-7.7,4.2-8.6,8.6h5.8"/>
			<path fill="#24B4B7" d="M14.1,16.1H8.3c-0.1,0-0.1,0-0.2-0.1s-0.1-0.1-0.1-0.2c0.8-4.4,4.3-7.9,8.8-8.8c0.1,0,0.1,0,0.2,0.1
				s0.1,0.1,0.1,0.2v5.8h-0.5V7.6c-4,0.9-7.1,4-8,8h5.5V16.1z"/>
		</g>
		<g>
			<path fill="#FFFFFF" d="M23.6,15.9h5.8c-0.8-4.3-4.2-7.7-8.6-8.6v5.8"/>
			<path fill="#24B4B7" d="M29.4,16.1h-5.8v-0.5h5.5c-0.9-4-4-7.1-8-8v5.5h-0.5V7.3c0-0.1,0-0.1,0.1-0.2c0.1,0,0.1-0.1,0.2-0.1
				c4.4,0.8,7.9,4.3,8.8,8.8c0,0.1,0,0.1-0.1,0.2S29.5,16.1,29.4,16.1z"/>
		</g>
		<g>
			<path fill="#FFFFFF" d="M20.8,22.6v5.8c4.3-0.8,7.7-4.2,8.6-8.6h-5.8"/>
			<path fill="#24B4B7" d="M20.8,28.7c-0.1,0-0.1,0-0.2-0.1c-0.1,0-0.1-0.1-0.1-0.2v-5.8h0.5v5.5c4-0.9,7.1-4,8-8h-5.5v-0.5h5.8
				c0.1,0,0.1,0,0.2,0.1s0.1,0.1,0.1,0.2C28.8,24.3,25.3,27.8,20.8,28.7C20.9,28.7,20.9,28.7,20.8,28.7z"/>
		</g>
		<g>
			<path fill="#FFFFFF" d="M14.1,19.9H8.3c0.8,4.3,4.2,7.7,8.6,8.6v-5.8"/>
			<path fill="#24B4B7" d="M16.9,28.7C16.9,28.7,16.8,28.7,16.9,28.7c-4.5-0.8-8-4.3-8.8-8.8c0-0.1,0-0.1,0.1-0.2s0.1-0.1,0.2-0.1
				h5.8v0.5H8.6c0.9,4,4,7.1,8,8v-5.5h0.5v5.8c0,0.1,0,0.1-0.1,0.2C17,28.6,16.9,28.7,16.9,28.7z"/>
		</g>
	</g>
	<path fill="#24B4B7" d="M18.9,23.3c-3,0-5.4-2.4-5.4-5.4s2.4-5.4,5.4-5.4s5.4,2.4,5.4,5.4S21.8,23.3,18.9,23.3z M18.9,13
		c-2.7,0-4.9,2.2-4.9,4.9c0,2.7,2.2,4.9,4.9,4.9c2.7,0,4.9-2.2,4.9-4.9C23.8,15.2,21.6,13,18.9,13z"/>
	<g>
		<polyline fill="#FFFFFF" points="8.3,19.9 7.3,19.9 7.3,15.9 8.3,15.9 		"/>
		<path fill="#24B4B7" d="M8.3,20.1h-1c-0.1,0-0.2-0.1-0.2-0.2v-4c0-0.1,0.1-0.2,0.2-0.2h1v0.5H7.6v3.5h0.7V20.1z"/>
	</g>
	<g>
		<polyline fill="#FFFFFF" points="20.8,28.4 20.8,29.4 16.9,29.4 16.9,28.4 		"/>
		<path fill="#24B4B7" d="M20.8,29.6h-4c-0.1,0-0.2-0.1-0.2-0.2v-1h0.5v0.7h3.5v-0.7h0.5v1C21.1,29.5,21,29.6,20.8,29.6z"/>
	</g>
	<g>
		<polyline fill="#FFFFFF" points="29.4,15.9 30.4,15.9 30.4,19.9 29.4,19.9 		"/>
		<path fill="#24B4B7" d="M30.4,20.1h-1v-0.5h0.7v-3.5h-0.7v-0.5h1c0.1,0,0.2,0.1,0.2,0.2v4C30.6,20,30.5,20.1,30.4,20.1z"/>
	</g>
	<g>
		<polyline fill="#FFFFFF" points="16.9,7.3 16.9,6.4 20.8,6.4 20.8,7.3 		"/>
		<path fill="#24B4B7" d="M21.1,7.3h-0.5V6.6h-3.5v0.7h-0.5v-1c0-0.1,0.1-0.2,0.2-0.2h4c0.1,0,0.2,0.1,0.2,0.2V7.3z"/>
	</g>
</g>
</svg>
