<?xml version="1.0" encoding="utf-8"?>
<!-- Generator: Adobe Illustrator 19.0.1, SVG Export Plug-In . SVG Version: 6.00 Build 0)  -->
<!DOCTYPE svg PUBLIC "-//W3C//DTD SVG 1.1//EN" "http://www.w3.org/Graphics/SVG/1.1/DTD/svg11.dtd">
<svg version="1.1" id="Calque_1" xmlns="http://www.w3.org/2000/svg" xmlns:xlink="http://www.w3.org/1999/xlink" x="0px" y="0px"
	 viewBox="0 0 37.6 37.6" enable-background="new 0 0 37.6 37.6" xml:space="preserve">
<g>
	<g>
		<path fill="#FCC963" d="M37.1,18.8c0-1.6-1.1-2.8-2.6-3.1c1.3-0.8,1.8-2.4,1.2-3.9c-0.6-1.4-2.1-2.2-3.6-1.9
			c0.9-1.2,0.7-2.9-0.4-4c-1.1-1.1-2.8-1.2-4-0.4c0.3-1.5-0.5-3-1.9-3.6c-1.4-0.6-3.1-0.1-3.9,1.2c-0.3-1.5-1.6-2.6-3.1-2.6
			c-1.6,0-2.8,1.1-3.1,2.6c-0.8-1.3-2.4-1.8-3.9-1.2C10.4,2.5,9.6,4,9.9,5.5C8.7,4.6,7,4.8,5.9,5.9C4.8,7,4.6,8.7,5.5,9.9
			c-1.5-0.3-3,0.5-3.6,1.9c-0.6,1.4-0.1,3.1,1.2,3.9c-1.5,0.3-2.6,1.6-2.6,3.1c0,1.6,1.1,2.8,2.6,3.1c-1.3,0.8-1.8,2.4-1.2,3.9
			C2.5,27.2,4,28,5.5,27.7c-0.8,1.2-0.7,2.9,0.4,4c1.1,1.1,2.8,1.2,4,0.4c-0.3,1.5,0.5,3,1.9,3.6c1.4,0.6,3.1,0.1,3.9-1.2
			c0.3,1.5,1.6,2.6,3.1,2.6c1.6,0,2.8-1.1,3.1-2.6c0.8,1.3,2.4,1.8,3.9,1.2c1.4-0.6,2.2-2.1,1.9-3.6c1.2,0.9,2.9,0.7,4-0.4
			c1.1-1.1,1.2-2.8,0.4-4c1.5,0.3,3-0.5,3.6-1.9c0.6-1.4,0.1-3.1-1.2-3.9C36,21.6,37.1,20.4,37.1,18.8z"/>
		<path fill="#F7A817" d="M18.8,37.6c-1.4,0-2.7-0.8-3.3-2.1c-1,0.9-2.5,1.2-3.9,0.7c-1.3-0.6-2.2-1.8-2.3-3.2
			c-1.3,0.5-2.8,0.2-3.8-0.9c-1-1-1.3-2.5-0.9-3.8C3.3,28.2,2,27.3,1.4,26c-0.6-1.3-0.3-2.8,0.7-3.9C0.8,21.5,0,20.2,0,18.8
			c0-1.4,0.8-2.7,2.1-3.3c-0.9-1-1.2-2.5-0.7-3.9C2,10.3,3.3,9.4,4.6,9.3C4.2,8,4.5,6.5,5.5,5.5c1-1,2.5-1.3,3.8-0.9
			c0.1-1.4,0.9-2.7,2.3-3.2c1.3-0.6,2.8-0.3,3.9,0.7C16.1,0.8,17.4,0,18.8,0c1.4,0,2.7,0.8,3.3,2.1c1-0.9,2.5-1.2,3.9-0.7
			c1.3,0.6,2.2,1.8,2.3,3.2c1.3-0.5,2.8-0.2,3.8,0.9c1,1,1.3,2.5,0.9,3.8c1.4,0.1,2.7,0.9,3.2,2.3s0.3,2.8-0.7,3.9
			c1.3,0.6,2.1,1.9,2.1,3.3c0,1.4-0.8,2.7-2.1,3.3c0.9,1,1.2,2.5,0.7,3.9c-0.6,1.3-1.8,2.2-3.2,2.3c0.5,1.3,0.2,2.8-0.9,3.8
			c-1,1-2.5,1.3-3.8,0.9c-0.1,1.4-0.9,2.7-2.3,3.2c-1.3,0.6-2.8,0.3-3.9-0.7C21.5,36.7,20.2,37.6,18.8,37.6z M15.7,34
			C15.7,34,15.7,34,15.7,34c0.3,0,0.5,0.2,0.5,0.4c0.2,1.3,1.3,2.2,2.6,2.2c1.3,0,2.4-0.9,2.6-2.2c0-0.2,0.2-0.4,0.4-0.4
			c0.2,0,0.4,0,0.5,0.2c0.7,1.1,2.1,1.5,3.3,1s1.9-1.8,1.6-3c0-0.2,0-0.4,0.2-0.5c0.2-0.1,0.4-0.1,0.6,0c1.1,0.7,2.5,0.6,3.4-0.3
			c0.9-0.9,1-2.3,0.3-3.4c-0.1-0.2-0.1-0.4,0-0.6c0.1-0.2,0.3-0.3,0.5-0.2c1.3,0.3,2.5-0.4,3-1.6s0.1-2.6-1-3.3
			C34,22.2,34,22,34,21.8s0.2-0.4,0.4-0.4c1.3-0.2,2.2-1.3,2.2-2.6c0-1.3-0.9-2.4-2.2-2.6c-0.2,0-0.4-0.2-0.4-0.4s0-0.4,0.2-0.5
			c1.1-0.7,1.5-2.1,1-3.3c-0.5-1.2-1.8-1.9-3-1.6c-0.2,0-0.4,0-0.5-0.2c-0.1-0.2-0.1-0.4,0-0.6c0.7-1.1,0.6-2.5-0.3-3.4
			c-0.9-0.9-2.3-1-3.4-0.3c-0.2,0.1-0.4,0.1-0.6,0c-0.2-0.1-0.3-0.3-0.2-0.5c0.3-1.3-0.4-2.5-1.6-3c-1.2-0.5-2.6-0.1-3.3,1
			c-0.1,0.2-0.3,0.3-0.5,0.2c-0.2,0-0.4-0.2-0.4-0.4C21.2,1.9,20.1,1,18.8,1c-1.3,0-2.4,0.9-2.6,2.2c0,0.2-0.2,0.4-0.4,0.4
			c-0.2,0-0.4,0-0.5-0.2c-0.7-1.1-2.1-1.5-3.3-1c-1.2,0.5-1.9,1.8-1.6,3c0,0.2,0,0.4-0.2,0.5C10,6,9.8,6,9.6,5.9
			C8.6,5.2,7.1,5.3,6.2,6.2c-0.9,0.9-1,2.3-0.3,3.4C6,9.8,6,10,5.9,10.2c-0.1,0.2-0.3,0.3-0.5,0.2c-1.3-0.3-2.5,0.4-3,1.6
			c-0.5,1.2-0.1,2.6,1,3.3c0.2,0.1,0.3,0.3,0.2,0.5s-0.2,0.4-0.4,0.4C1.9,16.4,1,17.5,1,18.8c0,1.3,0.9,2.4,2.2,2.6
			c0.2,0,0.4,0.2,0.4,0.4c0,0.2,0,0.4-0.2,0.5c-1.1,0.7-1.5,2.1-1,3.3c0.5,1.2,1.8,1.9,3,1.6c0.2,0,0.4,0,0.5,0.2
			C6,27.6,6,27.8,5.9,28c-0.7,1.1-0.6,2.5,0.3,3.4c0.9,0.9,2.3,1,3.4,0.3c0.2-0.1,0.4-0.1,0.6,0c0.2,0.1,0.3,0.3,0.2,0.5
			c-0.3,1.3,0.4,2.5,1.6,3c1.2,0.5,2.6,0.1,3.3-1C15.3,34.1,15.5,34,15.7,34z"/>
	</g>
</g>
<g>
	<g>
		<path fill="#FFFFFF" d="M25.1,22.3L25.1,22.3c0.7,0,1.3,0.3,1.3,1c0,0.7-0.3,1.3-1.3,1.3h-1c0.7,0,1.3,0.3,1.3,1.3
			c0,0.6-0.6,1-1,1c0,0-3.2,0-5.2,0c-3.2,0-2.7-1.3-9.1-1.3c0-0.4,0-7,0-7h2.2c2.8,0,6.3-2.8,6.3-6.7c0-1.3,2.2-1.4,2.2,1
			c0,1.6-0.6,4.4-0.6,4.4h6.3c0.7,0,1.3,0.6,1.3,1.3c0,0.7-0.6,1.3-1.3,1.3h-1c0.7,0,1.6,0.6,1.6,1.3c0,0.7-0.6,1.3-1.3,1.3H25.1"/>
		<path fill="#F7A817" d="M24.4,27h-5.2c-1.4,0-2.1-0.2-2.9-0.5c-1.1-0.3-2.5-0.8-6.2-0.8c-0.1,0-0.2-0.1-0.2-0.2v-7
			c0-0.1,0.1-0.2,0.2-0.2h2.2c2.8,0,6.1-2.9,6.1-6.4c0-0.7,0.5-1.2,1.2-1.2c0.4,0,0.8,0.2,1.1,0.5c0.3,0.4,0.5,0.9,0.5,1.6
			c0,1.3-0.4,3.4-0.6,4.2h6c0.8,0,1.5,0.7,1.5,1.5c0,0.7-0.6,1.3-1.2,1.5c0.3,0.3,0.6,0.7,0.6,1c0,0.7-0.6,1.3-1.2,1.5
			c0.2,0.2,0.3,0.4,0.3,0.7c0,0.9-0.5,1.4-1.3,1.5c0.2,0.3,0.3,0.6,0.3,1C25.6,26.6,24.9,27,24.4,27z M10.4,25.2
			c3.6,0,5,0.5,6.1,0.8c0.8,0.2,1.5,0.5,2.7,0.5h5.2c0.2,0,0.7-0.2,0.7-0.7c0-0.7-0.3-1-1-1c-0.1,0-0.2-0.1-0.2-0.2s0.1-0.2,0.2-0.2
			h1c0.7,0,1-0.3,1-1c0-0.5-0.5-0.7-1-0.7c-0.1,0-0.2-0.1-0.2-0.2s0.1-0.2,0.2-0.2h1c0.5,0,1-0.5,1-1c0-0.5-0.8-1-1.3-1
			c-0.1,0-0.2-0.1-0.2-0.2s0.1-0.2,0.2-0.2h1c0.5,0,1-0.5,1-1c0-0.5-0.5-1-1-1h-6.3c-0.1,0-0.1,0-0.2-0.1c0-0.1-0.1-0.1,0-0.2
			c0,0,0.6-2.8,0.6-4.4c0-0.5-0.1-1-0.4-1.3c-0.2-0.2-0.4-0.3-0.7-0.3c-0.3,0-0.7,0.2-0.7,0.7c0,3.9-3.5,6.9-6.6,6.9h-2V25.2z"/>
	</g>
</g>
</svg>
