<?xml version="1.0" encoding="utf-8"?>
<!-- Generator: Adobe Illustrator 19.0.1, SVG Export Plug-In . SVG Version: 6.00 Build 0)  -->
<!DOCTYPE svg PUBLIC "-//W3C//DTD SVG 1.1//EN" "http://www.w3.org/Graphics/SVG/1.1/DTD/svg11.dtd">
<svg version="1.1" id="Calque_1" xmlns="http://www.w3.org/2000/svg" xmlns:xlink="http://www.w3.org/1999/xlink" x="0px" y="0px"
	 viewBox="0 0 41.2 41.4" enable-background="new 0 0 41.2 41.4" xml:space="preserve">
<g>
	<circle fill="#B9ABCC" cx="20.6" cy="20.6" r="20.1"/>
	<path fill="#876B9F" d="M20.6,41.2C9.2,41.2,0,31.9,0,20.6S9.2,0,20.6,0c11.3,0,20.6,9.2,20.6,20.6S31.9,41.2,20.6,41.2z M20.6,1
		C9.8,1,1,9.8,1,20.6c0,10.8,8.8,19.6,19.6,19.6s19.6-8.8,19.6-19.6C40.2,9.8,31.4,1,20.6,1z"/>
</g>
<g>
	<g>
		<path fill="#FFFFFF" d="M30.3,26.1c0,1.1-0.9,2-2,2H12.9c-1.1,0-2-0.9-2-2V15.4c0-1.1,0.9-2,2-2h15.4c1.1,0,2,0.9,2,2V26.1z"/>
		<path fill="#876B9F" d="M28.3,28.6H12.9c-1.4,0-2.5-1.1-2.5-2.5V15.4c0-1.4,1.1-2.5,2.5-2.5h15.4c1.4,0,2.5,1.1,2.5,2.5v10.7
			C30.8,27.5,29.7,28.6,28.3,28.6z M12.9,13.9c-0.8,0-1.5,0.7-1.5,1.5v10.7c0,0.8,0.7,1.5,1.5,1.5h15.4c0.8,0,1.5-0.7,1.5-1.5V15.4
			c0-0.8-0.7-1.5-1.5-1.5H12.9z"/>
	</g>
	<g>
		<line fill="#FFFFFF" x1="26.6" y1="19.4" x2="17.9" y2="19.4"/>
		<rect x="17.9" y="18.9" fill="#876B9F" width="8.7" height="1"/>
	</g>
	<g>
		<line fill="#FFFFFF" x1="13.9" y1="19.4" x2="15.2" y2="19.4"/>
		<rect x="13.9" y="18.9" fill="#876B9F" width="1.3" height="1"/>
	</g>
	<g>
		<line fill="#FFFFFF" x1="26.6" y1="22.1" x2="17.9" y2="22.1"/>
		<rect x="17.9" y="21.6" fill="#876B9F" width="8.7" height="1"/>
	</g>
	<g>
		<line fill="#FFFFFF" x1="13.9" y1="22.1" x2="15.2" y2="22.1"/>
		<rect x="13.9" y="21.6" fill="#876B9F" width="1.3" height="1"/>
	</g>
	<g>
		<line fill="#FFFFFF" x1="26.6" y1="24.8" x2="17.9" y2="24.8"/>
		<rect x="17.9" y="24.3" fill="#876B9F" width="8.7" height="1"/>
	</g>
	<g>
		<line fill="#FFFFFF" x1="13.9" y1="24.8" x2="15.2" y2="24.8"/>
		<rect x="13.9" y="24.3" fill="#876B9F" width="1.3" height="1"/>
	</g>
	<g>
		<line fill="#FFFFFF" x1="10.9" y1="16.7" x2="30.3" y2="16.7"/>
		<rect x="10.9" y="16.2" fill="#876B9F" width="19.5" height="1"/>
	</g>
	<g>
		<circle fill="#FFFFFF" cx="13.2" cy="15" r="0.3"/>
		<path fill="#876B9F" d="M13.2,15.9c-0.5,0-0.8-0.4-0.8-0.8s0.4-0.8,0.8-0.8S14,14.6,14,15S13.7,15.9,13.2,15.9z M13.2,14.9
			c-0.1,0-0.2,0.1-0.2,0.2c0,0.2,0.3,0.2,0.3,0C13.4,14.9,13.3,14.9,13.2,14.9z"/>
	</g>
	<g>
		<circle fill="#FFFFFF" cx="15.2" cy="15" r="0.3"/>
		<path fill="#876B9F" d="M15.2,15.9c-0.5,0-0.8-0.4-0.8-0.8s0.4-0.8,0.8-0.8c0.5,0,0.8,0.4,0.8,0.8S15.7,15.9,15.2,15.9z
			 M15.2,14.9c-0.1,0-0.2,0.1-0.2,0.2c0,0.2,0.3,0.2,0.3,0C15.4,14.9,15.3,14.9,15.2,14.9z"/>
	</g>
	<g>
		<circle fill="#FFFFFF" cx="17.2" cy="15" r="0.3"/>
		<path fill="#876B9F" d="M17.2,15.9c-0.5,0-0.8-0.4-0.8-0.8s0.4-0.8,0.8-0.8s0.8,0.4,0.8,0.8S17.7,15.9,17.2,15.9z M17.2,14.9
			c-0.1,0-0.2,0.1-0.2,0.2c0,0.2,0.3,0.2,0.3,0C17.4,14.9,17.3,14.9,17.2,14.9z"/>
	</g>
</g>
</svg>
